<svg width="152" height="144" viewBox="0 0 152 144" fill="none" xmlns="http://www.w3.org/2000/svg">
<path d="M130.377 91.3501L108.2 78.527L114.554 66.7253C114.586 66.6642 114.615 66.6019 114.641 66.5388C114.647 66.5231 114.652 66.507 114.658 66.4913C114.676 66.4428 114.693 66.394 114.707 66.3446C114.712 66.326 114.716 66.3072 114.721 66.2885C114.733 66.2411 114.744 66.1935 114.752 66.1454C114.756 66.1252 114.758 66.105 114.761 66.0849C114.768 66.0379 114.773 65.991 114.776 65.944C114.777 65.9225 114.779 65.9012 114.779 65.8799C114.781 65.8334 114.78 65.7872 114.779 65.7408C114.778 65.7192 114.777 65.6975 114.776 65.6758C114.773 65.6275 114.767 65.5799 114.76 65.5322C114.757 65.513 114.755 65.4937 114.752 65.4747C114.74 65.4087 114.726 65.3433 114.708 65.2791C114.706 65.2728 114.703 65.2667 114.701 65.2603C114.684 65.2019 114.664 65.1444 114.642 65.0879C114.64 65.0827 114.639 65.0774 114.636 65.0723L100.606 30.71C100.612 30.699 100.6 30.7209 100.606 30.71L100.6 30.7209C100.606 30.71 100.595 30.7318 100.6 30.7209L100.606 30.71C100.6 30.7209 100.6 30.721 100.606 30.71L97.3609 28.8334L61.7783 34.508C61.7731 34.5088 61.768 34.5104 61.7626 34.5114C61.7042 34.5213 61.6466 34.534 61.5898 34.5494C61.5838 34.5511 61.5773 34.552 61.5711 34.5536C61.5087 34.5714 61.4475 34.5929 61.3872 34.6174C61.3698 34.6244 61.353 34.6329 61.3358 34.6406C61.293 34.6596 61.2509 34.6794 61.2093 34.7017C61.1906 34.7117 61.1728 34.7228 61.1546 34.7334C61.1156 34.7562 61.0774 34.7802 61.04 34.806C61.0228 34.818 61.0061 34.83 60.9891 34.8425C60.9522 34.87 60.9162 34.899 60.8812 34.9297C60.8661 34.9429 60.851 34.9558 60.8363 34.9694C60.8013 35.0017 60.768 35.0363 60.7351 35.072C60.7222 35.0859 60.709 35.0994 60.6964 35.1138C60.6633 35.1522 60.6324 35.1927 60.602 35.2345C60.5922 35.2479 60.5813 35.2607 60.572 35.2744C60.5337 35.3301 60.4974 35.3881 60.4645 35.4492L54.1113 47.2511L31.9348 34.428C31.0386 33.9098 29.9134 34.2305 29.4215 35.1442L3.89036 82.5716C3.39849 83.4853 3.72626 84.6461 4.62241 85.1643L103.065 142.086C103.961 142.605 105.086 142.284 105.578 141.37L131.109 93.9429C131.601 93.0292 131.273 91.8683 130.377 91.3501ZM42.6433 102.81L44.4246 99.5014L70.3873 114.514L68.6061 117.823L42.6433 102.81ZM83.2518 90.6164L72.1686 111.205L60.8099 104.637L71.8931 84.0484L83.2518 90.6164ZM57.5645 102.76L46.2058 96.1925L57.2891 75.6039L68.6478 82.1719L57.5645 102.76ZM87.3878 90.8385C87.8796 89.9248 87.5519 88.7639 86.6557 88.2457L57.4476 71.3568C56.5515 70.8386 55.4262 71.1592 54.9343 72.0729L39.398 100.934L8.02632 82.7937L27.0262 47.4989L47.5801 59.3837L31.252 89.7152C30.7602 90.6289 31.0879 91.7897 31.9841 92.3079C32.8802 92.8261 34.0055 92.5054 34.4974 91.5917L62.8191 38.9804L92.5681 56.1822C93.4641 56.7002 94.5892 56.3798 95.0812 55.4664C95.5733 54.5523 95.2455 53.3914 94.3494 52.8733L67.6426 37.4306L97.4168 32.6822L109.157 61.4352L100.84 56.6264C99.9439 56.1082 98.8186 56.4288 98.3268 57.3425C97.835 58.2566 98.1629 59.4172 99.0588 59.9353L110.418 66.5032L82.0958 119.115C81.6039 120.028 81.9317 121.189 82.8278 121.707C83.724 122.225 84.8493 121.905 85.3411 120.991L101.669 90.6596L122.223 102.544L103.223 137.839L71.8514 119.699L87.3878 90.8385ZM124.004 99.2356L103.45 87.3507L106.419 81.8359L126.973 93.7208L124.004 99.2356ZM49.3613 56.0748L28.8075 44.19L31.7762 38.6752L52.3301 50.56L49.3613 56.0748Z" fill="#0a61f7" fill-opacity="0.8"/>
<path d="M30.906 56.2254C30.0052 55.705 28.8741 56.027 28.3797 56.9445L24.7988 63.5897C24.3044 64.5072 24.6339 65.6729 25.5347 66.1932C26.4354 66.7135 27.5665 66.3915 28.0609 65.474L31.6418 58.8288C32.1362 57.9113 31.8067 56.7457 30.906 56.2254Z" fill="#0a61f7" fill-opacity="0.8"/>
<path d="M38.7985 60.7674C37.8978 60.247 36.7667 60.569 36.2723 61.4865L32.6914 68.1317C32.197 69.0492 32.5265 70.2148 33.4272 70.7352C34.328 71.2555 35.4591 70.9335 35.9535 70.016L39.5344 63.3708C40.0288 62.4533 39.6995 61.2878 38.7985 60.7674Z" fill="#0a61f7" fill-opacity="0.8"/>
<path d="M107.694 113.481C108.595 114.002 109.726 113.68 110.221 112.762L113.801 106.117C114.296 105.199 113.966 104.034 113.066 103.513C112.165 102.993 111.034 103.315 110.539 104.233L106.958 110.878C106.464 111.795 106.794 112.961 107.694 113.481Z" fill="#0a61f7" fill-opacity="0.8"/>
<path d="M99.8013 108.937C100.702 109.458 101.833 109.136 102.328 108.218L105.908 101.573C106.403 100.655 106.073 99.4898 105.173 98.9695C104.272 98.4492 103.141 98.7712 102.646 99.6886L99.0654 106.334C98.571 107.251 98.9003 108.417 99.8013 108.937Z" fill="#0a61f7" fill-opacity="0.8"/>
<path d="M83.6863 58.2132C79.3484 55.7048 73.8823 57.2625 71.5015 61.6855C69.1206 66.1084 70.7127 71.7476 75.0506 74.256C79.3884 76.7644 84.8545 75.2067 87.2353 70.7837C89.6162 66.3607 88.0241 60.7216 83.6863 58.2132ZM76.8331 70.9446C74.2861 69.4718 73.3513 66.1607 74.7492 63.5638C76.1471 60.9668 79.3567 60.052 81.9036 61.5248C84.4506 62.9976 85.3854 66.3086 83.9875 68.9056C82.5896 71.5026 79.38 72.4174 76.8331 70.9446Z" fill="#0a61f7" fill-opacity="0.8"/>
</svg>
