<?xml version="1.0" encoding="utf-8"?>
<!-- Generator: Adobe Illustrator 22.0.1, SVG Export Plug-In . SVG Version: 6.00 Build 0)  -->
<svg version="1.1" id="Layer_1" xmlns="http://www.w3.org/2000/svg" xmlns:xlink="http://www.w3.org/1999/xlink" x="0px" y="0px"
	 viewBox="0 0 400 300" style="enable-background:new 0 0 400 300;" xml:space="preserve">
<style type="text/css">
	.st0{fill:#725858;}
	.st1{fill:#093F68;}
	.st2{fill:#E8601C;}
	.st3{fill:#FFC9B0;}
	.st4{fill:#FFFFFF;}
	.st5{fill:#FEB917;}
	.st6{fill:#649BFA;}
	.st7{fill:#DFEAEF;}
	.st8{fill:#00A57F;}
</style>
<g id="_116_team_meeting_outline">
	<path class="st0" d="M108.1,139.3c-1.5-0.5-2.9-1.4-4.1-2.5c-2.1-2.1-3.4-4.9-4.6-7.7c2.2,0.5,4.6-0.1,6.3-1.6
		c-3.8,0.5-7.6-0.5-10.7-2.6c3.1-0.3,5.3-3.2,6.4-6.2s1.8-6.1,3.8-8.5c2.6-3.1,5.7-3.2,9.4-2.9c-0.1-6,3.5-11.7,9.9-12
		c10.3-0.5,16.2,10.5,21.9,9.7s7.3-3.4,7.3-3.4c2,3.8,1.5,8.3-1.2,11.6c0,0,4.5-1.3,5.1,4.7s-3.1,22-3.1,22l-4.1-0.7
		c-1.7-0.3-3.9,0.1-5.6,0.2l-12.8,0.4C125.5,140,115.1,142,108.1,139.3z"/>
	<path class="st1" d="M117.4,141.7c-3.3,0.1-6.5-0.4-9.6-1.4l0,0c-1.6-0.6-3.2-1.5-4.4-2.8c-2.3-2.3-3.6-5.3-4.8-8
		c-0.1-0.3-0.1-0.7,0.2-1c0.2-0.3,0.6-0.4,1-0.3c0.3,0.1,0.5,0.1,0.8,0.1c-2.2-0.4-4.2-1.3-6.1-2.6c-0.5-0.3-0.6-0.9-0.3-1.4
		c0.2-0.2,0.4-0.4,0.7-0.4c3.2-0.3,5-3.9,5.6-5.5c0.3-0.8,0.6-1.6,0.9-2.4c0.6-2.3,1.7-4.5,3.1-6.4c2.7-3.2,5.8-3.5,9.2-3.3
		c0.3-5.8,4-11.6,10.8-11.9c6.1-0.3,10.8,3.2,14.5,6c2.8,2.1,5.2,3.9,7.3,3.6c5.1-0.7,6.6-2.9,6.6-2.9c0.3-0.5,0.9-0.6,1.4-0.3
		c0.1,0.1,0.3,0.2,0.3,0.3c1.8,3.5,1.7,7.6-0.2,11.1c0.6,0.1,1.2,0.3,1.8,0.7c1.4,0.9,2.2,2.6,2.4,5c0.6,6.1-2.9,21.7-3.1,22.3
		c-0.1,0.5-0.6,0.8-1.1,0.8l-4.1-0.7c-1.2-0.1-2.4-0.1-3.6,0.1c-0.6,0.1-1.3,0.1-1.9,0.1l-12.8,0.4c-1.6,0.1-3.5,0.2-5.4,0.4
		C123.7,141.4,120.5,141.7,117.4,141.7z M108.5,138.4c5,1.9,12.1,1.3,17.9,0.8c2-0.2,3.9-0.4,5.5-0.4l12.8-0.4
		c0.6,0,1.1-0.1,1.7-0.1c1.4-0.2,2.7-0.2,4.1,0l0,0l3.2,0.6c0.7-3.5,3.3-15.8,2.8-20.8c-0.1-1.7-0.7-2.9-1.5-3.5
		c-0.7-0.4-1.5-0.5-2.3-0.4c-0.4,0.1-0.9,0-1.1-0.4c-0.2-0.4-0.2-0.8,0.1-1.2c2.1-2.6,2.8-6.1,1.7-9.2c-2,1.5-4.3,2.4-6.8,2.6
		c-2.9,0.4-5.6-1.6-8.8-4c-3.7-2.8-7.8-5.9-13.2-5.6c-6,0.3-9.1,5.8-8.9,11c0,0.3-0.1,0.6-0.3,0.8c-0.2,0.2-0.5,0.3-0.8,0.3
		c-3.4-0.3-6.2-0.3-8.5,2.5c-1.2,1.7-2.2,3.7-2.7,5.8c-0.3,0.8-0.6,1.7-0.9,2.5c-0.6,1.5-2.1,4.7-4.9,6.1c2.5,1.2,5.3,1.7,8.1,1.3
		c0.5-0.1,1.1,0.3,1.1,0.9c0,0.3-0.1,0.7-0.3,0.9c-1.5,1.3-3.3,2-5.3,2.1c0.9,2.1,2.1,4.1,3.7,5.8
		C105.8,137.1,107.1,137.9,108.5,138.4L108.5,138.4z"/>
	<path class="st1" d="M108.1,203.1l-0.4,20.1c3.9,4.9,33.4-7.8,33.4-7.8l1.2-23.9L108.1,203.1z"/>
	<path class="st1" d="M111.5,225.3c-2.1,0-3.7-0.4-4.5-1.4c-0.1-0.2-0.2-0.4-0.2-0.6l0.4-20.1c0-0.4,0.3-0.8,0.7-0.9l34.2-11.6
		c0.3-0.1,0.7-0.1,0.9,0.1c0.3,0.2,0.4,0.5,0.4,0.9l-1.2,23.9c0,0.4-0.3,0.7-0.6,0.9C137.4,218.1,120.2,225.3,111.5,225.3z
		 M108.7,222.8c2.1,1.4,12.8-0.1,31.4-8.1l1.1-21.8l-32.1,10.9L108.7,222.8z"/>
	<path class="st2" d="M119.9,158.4h11c5.8,0,10.1-2.2,12.6,3.8c2.9,7.2,1.4,14.9-0.3,22.1c-0.9,3.9-0.3,8.4-0.3,18.9h-34.7v-32.9
		C108.1,163.7,113.4,158.4,119.9,158.4C119.9,158.4,119.9,158.4,119.9,158.4z"/>
	<path class="st1" d="M142.8,204.1h-34.7c-0.6,0-1-0.4-1-1v-32.9c0-7.1,5.7-12.8,12.8-12.8h11c1.3,0,2.4-0.1,3.6-0.2
		c4-0.4,7.7-0.7,9.9,4.6c3,7.5,1.5,15.3-0.3,22.7c-0.6,2.5-0.5,5.3-0.4,10c0.1,2.3,0.1,5.2,0.1,8.6
		C143.8,203.7,143.3,204.1,142.8,204.1C142.8,204.1,142.8,204.1,142.8,204.1z M109.1,202.1h32.7c0-3-0.1-5.5-0.1-7.6
		c-0.1-4.9-0.2-7.8,0.5-10.5c1.7-7.1,3.2-14.5,0.4-21.4c-1.6-4-4-3.8-7.9-3.4c-1.1,0.1-2.4,0.2-3.8,0.2h-11c-6,0-10.8,4.8-10.8,10.8
		V202.1z"/>
	<path class="st3" d="M127.4,156.3l7.4-0.3l0,0l0.2,4.2c0.1,1.7-1.3,3.2-3,3.3c0,0,0,0,0,0l-1.1,0c-1.7,0.1-3.2-1.3-3.3-3l0,0
		C127.6,160.5,127.4,156.3,127.4,156.3z"/>
	<path class="st1" d="M130.7,164.5c-2.2,0-4-1.8-4.1-4l-0.2-4.3c0-0.3,0.1-0.5,0.3-0.7c0.2-0.2,0.4-0.3,0.7-0.3l7.4-0.3
		c0.6,0,1,0.4,1,1l0.2,4.3c0.1,2.3-1.7,4.2-4,4.3c0,0,0,0,0,0l0,0L130.7,164.5L130.7,164.5z M131.9,163.5L131.9,163.5z M128.4,157.2
		l0.1,3.3c0.1,1.2,1.1,2.1,2.2,2h1.1c1.2-0.1,2-1.1,2-2.2l-0.1-3.3L128.4,157.2z"/>
	<path class="st3" d="M116.4,137.5c0.1,3.4-3,6.3-6.9,6.5s-7.3-4.3-7.5-7.7s3-4.5,7-4.7S116.3,134.1,116.4,137.5z"/>
	<path class="st1" d="M109.3,145c-4.3,0-8.1-4.7-8.3-8.6c-0.1-2.5,1.2-5.4,7.9-5.7c4.5-0.2,8.3,2.9,8.4,6.8l0,0
		c0.1,2-0.8,3.9-2.2,5.2c-1.5,1.4-3.5,2.2-5.6,2.3L109.3,145z M109.3,132.6H109c-6.1,0.3-6,2.7-6,3.6c0.1,3.1,3.2,6.9,6.4,6.7
		c1.6,0,3.1-0.7,4.3-1.8c1.1-0.9,1.6-2.3,1.6-3.7C115.3,134.8,112.6,132.6,109.3,132.6L109.3,132.6z"/>
	<path class="st3" d="M158,134.1c0.1,3.4-2.9,8.1-6.8,8.3s-7.3-2.5-7.4-5.9s3-6.3,6.9-6.5S157.9,130.7,158,134.1z"/>
	<path class="st1" d="M150.9,143.3c-4.3,0-7.9-3-8.1-6.9c-0.1-2,0.8-3.9,2.2-5.2c1.5-1.4,3.5-2.2,5.6-2.3c1.9-0.2,3.8,0.1,5.6,0.8
		c1.7,0.7,2.8,2.4,2.8,4.2l0,0c0.2,4-3.4,9.1-7.8,9.3L150.9,143.3z M151.6,130.9h-0.8c-1.6,0-3.1,0.7-4.3,1.7
		c-1,0.9-1.6,2.3-1.6,3.7c0.1,2.9,2.9,5.1,6.4,4.9c3.3-0.1,6-4.1,5.9-7.2c0-1.1-0.6-2.1-1.6-2.5
		C154.2,131.1,152.9,130.9,151.6,130.9L151.6,130.9z"/>
	<path class="st3" d="M131.1,157.1L131.1,157.1c-11.9,0.5-21.9-8.8-22.4-20.7c0,0,0,0,0,0l-0.4-10c-0.2-5.2,7.3-15.2,12.5-15.4
		c0,0,1,4.9,9.4,8.8c5.9,2.8,13.9,2.7,21-2.8l0.7,17.6C152.3,146.5,143.1,156.6,131.1,157.1C131.2,157.1,131.1,157.1,131.1,157.1z"
		/>
	<path class="st1" d="M130.3,158.1c-12.1,0-22.1-9.6-22.5-21.7l-0.4-10c-0.1-3.2,2.2-7.4,4.4-10.2c3-3.8,6.3-6.1,9-6.2
		c0.5,0,0.9,0.3,1,0.8c0,0,1.1,4.5,8.8,8.2c4.9,2.3,12.7,2.9,19.9-2.6c0.3-0.2,0.7-0.3,1-0.1c0.3,0.2,0.6,0.5,0.6,0.9l0.7,17.6
		c0.5,12.5-9.2,23-21.6,23.5l0,0C130.9,158.1,130.6,158.1,130.3,158.1z M131.1,157.1L131.1,157.1z M120.1,112.1
		c-2,0.5-4.5,2.4-6.8,5.3c-2.5,3.2-4.1,6.8-4,8.9l0.4,10c0.5,11.4,10,20.2,21.4,19.8l0,0c11.4-0.5,20.2-10.1,19.7-21.4l-0.6-15.7
		c-6,4.1-13.8,4.8-20.5,1.8C123.1,117.5,120.8,113.7,120.1,112.1L120.1,112.1z"/>
	<path class="st1" d="M137.3,127c-1.1,0-2-0.9-2-2s0.9-2,2-2l9.5-0.3c1.1,0,2,0.8,2.1,1.9s-0.8,2-1.9,2.1L137.3,127L137.3,127z"/>
	<path class="st1" d="M114.3,127.9c-1.1,0-2-0.9-2-2c0-1.1,0.9-2,2-2l9.5-0.3c1.1,0,2,0.8,2.1,1.9c0,0,0,0,0,0c0,1.1-0.8,2-1.9,2.1
		c0,0,0,0,0,0L114.3,127.9L114.3,127.9z"/>
	<path class="st4" d="M139.4,143.8l-15.9,0.6c0,0,1.8,7.4,7.8,6.8C139.8,150.4,139.4,143.8,139.4,143.8z"/>
	<path class="st1" d="M130.6,152.3c-4.9,0-7.4-4.9-8.1-7.6c-0.1-0.5,0.2-1.1,0.7-1.2c0.1,0,0.1,0,0.2,0l15.9-0.6c0.5,0,1,0.4,1,0.9
		c0,0.1,0.4,7.5-9,8.5C131.1,152.3,130.8,152.3,130.6,152.3z M124.8,145.4c0.7,1.9,2.6,5.2,6.3,4.9c5.6-0.6,6.9-3.8,7.1-5.4
		L124.8,145.4z"/>
	<path class="st1" d="M132.7,141.8c-0.5,0-1,0-1.6-0.1c-0.6-0.1-0.9-0.6-0.9-1.1c0.1-0.6,0.6-0.9,1.1-0.9c0.8,0.1,1.7,0.1,2.5,0
		c-0.4-1.5-1-2.9-1.8-4.2c-0.3-0.5-0.1-1.1,0.4-1.4c0.5-0.3,1.1-0.1,1.4,0.4c1,1.7,2.5,4.7,1.9,6.1c-0.2,0.4-0.5,0.7-0.9,0.9
		C134.2,141.8,133.4,141.8,132.7,141.8z"/>
	
		<ellipse transform="matrix(0.9992 -3.995740e-02 3.995740e-02 0.9992 -5.1939 5.7698)" class="st1" cx="141.7" cy="132.8" rx="1.9" ry="1.9"/>
	
		<ellipse transform="matrix(0.9992 -3.995740e-02 3.995740e-02 0.9992 -5.2709 5.1132)" class="st1" cx="125.3" cy="134.4" rx="1.9" ry="1.9"/>
	<path class="st1" d="M291.5,198.8l-1.1,24.6c-4,4.9-30.7-8-30.7-8l-1.2-23.9L291.5,198.8z"/>
	<path class="st1" d="M286.9,225.5c-8.2,0-23.9-7.4-27.6-9.1c-0.3-0.2-0.5-0.5-0.6-0.9l-1.2-23.9c0-0.3,0.1-0.6,0.4-0.8
		c0.2-0.2,0.6-0.3,0.9-0.2l33,7.4c0.5,0.1,0.8,0.5,0.8,1l-1.1,24.6c0,0.2-0.1,0.4-0.2,0.6C290.4,225.1,288.9,225.5,286.9,225.5z
		 M260.7,214.8c16.9,8.1,26.8,9.7,28.7,8.2l1.1-23.3l-30.9-6.9L260.7,214.8z"/>
	<path class="st0" d="M304.8,162c0.1-0.3,0.1-0.6,0.1-0.9c0.4-4-1.9-7.6-3.2-11.4c-2.6-8,0.1-16.7-0.5-25.1
		c-0.6-8.7-8.2-27.3-19.9-24.2c-0.6,0.2-1.2,0.3-1.8,0.3c-0.6-0.2-1.2-0.5-1.7-1c-2.1-1.7-4.6-2.8-7.3-3c-5.5-0.6-11.5,1.6-15.7,4.7
		c-6.5,4.7-9.9,11.8-10.6,19.6c-0.6,7-1.2,14-1.8,21c-0.5,5.8-1.5,11.9-0.6,17.5L304.8,162z"/>
	<path class="st1" d="M304.8,163L304.8,163l-62.9-2.5c-0.5,0-0.9-0.4-0.9-0.8c-0.7-4.6-0.2-9.4,0.2-14.2c0.1-1.2,0.2-2.4,0.3-3.5
		l1.8-21.1c0.7-8.7,4.6-15.7,11-20.4c3.9-2.8,10.2-5.5,16.4-4.8c2.9,0.3,5.6,1.4,7.9,3.3l0.1,0.1c0.3,0.3,0.7,0.5,1.1,0.7
		c0.3,0,0.7-0.1,1-0.2l0.4-0.1c3.3-0.9,6.8-0.2,9.5,1.9c6.8,4.8,11.1,16.5,11.6,23.2c0.2,3.3,0.1,6.7-0.3,10
		c-0.4,5.2-0.8,10.2,0.8,14.9c0.3,1.1,0.8,2.2,1.2,3.2c1.1,2.7,2.3,5.6,2,8.6c0,0.3-0.1,0.5-0.1,0.8v0.2
		C305.7,162.7,305.2,163,304.8,163z M242.7,158.5l61.2,2.5c0.3-2.5-0.8-5-1.8-7.5c-0.5-1.1-0.9-2.3-1.3-3.4
		c-1.6-5.1-1.2-10.5-0.8-15.7c0.3-3.2,0.4-6.4,0.3-9.7c-0.5-6.2-4.5-17.2-10.8-21.7c-2.2-1.7-5.1-2.3-7.9-1.6l-0.3,0.1
		c-1.4,0.6-3,0.2-3.9-0.9l-0.1-0.1c-1.9-1.6-4.3-2.6-6.8-2.8c-5.6-0.6-11.5,1.9-15,4.5c-6,4.3-9.5,10.8-10.2,18.9l-1.8,21
		c-0.1,1.2-0.2,2.4-0.3,3.6C242.6,150,242.2,154.5,242.7,158.5L242.7,158.5z"/>
	<path class="st5" d="M280.9,158.4H270c-5.8,0-10.1-2.2-12.6,3.8c-2.9,7.2-1.4,14.9,0.3,22.1c0.9,3.9,0.3,8.4,0.3,12.4l33.5,2.1
		l1.2-28.6C292.8,163.7,287.5,158.4,280.9,158.4C280.9,158.4,280.9,158.4,280.9,158.4z"/>
	<path class="st1" d="M291.5,199.8L291.5,199.8l-33.6-2.1c-0.5,0-0.9-0.5-0.9-1c0-1.1,0-2.3,0.1-3.5c0.3-2.9,0.1-5.8-0.4-8.7
		c-1.8-7.4-3.3-15.2-0.3-22.7c2.2-5.3,5.9-5,9.9-4.6c1.1,0.1,2.3,0.2,3.6,0.2h11c7.1,0,12.8,5.7,12.8,12.8l-1.2,28.7
		c0,0.3-0.1,0.5-0.3,0.7C292.1,199.8,291.8,199.9,291.5,199.8z M259,195.8l31.6,2l1.1-27.6c0-6-4.9-10.8-10.8-10.8H270
		c-1.4,0-2.6-0.1-3.8-0.2c-3.9-0.4-6.3-0.6-7.9,3.4c-2.8,6.9-1.4,14.4,0.4,21.4c0.6,3,0.7,6.2,0.5,9.3
		C259.1,194.1,259,195,259,195.8z"/>
	<path class="st1" d="M266,159.9c0,0,1.2,18,2.7,22l4.4-22H266z"/>
	<path class="st1" d="M268.7,182.9c-0.4,0-0.8-0.3-0.9-0.6c-1.6-4.1-2.8-21.5-2.8-22.3c0-0.3,0.1-0.5,0.3-0.8
		c0.2-0.2,0.5-0.3,0.7-0.3h7.1c0.3,0,0.6,0.1,0.8,0.4c0.2,0.2,0.3,0.5,0.2,0.8l-4.4,22C269.6,182.5,269.3,182.9,268.7,182.9
		L268.7,182.9z M267.1,160.9c0.3,4.5,0.9,11.3,1.6,16l3.2-16H267.1z"/>
	<path class="st3" d="M270,163.5l-1.1,0c-1.7-0.1-3.1-1.5-3-3.3c0,0,0,0,0,0l0.2-4.2l0,0l7.4,0.3l0,0l-0.2,4.2
		C273.1,162.3,271.7,163.6,270,163.5z"/>
	<path class="st1" d="M270.1,164.5h-0.2h-1.1l0,0c-2.3-0.1-4.1-2-4-4.3c0,0,0,0,0,0l0.2-4.3c0-0.6,0.4-1,1-1l7.4,0.3
		c0.3,0,0.5,0.1,0.7,0.3c0.2,0.2,0.3,0.5,0.3,0.7l-0.2,4.3C274,162.8,272.3,164.5,270.1,164.5z M268.9,162.5h1.1
		c1.2,0,2.1-0.8,2.2-2l0.1-3.3L267,157l-0.1,3.3C266.8,161.4,267.7,162.4,268.9,162.5L268.9,162.5z"/>
	<path class="st3" d="M284.3,137.5c-0.1,3.4,3,6.3,6.9,6.5s7.3-4.3,7.5-7.7s-3-4.5-7-4.7S284.5,134.1,284.3,137.5z"/>
	<path class="st1" d="M291.4,145h-0.2c-2.1-0.1-4.1-0.9-5.6-2.3c-1.5-1.3-2.3-3.2-2.2-5.2l0,0c0.2-3.9,4-7,8.4-6.8
		c6.7,0.3,8,3.3,7.9,5.7C299.5,140.3,295.7,145,291.4,145z M285.3,137.6c0,1.4,0.5,2.8,1.6,3.7c1.2,1.1,2.7,1.7,4.3,1.8
		c3.3,0.1,6.3-3.6,6.4-6.7c0-0.9,0.1-3.4-6-3.6C288.3,132.5,285.5,134.7,285.3,137.6L285.3,137.6z"/>
	<path class="st3" d="M242.8,134.1c-0.1,3.4,2.9,8.1,6.8,8.3s7.3-2.5,7.4-5.9s-3-6.3-6.9-6.5S242.9,130.7,242.8,134.1z"/>
	<path class="st1" d="M249.9,143.3h-0.4c-4.4-0.2-8-5.3-7.8-9.3l0,0c0-1.9,1.1-3.5,2.8-4.3c1.8-0.7,3.7-1,5.6-0.8
		c2.1,0.1,4.1,0.9,5.6,2.3c1.5,1.3,2.3,3.2,2.2,5.2C257.8,140.3,254.2,143.3,249.9,143.3z M243.8,134.1c-0.1,3.1,2.6,7.1,5.9,7.2
		s6.2-2.1,6.4-4.9c0-1.4-0.6-2.7-1.6-3.7c-1.2-1.1-2.8-1.7-4.4-1.7c-1.6-0.1-3.1,0.1-4.6,0.6C244.4,132,243.7,133,243.8,134.1
		L243.8,134.1z"/>
	<path class="st3" d="M269.7,157.1L269.7,157.1c11.9,0.5,21.9-8.8,22.4-20.7c0,0,0,0,0,0l0.4-10c0.2-5.2-7.3-15.2-12.5-15.4
		c0,0-1,4.9-9.4,8.8c-5.8,2.8-13.9,2.7-21-2.7l-0.7,17.6C248.4,146.5,257.7,156.6,269.7,157.1C269.6,157.1,269.6,157.1,269.7,157.1z
		"/>
	<path class="st1" d="M270.5,158.1c-0.3,0-0.6,0-0.9,0l0,0c-12.5-0.5-22.1-11.1-21.6-23.5l0.7-17.6c0-0.4,0.2-0.7,0.6-0.9
		c0.3-0.1,0.7-0.1,1,0.1c7.2,5.5,15,5,19.9,2.6c7.7-3.7,8.8-8.1,8.8-8.2c0.1-0.5,0.5-0.8,1-0.8c5.8,0.2,13.7,10.8,13.4,16.4l-0.4,10
		C292.6,148.5,282.6,158.1,270.5,158.1z M269.7,156.1c11.4,0.4,20.9-8.4,21.4-19.8l0.4-10c0.2-4.3-6.2-13.2-10.8-14.3
		c-0.7,1.7-3,5.5-9.6,8.7c-6.7,3-14.4,2.3-20.5-1.8l-0.6,15.7C249.5,146,258.4,155.6,269.7,156.1L269.7,156.1z"/>
	<path class="st1" d="M263.4,127L263.4,127l-9.6-0.3c-1.1,0-2-1-1.9-2.1s1-2,2.1-1.9l9.5,0.3c1.1,0,2,0.9,2,2S264.5,127,263.4,127z"
		/>
	<path class="st1" d="M286.5,127.9L286.5,127.9l-9.6-0.3c-1.1,0-2-1-1.9-2.1s1-2,2.1-1.9l9.5,0.3c1.1,0,2,0.9,2,2
		S287.6,127.9,286.5,127.9L286.5,127.9z"/>
	<path class="st4" d="M261.4,143.8l15.9,0.6c0,0-1.8,7.4-7.8,6.8C260.9,150.4,261.4,143.8,261.4,143.8z"/>
	<path class="st1" d="M270.2,152.3c-0.3,0-0.5,0-0.8,0c-9.5-1-9-8.4-9-8.5c0-0.5,0.5-0.9,1-0.9l15.9,0.6c0.6,0,1,0.5,1,1
		c0,0.1,0,0.1,0,0.2C277.6,147.4,275.1,152.3,270.2,152.3z M262.5,144.9c0.3,1.6,1.5,4.8,7.1,5.4c3.8,0.4,5.6-3,6.3-4.9L262.5,144.9
		z"/>
	<path class="st1" d="M268.1,141.8c-0.7,0-1.5-0.1-2.2-0.3c-0.4-0.1-0.8-0.4-0.9-0.9c-0.6-1.4,1-4.4,1.9-6.1
		c0.3-0.5,0.9-0.6,1.4-0.4s0.6,0.9,0.4,1.4l0,0c-0.8,1.3-1.4,2.7-1.8,4.2c0.8,0.1,1.7,0.1,2.5,0c0.6-0.1,1.1,0.3,1.1,0.9
		c0.1,0.6-0.3,1.1-0.9,1.1C269.1,141.8,268.6,141.8,268.1,141.8z M266.9,140L266.9,140z"/>
	
		<ellipse transform="matrix(3.995742e-02 -0.9992 0.9992 3.995742e-02 115.9662 386.3243)" class="st1" cx="259" cy="132.8" rx="1.9" ry="1.9"/>
	
		<ellipse transform="matrix(3.996804e-02 -0.9992 0.9992 3.996804e-02 130.5052 404.2226)" class="st1" cx="275.6" cy="134.2" rx="1.9" ry="1.9"/>
	<polygon class="st6" points="156.5,164.6 240.6,164.6 295.3,230.3 101.9,230.3 	"/>
	<path class="st1" d="M295.3,231.3H101.8c-0.6,0-1-0.5-1-1c0-0.2,0.1-0.5,0.2-0.6l54.6-65.6c0.2-0.2,0.5-0.4,0.8-0.4h84.1
		c0.3,0,0.6,0.1,0.8,0.4l54.6,65.6c0.4,0.4,0.3,1.1-0.1,1.4C295.7,231.2,295.5,231.3,295.3,231.3L295.3,231.3z M104,229.3h189.1
		l-53-63.6H157L104,229.3z"/>
	<polygon class="st1" points="246.8,187.6 225.2,188.3 237.6,212 261.4,212 	"/>
	<path class="st1" d="M261.4,213h-23.9c-0.4,0-0.7-0.2-0.9-0.5l-12.4-23.7c-0.2-0.3-0.2-0.7,0-1c0.2-0.3,0.5-0.5,0.8-0.5l21.6-0.8
		c0.4,0,0.7,0.2,0.9,0.5l14.7,24.4c0.2,0.3,0.2,0.7,0,1C262.1,212.7,261.8,213,261.4,213z M238.2,211h21.5l-13.4-22.4l-19.4,0.7
		L238.2,211z"/>
	<polygon class="st4" points="153.3,189.2 137.3,209.4 172.3,209.4 186.9,188.3 	"/>
	<path class="st1" d="M172.3,210.4h-34.9c-0.4,0-0.7-0.2-0.9-0.6c-0.2-0.3-0.1-0.8,0.1-1.1l16-20.2c0.2-0.2,0.5-0.4,0.8-0.4
		l33.5-0.8c0.4,0,0.7,0.2,0.9,0.5c0.2,0.3,0.1,0.7-0.1,1l-14.6,21C172.9,210.2,172.6,210.3,172.3,210.4z M139.4,208.4h32.3l13.2-19
		l-31.1,0.8L139.4,208.4z"/>
	<path class="st7" d="M150,205c-0.6,0-1-0.4-1-1c0-0.2,0.1-0.4,0.2-0.6l8.1-11.6c0.3-0.5,0.9-0.6,1.4-0.3c0.5,0.3,0.6,0.9,0.3,1.4
		l-8.1,11.7C150.6,204.8,150.3,205,150,205z"/>
	<path class="st8" d="M220.1,164.6v-18.6c0-8.3-6.7-15-15-15h-14.3c-8.3,0-15,6.7-15,15v18.6H220.1z"/>
	<path class="st1" d="M220.1,165.6h-44.4c-0.6,0-1-0.4-1-1v-18.6c0-8.8,7.2-16,16-16H205c8.8,0,16,7.2,16,16v18.6
		C221,165.2,220.6,165.6,220.1,165.6z M176.7,163.6h42.4v-17.6c0-7.7-6.3-14-14-14h-14.3c-7.7,0-14,6.3-14,14L176.7,163.6z"/>
	<path class="st0" d="M196.7,70c0.9-0.1,1.9-0.2,2.8-0.2c4.3,0,8.8-0.1,12.7,1.8c8.2,4,13.3,12.3,13.4,21.4v17.8h-52.9
		c-0.3-1.1,0.2-2.3,0.2-3.3c0-1.2-0.2-2.3-0.5-3.4c-0.6-2.9-0.9-5.8-1-8.8c0-4.7,1-9.3,2.8-13.5c1.1-2.6,2.3-5.2,4.6-6.8
		s5.9-1.7,7.5,0.6C189.1,72.5,192.7,70.6,196.7,70z"/>
	<path class="st1" d="M225.6,111.8h-52.9c-0.5,0-0.9-0.3-1-0.7c-0.2-0.9-0.2-1.8,0-2.6c0.1-0.3,0.1-0.7,0.1-1c0-0.8-0.1-1.6-0.3-2.4
		c-0.1-0.3-0.1-0.5-0.2-0.8c-0.6-3-1-6-1.1-9c0-4.8,1-9.5,2.9-13.9c1.1-2.6,2.4-5.5,4.9-7.3c2.3-1.6,5.9-1.9,8.1,0
		c2.8-2.7,6.4-4.4,10.2-5l0,0c1-0.2,2-0.2,3-0.2h0.8c4.1,0,8.4,0,12.4,1.9c8.5,4.2,14,12.8,14,22.3v17.8
		C226.6,111.3,226.1,111.8,225.6,111.8z M173.6,109.8h51V93c0-8.7-5-16.7-12.8-20.5c-3.5-1.7-7.6-1.7-11.5-1.7h-0.8
		c-0.9,0-1.8,0.1-2.6,0.2l0,0c-3.8,0.6-7.2,2.4-9.9,5.2c-0.2,0.2-0.5,0.3-0.8,0.3c-0.3,0-0.6-0.2-0.8-0.4c-1.3-1.8-4.3-1.7-6.1-0.4
		c-2.1,1.5-3.2,4-4.2,6.4c-1.8,4.1-2.8,8.6-2.8,13.1c0.1,2.9,0.4,5.8,1,8.6l0.1,0.7c0.3,1,0.4,2,0.4,2.9c0,0.4-0.1,0.8-0.2,1.3
		C173.7,109.1,173.7,109.4,173.6,109.8L173.6,109.8z M196.6,70L196.6,70z"/>
	<path class="st3" d="M195,128.2h7.5l0,0v4.3c0,1.8-1.4,3.2-3.2,3.2h-1.1c-1.8,0-3.2-1.4-3.2-3.2V128.2L195,128.2z"/>
	<path class="st1" d="M199.4,136.8h-1.1c-2.3,0-4.2-1.9-4.2-4.2v-4.3c0-0.6,0.4-1,1-1h7.6c0.6,0,1,0.4,1,1v4.3
		C203.6,134.9,201.7,136.8,199.4,136.8z M196,129.2v3.3c0,1.2,1,2.2,2.2,2.2h1.1c1.2,0,2.2-1,2.2-2.2v0v-3.3H196z"/>
	<ellipse class="st3" cx="177.2" cy="108.6" rx="7.3" ry="6.3"/>
	<path class="st1" d="M177.2,115.9c-4.6,0-8.3-3.3-8.3-7.3s3.7-7.3,8.3-7.3s8.3,3.3,8.3,7.3S181.8,115.9,177.2,115.9z M177.2,103.3
		c-3.5,0-6.3,2.4-6.3,5.3s2.8,5.3,6.3,5.3s6.3-2.4,6.3-5.3S180.7,103.3,177.2,103.3z"/>
	<ellipse class="st3" cx="219.9" cy="108.6" rx="7.3" ry="6.3"/>
	<path class="st1" d="M220,115.9c-4.6,0-8.3-3.3-8.3-7.3s3.7-7.3,8.3-7.3s8.3,3.3,8.3,7.3S224.6,115.9,220,115.9z M220,103.3
		c-3.5,0-6.3,2.4-6.3,5.3s2.8,5.3,6.3,5.3s6.3-2.4,6.3-5.3S223.4,103.3,220,103.3z"/>
	<path class="st3" d="M198.8,129.2L198.8,129.2c-12.2,0-22.1-9.9-22.1-22.1c0,0,0,0,0,0V95.2c0,0,5.6-3.2,7.2-8.2c0,0,10.6,4,16.7,4
		c7,0.1,13.9-1.4,20.3-4.4v20.5C220.9,119.3,211,129.2,198.8,129.2z"/>
	<path class="st1" d="M198.8,130.2c-12.8,0-23.1-10.4-23.1-23.1V95.2c0-0.4,0.2-0.7,0.5-0.9c0,0,5.3-3.1,6.8-7.6
		c0.1-0.3,0.3-0.5,0.5-0.6c0.2-0.1,0.5-0.1,0.8,0c0.1,0,10.4,3.9,16.3,3.9l0,0c6.8,0,13.6-1.4,19.8-4.3c0.3-0.2,0.7-0.2,1,0
		c0.3,0.2,0.5,0.5,0.5,0.9v20.5C221.8,119.8,211.5,130.2,198.8,130.2z M177.7,95.8v11.3c-0.3,11.7,9,21.3,20.6,21.6
		c11.7,0.3,21.3-9,21.6-20.6c0-0.3,0-0.6,0-0.9V88.2c-6.1,2.5-12.7,3.8-19.3,3.8l0,0c-5.2,0-13.3-2.7-16.1-3.7
		C182.8,92.2,179,94.9,177.7,95.8z"/>
	<circle class="st1" cx="189.9" cy="104.9" r="2.1"/>
	<circle class="st1" cx="210.7" cy="105.9" r="2.1"/>
	<path class="st1" d="M198.7,111.8c-0.7,0-1.4-0.1-2.1-0.2c-0.6-0.1-0.9-0.6-0.8-1.2s0.6-0.9,1.2-0.8c0.9,0.1,1.7,0.2,2.6,0.1
		c-0.4-1.5-0.9-3-1.7-4.4c-0.2-0.5,0-1.1,0.5-1.3c0.5-0.2,1.1-0.1,1.3,0.4c0.9,1.8,2.4,4.9,1.7,6.3c-0.2,0.4-0.6,0.7-1,0.8
		C199.8,111.7,199.3,111.8,198.7,111.8z"/>
	<ellipse class="st1" cx="198.8" cy="118.7" rx="3.1" ry="2.9"/>
	<path class="st1" d="M185.4,165.1c-0.6,0-1-0.4-1-1v-16.8c0-0.6,0.4-1,1-1s1,0.4,1,1v16.8C186.4,164.7,185.9,165.1,185.4,165.1z"/>
	<path class="st1" d="M210.4,165.1c-0.6,0-1-0.4-1-1v-16.8c0-0.6,0.4-1,1-1s1,0.4,1,1v16.8C211.4,164.7,210.9,165.1,210.4,165.1z"/>
	<path class="st1" d="M187.8,113.5c-4.3,0-7.8-3.5-7.8-7.8s3.5-7.8,7.8-7.8c4.3,0,7.8,3.5,7.8,7.8S192.1,113.5,187.8,113.5
		L187.8,113.5z M187.8,99.8c-3.2,0-5.8,2.6-5.8,5.8c0,3.2,2.6,5.8,5.8,5.8c3.2,0,5.8-2.6,5.8-5.8c0,0,0,0,0,0
		C193.6,102.4,191,99.8,187.8,99.8z"/>
	<path class="st1" d="M209.7,113.5c-4.3,0-7.8-3.5-7.8-7.8s3.5-7.8,7.8-7.8c4.3,0,7.8,3.5,7.8,7.8S214,113.5,209.7,113.5
		L209.7,113.5z M209.7,99.8c-3.2,0-5.8,2.6-5.8,5.8c0,3.2,2.6,5.8,5.8,5.8c3.2,0,5.8-2.6,5.8-5.8c0,0,0,0,0,0
		C215.5,102.4,212.9,99.8,209.7,99.8z"/>
	<path class="st1" d="M194.6,104.9c-0.3,0-0.6-0.2-0.8-0.4c-0.3-0.5-0.2-1.1,0.2-1.4c0.2-0.1,4.9-3.4,9.3-0.7
		c0.5,0.2,0.7,0.8,0.5,1.3c-0.2,0.5-0.8,0.7-1.3,0.5c-0.1,0-0.1-0.1-0.2-0.1c-3.3-2-7.1,0.6-7.2,0.7
		C195,104.8,194.8,104.9,194.6,104.9z"/>
	<path class="st1" d="M192.7,98.1L192.7,98.1L183,98c-1.1,0-2-0.9-2-2s0.9-2,2-2l0,0h9.8c1.1,0,2,0.9,2,2S193.9,98,192.7,98.1
		L192.7,98.1z"/>
	<path class="st1" d="M206.6,98.3c-1.1,0-2-0.8-2.1-1.9c0-1.1,0.8-2,1.9-2.1l9.8-0.5c1.1-0.1,2,0.8,2.1,1.9c0,0,0,0,0,0
		c0.1,1.1-0.8,2-1.9,2.1l-9.8,0.5H206.6z"/>
	<path class="st5" d="M277.4,175.3l-1.8,13.3c0,2.7-2.2,5.6-5,5.6h-12.1v10.8h20c5.6,0,10.1-4.5,10.1-10.1l1.8-18.6"/>
	<path class="st1" d="M278.5,205.9h-20c-0.6,0-1-0.4-1-1v-10.8c0-0.6,0.4-1,1-1h12.1c2.2,0,4-2.5,4-4.6c0,0,0-0.1,0-0.1l1.8-13.3
		c0.1-0.5,0.6-0.9,1.1-0.9c0.5,0.1,0.9,0.6,0.9,1.1c0,0,0,0,0,0l-1.8,13.2c0,3.1-2.5,6.5-6,6.5h-11.1v8.8h19c5,0,9.1-4.1,9.1-9.1
		l1.8-18.7c0.1-0.5,0.5-0.9,1.1-0.9c0.5,0.1,1,0.5,0.9,1.1l-1.8,18.6C289.6,201,284.6,205.9,278.5,205.9z"/>
	<path class="st3" d="M258.5,195.6c0,0-3.4-1.4-5-2.2s-9,1.6-9.7,3.6s0.3,6.8,2.4,7.1s2.5-1.9,3.8-1.8s5.9,3.9,8.4,1.1L258.5,195.6z
		"/>
	<path class="st1" d="M256.2,205.4c-1.7-0.2-3.4-0.7-4.9-1.6c-0.4-0.2-0.8-0.4-1.3-0.6c-0.2,0.1-0.4,0.3-0.6,0.5
		c-0.8,1-2,1.5-3.2,1.3c-1-0.2-1.8-0.8-2.3-1.7c-1.2-2-1.5-4.4-1-6.7c0.4-1,1.8-2.1,4.1-3c1.8-0.7,5.5-1.9,7-1.2s4.9,2.1,4.9,2.2
		c0.4,0.2,0.6,0.5,0.6,0.9v7.9c0,0.2-0.1,0.5-0.3,0.7C258.5,205,257.4,205.5,256.2,205.4z M250,201.3h0.2c0.7,0.2,1.4,0.4,2,0.8
		c2.1,1.1,4.1,1.9,5.3,0.9v-6.8c-1.1-0.4-3.2-1.4-4.4-2c-0.6-0.2-3.4,0.3-6,1.5c-1.8,0.8-2.3,1.4-2.4,1.6c-0.3,1.7,0,3.5,0.8,5
		c0.3,0.5,0.6,0.8,0.8,0.8c0.7,0.1,1-0.2,1.6-0.8C248.5,201.7,249.2,201.4,250,201.3L250,201.3z"/>
	<path class="st1" d="M257.7,185.3L257.7,185.3c-0.6,0-1-0.5-1-1.1c0,0,0,0,0,0l1.6-16.4c0.1-0.5,0.5-1,1.1-0.9
		c0.5,0.1,1,0.5,0.9,1.1l-1.5,16.4C258.6,184.9,258.2,185.3,257.7,185.3z"/>
	<path class="st2" d="M123.4,175.3l1.8,13.3c0,2.7,2.2,5.6,5,5.6h12.1v10.8h-20c-5.6,0-10.1-4.5-10.1-10.1l-1.8-18.6"/>
	<path class="st1" d="M142.2,205.9h-20c-6.1,0-11.1-5-11.1-11.1l-1.8-18.5c-0.1-0.5,0.4-1,0.9-1.1c0.5-0.1,1,0.3,1.1,0.9l1.8,18.6
		c0,5.1,4,9.2,9.1,9.2c0,0,0,0,0,0h19v-8.8h-11.1c-3.5,0-5.9-3.4-6-6.5l-1.8-13.2c-0.1-0.6,0.3-1.1,0.9-1.1c0.6-0.1,1.1,0.3,1.1,0.9
		l1.8,13.3c0,0,0,0.1,0,0.1c0,2.1,1.7,4.6,4,4.6h12.1c0.6,0,1,0.4,1,1v10.8C143.3,205.5,142.8,205.9,142.2,205.9
		C142.2,205.9,142.2,205.9,142.2,205.9z"/>
	<path class="st3" d="M142.2,195.6c0,0,3.4-1.4,5-2.2s9,1.6,9.7,3.6s-0.3,6.8-2.4,7.1s-2.5-1.9-3.8-1.8s-5.9,3.9-8.4,1.1
		L142.2,195.6z"/>
	<path class="st1" d="M144.6,205.4c-1.2,0-2.3-0.5-3.1-1.3c-0.2-0.2-0.3-0.4-0.3-0.7v-7.9c0-0.4,0.2-0.8,0.6-0.9
		c0,0,3.4-1.4,4.9-2.2s5.3,0.4,7,1.1c2.3,1,3.7,2,4.1,3c0.5,2.3,0.2,4.7-1,6.7c-0.4,0.9-1.3,1.5-2.3,1.7c-1.2,0.1-2.5-0.3-3.2-1.3
		c-0.2-0.2-0.5-0.5-0.6-0.5c-0.4,0.2-0.9,0.4-1.3,0.6C147.9,204.7,146.3,205.3,144.6,205.4z M143.2,203c1.3,1,3.2,0.1,5.3-0.9
		c0.6-0.4,1.3-0.6,2-0.8c0.9,0,1.7,0.3,2.2,1c0.6,0.6,0.9,0.9,1.6,0.8c0.3,0,0.6-0.3,0.8-0.8c0.8-1.5,1.1-3.3,0.8-5
		c-0.1-0.2-0.6-0.8-2.4-1.6c-2.6-1.2-5.4-1.7-6-1.5c-1.2,0.6-3.3,1.5-4.4,2L143.2,203z"/>
	<path class="st7" d="M168.7,205.7c-0.6,0-1-0.4-1-1c0-0.2,0.1-0.4,0.2-0.6l8.1-11.6c0.3-0.5,0.9-0.7,1.4-0.4s0.7,0.9,0.4,1.4
		c0,0.1-0.1,0.1-0.1,0.2l-8.1,11.7C169.3,205.5,169,205.7,168.7,205.7z"/>
	<path class="st7" d="M163.1,205.7c-0.2,0-0.4-0.1-0.6-0.2c-0.5-0.3-0.6-0.9-0.3-1.4l8.1-11.6c0.3-0.5,0.9-0.6,1.4-0.3
		c0.5,0.3,0.6,0.9,0.3,1.4c0,0,0,0,0,0l-8,11.7C163.8,205.5,163.5,205.7,163.1,205.7z"/>
	<path class="st7" d="M157.1,205.7c-0.6,0-1-0.4-1-1c0-0.2,0.1-0.4,0.2-0.6l8.1-11.6c0.3-0.5,0.9-0.7,1.4-0.4s0.7,0.9,0.4,1.4
		c0,0.1-0.1,0.1-0.1,0.2l-8,11.7C157.8,205.5,157.5,205.7,157.1,205.7z"/>
	<polygon class="st4" points="237.6,212 238.3,192.3 224.3,170.9 225.2,188.3 	"/>
	<path class="st1" d="M237.6,213c-0.4,0-0.7-0.2-0.9-0.5l-12.4-23.7c-0.1-0.1-0.1-0.3-0.1-0.4l-0.9-17.4c0-0.6,0.4-1,0.9-1.1
		c0.4,0,0.7,0.1,0.9,0.4l14.1,21.4c0.1,0.2,0.2,0.4,0.2,0.6l-0.8,19.7c0,0.5-0.3,0.8-0.8,0.9C237.7,213,237.6,213,237.6,213z
		 M226.2,188.1l10.6,20.1l0.6-15.6l-11.9-18L226.2,188.1z"/>
	<polygon class="st4" points="200.9,167.9 186.2,167.9 180.3,182.6 200.9,182.6 	"/>
	<path class="st1" d="M200.9,183.6h-20.5c-0.6,0-1-0.4-1-1c0-0.1,0-0.3,0.1-0.4l5.9-14.6c0.2-0.4,0.5-0.6,0.9-0.6h14.6
		c0.6,0,1,0.4,1,1v14.6C201.9,183.1,201.4,183.6,200.9,183.6L200.9,183.6z M181.8,181.6h18.1v-12.6h-13L181.8,181.6z"/>
	<path class="st1" d="M140.9,183.6c-0.6,0-1-0.4-1-1v-14.6c0-0.6,0.4-1,1-1s1,0.4,1,1v14.6C141.9,183.1,141.4,183.6,140.9,183.6
		L140.9,183.6z"/>
	<rect x="101.8" y="230.3" class="st6" width="193.4" height="6.4"/>
	<path class="st1" d="M295.3,237.6H101.8c-0.6,0-1-0.4-1-1v-6.4c0-0.6,0.4-1,1-1h193.4c0.6,0,1,0.4,1,1v6.4
		C296.3,237.2,295.8,237.6,295.3,237.6z M102.9,235.6h191.4v-4.4H102.8L102.9,235.6z"/>
</g>
</svg>
