<svg xmlns="http://www.w3.org/2000/svg" viewBox="0 0 128 128" fill="#fff" xmlns:v="https://vecta.io/nano"><path d="M57 39c-9.94 0-18 6.29-18 14s8.08 14 18 14 18-6.29 18-14-8.07-14-18-14zm0 26c-8.81 0-16-5.37-16-12s7.17-12 16-12 16 5.37 16 12-7.19 12-16 12zm-1 18v6a1 1 0 0 0 2 0v-6a1 1 0 0 0-2 0zm2-60v-6a1 1 0 0 0-2 0v6a1 1 0 0 0 2 0zm30 22.58V1a1 1 0 0 0-1-1H27a1 1 0 0 0-1 1v104a1 1 0 0 0 1 1h19v3.37a26.44 26.44 0 0 0 7.8 18.83 1.018 1.018 0 0 0 1.44-1.44A24.44 24.44 0 0 1 48 109.39V106h18.35c-1.57 4.61-1.37 7.67-1.37 12a1 1 0 0 0 2 0v-3.77c0-7.37 3-10.64 4.46-14.8 1.16-2.44 2-8.07 1.13-13l-2.81-16a5.733 5.733 0 1 1 11.29-2l5.13 28.28a1 1 0 0 0 1.66-.16c.21-.39.14 2.62.14-48.06a46.45 46.45 0 0 1 12 31.24V127a1 1 0 0 0 2 0V79.79A48.48 48.48 0 0 0 88 45.58zM67.79 70.83c3 16.84 4.27 20.15 2 27.15H42A9 9 0 0 0 34 90V16a9 9 0 0 0 8-8h30a9 9 0 0 0 8 8v47.18a7.78 7.78 0 0 0-12.21 7.65zM82 65.33V15a1 1 0 0 0-1-1 7 7 0 0 1-7-7 1 1 0 0 0-1-1H41a1 1 0 0 0-1 1 7 7 0 0 1-7 7 1 1 0 0 0-1 1v76a1 1 0 0 0 1 1 7 7 0 0 1 7 7 1 1 0 0 0 1 1h28.06c-.85 2-1 1.9-1.91 4H28V2h58v82.47c-3.11-17.47-2.89-17.4-4-19.14z"/></svg>