<svg xmlns="http://www.w3.org/2000/svg" viewBox="0 0 64 64" fill="#fff" xmlns:v="https://vecta.io/nano"><path d="M63 5H1a1 1 0 0 0-1 1v48a1 1 0 0 0 1 1h27v3a1 1 0 0 0 1.55.83L32 57.2c2.5 1.67 2.79 2 3.47 1.68S36 57.89 36 55h27a1 1 0 0 0 1-1V6a1 1 0 0 0-1-1zM27 44a5 5 0 1 1 5 5 5 5 0 0 1-5-5zm5-7a7 7 0 0 0-4.89 12H9.9A5 5 0 0 0 6 45.1V14.9A5 5 0 0 0 9.9 11h44.2a5 5 0 0 0 3.9 3.9v30.2a5 5 0 0 0-3.9 3.9H36.89A7 7 0 0 0 32 37zm2 19.13c-2.29-1.53-1.73-1.51-4 0v-5.42a7 7 0 0 0 4 0zM62 53H36v-2h19a1 1 0 0 0 1-1 3 3 0 0 1 3-3 1 1 0 0 0 1-1V14a1 1 0 0 0-1-1 3 3 0 0 1-3-3 1 1 0 0 0-1-1H9a1 1 0 0 0-1 1 3 3 0 0 1-3 3 1 1 0 0 0-1 1v32a1 1 0 0 0 1 1 3 3 0 0 1 3 3 1 1 0 0 0 1 1h19v2H2V7h60zM49 15H15a1 1 0 0 0-1 1v6a1 1 0 0 0 1 1h34a1 1 0 0 0 1-1v-6a1 1 0 0 0-1-1zm-1 6H16v-4h32zm1 6H15a1 1 0 0 0 0 2h34a1 1 0 0 0 0-2zm0 5H15a1 1 0 0 0 0 2h34a1 1 0 0 0 0-2zM21 42h-6a1 1 0 0 0 0 2h6a1 1 0 0 0 0-2zm28 0h-6a1 1 0 0 0 0 2h6a1 1 0 0 0 0-2z"/></svg>