<svg xmlns="http://www.w3.org/2000/svg" viewBox="0 0 898.1 398.7" xmlns:v="https://vecta.io/nano"><path d="M382.3 254.7H18.5A18.46 18.46 0 0 1 0 236.2V14.1C0 6.3 6.3 0 14.1 0h372.5a14.3 14.3 0 0 1 14.3 14.3v221.9c-.1 10.3-8.3 18.5-18.6 18.5z" fill="#fff"/><path d="M382.3 254.7H18.5A18.46 18.46 0 0 1 0 236.2V14.1C0 6.3 6.3 0 14.1 0h372.5a14.3 14.3 0 0 1 14.3 14.3v221.9c-.1 10.3-8.3 18.5-18.6 18.5zM14.1 4A10.07 10.07 0 0 0 4 14.1v222.2c0 8 6.5 14.5 14.5 14.5h363.8c8 0 14.5-6.5 14.5-14.5v-222c0-5.7-4.6-10.3-10.3-10.3H14.1zm152 194.5h-109c-5.5 0-10.2-4.1-10.9-9.6-.1-.5-.1-1-.1-1.4V67.2a10.97 10.97 0 0 1 11-11h109a10.97 10.97 0 0 1 11 11v120.3a10.97 10.97 0 0 1-11 11zM57.1 62.2a4.95 4.95 0 0 0-5 5v120.3.6c.3 2.5 2.4 4.4 5 4.4h109a4.95 4.95 0 0 0 5-5V67.2a4.95 4.95 0 0 0-5-5h-109zm289.6 97.2h-132c-4.4 0-8-3.6-8-8s3.6-8 8-8h132c4.4 0 8 3.6 8 8s-3.5 8-8 8zm-60-34h-72c-4.4 0-8-3.6-8-8s3.6-8 8-8h72c4.4 0 8 3.6 8 8s-3.5 8-8 8z" fill="#e6e6e6"/><path d="M147.5 124.1c0 17.7-16.3 15-36.5 15s-36.5 2.7-36.5-15 8-49 36.5-49c29.5 0 36.5 31.3 36.5 49z" fill="#2f2e41"/><path d="M149 153.8c-.7-2-2.1-3.7-4-4.8l-1.1-.6c-4.6-1.9-9.9.3-11.8 4.9-.9 2.1-.9 4.5-.1 6.6l14.5 33h19.2L149 153.8zm-63.4 1.8c-4.5-2.2-9.9-.3-12.1 4.2-.2.3-.3.6-.4 1l-13.5 31.9c.7.2 1.4.3 2.1.3h17l11.5-26.1c1.5-4.4-.4-9.3-4.6-11.3z" fill="#3f3d56"/><circle cx="110.9" cy="114.5" r="24.6" fill="#ffc9b0"/><path d="M145.5 149.4l-.4-.4c-3.5-3.1-8.1-4.6-12.8-4L87 150.7c-8.6 1.1-14.8 8.8-14 17.4.6 7 1.6 15.8 3.2 24.8h71.5l2.6-30.6c.5-4.8-1.3-9.6-4.8-12.9z" fill="#3f3d56"/><path d="M82.5 112.1h0 9.7l4.3-12 .9 12h4.6l2.5-7 .5 7h34.5 0a25.95 25.95 0 0 0-26-26h-5c-14.3 0-26 11.6-26 26h0z" fill="#2f2e41"/><path d="M497.3 236.2V14.3A14.3 14.3 0 0 1 511.6 0H884c7.8 0 14.1 6.3 14.1 14.1v222.2c0 10.2-8.3 18.5-18.5 18.5H515.8c-10.3-.1-18.5-8.3-18.5-18.6z" fill="#fff"/><path d="M497.3 236.2V14.3A14.3 14.3 0 0 1 511.6 0H884c7.8 0 14.1 6.3 14.1 14.1v222.2c0 10.2-8.3 18.5-18.5 18.5H515.8c-10.3-.1-18.5-8.3-18.5-18.6zM511.6 4c-5.7 0-10.3 4.6-10.3 10.3v221.9c0 8 6.5 14.5 14.5 14.5h363.8c8 0 14.5-6.5 14.5-14.5V14.1A10.07 10.07 0 0 0 884 4H511.6zM721 187.5V67.2a10.97 10.97 0 0 1 11-11h109a10.97 10.97 0 0 1 11 11v120.3c0 .5 0 1-.1 1.4-.7 5.5-5.4 9.6-10.9 9.6H732a10.97 10.97 0 0 1-11-11zm11-125.3a4.95 4.95 0 0 0-5 5v120.3a4.95 4.95 0 0 0 5 5h109c2.5 0 4.6-1.9 5-4.4v-.6V67.2a4.95 4.95 0 0 0-5-5H732zm-188.6 89.2c0-4.4 3.6-8 8-8h132c4.4 0 8 3.6 8 8s-3.6 8-8 8h-132c-4.5 0-8-3.6-8-8zm0-34c0-4.4 3.6-8 8-8h72c4.4 0 8 3.6 8 8s-3.6 8-8 8h-72c-4.5 0-8-3.6-8-8z" fill="#e6e6e6"/><path d="M759.6 103c7 13.8 12.5 28 28 28s28-12.5 28-28-12.5-28-28-28c-15.8-.2-41.1 2.3-28 28z" fill="#2f2e41"/><circle cx="786.2" cy="107" r="24.6" fill="#ffc9b0"/><g fill="#3f3d56"><path d="M819.7 151.7c-1.6-1.7-3.3-3.3-5.1-4.8-8.1-6.3-18.2-9.5-28.4-8.8-.4 0-.8 0-1.2.1-12 1-23 7-30.2 16.6-7.3 9.8-10 22.2-7.5 34.1.3 1.3.5 2.5.7 3.8h81.4l.9-6.3c2-12.5-2-25.3-10.6-34.7z"/><path d="M832.2 158.3c-1.2-6.8-7-11.7-13.9-11.8h-.4c-1.1 0-2.2.2-3.3.5-7.6 2-12.1 9.8-10.1 17.4v.1l7.7 28.4h25.9l-5.9-34.6zm-57-7.5c-1-1.9-2.4-3.6-4.1-4.9-1.2-.9-2.6-1.6-4-2.1-.6-.2-1.2-.4-1.8-.5-6.9-1.3-13.7 2.6-16.1 9.2l-14.1 40.2h26.7l13.6-29.6c1.9-3.8 1.8-8.4-.2-12.3z"/></g><path d="M760.1 93.1c5.6 3.9 12.3 5.9 19.1 5.9-2.4 1.7-5.2 2.8-8.1 3.3 9.1 1.9 18.4 2 27.5.2 2-.3 4-1 5.8-2s3.1-2.7 3.6-4.8c.6-3.4-2.1-6.6-4.9-8.7-8.7-6.4-19.8-8.7-30.2-6-3.4.9-6.8 2.3-9 5.1s-2.8 6.9-.8 9.7l-3-2.7z" fill="#2f2e41"/><path d="M631 398.7H267.1c-10.2 0-18.5-8.3-18.5-18.5V158.1c0-7.8 6.3-14.1 14.1-14.1h372.5a14.3 14.3 0 0 1 14.3 14.3v221.9a18.46 18.46 0 0 1-18.5 18.5z" fill="#fff"/><path d="M631 398.7H267.1c-10.2 0-18.5-8.3-18.5-18.5V158.1c0-7.8 6.3-14.1 14.1-14.1h372.5a14.3 14.3 0 0 1 14.3 14.3v221.9a18.46 18.46 0 0 1-18.5 18.5zM262.7 148a10.07 10.07 0 0 0-10.1 10.1v222.2c0 8 6.5 14.5 14.5 14.5H631c8 0 14.5-6.5 14.5-14.5v-222c0-5.7-4.6-10.3-10.3-10.3H262.7z" fill="#649bfa"/><path d="M414.7 342.5h-109c-5.5 0-10.2-4.1-10.9-9.6-.1-.5-.1-1-.1-1.4V211.2a10.97 10.97 0 0 1 11-11h109a10.97 10.97 0 0 1 11 11v120.3a10.97 10.97 0 0 1-11 11zm-109-136.3a4.95 4.95 0 0 0-5 5v120.3.6c.3 2.5 2.4 4.4 5 4.4h109a4.95 4.95 0 0 0 5-5V211.2a4.95 4.95 0 0 0-5-5h-109z" fill="#e6e6e6"/><path d="M358.6 222.2c-7.1-3.3-15.8-4.4-23-1.3s-12.1 10.9-9.8 17.9c1.1 3.2 3.5 6.3 2.5 9.4-.7 2.5-3.2 4.1-5.7 5.2s-5.2 2.1-7 4.1-2.2 5.3.1 6.8c.7.5 1.7.7 2.4 1.3 1.2 1 1.7 2.7 1.2 4.2a9.02 9.02 0 0 1-2.9 3.8c-2.5 2.2-5.9 4.7-5.1 7.8.6 1.7 2 3 3.7 3.5 1.8.5 3.6.7 5.4.7l75 2.4c2.5.2 5 0 7.4-.4s4.5-1.9 5.8-3.9c1.4-2.7.5-5.9-1.3-8.4s-4.3-4.4-6.4-6.7-3.8-5.1-3.4-8.1c.3-2.4 1.8-4.4 3-6.5s1.8-4.8.3-6.8c-2-2.8-6.9-2.5-9.2-5.1-1.7-2-1.4-4.8-1.6-7.3-.4-6.1-4.6-11.8-10.6-14.4-6.2-2.6-13.2-2.2-19 1.3l-1.8.5z" fill="#2f2e41"/><circle cx="361.4" cy="262.8" r="24.6" fill="#ffc9b0"/><g fill="#3f3d56"><path d="M393.7 319c-.1-8.8-4.9-16.8-12.7-20.9-.3-.2-.6-.3-.9-.5-2.8-1.3-5.8-2.1-8.8-2.2l-23.4-1.3c-3.3-.2-6.6.3-9.7 1.5-.8.3-1.5.6-2.2 1-2.3 1.1-4.3 2.6-6.1 4.3-4.8 4.7-7.3 11.2-7.1 17.9l.4 9.9 2.9 7.6h65.4c.8-1 1.5-2 2.1-3.2 2.2-4.3 2.3-9.6.1-14.1z"/><path d="M392.1 305.9c-1.1-2.3-2.7-4.3-4.8-5.7-1.5-1-3.2-1.8-5-2.2-.7-.2-1.4-.3-2.2-.3-1.4-.1-2.9 0-4.3.4-7.6 1.9-12.3 9.6-10.4 17.3.3 1.1.7 2.2 1.2 3.2l9 17 .4.8h30.2l-14.1-30.5zm-49.4-8.9c-1.4-.7-2.9-1.2-4.5-1.4-1.2-.2-2.4-.2-3.5 0a14.34 14.34 0 0 0-12.4 11.3l-6.1 29.5H340l4.5-1.8 5.5-21.3c1.6-6.5-1.4-13.2-7.3-16.3z"/></g><path d="M336.3 259.3c7.8-.6 14.2-8.4 13.4-16.1-.2 6.6 4.6 12.3 11.1 13.2 3.6.4 7.5-.7 10.6 1.1 3.4 2 4.5 6.8 8.1 8.5 3.5 1.7 7.8-.6 9.5-4s1.3-7.6.2-11.2c-5.2-16.7-22.9-26.1-39.6-20.9-5 1.5-9.5 4.3-13.1 7.9-3.3 3.3-5.9 7.5-6.3 12.1s1.7 9.6 5.9 11.7l.2-2.3z" fill="#2f2e41"/><path d="M595.4 303.4h-132c-4.4 0-8-3.6-8-8s3.6-8 8-8h132c4.4 0 8 3.6 8 8s-3.6 8-8 8z" fill="#e6e6e6"/><path d="M535.4 269.4h-72c-4.4 0-8-3.6-8-8s3.6-8 8-8h72c4.4 0 8 3.6 8 8s-3.6 8-8 8zm38.6 58.4c-14.6 0-26.4 11.8-26.4 26.4s11.8 26.4 26.4 26.4h0c14.6 0 26.4-11.9 26.3-26.4 0-14.6-11.8-26.4-26.3-26.4z" fill="#649bfa"/><path d="M571.5 365.2c-.7 0-1.4-.2-1.9-.6h0l-7.3-5.5c-1.4-1.1-1.7-3.1-.6-4.5s3.1-1.7 4.5-.6l4.7 3.6 11.1-14.5c1.1-1.4 3.1-1.7 4.5-.6h0 0l-.1.1.1-.1c1.4 1.1 1.7 3.1.6 4.5L574 364c-.5.7-1.5 1.2-2.5 1.2h0z" fill="#fff"/></svg>