<svg xmlns="http://www.w3.org/2000/svg" xmlns:xlink="http://www.w3.org/1999/xlink" viewBox="0 0 749.5 551.5" xmlns:v="https://vecta.io/nano"><g fill="#b6d5ff"><path d="M463.9 443.4H23.6c-10.1 0-18.3-8.2-18.3-18.3V109.2c0-10.1 8.2-18.3 18.3-18.3h440.3c10.1 0 18.3 8.2 18.3 18.3v315.9c-.1 10.1-8.2 18.3-18.3 18.3zM23.6 100.5a8.71 8.71 0 0 0-8.7 8.7v315.9a8.71 8.71 0 0 0 8.7 8.7h440.3a8.71 8.71 0 0 0 8.7-8.7V109.2a8.71 8.71 0 0 0-8.7-8.7H23.6z"/><circle cx="234.4" cy="516" r="35.4" transform="matrix(.16 -.9871 .9871 .16 -312.528 664.7238)"/></g><circle transform="matrix(.16 -.9871 .9871 .16 -312.528 664.7238)" cx="234.4" cy="516" r="27.2" fill="#fff"/><g fill="#649bfa"><path d="M248 530.9c-.3 0-.6-.1-.9-.4l-27.2-27.2c-.5-.5-.4-1.3 0-1.7.5-.5 1.2-.5 1.7 0l27.2 27.2c.5.5.5 1.3 0 1.7-.2.2-.5.4-.8.4h0z"/><path d="M249.7 518.6a2.62 2.62 0 0 0 0-2.7c-2-3.1-4.6-5.7-7.7-7.8s-6.8-3.2-10.5-3.3c-1.9 0-3.8.3-5.6.9-.2.1-.2.2-.2.4 0 0 0 .1.1.1l3.7 3.7c.1.1.2.1.3.1 4-1 8 1.5 9 5.5h0c.6 3 2.1 5.7 4.2 7.9l1.2 1.2c.1.1.3.1.4 0 2-1.7 3.7-3.7 5.1-6zm-12.6 3.2c-4.1 0-7.4-3.3-7.4-7.4 0-1.3-.5-2.6-1.4-3.5l-3.7-3.7c-.1-.1-.3-.1-.4 0-2 1.7-3.7 3.7-5.2 5.9a2.25 2.25 0 0 0 0 2.7c2 3.1 4.5 5.8 7.6 7.8 3.1 2.1 6.8 3.2 10.5 3.2 1.9 0 3.8-.3 5.6-.9.2-.1.3-.2.2-.4 0 0 0-.1-.1-.1l-3.7-3.7c-.1-.1-.2-.1-.3-.1-.6.1-1.1.2-1.7.2z"/></g><circle cx="100" cy="516" r="35.4" fill="#b6d5ff"/><circle cx="100" cy="516" r="27.2" fill="#fff"/><path d="M110.4 533.3c-1.5 0-3.6-.5-6.8-2.3-3.9-2.1-7.5-4.8-10.7-8-3.2-3.1-6-6.7-8-10.7-2.8-5.2-2.4-7.9-1.8-9.1.6-1.3 1.6-2.3 2.8-3 .7-.5 1.4-.9 2.2-1.2.1 0 .1-.1.2-.1.5-.3 1.1-.3 1.7-.2.6.3 1.2.7 1.6 1.2 1.6 1.8 3 3.8 4 6 .4.7.7 1.6.8 2.5-.1.9-.4 1.7-1 2.3-.1.1-.2.3-.3.4-.6.8-.7 1-.6 1.4.2.8 2.8 1.5 4.9 3.6s3.1 5 3.9 5.2c.4.1.6 0 1.4-.7.1-.1.2-.2.4-.3.6-.6 1.5-1 2.3-1h0c.9.1 1.7.4 2.5.9 2.1 1.1 4.1 2.4 6 4 .5.4.9 1 1.2 1.6.2.6.1 1.2-.2 1.7 0 .1-.1.1-.1.2-.3.8-.7 1.5-1.2 2.2-.7 1.2-1.8 2.2-3 2.8-.6.5-1.4.7-2.2.6z" fill="#649bfa"/><circle cx="369.8" cy="516" r="35.4" fill="#b6d5ff"/><circle cx="369.8" cy="516" r="27.2" fill="#fff"/><path d="M379.7 511c-.7 0-1.2.6-1.2 1.2v2.5c0 4.8-3.9 6.2-8.7 6.2s-8.7-1.4-8.7-6.2v-2.5c0-.7-.6-1.2-1.2-1.2s-1.2.6-1.2 1.2v2.5c0 5.7 4.3 10.4 9.9 11.1v5c0 .7.6 1.2 1.2 1.2h0c.7 0 1.2-.6 1.2-1.2v-5c5.6-.6 9.9-5.4 9.9-11.1v-2.5c.1-.7-.5-1.2-1.2-1.2zm-9.9 6.4c-1.5 0-3-.3-4.4-1-1-.4-1.7-1.3-1.8-2.4v-4.6c0-1.8 2.7-3.3 6.1-3.3h0c3.4 0 6.1 1.4 6.2 3.2v.1 4.6c.1 1.8-2.6 3.3-6.1 3.4z" fill="#649bfa"/><path d="M463.9 439H23.6c-7.7 0-13.9-6.3-14-14V109.2c0-7.7 6.3-13.9 14-14h440.3c7.7 0 13.9 6.3 14 14v315.9c-.1 7.7-6.3 13.9-14 13.9z" fill="#fff"/><circle cx="241.6" cy="244.4" r="46.6" fill="#ffc9b0"/><path d="M189.6 199.6c.4-5.4 3.9-10.8 15.1-13.7 0 0 19.3-24.7 45.5-11.7 0 0 12.7-2.2 22.1 11 0 0 9.3-5.5 13.3 4.3 0 0 11 19.9 6.9 40.3s-6.1 22.9-6.1 22.9 5.1-42-24.5-39.1-53.5-7.5-60.2 15.3c-5.6 18.9-4.9 28.8-4.9 28.8s-18.6-18.9-12.3-33.8c3.4-7.8 4.6-16.1 5.1-24.3z" fill="#9b280b"/><path d="M114.9 438.5h257.8c-1.7-19.7-2.8-34.3-2.8-39.2 0-21.8-17.9-45.6-17.9-45.6l-6.4-3.5-53.4-16.6-13.8-17.9c-2.9-3.8-7.5-6-12.3-6l-43.6.3c-3.8 0-7.5 1.5-10.3 4.1l-27 25.1-39.8 18.8-.1-.1-.4.3-5.9 4.2-3.8 2.7s-9.9 11.9-17.9 47.6c-1 5.5-1.9 14.4-2.4 25.8z" fill="#649bfa"/><path d="M748.4 39.9H1.1A1.11 1.11 0 0 1 0 38.8a1.11 1.11 0 0 1 1.1-1.1h747.3a1.11 1.11 0 0 1 1.1 1.1 1.11 1.11 0 0 1-1.1 1.1z" fill="#f3f8ff"/><g fill="#093f68"><ellipse cx="25.5" cy="12.2" rx="11.9" ry="12.2"/><ellipse cx="66.7" cy="12.2" rx="11.9" ry="12.2"/><ellipse cx="107.9" cy="12.2" rx="11.9" ry="12.2"/><path d="M723.7 7.5h-29.3c-1.2 0-2.2-1-2.2-2.3 0-1.2 1-2.1 2.2-2.2h29.3c1.2 0 2.2 1 2.2 2.3-.1 1.2-1 2.1-2.2 2.2z"/><use xlink:href="#B"/><use xlink:href="#B" y="8.3"/></g><path d="M703.3 459H556.4c-10.1 0-18.3-8.2-18.3-18.3V340.1c0-10.1 8.2-18.3 18.3-18.3h146.9c10.1 0 18.3 8.2 18.3 18.3v100.6c-.1 10.1-8.2 18.3-18.3 18.3zM556.4 331.4a8.71 8.71 0 0 0-8.7 8.7v100.6a8.71 8.71 0 0 0 8.7 8.7h146.9a8.71 8.71 0 0 0 8.7-8.7V340.1a8.71 8.71 0 0 0-8.7-8.7H556.4z" fill="#b6d5ff"/><path d="M703.3 454.7H556.4c-7.7 0-13.9-6.3-14-14V340.1c0-7.7 6.3-13.9 14-14h146.9c7.7 0 13.9 6.3 14 14v100.6c-.1 7.7-6.3 14-14 14z" fill="#fff"/><path d="M643.6 358.9c.8-5.3-1.6-9.2-7.9-11.4-6.3-5.5-15.7-6.8-21.3 2-4.7-.3-8.8 3.2-9.3 7.9-5.2 6 .6 28 2.3 36.4l9.1-.1 18.1-.2 9.1-.1 3.5-19.7c2-5.6 1.1-10.7-3.6-14.8zm32.9 82.9c2.4-1.5 4.9-2.8 7.5-3.8l-25.8-30.6-17-4.4a.76.76 0 0 0-.4-.2l-28.7 1.1-.1-.1-18.1 8.9-25.9 29.7c2.5 1 5 2.2 7.3 3.7l-2.7 10.1H591l4.9-7.1h.2v-.4l3.4-5c.1 4 0 8.2-.3 12.5h57.4c-.1-3.6-.1-7.1-.1-10.6l6.4 9.3c.5-.7 1-1.4 1.5-2l1.3 3.4h14.7l-3.5-13.4c0-.5-.2-.8-.4-1.1zm26.8-214.7H556.4c-10.1 0-18.3-8.2-18.3-18.3V108.2c0-10.1 8.2-18.3 18.3-18.3h146.9c10.1 0 18.3 8.2 18.3 18.3v100.6c-.1 10.1-8.2 18.3-18.3 18.3zM556.4 99.5a8.71 8.71 0 0 0-8.7 8.7v100.6a8.71 8.71 0 0 0 8.7 8.7h146.9a8.71 8.71 0 0 0 8.7-8.7V108.2a8.71 8.71 0 0 0-8.7-8.7H556.4z" fill="#b6d5ff"/><path d="M703.3 222.8H556.4c-7.7 0-13.9-6.3-14-14V108.2c0-7.7 6.3-13.9 14-14h146.9c7.7 0 13.9 6.3 14 14v100.6c-.1 7.7-6.3 14-14 14z" fill="#fff"/><g fill="#b6d5ff"><path d="M611.3 143.9c1 10.6 10.5 18.4 21.1 17.3a19.4 19.4 0 0 0 16.7-13.9c.6-.7 7.6-8.1 5.1-14-1.2-3.2-1.9-6.6-2-10-.1-2.2-1.6-4.5-6.3-5.7 0 0-8-10.2-18.9-4.9 0 0-5.3-.9-9.2 4.6 0 0-3.9-2.3-5.5 1.8 0 0-4.5 8.3-2.9 16.7.4 2.7 1.1 5.4 1.9 8.1zm70.7 69.9c-3.3-14.8-7.4-19.8-7.4-19.8l-1.6-1.1-2.4-1.8-.2-.1h0l-16.4-7.9-11.2-10.4c-1.2-1.1-2.7-1.7-4.3-1.7l-18.1-.1c-2 0-3.9.9-5.1 2.5l-5.7 7.4-22.1 6.9-2.7 1.5s-7.4 9.9-7.4 18.9c0 2.1-.5 8.1-1.2 16.3h107c-.2-3.5-.6-7-1.2-10.6z"/><path d="M611.6 363H419.5c-13.2 0-23.9-10.7-23.9-23.9V207.5c0-13.2 10.7-23.9 23.9-23.9h192.1c13.2 0 23.9 10.7 23.9 23.9v131.6c0 13.2-10.7 23.9-23.9 23.9zM419.5 196.2a11.29 11.29 0 0 0-11.3 11.3v131.6a11.29 11.29 0 0 0 11.3 11.3h192.1a11.29 11.29 0 0 0 11.3-11.3V207.5a11.29 11.29 0 0 0-11.3-11.3H419.5z"/></g><path d="M611.6 189.3H419.5c-10.1 0-18.2 8.2-18.3 18.3v131.6c0 10.1 8.2 18.2 18.3 18.2h192.1c10.1 0 18.2-8.2 18.3-18.2V207.5c-.1-10-8.3-18.2-18.3-18.2z" fill="#fff"/><g fill="#02183e"><circle cx="549.3" cy="229.3" r="15"/><circle cx="518.5" cy="257.3" r="38"/></g><circle transform="matrix(.189 -.982 .982 .189 153.2126 718.9173)" cx="511.9" cy="266.7" r="30.9" fill="#e28362"/><path d="M500.3 228.2c18.5-6.3 38.6 3.6 44.9 22.1a34.82 34.82 0 0 1 .9 19.7c-16.2.4-33-.2-48.1-9.7l-1.8-10.3-4.4 9c-5.4.9-10.8 1.5-15-3.4 2.4-12.6 11.3-23.1 23.5-27.4zm71.5-35.6c11.2-2.4 23.4 2.6 30.2 11.8s8.2 21.9 4.1 32.6c-4.2 10.9-13.2 19-21.6 27.1s-16.9 17-19.4 28.4c-3.8 17 6.9 33.9 24 37.8-10.5 2-21.5 4-31.8 1.2s-19.8-12-19.2-22.7c.4-7.7 5.7-14.1 10.3-20.4 7.5-10.1 13.7-21.1 18.5-32.7 2.3-5.5 4.3-11.5 3.7-17.4-1.2-9.1-8.2-16.4-17.3-17.9l-2.8-3.9c.9-11.5 10.1-21.5 21.3-23.9z" fill="#02183e"/><path d="M582.7 356.5c-2-20.4-13.3-19.6-13.3-19.6l-29.8-5.8-13.1-21.7-32.8-1.3-11.7 20.5-24 3v.3c-2.4.2-11 2.1-12.7 19.6l-.7 5.8h138.1a1.1 1.1 0 0 0 0-.8z" fill="#1a1a1a"/><defs ><path id="B" d="M723.7 15.8h-29.3c-1.2 0-2.2-1-2.2-2.3 0-1.2 1-2.1 2.2-2.2h29.3c1.2 0 2.2 1 2.2 2.3-.1 1.2-1 2.2-2.2 2.2z"/></defs></svg>