<?xml version="1.0" encoding="utf-8"?>
<!-- Generator: Adobe Illustrator 22.0.1, SVG Export Plug-In . SVG Version: 6.00 Build 0)  -->
<svg version="1.1" id="Layer_1" xmlns="http://www.w3.org/2000/svg" xmlns:xlink="http://www.w3.org/1999/xlink" x="0px" y="0px"
	 viewBox="0 0 400 300" style="enable-background:new 0 0 400 300;" xml:space="preserve">
<style type="text/css">
	.st0{fill:#649BFA;}
	.st1{fill:#E0EBFE;}
	.st2{fill:url(#SVGID_1_);}
	.st3{fill:url(#SVGID_2_);}
	.st4{fill:#FFDDB0;}
	.st5{fill:#603813;}
	.st6{fill:#996236;}
	.st7{opacity:0.1;enable-background:new    ;}
	.st8{opacity:0.1;}
	.st9{fill:#C58A01;}
	.st10{fill:#FEC33E;}
	.st11{fill:#C2320D;}
	.st12{fill:#F15831;}
	.st13{fill:#FF408C;}
	.st14{fill:#42210B;}
	.st15{fill:#BF004C;}
</style>
<title>24_Question_isometric</title>
<path class="st0" d="M92,70.4c-13-4.7-29.1,6.8-36,25.7s-2,38.1,11,42.8c1,0.4,2.1,0.6,3.2,0.8c2.7,9.6,12.2,7,12.2,7
	c-3.7-2.3-4.8-5-4.7-7.3c10.2-2.3,20.3-12.2,25.4-26.2C109.9,94.3,105,75.1,92,70.4z"/>
<path class="st0" d="M364.4,106.1C363,98.6,356.6,93.2,349,93c-3.3-0.1-6.5,0.8-9.3,2.6l-0.5,0.1c0-0.2,0-0.3,0-0.5
	c-0.7-7.7-7.1-14.2-15-14c-3.8,0.1-7.4,1.6-10.1,4.1c-3,2.7-4.5,6.7-5.1,10.6c0,0.2-0.1,0.4-0.1,0.6c-3-0.3-6,0.3-8.7,1.5
	c-5.8,2.8-9.1,9-8.1,15.4c0.8,6.1,4.6,11.5,10.1,14.2c2.2,1.1,4.6,1.7,7.1,1.8c1.9,8,10.3,14.3,18.2,16.4c10,2.6,24.5,0.3,28.4-10.8
	c0.6-1.8,0.9-3.7,1-5.6c0.1-1.7,0-3.4-0.5-5c-0.2-0.7-0.5-1.4-0.9-2C361.9,119.6,365.5,112.9,364.4,106.1z"/>
<path class="st0" d="M296,131.9c-0.5-0.3-1.1-0.5-1.7-0.6c-1-0.2-2.1-0.2-3.1,0c-0.6,0.1-1.2,0.4-1.7,0.7c-0.5,0.3-1.1,0.7-1.5,1.1
	c-1,1-1.5,2.3-1.5,3.6c0,1,0.3,2,0.8,2.8c0.1,0.4,0.3,0.8,0.6,1.2c0.8,1.4,2.2,2.3,3.7,2.8c0.5,0.1,1,0.2,1.5,0.2
	c0.3,0,0.6-0.1,0.9-0.1c0.8-0.1,1.6-0.3,2.3-0.8c1.4-0.8,2.3-2.2,2.7-3.7C299.8,136.2,298.5,133.3,296,131.9z"/>
<ellipse class="st1" cx="195.1" cy="218.6" rx="137" ry="67.4"/>
<linearGradient id="SVGID_1_" gradientUnits="userSpaceOnUse" x1="270.6801" y1="51.9397" x2="203.4202" y2="17.1797" gradientTransform="matrix(1 0 0 -1 0 301)">
	<stop  offset="1.186278e-06" style="stop-color:#9BC4F6"/>
	<stop  offset="0.99" style="stop-color:#E0EBFE"/>
</linearGradient>
<path class="st2" d="M190.3,276.3l58-21.7l24-2.3l2.6,1.3l0.8,4L233,282.8C233,282.8,204.8,287.2,190.3,276.3z"/>
<linearGradient id="SVGID_2_" gradientUnits="userSpaceOnUse" x1="158.4042" y1="74.1095" x2="92.0678" y2="39.8269" gradientTransform="matrix(1 0 0 -1 0 301)">
	<stop  offset="1.186278e-06" style="stop-color:#9BC4F6"/>
	<stop  offset="0.9867" style="stop-color:#E0EBFE"/>
</linearGradient>
<path class="st3" d="M77.9,251.6l63.1-31.9l17.6,7.9l2.5,1.3l2.2,6.1l-55.6,35C97.3,264.7,87.3,258.5,77.9,251.6z"/>
<path class="st4" d="M279.7,226.4c-0.3-0.3-11.2-15.5-11.5-15.4s-3.4,18.4-3.4,18.4l10,7.3"/>
<path class="st5" d="M276.7,224.9c0.1,1.7,0.2,5-0.9,5.7s-2.2-4.3-3.9-5.1s-5.4,3.3-6,5.1s4.9,4.4,5,4.9l0.5,1.6
	c-0.8,3.8-1.9,7.6-3.1,11.3c-0.6,2.1-0.6,4.3,0,6.4c0.4,1.1,1.1,2,2,2.8c1.6,1.3,3.8,1.3,5.3,0c1.6-1.3,2.9-3,3.7-4.9
	c3.6-8.4,5.8-20.4,5.8-20.4l-7.3-9.3C277.8,223,276.5,223.2,276.7,224.9z"/>
<path class="st6" d="M268.9,255.9c0,0,3.3,2.4,6.3-1.8s8.3-24,8.3-24l1.8,2.2c0,0-3.3,13.6-4.3,16.3S274.9,264.5,268.9,255.9z"/>
<path class="st0" d="M254.9,232.1c-0.2,1.1,11.6,6.2,11.6,6.2s8.1-17.5,6.5-29.8l-16.4-13.6"/>
<path class="st7" d="M254.9,232.1c-0.2,1.1,11.6,6.2,11.6,6.2s8.1-17.5,6.5-29.8l-16.4-13.6"/>
<polyline class="st4" points="254.7,251.8 257.4,234.2 246.9,237.6 243.3,254.6 244.9,259.4 "/>
<path class="st5" d="M253.1,251.4c-1.2,1.3-3.6,3.5-4.8,3.2s1.8-4.5,1.2-6.3s-6-1.8-7.9-1s0,6.6-0.3,7.1l-0.9,1.5
	c-3.4,1.9-6.9,3.7-10.4,5.2c-1.9,1-3.5,2.5-4.7,4.3c-0.5,1-0.8,2.2-0.8,3.3c0.1,2,1.6,3.7,3.6,4c2.1,0.3,4.2,0.1,6.1-0.5
	c8.6-3,19.1-9.4,19.1-9.4l2-11.6C254.6,250.5,253.6,250.7,253.1,251.4C253.1,251.4,253.1,251.4,253.1,251.4z"/>
<path class="st6" d="M224.9,266.5c0,0,0.5,4.1,5.5,3.4s23.4-10,23.4-10l-0.5,2.8c0,0-12.3,6.7-14.9,7.8S222.6,276.7,224.9,266.5z"/>
<path class="st0" d="M237.9,189.8c0,0,0.9,42.3,3.4,53.7c0,0,4.1,4.3,17.7,0.7c0,0,20.2-55.4,4.5-116.9S237.9,189.8,237.9,189.8z"/>
<path class="st0" d="M234.2,118.8c0,0-21.9,39.8-21.5,59.9s29.6,41.6,29.6,41.6l9.2-100.7"/>
<path class="st4" d="M234.8,121.2c-1.4-0.5-2.7-1.2-3.9-2c-1-1-1.7-2.2-2.2-3.6c-0.2-0.4-0.6-0.7-1.1-0.7l0,0l-1.6-2.1
	c-0.2-0.2-0.4-0.4-0.7-0.4c-0.2-0.3-0.4-0.6-0.6-0.8c-0.8-1.2-2.6-0.1-1.9,1.1l0.3,0.4c-0.3,0.2-0.5,0.5-0.6,0.8
	c-0.2,0.1-0.4,0.2-0.6,0.4c-0.5,0.1-0.9,0.6-0.8,1.1c0,0,0,0.1,0,0.1l0.2,0.7c-0.3,0.2-0.5,0.5-0.5,0.9c-0.4,0.2-0.6,0.5-0.5,0.9
	c0.5,4.1,1.5,8,3.1,11.8c0.5,1.1,2.3,0.8,2.1-0.3c0.5,0.8,1,1.5,1.5,2.3c0.2,0.3,0.5,0.5,0.9,0.5c0.6,0.2,1.2-0.1,1.3-0.7
	c0.1-0.3,0.1-0.6-0.1-0.8L229,130l0,0c0.5,0.8,1.1,1.6,1.7,2.4c0.3,0.5,1,0.6,1.5,0.3c0.4-0.3,0.6-0.9,0.4-1.3l-0.9-1.8
	c0.3,0.2,1.2,1.2,1.6,1c2.1-1.4-0.6-5-1.5-6.5l-0.8-1.4c1.1,0.4,2.2,0.6,3.3,0.6c0.6,0,1.1-0.4,1.1-1
	C235.4,121.8,235.2,121.4,234.8,121.2z"/>
<path class="st5" d="M226.2,129.8c-0.6-1.7-1.2-3.4-1.7-5.2c0-0.2-0.2-0.3-0.4-0.2c-0.2,0-0.3,0.2-0.2,0.4l0,0
	c0.5,1.7,1.1,3.5,1.7,5.2C225.7,130.3,226.3,130.2,226.2,129.8z"/>
<path class="st5" d="M229.5,130.4l-3.1-6.4c-0.2-0.4-0.7,0-0.6,0.3l3.1,6.5C229.1,131.1,229.7,130.8,229.5,130.4z"/>
<path class="st5" d="M232.6,129.7c-1.4-2.3-2.7-4.6-3.9-7c-0.2-0.4-0.7,0-0.6,0.3c1.2,2.4,2.5,4.7,3.9,7
	C232.3,130.4,232.8,130.1,232.6,129.7z"/>
<g class="st8">
	<path d="M364.4,106.1C363,98.6,356.6,93.2,349,93c-3.3-0.1-6.5,0.8-9.3,2.6l-0.5,0.1c0-0.2,0-0.3,0-0.5c-0.7-7.7-7.1-14.2-15-14
		c-3.8,0.1-7.4,1.6-10.1,4.1c-3,2.7-4.5,6.7-5.1,10.6c0,0.2-0.1,0.4-0.1,0.6c-3-0.3-6,0.3-8.7,1.5c-5.8,2.8-9.1,9-8.1,15.4
		c0.8,6.1,4.6,11.5,10.1,14.2c2.2,1.1,4.6,1.7,7.1,1.8c1.9,8,10.3,14.3,18.2,16.4c10,2.6,24.5,0.3,28.4-10.8c0.6-1.8,0.9-3.7,1-5.6
		c0.1-1.7,0-3.4-0.5-5c-0.2-0.7-0.5-1.4-0.9-2C361.9,119.6,365.5,112.9,364.4,106.1z"/>
	<path d="M296,131.9c-0.5-0.3-1.1-0.5-1.7-0.6c-1-0.2-2.1-0.2-3.1,0c-0.6,0.1-1.2,0.4-1.7,0.7c-0.5,0.3-1.1,0.7-1.5,1.1
		c-1,1-1.5,2.3-1.5,3.6c0,1,0.3,2,0.8,2.8c0.1,0.4,0.3,0.8,0.6,1.2c0.8,1.4,2.2,2.3,3.7,2.8c0.5,0.1,1,0.2,1.5,0.2
		c0.3,0,0.6-0.1,0.9-0.1c0.8-0.1,1.6-0.3,2.3-0.8c1.4-0.8,2.3-2.2,2.7-3.7C299.8,136.2,298.5,133.3,296,131.9z"/>
</g>
<path class="st7" d="M92,70.4c-13-4.7-29.1,6.8-36,25.7s-2,38.1,11,42.8c1,0.4,2.1,0.6,3.2,0.8c2.7,9.6,12.2,7,12.2,7
	c-3.7-2.3-4.8-5-4.7-7.3c10.2-2.3,20.3-12.2,25.4-26.2C109.9,94.3,105,75.1,92,70.4z"/>
<path class="st9" d="M125.8,107.3l-7.8,19.7l8.7,0.9c0,0,4.5-15.8,31-16.1s-8,49.1-12.9,56.9s-7.7,21.5-6.7,31.4l16.7,6.1
	c0,0-2.9-22,3.8-30.4s25.1-41.6,21.7-55.3s-10.4-7-10.4-7"/>
<path class="st10" d="M154.5,207l15.6-6.5c0,0,0.1-6.4-0.5-16.8s20-40.3,23.3-55S174.4,87.5,149,93.1c-29,6.4-31.4,34.6-31.4,34.6
	l13.6,6.8c0,0,12.2-26.1,29.6-22.2s15.8,25.1,15.8,25.1l-18.4,39.2C158.3,176.6,150.7,186.9,154.5,207z"/>
<circle class="st10" cx="154.3" cy="223.7" r="14.6"/>
<path class="st9" d="M149.4,222.1c0.4-5.3,3.9-9.9,8.5-12.6c-8-1.8-16,3.1-17.8,11c-1.8,7.9,3.2,15.7,11.2,17.5
	c3.1,0.7,6.3,0.4,9.3-0.9C154.3,234.9,148.9,228.9,149.4,222.1z"/>
<ellipse transform="matrix(0.3428 -0.9394 0.9394 0.3428 -43.9309 150.0502)" class="st0" cx="85.3" cy="106.4" rx="36.5" ry="25"/>
<path class="st0" d="M85.2,135.9c0,0-5.5,7.5,3,12.6c0,0-12.7,3.6-12.9-12.6"/>
<path class="st0" d="M358.1,106.1c-1.4-7.4-7.8-12.9-15.4-13.1c-3.3-0.1-6.5,0.8-9.3,2.6l-0.5,0.1c0-0.2,0-0.3,0-0.5
	c-0.7-7.7-7.1-14.2-15-14c-3.8,0.1-7.4,1.6-10.1,4.1c-3,2.7-4.5,6.7-5.1,10.6c0,0.2-0.1,0.4-0.1,0.6c-3-0.3-6,0.3-8.7,1.5
	c-5.8,2.8-9.1,9-8.1,15.4c0.8,6.1,4.6,11.5,10.1,14.2c2.2,1.1,4.6,1.7,7.1,1.8c1.9,8,10.3,14.3,18.2,16.4c10,2.6,24.5,0.3,28.4-10.8
	c0.6-1.8,0.9-3.7,1-5.6c0.1-1.7,0-3.4-0.5-5c-0.2-0.7-0.5-1.4-0.9-2C355.6,119.6,359.2,112.9,358.1,106.1z"/>
<path class="st0" d="M293.8,131.3c-0.5-0.3-1.1-0.5-1.7-0.6c-1-0.2-2.1-0.2-3.1,0c-0.6,0.1-1.2,0.4-1.7,0.7
	c-0.6,0.3-1.1,0.7-1.5,1.1c-1,1-1.5,2.3-1.5,3.6c0,1,0.3,2,0.8,2.8c0.1,0.4,0.3,0.8,0.6,1.2c0.8,1.4,2.2,2.3,3.7,2.8
	c0.5,0.1,1,0.2,1.5,0.2c0.3,0,0.6-0.1,0.9-0.1c0.8-0.1,1.6-0.3,2.3-0.8c1.4-0.8,2.3-2.2,2.7-3.7
	C297.5,135.7,296.3,132.8,293.8,131.3z"/>
<path class="st11" d="M196.6,21.5c0,0-4.6-5.4-5.9-5.5s-48.7,14-51.3,16.3s-2.6,9.9-1.6,14.8s6.7,30.7,7.9,31.7s4.7,1.9,8,1.3"/>
<path class="st12" d="M197.3,72.3l-43.7,7.8c-3.9,0.7-7.6-1.8-8.3-5.7l-5.8-33.2c-0.6-3.6,1.7-7.1,5.2-8l45.8-11.9
	c3.8-1,7.7,1.2,8.7,5c0.1,0.4,0.2,0.7,0.2,1.1l3.7,37.3C203.4,68.5,200.9,71.7,197.3,72.3z"/>
<path class="st12" d="M203.1,64.8c0,0,1.2,17.2,0,17.8s-11.3-10.1-11.3-10.1"/>
<path class="st13" d="M244,75.2c0,0-11.8-0.6-21.2,2.4s-20.4,10.9-19.2,19s13.1,25.3,13.1,25.3l14.4-7.9c0,0-7-11.1-5.5-13
	s4.7-2,4.7-2l2.7,26.6c0,0,16.4,3.8,29.2,0l-1.7-9.6c4.9,0.2,9.2-3.4,10-8.3C272.2,99,266.3,76.3,244,75.2z"/>
<path class="st4" d="M236.5,58.6c-0.4,0.4-0.1,1.9-0.1,2.4c0,1.7,0.2,3.4,0.3,5c0.4,3.9,1.2,8.2,5.1,10.3c4.9,2.6,9.6-0.8,11.6-5
	c0.8-1.7,1.1-10.6-0.8-12.2S243.4,50.8,236.5,58.6z"/>
<path class="st10" d="M236.2,60.8c-0.2,0.3-3.6-0.2-5.2-3.1s1.8-9.2,6-9.1c2.6,0.1,5.2,1.2,7,3.1c0,0,3.7-1.8,6.4-0.4
	c1.6,0.9,2.8,2.2,3.6,3.8c0,0,3.3,0.3,4.2,3.2s-2.8,12.7-3.3,13.1s-1.5,0.1-1.9-1.2s-0.1-5.5-1.2-5.6s-0.7,1.5-3.1,1.2
	s-2.7-3.6-4.5-4.6S238.7,57.4,236.2,60.8z"/>
<path class="st14" d="M239.7,64.9c-0.1,0.1-0.1,0.2-0.1,0.3c-0.2,0.3-0.2,0.8,0.2,1c0.3,0.2,0.8,0.2,1-0.2
	C241.3,65.3,240.4,64.2,239.7,64.9z"/>
<path class="st14" d="M241.2,61.1c-0.9-0.6-2-0.5-2.7,0.3c-0.4,0.5,0.3,1.2,0.7,0.7c0.3-0.5,0.9-0.6,1.4-0.3c0,0,0.1,0.1,0.1,0.1
	C241.2,62.4,241.7,61.5,241.2,61.1z"/>
<path class="st14" d="M243,68.5c-0.4-0.2-0.3-0.3-0.3-0.7s0.1-0.6,0.2-0.9l0.4-1.8c0.1-0.6-0.8-0.9-1-0.3c-0.3,1.1-0.6,2.2-0.7,3.3
	c-0.1,0.8,0.4,1.1,1.1,1.4S243.6,68.7,243,68.5z"/>
<path class="st14" d="M246.7,65c-0.6,0-0.8,0.5-0.8,0.9c-0.1,0.3,0.1,0.7,0.5,0.8c0.5,0.1,0.9-0.2,1-0.7
	C247.5,65.5,247.2,65.1,246.7,65z"/>
<path class="st14" d="M248.6,61.3c-0.9-0.5-2.1-0.5-3,0.1c-0.5,0.3,0,1.2,0.5,0.9c0.6-0.4,1.4-0.4,2-0.1c0.3,0.1,0.5,0,0.7-0.2
	C248.9,61.7,248.8,61.5,248.6,61.3z"/>
<path class="st14" d="M245.3,69.3c-0.7,0.3-1.3,0.6-2,0.8c-0.6,0.2-0.3,1.2,0.3,1c0.8-0.3,1.5-0.6,2.3-0.9
	C246.4,69.9,245.8,69,245.3,69.3z"/>
<path class="st4" d="M250.2,76.3c-0.6-1.3-2.2-0.8-3.2-0.3c-1.2,0.7-2.5,1.5-3.6,2.4c-1.6-1.1-3.2-2.2-4.9-3.1
	c-1-0.5-1.9-1.1-2.9-1.5c-0.8-0.4-1.7-0.9-2.5-0.1c-1.3,1.4,0.9,2.7,2.3,3.5c-0.5,0.2-1,0.5-1.3,1c-0.3,0.6-0.3,1.3,0.1,1.9l0.1,0.1
	c-0.6,0.2-1.2,0.7-1.4,1.3c-0.3,0.7-0.2,1.5,0.3,2c0.1,0.1,0.2,0.2,0.3,0.3c-0.1,0.1-0.2,0.1-0.3,0.2c-0.5,0.5-0.7,1.1-0.6,1.8
	c0.2,1,1,1.8,2.1,1.9c0,0.5,1,1.2,1.6,1.4c0.3,0.1,0.6,0.1,0.9,0.2c0.1,0.6,0.2,1.1,0.3,1.7c1.2-0.5,2.4-0.9,3.6-1.3
	c0.1,0,0.2,0,0.3,0l1.1-0.5c0.2-0.1,0.4-0.1,0.6,0c0.8-0.6,1.6-1.2,2.4-1.8c-0.1-0.5-0.1-1-0.2-1.6c0-0.1,0-0.2-0.1-0.3
	c0-1.4,0-2.8,0-4.1l0.2-0.1c1.2-0.5,2.3-1.1,3.3-2C249.6,78.6,250.8,77.4,250.2,76.3z"/>
<path class="st5" d="M238.9,79.1c-1.1-0.7-2.2-1.3-3.4-2c-0.2-0.1-0.4,0-0.4,0.1c-0.1,0.2,0,0.4,0.1,0.4c1.1,0.7,2.3,1.3,3.4,2
	c0.2,0.1,0.4,0,0.4-0.1C239.1,79.4,239,79.2,238.9,79.1L238.9,79.1z"/>
<path class="st5" d="M236,80.8c-0.5-0.2-0.9-0.4-1.3-0.7c-0.3-0.3-0.8,0.2-0.5,0.5c0.5,0.4,1,0.7,1.5,0.9
	C236.2,81.6,236.4,80.9,236,80.8z"/>
<path class="st5" d="M235.4,84.3c-0.6-0.2-1.2-0.5-1.8-0.8c-0.4-0.2-0.7,0.4-0.3,0.6c0.6,0.3,1.3,0.6,2,0.8
	C235.6,85,235.8,84.4,235.4,84.3z"/>
<path class="st15" d="M264.5,101.9c-7.5-2.6-13.8-7.6-17.9-14.3c-0.2-0.3-0.6-0.5-1-0.3c0,0,0,0,0,0c-0.1-0.3-0.4-0.5-0.8-0.4
	c0,0,0,0-0.1,0c-4.5,1.8-8.8,3.9-13,6.3c-0.3,0.2-0.5,0.6-0.3,1c0,0,0,0.1,0.1,0.1c2.1,12.9,13.2,22.4,26.3,22.2
	c0.4,0,0.8-0.3,0.8-0.8s-0.3-0.8-0.8-0.8c-12.3,0.1-22.8-8.7-24.8-20.8c3.9-2.2,8-4.2,12.1-5.8l0.1-0.1c4.3,7,11,12.3,18.8,15
	C265.1,103.7,265.5,102.2,264.5,101.9z"/>
<path class="st5" d="M240,166.4c0-5.8,0.1-11.6,0.2-17.3c-0.1-0.6-0.6-1-1.2-1c-0.5,0-0.9,0.5-1,1c-0.4,20.5-0.3,41,0.2,61.4
	c0.1,5.8,0.3,11.6,0.5,17.3c0.1,1.4,2.2,1.4,2.1,0C240.2,207.4,239.9,186.9,240,166.4z"/>
<path class="st14" d="M250.5,76c-1.5-2.4-6,1.2-7.4,2.2c-0.4,0.3,0.2,0.9,0.6,0.6c0.7-0.5,1.4-1,2.2-1.5c0.9-0.6,2-1.8,3.3-1.5
	c2,0.5,0.5,2.6-0.4,3.3c-0.4,0.3-0.8,0.5-1.2,0.7c-0.7,0.5-1.5,0.9-2.3,1.2c-0.5,0.2-0.3,1,0.2,0.8C247.2,81.2,252.1,78.5,250.5,76z
	"/>
<path class="st14" d="M243.6,78.3c-2.2-1.6-6.1-4-8.5-5.4c-0.4-0.2-0.9,0.2-0.5,0.4c2.3,1.4,6.5,4,8.7,5.5
	C243.6,79.1,244,78.5,243.6,78.3z"/>
</svg>
