<svg xmlns="http://www.w3.org/2000/svg" viewBox="0 0 64 64" xmlns:v="https://vecta.io/nano"><path d="M32 48a6.02 6.02 0 0 1-6-6v-2a6.02 6.02 0 0 1 6-6 6.02 6.02 0 0 1 6 6v2a6.02 6.02 0 0 1-6 6zm20 2a4.95 4.95 0 0 1-5-5v-2a4.95 4.95 0 0 1 5-5 4.95 4.95 0 0 1 5 5v2a4.95 4.95 0 0 1-5 5zm-40 0a4.95 4.95 0 0 1-5-5v-2a4.95 4.95 0 0 1 5-5 4.95 4.95 0 0 1 5 5v2a4.95 4.95 0 0 1-5 5zm51 13H1l1.2-5.2c1.3-5.4 6.7-8.8 12.1-7.5A9.56 9.56 0 0 1 20 54c.5.7 1 1.5 1.3 2.4h21.3c3.7-9.2 17-8.1 19.1 1.5L63 63z" fill="#a2c3fc"/><path d="M1,4v14c0,1.7,1.3,3,3,3h24l4,7l4-7h24c1.7,0,3-1.3,3-3V4c0-1.7-1.3-3-3-3H4C2.3,1,1,2.3,1,4z" fill="#f3f8ff"/><path d="M32 7.1c-1.4-1.4-3.6-1.4-4.9-.1-.7.7-1 1.6-1.1 2.5 0 3.5 6 6.5 6 6.5s6-3 6-6.5C38 7.6 36.4 6 34.5 6c-.9 0-1.8.4-2.5 1.1z" fill="#bf004c"/><linearGradient id="A" gradientUnits="userSpaceOnUse" x1="11.81" y1="16" x2="11.81" y2="6"><stop offset="0" stop-color="#e9a254"/><stop offset="1" stop-color="#f4bb79"/></linearGradient><path d="M11.8 6l1.6 3.3 3.7.5-2.7 2.6.7 3.6-3.3-1.7L8.6 16l.6-3.6-2.6-2.6 3.6-.5z" fill="url(#A)"/><path d="M11.8 6l1.6 3.3 3.7.5-2.7 2.6.7 3.6-3.3-1.7L8.6 16l.6-3.6-2.6-2.6 3.6-.5z" fill="#feb917"/><g fill="#a2c3fc"><path d="M55 10h-2l.5-2.1c.2-.8-.3-1.7-1.1-1.9H52c-2.4 4.9-2 2.8-2 10h3.7c.9 0 1.6-.5 1.9-1.4.3-1.2.5-2.4.4-3.6a.94.94 0 0 0-1-1z"/><path d="M46 11h4v5h-4zM20 63l1.2-6.2c1.2-5.9 7.1-9.8 13-8.5 4.3.9 7.6 4.2 8.5 8.5L44 63H20z"/></g><g fill="#093f68"><path d="M62.8 57.6c-.8-3.7-3.5-6.6-7-7.9 2.5-2 2.2-4.5 2.2-6.7a6.02 6.02 0 0 0-6-6 6.02 6.02 0 0 0-6 6c0 2.2-.3 4.6 2.2 6.7-2.2.8-4.1 2.3-5.4 4.2-1.3-2.9-3.8-5.1-6.8-6.2 3.2-2.3 3-5.3 3-7.7 0-3.9-3.1-7-7-7s-7 3.1-7 7c0 2.2-.3 5.4 3 7.7-3 1.1-5.4 3.3-6.8 6.2-1.3-2-3.2-3.4-5.4-4.2 2.5-2 2.2-4.5 2.2-6.7a6.02 6.02 0 0 0-6-6 6.02 6.02 0 0 0-6 6c0 2.3-.3 4.6 2.2 6.7C4.7 51 2 54 1.2 57.6L0 62.8c-.1.6.2 1.1.8 1.2s1.1-.2 1.2-.8L3.2 58c1.1-4.9 6-7.9 10.9-6.8 2.8.7 5.1 2.6 6.2 5.2-.1.3.2-1.1-1.3 6.3-.1.6.2 1.1.8 1.2s1.1-.2 1.2-.8l1.2-6.2c1.2-5.4 6.5-8.8 11.9-7.7 3.9.8 6.9 3.8 7.7 7.7l1.2 6.2c.1.6.6.9 1.2.8s.9-.6.8-1.2l-1.3-6.3c3.5-8.1 15.2-6.9 17.1 1.5l1.2 5.2c.1.5.7.9 1.2.7.5-.1.8-.6.7-1.2l-1.1-5zM8 45v-2c0-2.2 1.8-4 4-4s4 1.8 4 4v2c0 2.2-1.8 4-4 4s-4-1.8-4-4zm19-3v-2a4.95 4.95 0 0 1 5-5 4.95 4.95 0 0 1 5 5v2a4.95 4.95 0 0 1-5 5 4.95 4.95 0 0 1-5-5zm21 3v-2c0-2.2 1.8-4 4-4s4 1.8 4 4v2c0 2.2-1.8 4-4 4s-4-1.8-4-4zM60 0H4C1.8 0 0 1.8 0 4v14c0 2.2 1.8 4 4 4h23.4l3.7 6.5c.3.5.9.6 1.4.4a.78.78 0 0 0 .4-.4l3.7-6.5H60c2.2 0 4-1.8 4-4V4c0-2.2-1.8-4-4-4zm2 18c0 1.1-.9 2-2 2H36c-.8 0-.6.1-4 6-3.4-5.9-3.2-6-4-6H4c-1.1 0-2-.9-2-2V4c0-1.1.9-2 2-2h56c1.1 0 2 .9 2 2v14zM32 5.8c-5-3.4-12.6 5.1-.5 11.1.3.1.6.1.9 0 12.1-6 4.7-14.6-.4-11.1zm0 9.1c-9.3-5.1-3.2-9.7-.7-7.1.4.4 1 .4 1.4 0 2.6-2.6 8.6 1.9-.7 7.1zM17.2 8.8l-3.1-.4-1.4-2.8c-.2-.5-.8-.7-1.3-.5-.2.1-.4.3-.5.5L9.5 8.4c-2.8.4-3.6.3-3.9 1.1s.2 1 2.5 3.2c-.5 2.9-.8 3.6-.2 4.1s1 .1 3.8-1.4C14.6 17 14.6 17 15 17a.94.94 0 0 0 1-1v-.2l-.6-3.1 2.3-2.2c.4-.4.4-1 0-1.4-.1-.1-.3-.2-.5-.3zm-3.5 5.3c-2.2-1.2-1.6-1.2-3.8 0 .4-2.5.6-1.9-1.2-3.6 2.5-.4 2 0 3.1-2.2 1.1 2.2.6 1.9 3.1 2.2-1.8 1.8-1.6 1.2-1.2 3.6z"/><path d="M55 9h-.7l.2-.8c.3-1.4-.5-2.8-1.9-3.1-.2-.1-.4-.1-.6-.1-.8 0-.8.4-2.6 3.9-.2.3-.3.7-.3 1.1H46a.94.94 0 0 0-1 1v5a.94.94 0 0 0 1 1h7.7c1.3 0 2.4-.8 2.8-2 .4-1.3.6-2.7.4-4 .1-1.1-.8-2-1.9-2zm-8 3h2v3h-2v-3zm6.7 3H51c0-5.7-.3-4.1 1.5-7.7.4.6-.9 2.5-.3 3.3.4.5.8.4 2.8.4 0 1.4.2 4-1.3 4z"/></g></svg>