<svg xmlns="http://www.w3.org/2000/svg" viewBox="0 0 64 64" xmlns:v="https://vecta.io/nano"><path d="M55.62 54.62a20 20 0 0 0-8.69-13.32 3.72 3.72 0 0 0-.49-1.3H48a1 1 0 0 0 1-1V12a10 10 0 0 0-9.7-10C35.53-.37 32.56 0 28 0a13 13 0 0 0-13 13v26a1 1 0 0 0 1 1h1.56a3.72 3.72 0 0 0-.49 1.3 20 20 0 0 0-8.69 13.32L7 62.84a1.013 1.013 0 0 0 2 .32c1.35-8.13 1.44-14.23 8-19.37V63a1 1 0 0 0 2 0V42a2 2 0 0 1 2-2h2v23a1 1 0 0 0 2 0V47.76c.55.18.46.13 3.08-1.37a4.94 4.94 0 0 0 1.49 2.71c-.94 1-.68.69-2.31 13.78a1.007 1.007 0 0 0 2 .24l1.5-12a1.27 1.27 0 0 1 2.52 0l1.5 12a1.007 1.007 0 0 0 2-.24c-1.63-13.07-1.38-12.75-2.31-13.78a4.93 4.93 0 0 0 1.49-2.71c2.53 1.45 2.43 1.44 2.78 1.44s.3-2 .3 15.17a1 1 0 0 0 2 0V40h2a2 2 0 0 1 2 2v21a1 1 0 0 0 2 0V43.79c6.57 5.14 6.66 11.24 8 19.37a1.013 1.013 0 0 0 2-.32zM45 24v-4a2 2 0 0 1 0 4zM35 36.65v1.94l-3 3-3-3v-1.94a13.35 13.35 0 0 0 6 0zm-10.78-4.87C20.5 28.07 21 24.1 21 20.2l.84-2a7 7 0 0 1 6.44-4.2c4.75 0 7.84.42 11.55-1.72 2.45 2.79 2.76 5.36 3.17 7.8V24a11 11 0 0 1-18.78 7.78zM19 24a2 2 0 0 1 0-4zm9-22c4.4 0 7.12-.37 10.45 1.83A1 1 0 0 0 39 4a8 8 0 0 1 8 8v6.56a4.07 4.07 0 0 0-2.32-.56 14.18 14.18 0 0 0-4-7.71C39.48 9.07 38.51 12 33.39 12h-5.11c-3.46 0-6.72 1.82-8.51 6a4.6 4.6 0 0 0-2.77.56V13A11 11 0 0 1 28 2zM17 38V25.44a3.92 3.92 0 0 0 2.17.56A12.94 12.94 0 0 0 27 36v2zm8.22 2.24a19 19 0 0 1 2.39-.24l2.76 2.76-4.32 2.47zm8.46 6.55a1.77 1.77 0 0 1-3.36 0l-.47-1.41L32 44.15l2.15 1.23zM38 45.25l-4.32-2.47L36.39 40a19 19 0 0 1 2.39.22zM37 38v-2a13 13 0 0 0 7.83-10 4 4 0 0 0 2.17-.56V38zm-3.59-8.59a2 2 0 0 1-2.82 0 1 1 0 0 0-1.42 0C28 30.57 30.25 32 32 32s4-1.43 2.83-2.59a1 1 0 0 0-1.42 0zM25 20v1a1 1 0 0 0 2 0v-1a1 1 0 0 0-2 0zm12 0v1a1 1 0 0 0 2 0v-1a1 1 0 0 0-2 0z"/></svg>