<svg xmlns="http://www.w3.org/2000/svg" width="2308.946" height="379" xmlns:v="https://vecta.io/nano"><defs><clipPath id="A" transform="translate(-.1 -9)"><path d="M382.1 9l-264 116v21.7L381.6 36.6 672.1 137 382.1 9z" fill="none"/></clipPath><linearGradient id="B" x1="118.008" y1="68.858" x2="672.008" y2="68.858" gradientUnits="userSpaceOnUse"><stop offset="0" stop-color="#38a1fd"/><stop offset=".11" stop-color="#38a1fd"/><stop offset=".42" stop-color="#226bfa"/><stop offset=".73" stop-color="#0f3ef8"/><stop offset=".88" stop-color="#082cf7"/></linearGradient><clipPath id="C" transform="translate(-.1 -9)"><path d="M118.1 170.5l7 70.5 59 28 22-78a351.474 351.474 0 0 1 346 1l10 37 125.4-58.5-305.4-121z" fill="none"/></clipPath><linearGradient id="D" x1="118.011" y1="150.222" x2="687.371" y2="150.222" gradientUnits="userSpaceOnUse"><stop offset="0" stop-color="#38a1fd"/><stop offset=".12" stop-color="#38a1fd"/><stop offset=".2" stop-color="#3191fc"/><stop offset=".45" stop-color="#2066fa"/><stop offset=".68" stop-color="#1346f8"/><stop offset=".87" stop-color="#0b33f7"/><stop offset="1" stop-color="#082cf7"/></linearGradient><clipPath id="E" transform="translate(-.1 -9)"><path d="M-157.9-285h1080V795h-1080z" fill="none"/></clipPath><clipPath id="F" transform="translate(-.1 -9)"><path d="M378.1 168a367.867 367.867 0 0 0-151 34l-40 186a454.312 454.312 0 0 1 390.2 0l-42.1-186a366.317 366.317 0 0 0-154.1-34h-3" fill="none"/></clipPath><linearGradient id="G" x1="186.996" y1="269.024" x2="577.196" y2="269.024" gradientUnits="userSpaceOnUse"><stop offset="0" stop-color="#38a1fd"/><stop offset="1" stop-color="#082cf7"/></linearGradient></defs><g clip-path="url(#A)"><path d="M118 0h554v137.7H118z" fill="url(#B)"/></g><path d="M92 127v25.9L63 166l14.5 13.9L87 173l-1 41-86-36 92-51z" fill="#38a1fd"/><g clip-path="url(#C)"><path d="M118 40.5h569.4V260H118z" fill="url(#D)"/></g><g clip-path="url(#E)"><path d="M565 236l6.8 24 206.3-89.5L738 157l-173 79z" fill="#082cf7"/><path d="M105.3 127l12.8 199.7c-.1 7-6.2 12.1-12 11.3-4.8-.7-8.9-5.3-9-11q4.05-100.05 8.2-200" fill="#38a1fd"/></g><g clip-path="url(#F)"><path d="M187 159h390.2v220H187z" fill="url(#G)"/></g><path d="M836.654 103.934V65.901h179.19v38.033h-66.796v180.149h-45.597V103.934zm258.025 183.344q-24.825 0-42.881-10.6a71.65 71.65 0 0 1-27.858-29.616q-9.803-19.017-9.801-44.159 0-25.353 9.801-44.371a71.65 71.65 0 0 1 27.858-29.617q18.059-10.599 42.881-10.6 24.82 0 42.88 10.6a71.65 71.65 0 0 1 27.858 29.617q9.8 19.016 9.801 44.371 0 25.144-9.801 44.159a71.65 71.65 0 0 1-27.858 29.616q-18.059 10.602-42.88 10.6zm.213-35.156q11.291 0 18.856-6.445 7.563-6.444 11.452-17.631a77.33 77.33 0 0 0 3.889-25.462 77.34 77.34 0 0 0-3.889-25.462q-3.891-11.186-11.452-17.685-7.566-6.497-18.856-6.499-11.401 0-19.123 6.499-7.725 6.5-11.612 17.685a77.29 77.29 0 0 0-3.889 25.462 77.28 77.28 0 0 0 3.889 25.462q3.888 11.186 11.612 17.631 7.723 6.448 19.123 6.445zm109.942 93.324v-225h44.745v27.486h2.023a60.13 60.13 0 0 1 8.683-13.476 45.69 45.69 0 0 1 14.915-11.506q9.214-4.634 22.958-4.634a61.77 61.77 0 0 1 33.025 9.322q15.126 9.324 24.184 28.019 9.054 18.697 9.056 46.822 0 27.381-8.789 46.183-8.789 18.804-23.864 28.444c-10.059 6.431-21.779 9.782-33.718 9.642q-13.211 0-22.426-4.368a45.92 45.92 0 0 1-15.074-11.026 54.73 54.73 0 0 1-8.949-13.477h-1.385v87.571zm44.425-143.182q0 14.597 4.049 25.462 4.049 10.865 11.719 16.886 7.67 6.019 18.643 6.019 11.079 0 18.75-6.126 7.67-6.125 11.665-17.045a73.13 73.13 0 0 0 3.995-25.195 72.36 72.36 0 0 0-3.941-24.929q-3.943-10.759-11.612-16.833-7.671-6.072-18.857-6.072-11.082 0-18.697 5.859-7.617 5.86-11.665 16.619-4.05 10.761-4.049 25.355zm125.922-98.33V65.901h179.19v38.033h-66.797v180.149h-45.597V103.934zm290.734 110.475v-93.963h45.384v163.637h-43.572v-29.724h-1.705a48.41 48.41 0 0 1-18.377 23.118q-12.839 8.736-31.267 8.736-16.408 0-28.871-7.458c-8.384-5.05-15.135-12.411-19.442-21.2q-6.979-13.743-7.085-32.919v-104.19h45.384v96.093q.105 14.49 7.777 22.905 7.67 8.417 20.561 8.416c5.348.03 10.62-1.269 15.341-3.782a29.25 29.25 0 0 0 11.559-11.239q4.42-7.456 4.315-18.431zm168.641-93.963v34.091h-98.544v-34.091zm-76.172-39.205h45.383v152.557q0 6.287 1.918 9.748a10.48 10.48 0 0 0 5.38 4.847 21.55 21.55 0 0 0 8.044 1.385c2.144-.001 4.283-.197 6.392-.586q3.196-.583 4.9-.905l7.138 33.772q-3.41 1.066-9.588 2.504a80.28 80.28 0 0 1-15.022 1.758q-16.406.639-28.711-4.368a40.11 40.11 0 0 1-19.123-15.554q-6.819-10.547-6.711-26.634zm177.912 206.037q-24.825 0-42.881-10.6a71.65 71.65 0 0 1-27.858-29.616q-9.803-19.017-9.801-44.159 0-25.353 9.801-44.371a71.65 71.65 0 0 1 27.858-29.617q18.059-10.599 42.881-10.6 24.82 0 42.88 10.6a71.65 71.65 0 0 1 27.858 29.617q9.8 19.016 9.801 44.371 0 25.144-9.801 44.159a71.65 71.65 0 0 1-27.858 29.616q-18.059 10.602-42.88 10.6zm.213-35.156q11.291 0 18.856-6.445 7.563-6.444 11.452-17.631a77.33 77.33 0 0 0 3.889-25.462 77.34 77.34 0 0 0-3.889-25.462q-3.891-11.186-11.452-17.685-7.566-6.497-18.856-6.499-11.401 0-19.123 6.499-7.726 6.5-11.612 17.685a77.29 77.29 0 0 0-3.889 25.462 77.28 77.28 0 0 0 3.889 25.462q3.888 11.186 11.612 17.631 7.723 6.448 19.123 6.445zm109.941 31.961V120.446h43.999v28.551h1.704q4.475-15.233 15.021-23.065c7.013-5.215 15.552-7.967 24.29-7.83a69.01 69.01 0 0 1 7.351.426 52.15 52.15 0 0 1 6.925 1.172v40.27c-2.9-.791-5.856-1.361-8.842-1.705a79.65 79.65 0 0 0-10.334-.746 36.36 36.36 0 0 0-17.845 4.314c-5.135 2.794-9.408 6.938-12.357 11.985-3.088 5.374-4.653 11.488-4.528 17.685v92.578zm258.767-116.975l-41.549 2.557a21.86 21.86 0 0 0-4.581-9.642 25.17 25.17 0 0 0-9.215-6.925 32.43 32.43 0 0 0-13.583-2.61q-10.547 0-17.791 4.421-7.247 4.422-7.245 11.772a12.61 12.61 0 0 0 4.687 9.908q4.688 4.05 16.087 6.499l29.616 5.966q23.864 4.901 35.583 15.767 11.717 10.866 11.719 28.551a44.73 44.73 0 0 1-9.429 28.232q-9.428 12.144-25.781 18.909-16.354 6.766-37.659 6.765-32.495 0-51.723-13.583-19.23-13.582-22.532-37.02l44.638-2.344c1.057 6.159 4.602 11.611 9.802 15.075q7.775 5.168 19.922 5.167 11.93 0 19.23-4.635 7.295-4.635 7.403-11.985a12.67 12.67 0 0 0-5.22-10.174q-5.114-3.995-15.767-6.126l-28.339-5.645q-23.969-4.794-35.636-16.62-11.665-11.824-11.665-30.149 0-15.766 8.576-27.166 8.574-11.399 24.183-17.578 15.606-6.177 36.595-6.179 31.002 0 48.846 13.104 17.844 13.103 20.828 35.689z" fill="#1c1e21"/></svg>