<svg width="97" height="99" viewBox="0 0 97 99" fill="none" xmlns="http://www.w3.org/2000/svg">
<path fill-rule="evenodd" clip-rule="evenodd" d="M20.2869 85.2761C20.0104 85.4675 19.7001 85.6007 19.3737 85.6682C19.0472 85.7356 18.7111 85.736 18.3845 85.6692C18.0579 85.6025 17.7473 85.4699 17.4705 85.2791C17.1936 85.0883 16.956 84.843 16.7712 84.5573L4.82599 66.1431C4.64047 65.8579 4.51131 65.5377 4.44592 65.2009C4.38053 64.8642 4.38017 64.5174 4.44489 64.1805C4.5096 63.8435 4.63812 63.5231 4.82306 63.2375C5.00799 62.9519 5.24573 62.7067 5.52266 62.5161L65.0199 21.4382C65.305 21.2428 65.6257 21.1091 65.9624 21.0453L92.759 15.8751C93.246 15.7811 93.749 15.8365 94.2058 16.0346C94.6625 16.2327 95.0528 16.5647 95.3284 16.9895C95.604 17.4143 95.7526 17.9132 95.7559 18.4243C95.7593 18.9354 95.6171 19.4363 95.3471 19.8649L80.4957 43.4493C80.31 43.746 80.0679 44.0008 79.7841 44.1982L20.2869 85.2761ZM27.266 74.1699L18.1359 60.0953L10.443 65.4066L19.5731 79.4813L27.266 74.1699ZM22.3424 57.1911L31.4725 71.2657L70.1457 44.5651L70.434 43.0641L67.9511 42.5565C67.2926 42.4219 66.713 42.0229 66.3396 41.4474C65.9662 40.8718 65.8298 40.1668 65.9603 39.4875L66.4523 36.926L63.9694 36.4184C63.3109 36.2838 62.7312 35.8849 62.3579 35.3093C61.9845 34.7337 61.8481 34.0287 61.9785 33.3494L62.4705 30.7879L61.0156 30.4905L22.3424 57.1911ZM75.905 40.5888L76.5357 40.1534L87.8832 22.1298L67.4056 26.0787L66.7749 26.5142C67.2135 26.7936 67.5589 27.2044 67.765 27.6918C67.9711 28.1792 68.0281 28.7199 67.9283 29.2416L67.4363 31.8031L69.9191 32.3107C70.5776 32.4453 71.1573 32.8442 71.5307 33.4198C71.904 33.9954 72.0405 34.7004 71.91 35.3797L71.418 37.9412L73.9009 38.4487C74.4064 38.5525 74.8692 38.813 75.2273 39.1954C75.5855 39.5779 75.8219 40.064 75.905 40.5888Z" fill="#0a61f7" fill-opacity="0.8"/>
</svg>
