<svg width="97" height="99" viewBox="0 0 97 99" fill="none" xmlns="http://www.w3.org/2000/svg">
<path fill-rule="evenodd" clip-rule="evenodd" d="M76.4875 85.1335C76.764 85.3249 77.0743 85.4581 77.4008 85.5256C77.7272 85.5931 78.0633 85.5934 78.3899 85.5266C78.7165 85.4599 79.0271 85.3273 79.3039 85.1365C79.5808 84.9457 79.8184 84.7004 80.0032 84.4148L91.9484 66.0005C92.1339 65.7153 92.2631 65.3951 92.3285 65.0584C92.3939 64.7216 92.3942 64.3748 92.3295 64.0379C92.2648 63.701 92.1363 63.3805 91.9514 63.0949C91.7664 62.8093 91.5287 62.5641 91.2518 62.3735L31.7545 21.2957C31.4694 21.1003 31.1487 20.9666 30.8121 20.9027L4.01545 15.7326C3.52845 15.6385 3.0254 15.6939 2.56866 15.892C2.11192 16.0901 1.72157 16.4221 1.44601 16.8469C1.17045 17.2717 1.02179 17.7706 1.01847 18.2817C1.01515 18.7928 1.15731 19.2937 1.42732 19.7223L16.2788 43.3067C16.4644 43.6034 16.7065 43.8582 16.9903 44.0557L76.4875 85.1335ZM69.5084 74.0273L78.6385 59.9527L86.3315 65.2641L77.2014 79.3387L69.5084 74.0273ZM74.432 57.0485L65.3019 71.1231L26.6287 44.4225L26.3404 42.9215L28.8233 42.4139C29.4818 42.2793 30.0615 41.8804 30.4348 41.3048C30.8082 40.7292 30.9446 40.0243 30.8141 39.3449L30.3221 36.7834L32.805 36.2759C33.4635 36.1413 34.0432 35.7423 34.4165 35.1667C34.7899 34.5912 34.9264 33.8862 34.7959 33.2068L34.3039 30.6454L35.7588 30.3479L74.432 57.0485ZM20.8694 40.4462L20.2387 40.0108L8.89125 21.9872L29.3688 25.9362L29.9995 26.3716C29.5609 26.651 29.2155 27.0618 29.0094 27.5492C28.8033 28.0366 28.7463 28.5773 28.8461 29.099L29.3381 31.6605L26.8553 32.1681C26.1968 32.3027 25.6171 32.7017 25.2437 33.2772C24.8704 33.8528 24.7339 34.5578 24.8644 35.2371L25.3564 37.7986L22.8736 38.3062C22.368 38.4099 21.9052 38.6704 21.5471 39.0529C21.1889 39.4353 20.9525 39.9214 20.8694 40.4462Z" fill="#0a61f7" fill-opacity="0.8"/>
</svg>
