<svg width="88" height="95" viewBox="0 0 88 95" fill="none" xmlns="http://www.w3.org/2000/svg">
<path d="M79.7042 20.52L36.3899 3.52443C33.267 2.29904 31.029 4.14678 30.2028 6.38806L26.9154 15.305L24.5441 14.3746C23.3688 13.9134 22.0538 14.5224 21.6067 15.735C21.1598 16.9475 21.7501 18.3041 22.9254 18.7652L25.2967 19.6957L21.9721 28.7135L19.804 27.8628C18.6286 27.4016 17.3136 28.0107 16.8667 29.2231C16.4196 30.4357 17.0099 31.7923 18.1852 32.2535L20.3533 33.1042L17.011 42.1702L14.7961 41.3011C13.6208 40.84 12.3058 41.449 11.8588 42.6615C11.4118 43.874 12.0021 45.2306 13.1775 45.6918L15.3923 46.5609L12.0752 55.5585L9.86033 54.6895C8.685 54.2283 7.37003 54.8373 6.92304 56.0498C6.47604 57.2622 7.06633 58.6189 8.24166 59.0801L10.4565 59.9491L7.11833 69.0039C5.74915 72.7178 8.28567 74.593 9.84662 75.2054L53.2631 92.2411C56.863 93.6537 60.8903 91.7885 62.2594 88.0746L83.7429 29.8012C85.112 26.0874 83.3051 21.933 79.7042 20.52ZM11.4634 70.7088L14.8015 61.6541L17.0653 62.5423C18.2405 63.0035 19.5556 62.3945 20.0026 61.182C20.4496 59.9694 19.8592 58.6128 18.684 58.1517L16.4202 57.2634L19.7373 48.2658L22.0011 49.154C23.1763 49.6152 24.4914 49.0061 24.9384 47.7937C25.3854 46.5812 24.795 45.2245 23.6198 44.7633L21.356 43.8751L24.6984 34.809L27.0088 35.7156C28.1842 36.1768 29.4992 35.5678 29.9462 34.3552C30.3932 33.1427 29.803 31.7861 28.6276 31.3249L26.3172 30.4183L29.6417 21.4006L31.7479 22.227C32.9233 22.6882 34.2382 22.0792 34.6852 20.8667C35.1323 19.6541 34.542 18.2975 33.3666 17.8363L31.2604 17.0099L34.5478 8.09295C34.5672 8.04028 34.5876 7.99828 34.6086 7.96162C34.652 7.97527 34.695 7.99041 34.7374 8.007L69.3617 21.5928L46.2257 84.3488L11.4634 70.7088ZM57.9144 86.3698C57.4583 87.607 56.1148 88.2292 54.9156 87.7586L50.5706 86.0537L73.7066 23.2978L78.0516 25.0027C79.2508 25.4732 79.8539 26.8592 79.3978 28.0964L57.9144 86.3698Z" fill="#0a61f7" fill-opacity="0.8"/>
</svg>
