<svg width="86" height="96" viewBox="0 0 86 96" fill="none" xmlns="http://www.w3.org/2000/svg">
<path d="M57.2722 2.68185L10.6651 15.5656C7.30469 16.4945 6.50683 19.4614 7.13321 21.8731L9.62525 31.4679L7.07368 32.1733C5.80908 32.5228 5.0586 33.8637 5.39749 35.1685C5.73634 36.4732 7.03615 37.2473 8.30075 36.8977L10.8523 36.1924L13.3725 45.8958L11.0395 46.5407C9.77487 46.8903 9.02449 48.2312 9.36334 49.5359C9.70223 50.8407 11.002 51.6148 12.2666 51.2653L14.5996 50.6203L17.1332 60.3756L14.75 61.0344C13.4853 61.384 12.7349 62.7248 13.0738 64.0296C13.4127 65.3343 14.7124 66.1084 15.9771 65.7588L18.3603 65.1L20.8749 74.7817L18.4917 75.4405C17.227 75.7901 16.4766 77.131 16.8154 78.4356C17.1543 79.7403 18.454 80.5145 19.7187 80.1649L22.102 79.5061L24.6325 89.2492C25.6704 93.2455 28.9196 93.2338 30.5992 92.7695L77.3163 79.8554C81.1899 78.7846 83.4881 74.678 82.4501 70.6818L66.1644 7.97825C65.1265 3.98211 61.1469 1.61076 57.2722 2.68185ZM29.3079 87.9568L26.7773 78.2138L29.2132 77.5404C30.4778 77.1908 31.2282 75.8499 30.8894 74.5452C30.5505 73.2405 29.2507 72.4664 27.9861 72.8159L25.5502 73.4893L23.0356 63.8076L25.4715 63.1343C26.7361 62.7847 27.4866 61.4437 27.1477 60.1391C26.8089 58.8344 25.509 58.0602 24.2444 58.4098L21.8086 59.0831L19.2749 49.3278L21.761 48.6406C23.0257 48.291 23.7761 46.9501 23.4372 45.6453C23.0984 44.3407 21.7986 43.5664 20.534 43.916L18.0479 44.6033L15.5276 34.9L17.794 34.2735C19.0587 33.9239 19.8091 32.583 19.4702 31.2784C19.1314 29.9736 17.8316 29.1994 16.5669 29.549L14.3006 30.1755L11.8085 20.5807C11.7938 20.524 11.7863 20.4757 11.7823 20.4315C11.827 20.4158 11.8722 20.4016 11.9178 20.3889L49.1744 10.09L66.7129 77.6169L29.3079 87.9568ZM77.7748 71.9743C78.1206 73.3055 77.3539 74.6754 76.0635 75.0321L71.3882 76.3246L53.8497 8.79769L58.525 7.50527C59.8154 7.14857 61.1433 7.9395 61.4891 9.27074L77.7748 71.9743Z" fill="#0a61f7" fill-opacity="0.8"/>
</svg>
