<svg width="71" height="56" viewBox="0 0 71 56" fill="none" xmlns="http://www.w3.org/2000/svg">
<path d="M69 54.4349L2 54.4349L2 24.702L17.7305 24.702L17.7305 16.5653L35.206 2L52.6871 16.5653L52.6871 24.702L69 24.702L69 54.4349Z" stroke="black" stroke-width="3" stroke-linejoin="round"/>
<path d="M35.2092 30.5483C37.7834 30.5483 39.8701 28.4616 39.8701 25.8874C39.8701 23.3133 37.7834 21.2266 35.2092 21.2266C32.6351 21.2266 30.5483 23.3133 30.5483 25.8874C30.5483 28.4616 32.6351 30.5483 35.2092 30.5483Z" stroke="black" stroke-width="3"/>
<path d="M2.00049 30.8398H17.1484" stroke="black" stroke-width="3"/>
<path d="M17.7305 24.7217L17.7305 54.4348" stroke="black" stroke-width="3"/>
<path d="M6.66113 35.792V39.8703" stroke="black" stroke-width="3" stroke-linecap="round"/>
<path d="M12.4873 35.792V39.8703" stroke="black" stroke-width="3" stroke-linecap="round"/>
<path d="M68.418 30.8398H53.2701" stroke="black" stroke-width="3"/>
<path d="M52.687 24.7217L52.687 54.4348" stroke="black" stroke-width="3"/>
<path d="M63.7568 35.792V39.8703" stroke="black" stroke-width="3" stroke-linecap="round"/>
<path d="M57.9312 35.792V39.8703" stroke="black" stroke-width="3" stroke-linecap="round"/>
<path d="M17.7305 16.5664H39.8697" stroke="black" stroke-width="3" stroke-linecap="round"/>
<path d="M43.6567 16.5664H52.6872" stroke="black" stroke-width="3" stroke-linecap="round"/>
<path d="M25.8872 54.1438V35.209H35.5003" stroke="black" stroke-width="3" stroke-linejoin="round"/>
<path d="M44.5308 54.4351V35.209H35.209" stroke="black" stroke-width="3" stroke-linejoin="round"/>
<path d="M35.209 35.209V54.4351" stroke="black" stroke-width="3"/>
</svg>
