<svg width="81" height="70" viewBox="0 0 81 70" xmlns="http://www.w3.org/2000/svg">
<path fill-rule="evenodd" clip-rule="evenodd" d="M24.8534 10.4443L34.2586 11.7148L41.788 5.76301C46.6214 1.9423 52.685 0.266139 58.7226 1.08175L65.7629 2.03283C67.1912 2.22578 68.3793 3.32056 68.7628 4.79718L79.8733 47.5749C80.3913 49.5693 79.2948 51.6053 77.4243 52.1223C76.9934 52.2414 76.5437 52.2718 76.0993 52.2118L71.8534 51.6382C65.8158 50.8226 59.7523 52.4987 54.9188 56.3194L47.3895 62.2712L37.9843 61.0007C31.9467 60.1851 25.8831 61.8613 21.0497 65.682L17.6506 68.3689C16.1062 69.5897 13.9012 69.2339 12.7256 67.5741C12.4548 67.1918 12.2543 66.7594 12.135 66.2999L1.02449 23.5222C0.640967 22.0456 1.13926 20.4847 2.2827 19.5808L7.91885 15.1255C12.7523 11.3048 18.8158 9.62866 24.8534 10.4443ZM12.1841 20.8683L8.377 23.8778L17.5844 59.3281C23.7545 54.7759 31.346 52.8074 38.8948 53.8271L41.663 54.1996L32.4607 18.769L23.9429 17.6178C19.7461 17.0509 15.5438 18.2125 12.1841 20.8683ZM46.0532 11.5058L39.2336 16.893L48.4368 52.3271L50.6536 50.5766C56.6968 45.7996 64.2253 43.5885 71.775 44.3481L62.5676 8.89774L57.8121 8.25531C53.6153 7.68837 49.413 8.85002 46.0532 11.5058Z" fill="#0a61f7" fill-opacity="0.8"/>
</svg>
