<svg xmlns="http://www.w3.org/2000/svg" viewBox="0 0 744.1 540.1" xmlns:v="https://vecta.io/nano"><path d="M628.5 244.1l-73-9 4-64h69z" fill="#ffc9b0"/><path d="M670.1 322.3c-2.3 0-4.5-1.4-5.4-3.6l-10.1-23.6 30 .1 20.6-21.8 9.9 23.1c1.2 2.9-.1 6.3-3 7.7l-39.7 17.6c-.7.4-1.5.5-2.3.5z" fill="#ebedf0"/><path d="M680 298.2h-.8l-24.1-1.4-.7-1.5.5-.2 50.2-22.4.7 1.5-15.4 19c-2.5 3.2-6.3 5-10.4 5z" fill="#d8dbe1"/><path d="M637.5 79.3l-71.3.9c-2.8 0-5-2.3-5-5V51.6c0-20.7 16.8-37.6 37.6-37.6s37.6 16.8 37.6 37.6l6.2 22.7c-.1 2.7-2.3 5-5.1 5h0z" fill="#725858"/><g fill="#ffc9b0"><path d="M672.4 288.7c-4.5-4.1-4.8-11-.8-15.5.4-.5.9-.9 1.4-1.3L660.6 235l19.5 5.2 8.8 34.2c3.4 5 2.1 11.9-2.9 15.3-4.2 2.8-9.9 2.4-13.6-1h0zm-84.5 237l-14.6-2.4 2.2-57.6 21.6 3.5-9.2 56.5zm72.9-30.5l-13.2 6.7-35-50.9 19.5-9.9 28.7 54.1z"/><circle cx="598.4" cy="53.9" r="26"/></g><g fill="#1a1a1a"><path d="M619 476.7l-60.9-155.4c-21.8-59.6-2.3-100.6-2.1-101l.1-.2.2-.1c2.5 9.7 59.2 9.1 72.2-5.9 7.6 6.4 17.7 21.4 19.9 39.3 2.3 19.2.5 38.7-5 57.3l-24 81.4L649 459l-30 17.7z"/><path d="M589.6 380.4l-22 111.6 29.3 5.5 18.4-96.6-25.7-20.5z"/></g><g fill="#649bfa"><path d="M557.5 190.1c4.7 1.3 51 20.3 73 1l17.2-85.2-20.7-6.5-7.2-8.8c-1.6-1.9-4-3-6.4-3l-25.6.4c-2.3 0-4.5 1-6 2.7l-8.2 9.2-18.5 4.3 2.4 85.9z"/><path d="M639.9 112.6l5.6-7.5s10.3 2.7 15.5 17.4 26.6 132.6 26.6 132.6l-23.1 10.7-31.2-104.1 6.6-49.1z"/></g><path d="M455.1 252.9a10.94 10.94 0 0 1 12.3-9.4c.6.1 1.3.2 1.9.4l23.4-31 6.8 19-23.3 26.5c-2.2 5.6-8.6 8.4-14.3 6.2-4.8-1.8-7.6-6.6-6.8-11.7h0z" fill="#ffc9b0"/><path d="M563.3 111l-7.8-6.8s-8.1 2.1-13.4 16.8-72 113.6-72 113.6l23.1 10.7 76.5-85.2-6.4-49.1z" fill="#649bfa"/><path d="M625.5 52.2h-36.4c-1.4 0-2.6-1.1-2.8-2.5l-.5-3.8a1.77 1.77 0 0 0-1.9-1.5c-.6.1-1.1.4-1.3 1l-2.4 5.1c-.5 1-1.5 1.6-2.5 1.6h-5.5c-1.5 0-2.8-1.2-2.8-2.8V49l2.2-22.7c.1-1 .7-1.9 1.6-2.3 16.7-7.8 33.5-7.8 50.2 0 .9.4 1.5 1.2 1.6 2.2l3.3 22.7c.2 1.5-.8 3-2.4 3.2-.1.1-.2.1-.4.1h0z" fill="#725858"/><path d="M39 18c-2.6 0-4.8 2.1-4.8 4.8L33 533.2c0 2.6 2.1 4.8 4.8 4.8l411.2.9c2.6 0 4.8-2.1 4.8-4.8L455 23.7c0-2.6-2.1-4.8-4.8-4.8L39 18z" fill="#093f68"/><path d="M54.2 33.3c-2.6 0-4.8 2.1-4.8 4.8L48.3 518c0 2.6 2.1 4.8 4.8 4.8l380.7.9c2.6 0 4.8-2.1 4.8-4.8l1-479.9c0-2.6-2.1-4.8-4.8-4.8l-380.6-.9z" fill="#f3f8ff"/><path d="M384.3 241.7l-280.5-.7c-4-.1-7.1-3.3-7.1-7.3a7.26 7.26 0 0 1 7.1-7.1l280.5.6c4 .1 7.1 3.3 7.1 7.3s-3.2 7.2-7.1 7.2h0zm2.7-133.3l-186.1-.4c-2.6 0-4.7-3.2-4.7-7.2s2.1-7.2 4.8-7.1l186.1.4c2.6 0 4.7 3.2 4.7 7.2s-2.1 7.1-4.8 7.1zm-.1 41l-186.1-.4c-2.6 0-4.7-3.2-4.7-7.2s2.1-7.2 4.8-7.1l186.1.4c2.6 0 4.7 3.2 4.7 7.2s-2.1 7.1-4.8 7.1zM384.2 288l-280.5-.6c-4-.1-7.1-3.3-7.1-7.3a7.26 7.26 0 0 1 7.1-7.1l280.5.6c4 0 7.2 3.1 7.2 7.1s-3.1 7.2-7.1 7.2h0c0 .1 0 .1-.1.1h0zm-.1 46.2l-280.5-.6c-4-.1-7.1-3.3-7.1-7.3a7.26 7.26 0 0 1 7.1-7.1l280.5.6c4 0 7.2 3.1 7.2 7.1s-3.1 7.2-7.1 7.2c0 .1 0 .1-.1.1h0zm-.1 46.3l-280.5-.6c-4-.1-7.1-3.3-7.1-7.3a7.26 7.26 0 0 1 7.1-7.1l280.5.6c4 0 7.2 3.1 7.2 7.1 0 3.9-3.1 7.2-7.1 7.2 0 .1 0 .1-.1.1h0zm-138.1 44.3l-142.5-.6c-4-.1-7.1-3.3-7.1-7.3a7.26 7.26 0 0 1 7.1-7.1l142.5.6c4 0 7.2 3.1 7.2 7.1 0 3.9-3.1 7.2-7.1 7.2 0 .1-.1.1-.1.1zm-.1 46.3l-142.5-.6c-4-.1-7.1-3.3-7.1-7.3a7.26 7.26 0 0 1 7.1-7.1l142.5.6c4 0 7.2 3.1 7.2 7.1 0 3.9-3.1 7.2-7.1 7.2 0 .1-.1.1-.1.1h0z" fill="#093f68"/><path d="M325.5 53.7v-34C325.7 9.1 317.3.2 306.7 0S287.2 8.2 287 18.8h4.2c.3-8.1 6.9-14.4 15-14.5h.2c8.3.1 14.9 7 14.8 15.3V54c-.1 5.5-4.6 9.9-10.1 10h-.1c-5.6-.1-10-4.7-10-10.2V20c0-2.8 2.3-5.1 5.1-5.1s5.1 2.3 5.1 5.1h0v9.8c0 1.2.9 2.1 2.1 2.1s2.1-.9 2.1-2.1v-9.9c0-5.1-4.2-9.3-9.3-9.3s-9.3 4.2-9.3 9.3h0v33.8c-.1 7.9 6.2 14.4 14.1 14.5h.2c7.8 0 14.2-6.3 14.3-14.2.1-.1.1-.2.1-.3z" fill="#649bfa"/><path d="M383.5 440.9c0 5.6-1 11.2-3 16.5-.9 2.4-2 4.8-3.3 7-13 22.7-41.9 30.5-64.6 17.5a47.39 47.39 0 0 1-17.5-17.5c-.4-.7-.8-1.5-1.2-2.2-11.8-23.3-2.4-51.8 20.9-63.5s51.8-2.4 63.5 20.9c3.5 6.6 5.2 13.9 5.2 21.3h0z" fill="#b6d5ff"/><circle cx="338.7" cy="439.8" r="9" fill="#649bfa"/><path d="M294 462.2c4-4.3 9.3-11.1 14.3-6.2 2.5 2.3 6.4 8.1 10.2 4.3l29.3-29.3c2.3-2.3 6-2.2 8.2.1l.1.1 24.4 26.3c-.9 2.4-2 4.8-3.3 7h-82.1l-1.1-2.3z" fill="#3f3d56"/><path d="M171.5 119.9c0 5.6-1 11.2-3 16.5-.9 2.4-2 4.8-3.3 7-13 22.7-41.9 30.5-64.6 17.5a47.39 47.39 0 0 1-17.5-17.5c-.4-.7-.8-1.5-1.2-2.2-11.8-23.3-2.4-51.8 20.9-63.5 23.3-11.8 51.8-2.4 63.5 20.9 3.5 6.6 5.2 13.9 5.2 21.3h0z" fill="#b6d5ff"/><circle cx="126.7" cy="118.8" r="9" fill="#649bfa"/><path d="M82 141.2c4-4.3 9.3-11.1 14.3-6.2 2.5 2.3 6.4 8.1 10.2 4.3l29.3-29.3c2.3-2.3 6-2.2 8.2.1l.1.1 24.4 26.3c-.9 2.4-2 4.8-3.3 7h-82l-1.2-2.3z" fill="#3f3d56"/><circle cx="309.5" cy="55.1" r="5" fill="#649bfa"/><path d="M595.4 539.1h-9.5l-1.7-9-4.4 9h-25.2c-3.1 0-5.7-2.5-5.7-5.7 0-1.9.9-3.6 2.5-4.7l20.2-13.9v-9.1l21.2 1.3 2.6 32.1zm84.3-22.2l-8 5.2-6.3-6.6 1.2 9.9-21.2 13.6c-2.6 1.7-6.1.9-7.8-1.7a5.84 5.84 0 0 1-.5-5.3l9.4-22.6-4.9-7.6 18.5-10.4 19.6 25.5z" fill="#2f2e41"/></svg>