<svg xmlns="http://www.w3.org/2000/svg" viewBox="0 0 64 64" xmlns:v="https://vecta.io/nano"><path d="M35 54h28V6H1v48h28" fill="#a2c3fc"/><g fill="#f3f8ff"><path d="M29,50H9c0-2.2-1.8-4-4-4V14c2.2,0,4-1.8,4-4h46c0,2.2,1.8,4,4,4v32c-2.2,0-4,1.8-4,4H35"/><path d="M15 16h34v6H15z"/></g><path d="M29,49.2V58l3-2l3,2v-8.8" fill="#bf004c"/><circle cx="32" cy="44" r="6" fill="#feb917"/><path d="M63 5H1a.94.94 0 0 0-1 1v48a.94.94 0 0 0 1 1h27v3c0 .6.5 1 1 1 .2 0 .4-.1.5-.2l2.5-1.6c2.5 1.7 2.8 2 3.5 1.7s.5-1 .5-3.9h27a.94.94 0 0 0 1-1V6a.94.94 0 0 0-1-1zM27 44a4.95 4.95 0 0 1 5-5 4.95 4.95 0 0 1 5 5 4.95 4.95 0 0 1-5 5 4.95 4.95 0 0 1-5-5zm5-7c-3.9 0-7 3.1-7 7 0 1.9.8 3.7 2.1 5H9.9C9.5 47 8 45.5 6 45.1V14.9c2-.4 3.5-1.9 3.9-3.9h44.2c.4 2 1.9 3.5 3.9 3.9v30.2c-2 .4-3.5 1.9-3.9 3.9H36.9c2.8-2.7 2.8-7.1.1-9.9-1.3-1.3-3.1-2.1-5-2.1zm2 19.1c-2.3-1.5-1.7-1.5-4 0v-5.4c1.3.4 2.7.4 4 0v5.4zM62 53H36v-2h19a.94.94 0 0 0 1-1c0-1.7 1.3-3 3-3a.94.94 0 0 0 1-1V14a.94.94 0 0 0-1-1c-1.7 0-3-1.3-3-3a.94.94 0 0 0-1-1H9a.94.94 0 0 0-1 1c0 1.7-1.3 3-3 3a.94.94 0 0 0-1 1v32a.94.94 0 0 0 1 1c1.7 0 3 1.3 3 3a.94.94 0 0 0 1 1h19v2H2V7h60v46zM49 15H15a.94.94 0 0 0-1 1v6a.94.94 0 0 0 1 1h34a.94.94 0 0 0 1-1v-6a.94.94 0 0 0-1-1zm-1 6H16v-4h32v4zm1 6H15a.94.94 0 0 0-1 1 .94.94 0 0 0 1 1h34a.94.94 0 0 0 1-1 .94.94 0 0 0-1-1zm0 5H15a.94.94 0 0 0-1 1 .94.94 0 0 0 1 1h34a.94.94 0 0 0 1-1 .94.94 0 0 0-1-1zM21 42h-6a.94.94 0 0 0-1 1 .94.94 0 0 0 1 1h6a.94.94 0 0 0 1-1 .94.94 0 0 0-1-1zm28 0h-6a.94.94 0 0 0-1 1 .94.94 0 0 0 1 1h6a.94.94 0 0 0 1-1 .94.94 0 0 0-1-1z" fill="#093f68"/></svg>