<svg xmlns="http://www.w3.org/2000/svg" xmlns:xlink="http://www.w3.org/1999/xlink" viewBox="0 0 64 64" xmlns:v="https://vecta.io/nano"><g fill="#fff"><path d="M55.75 52.67c2.52-2 2.25-4.5 2.25-6.67a6 6 0 0 0-12 0c0 2.24-.27 4.65 2.25 6.67A11.08 11.08 0 0 0 42 58.44a11.08 11.08 0 0 0-6.25-5.77c2.52-2 2.25-4.5 2.25-6.67a6 6 0 0 0-12 0c0 2.24-.27 4.65 2.25 6.67A11.08 11.08 0 0 0 22 58.44a11.08 11.08 0 0 0-6.25-5.77c2.52-2 2.25-4.5 2.25-6.67a6 6 0 0 0-12 0c0 2.24-.27 4.65 2.25 6.67A11 11 0 0 0 1 63a1 1 0 0 0 2 0 9 9 0 0 1 18 0 1 1 0 0 0 2 0 9 9 0 0 1 18 0 1 1 0 0 0 2 0 9 9 0 0 1 18 0 1 1 0 0 0 2 0 11 11 0 0 0-7.25-10.33zM8 48v-2a4 4 0 0 1 8 0v2a4 4 0 0 1-8 0zm20 0v-2a4 4 0 0 1 8 0v2a4 4 0 0 1-8 0zm20 0v-2a4 4 0 0 1 8 0v2a4 4 0 0 1-8 0z"/><use xlink:href="#B"/><use xlink:href="#B" x="10"/><use xlink:href="#B" x="20"/><use xlink:href="#B" x="30"/><use xlink:href="#B" x="40"/><use xlink:href="#B" x="50"/><path d="M59 0H5C1.87 0 0 1.5 0 4v22a5 5 0 0 0 5 5h3.38l2.73 5.45a1 1 0 0 0 1.78 0L15.62 31h12.76l2.73 5.45a1 1 0 0 0 1.78 0L35.62 31h12.76l2.73 5.45a1 1 0 0 0 1.78 0L55.62 31H59a5 5 0 0 0 5-5V4c0-2.5-1.87-4-5-4zm3 26a3 3 0 0 1-3 3h-4c-.82 0-.78.31-3 4.76-2.27-4.53-2.19-4.76-3-4.76-15 0-14.51-.22-14.89.55L32 33.76l-2.11-4.21C29.51 28.77 30 29 15 29c-.82 0-.78.31-3 4.76C9.73 29.23 9.81 29 9 29H5a3 3 0 0 1-3-3V4c0-.5 0-2 3-2h54c3 0 3 1.5 3 2z"/></g><defs ><path id="B" d="M6 61v2a1 1 0 0 0 2 0v-2a1 1 0 0 0-2 0z"/></defs></svg>