<svg xmlns="http://www.w3.org/2000/svg" xmlns:xlink="http://www.w3.org/1999/xlink" viewBox="0 0 400 300" xmlns:v="https://vecta.io/nano"><style><![CDATA[.S{fill:#ffc4b0}.T{enable-background:new}.U{fill:#9bc4f6}.V{fill:#42210b}.W{fill:#00bf94}.X{fill:#68e1fd}.Y{fill:#e0ebfe}]]></style><path d="M87.7 237.6l.6-1.5 1.1-2.9c1.3-3.5 2.3-7.1 3.2-10.7 1-3.6 1.7-7.3 2.1-11 0 .2-.2 1.6-.1.7l.1-.8c0-.4.1-.8.1-1.2l.3-2.7a50.68 50.68 0 0 0 .3-5.5c.1-3.7.1-7.5-.2-11.2-.1-1.8-.3-3.7-.5-5.5 0-.4-.1-.8-.1-1.1v-.3c-.1-.9-.3-1.8-.4-2.7-.6-3.3-1.3-6.6-2.2-9.8l-48 27.7c-4.2 2.5-5.7 7.9-3.2 12.2.8 1.3 1.9 2.5 3.2 3.2l43 24.9.6-1.3.1-.5zm104.4-79.2l8 4.6 4.3 2.5.5.3h0l1.6-.9 3.8-2.2 7.7-4.5 15.6-9.2c16.5-10 32.9-20.3 49-31l-40.9-23.5c-5.4-3.1-12-3.1-17.3 0l-71.6 41.4 23 13.2 16.3 9.3zm15.7 95.1c-.8.1-1.6 0-2.3-.3l-22.5-7.4c-25.4-8.6-50.6-17.5-75.7-26.9A110.49 110.49 0 0 1 99 246l71.5 41.3c5.8 3.3 12.9 3.3 18.6 0l21.7-12.6-2.6-18.3c-.1-1-.3-1.9-.4-2.9zm-98.9-48.6l21 7.8c25.2 9.2 50.5 18 76 26.3-2.4-20-4.4-40.1-5.9-60.3-.5-.2-.9-.4-1.4-.6-2.8-1.3-5.4-3-8.1-4.6l-8.5-4.9-16.5-9.4-26.5-15.3-34.8 20.1 1.5 5.2c2.9 11.7 4 23.7 3.2 35.7zm259.6-37.5L296 125.7l-29.2 19.1-14.3 8.9 14.6 9.1 65 41.4 36.4-21.2c4.3-2.5 5.8-8 3.3-12.3-.8-1.4-2-2.6-3.3-3.3zm-129.3-5.7l-3.8 2.3-15.9 9.3-5.9 3.4 1.6 20.6c1.2 13.3 2.6 26.5 4.2 39.8l1.2 9.9c.2 1.7.4 3.4.7 5.2v.2l.1.9.3 2.5c.5 3.9 1.1 7.7 1.7 11.6l95.2-55.4-2.8-1.8c-25.2-16.6-50.8-32.7-76.6-48.5z" class="W"/><path d="M252.4 153.6l14.3-8.9c9.8-6.2 19.6-12.6 29.2-19.1l-13.3-7.6c-16.1 10.7-32.4 21-49 31l-15.6 9.2-7.7 4.5-3.8 2.2-1.6.9h0l-.5-.3c-1.4-.8-2.9-1.6-4.3-2.5l-8-4.6-16.3-9.3-23-13.2-13.8 8 26.6 15.3 16.5 9.4 8.5 4.9c2.7 1.5 5.3 3.2 8.1 4.6.5.2.9.4 1.4.6 1.5 20.1 3.4 40.2 5.9 60.3-25.5-8.3-50.8-17.1-76-26.3l-21-7.8c.7-12-.4-24-3.3-35.7-.4-1.7-.9-3.5-1.5-5.2l-12.3 7.1a151.6 151.6 0 0 1 2.1 9.7c.2.9.3 1.8.4 2.7v.3c0 .4.1.8.1 1.1.2 1.8.4 3.7.5 5.5.2 3.7.3 7.5.2 11.2l-.3 5.5-.3 2.7c0 .4-.1.8-.1 1.2l-.1.8c-.1 1 .1-.4.1-.7-.4 3.7-1.1 7.4-2.1 11-.9 3.6-1.9 7.2-3.2 10.7-.4 1-.7 2-1.1 2.9l-.6 1.5-.1.3-.4 1.3 12 6.9c3.9-8.6 6.7-17.8 8.4-27.1 25.1 9.4 50.3 18.3 75.6 26.9l22.5 7.4c.8.2 1.5.3 2.3.3.1 1 .3 1.9.4 2.9l2.6 18.3 12.8-7.4-1.7-11.6-.3-2.5-.1-.9v-.2c-.2-1.7-.5-3.4-.7-5.2l-1.2-9.9a1307.72 1307.72 0 0 1-4.2-39.8l-1.6-20.6c2-1.1 3.9-2.3 5.9-3.4l15.9-9.3 3.8-2.3 76.8 48.4 2.8 1.8 13.4-7.8-65-41.4c-5.2-2.6-10.1-5.7-15-8.7z" fill="#f8e6d2"/><path d="M211.8 40.7c.6-.5 1.5-.7 2.3-.5.4.1.8-.1.9-.5s-.1-.8-.5-.9h0c-1.3-.4-2.8-.1-3.8.9-.6.7.4 1.8 1.1 1z" fill="#f7931e"/><ellipse cx="104.1" cy="210.6" rx="19.6" ry="4" opacity=".46" class="T W"/><path d="M104.4 211.7c-3.3-3.5-6.3-7.2-9.2-11.1-5-6.7-10.3-14.2-12.3-22.4-2.6-10.4-1.4-23.1 7.9-29.8 10.9-7.9 29.1-3.6 34.7 8.9 7.2 16.1-3.9 31.5-12.8 44.1-2.8 3.7-5.6 7.1-8.3 10.3z" fill="#f15831"/><circle cx="104.7" cy="168.9" r="12.4" fill="#fff"/><use xlink:href="#B" class="X"/><use xlink:href="#B" opacity=".1" class="T U"/><path d="M300.6 168.9l78.3-46.3s-8.3-28.8-28.8-23-20.8 34.4-20.8 34.4-7.4-5.5-18.3 1.9c-13.4 9.2-10.4 33-10.4 33z" class="Y"/><path d="M190.5 177l43.1-28.1 40.6-11.8 7.1 3.1-70 48.4z" opacity=".46" class="T W"/><g class="V"><path d="M263.3 46.2c0-.3 2.2 2.3 2.7 4.7s-.5 9.4-1.3 10.2-4.6 1.8-4.6 1.8"/><path d="M246.8 28.4l-4.1 16.1c-.4 1.3-.6 2.7-.5 4.2.4 1.8 1.4 3.4 2.7 4.7 3 3.4 6.1 6.6 9.6 9.5.8.8 1.7 1.3 2.7 1.6 1 .1 2 .1 2.9-.2.5-.1 1.1-.3 1.5-.6.5-.6.8-1.3.8-2.1.8-6.8.7-13.8.9-20.7.1-2.3.1-4.7-.8-6.8-1-2.1-2.8-3.7-4.9-4.7-3.5-1.6-7-3.3-11.1-4.1"/></g><g class="S"><path d="M224.6 47.8c-1.9-1-2.9-3-4.7-4.2l-.1-.1h-.1c-.6-.2-1.3.2-1.4.9-.1.3 0 .6.1.9.5.9 1.2 1.6 2.1 2 .1.3.4.5.7.5 1.1.3 2.1.7 3.2 1.1.6.3 1.3.1 1.6-.4.1-.3.2-.6.1-.9-.4.4-1 .4-1.5.2z"/><path d="M224.7 51.2h0l-1.9-4.9-1.2-1.3h-.3a1.11 1.11 0 0 0-1.1 1.1c0 .1 0 .2.1.3l.1.4c-.1.3-.1.6 0 .9l1.5 3.1c.2.5.4 1 .7 1.5l.3.6c.7 1.4 2.7.2 2-1.2l-.2-.5z"/></g><path d="M238.6 28.8l-.2.3-1 1.8-1.2 4.2c-.8 2.7-.7 5.8-2.3 8.3-1.9 3-5.9 2.5-8.7 1.4l-2.2-1h0c-.3 4-.4 8.3 1.2 12 3.3 1.2 6.8 1.7 10.3 1.6 4.1-.2 9.6-1.4 11.1-5.7l-7-22.9z" fill="#4587f9"/><path d="M238.1 36.3c-.7 5.4 0 11.1-2.3 16.3-.7 1.6-1.7 3.1-2.9 4.5l-.2.2c4.8-.1 6.6-.8 6.6-.8l-.8-23.8c-.1.4-.4 1.4-.9 2.8a.59.59 0 0 1 .5.8z" class="V"/><path d="M210.6 44.3l7.7 10.9 5.7.4-7.7-11.6z" fill="#2d2d2d"/><path d="M212.8 42.3l5.3.5 8.4 11.7-2.5 1.1-6.9-9.5-6.5-1.8z" fill="#606060"/><path d="M218.6 52.3h-.4c.4-.5.3-1.3-.2-1.7-.2-.2-.4-.2-.7-.3h-.9c.4-.4.5-1 .2-1.5-.5-.8-2.6-.8-3 0-.3.6-.1 1.3.4 1.6l.3.1c-.5.5-.5 1.2 0 1.7.2.2.5.3.8.4h.2c-.4.5-.2 1.3.3 1.6.2.1.5.2.7.2.8.1 1.6.1 2.4.1.6 0 1.2-.5 1.2-1.2-.1-.5-.7-1-1.3-1zm13.1 86.5c.5 3.1.6 6.2.3 9.4l-.3 2.1 7.9-1.3v-10.2h-7.9z" class="S"/><path d="M231.8 144.1c-.5 2.8-2 6.7-3.5 8.1-1.8 1.7-12 7.1-7.8 10 3.2 2.1 20.2-6.4 20.6-8.7.3-1.7-.6-6.9-1.1-9.6-2.4 1.5-5.5 1.3-8.2.2z" class="V"/><path d="M242.1 139.2c.5-9 1.8-25.5 2-26.3l4.7-18.3c-1.3-5.8-2.3-11.6-3.1-17.5-1.4-.1 1.7-15.8.3-16.1-2.8-.6-5.3-4.4-7.8-5.6-2.6 14.8-11.1 58.3-13 81.5 1.9 4.2 10.7 4.8 16.9 2.3z" class="U"/><path d="M267.7 125.6c2 2.2 4.2 7.3 5.6 9.8.3.6.6 1.1.9 1.7l5.2-4.2-5.2-11.6-6.5 4.3z" class="S"/><path d="M277.6 128.5c-1.3 2.1-3.7 3.3-6.1 3.1.2 1.8 1 5.1.2 6.3-1.1 1.8-9.5 9-5.1 10.8 3.3 1.3 14.8-8.9 14.6-10.9-.1-1.5-2.6-7-3.6-9.3z" class="V"/><path d="M264.1 132.2c.1.2.3.2.5.1 2.7-1.1 5.3-2.4 7.7-4.1 2.4-1.9 3.5-3.9 5.4-6.4l-1-1.7c-4.5-9.2-13.5-39.8-13.9-41.9-.5-2.5-2.6-24.8-2.6-24.8l-20.4-3.7s.7 19.5 2.3 36.8c.8 3 1.7 6 2.8 8.9 4.6 12.2 10.4 26.5 19.2 36.8h0z" class="U"/><path d="M260.7 81.6c-.1-1.8-.4-3.6-.7-5.4 0-2.1-.2-4.1-.5-6.2-2.2-.1-4.5-.1-6.7.1l-.1 3.3c-.3.8-.5 1.6-.7 2.5-.1.1-.3.3-.3.4-1 2.1-1.7 4.4-1.9 6.7 0 .7.6 1.2 1.2 1.2a1.1 1.1 0 0 0 1-.6l1-2.3v3.1c0 .7.5 1.2 1.2 1.2.6 0 1.2-.3 1.4-.8.4.5 1 .7 1.6.5.5-.2.8-.7 1-1.2a1.71 1.71 0 0 0 1.4 0c1-.5 1.1-1.6 1.1-2.5z" class="S"/><path d="M257.9 34.9c-1.9-4.2-9-7.4-11.7-8.6-.8 0-1.7.1-2.6.2l-1.1.2-.8.1c-.4.1-.8.2-1.1.4l-1.5.9c-.1.1-.2.1-.3.1-.4.3-.8.7-1.2 1.2l-.1.1c-.3 1.1-.4 2.2-.4 3.3-.1 3.2-.1 6.5.2 9.7l.9 12.9.4 2.1c4.4 3.5 12.1 4.6 12.7 4.5s0 6-.4 10.4c1.6.4 3.1.7 4.7.9h0a19.53 19.53 0 0 0 3.4.3h2.1c3.2-18.2-.7-33.4-3.2-38.7z" fill="#4587f9"/><g class="S"><path d="M243.7 29.6c.7.4 1.4.6 2.2.6 2.5.1 3.9-2.5 4.9-4.4a16.54 16.54 0 0 0 2-7.2c0-.4 0-.8-.1-1.2-.9-2.8-11.1-5-11.7.6-.4 3.4-.7 9.6 2.7 11.6z"/><path d="M251.6 21.7c-.7 0-1.4.2-1.9.7s-.9 1.2-1 1.9c-.1.3.1.6.4.8.2.4.8.6 1.2.3h.1c.7-.4 1.3-1 1.8-1.6.3-.7.4-1.9-.6-2.1z"/></g><path d="M255.4 14.9c-.2-1.2-.9-2.3-1.9-3-1.2-.8-2.6-1-3.9-.6-.5-.8-1.3-1.5-2.2-1.8-1.7-.5-3.6 0-4.7 1.4-1.5-.1-2.9.2-4.1 1-1.3.9-2.1 2.4-2.1 3.9v.7c-.1.4-.1.8 0 1.2.4 2.1 2.3 3.6 4.4 3.6-.2-1.5 0-4.4 1.7-3.6.1 0 .2 0 .3.1 1.1.5.2 2 1.8 2.2s2.5-1 3.9.4-1.7 3 1.6 5.6c0 .2 0 .4.1.6 0-.2 1.3-1.5 1.5-1.7l1.6-2c.9-1.1 1.6-2.4 2.1-3.7.2-1.4.2-2.9-.1-4.3z" fill="#333"/><path d="M251.3 23.7c.1-1-.6-1.5-1.4-1.1-1.2.7-1.9 1.9-2 3.3 0 .3.1.5.3.7 0 .1.1.1.1.2a.85.85 0 0 0 1.3 0l.1-.1c.8-.7 1.4-1.8 1.6-3z" class="S"/><path d="M242.6 22.4l-3.3-1.2s-.1 3 1.5 3.7 1.8-2.5 1.8-2.5zm1.6.5l3.5 1.2s0 3-2.3 2.5-1.2-3.7-1.2-3.7z" fill="none" stroke="#333" stroke-width=".75" stroke-miterlimit="10"/><path d="M249.3 22.5l-1.7 1.5c-.2.2.1.5.3.3l1.7-1.5c.2-.2-.1-.5-.3-.3zm-6.4 4c-.3 0-.7-.1-.7-.4 0-.2.1-.4.2-.6.2-.4.4-.7.5-1.1 0-.1 0-.2-.1-.3-.1 0-.2 0-.2.1-.2.4-.4.7-.5 1.1-.2.3-.3.6-.3.9 0 .5.7.7 1.1.8s.3-.4 0-.5zm1.4-3.8c-.6-.1-1.3-.3-1.9-.5-.3-.1-.4.3-.1.4.6.2 1.2.4 1.9.5.3.1.4-.4.1-.4z" fill="#333"/><path d="M247.1 101.1l-5.3-18.2 1.7 36.4c-.1.1 1.9-13.5 3.6-18.2zm8.1-69.5s-6.6 3.1-2.9 23.1c0 0-5.9-10.2-5.6-16.3s3.1-9.7 4.5-10.1 4.8 1.9 4 3.3z" class="V"/><path d="M237.3 30c-1.3 5 0 10.2-.1 13.1 0-3.1.3-6.3 1-9.3.6-2.3 1.4-5.3 3.4-6.8h0c.1 0-3.7.5-4.3 3z" fill="#5780f6"/><path d="M209.7 38.8c1.2-2 3.5-2 5.4-1 .9.5 1.6-.8.8-1.3-2.6-1.4-5.8-1.1-7.4 1.6-.6.7.7 1.5 1.2.7zm-2-1.8c.6-3.4 5.7-3.9 8-1.9.7.6 1.8-.4 1.1-1.1-3.1-2.7-9.7-2-10.5 2.5-.3 1 1.2 1.5 1.4.5h0z" fill="#f7931e"/><use xlink:href="#C" class="X"/><use xlink:href="#C" opacity=".1" class="T U"/><path d="M159.4 107.9l30.9-18.3s-3.3-11.4-11.4-9.1-8.2 13.6-8.2 13.6-2.9-2.2-7.2.8c-5.3 3.6-4.1 13-4.1 13z" class="Y"/><use xlink:href="#D" class="X"/><use xlink:href="#D" opacity=".1" class="T U"/><path d="M24.9 149.1L85 113.6s-6.4-22.1-22.1-17.7S47 122.4 47 122.4s-5.7-4.2-14 1.5c-10.4 7-8.1 25.2-8.1 25.2z" class="Y"/><defs ><path id="B" d="M361.8 100.1c-4.5-3.6-10.5-4.7-16-3-20.5 5.8-20.8 34.5-20.8 34.5s-7.4-5.5-18.3 1.9c-13.4 9.2-10.5 32.9-10.5 32.9l4.2 2.4 78.3-46.3c.2 0-4.9-17.5-16.9-22.4z"/><path id="C" d="M183.5 80.8c-1.8-1.4-4.1-1.8-6.3-1.2-8.1 2.3-8.2 13.6-8.2 13.6s-2.9-2.2-7.2.8c-5.3 3.6-4.1 13-4.1 13l1.7 1 30.9-18.3c-.1 0-2.1-7-6.8-8.9z"/><path id="D" d="M71.9 96.3c-3.5-2.7-8.1-3.6-12.3-2.3-15.7 4.4-15.9 26.5-15.9 26.5s-5.7-4.2-14 1.5c-10.3 7-8 25.2-8 25.2l3.2 1.9L85 113.6s-3.9-13.5-13.1-17.3z"/></defs></svg>