<svg xmlns="http://www.w3.org/2000/svg" viewBox="0 0 64 64" fill="#e83b10" xmlns:v="https://vecta.io/nano"><path d="M16 16h-1a.94.94 0 0 0-1 1 .94.94 0 0 0 1 1v7a.94.94 0 0 0 1 1 .94.94 0 0 0 1-1v-8a.94.94 0 0 0-1-1zm17 3c0-1.7-1.3-3-3-3s-3 1.3-3 3a.94.94 0 0 0 1 1 .94.94 0 0 0 1-1 .94.94 0 0 1 1-1 .94.94 0 0 1 1 1c0 .9-.1.8-3.8 5.4-.3.4-.3 1.1.2 1.4.2.1.4.2.6.2h4a.94.94 0 0 0 1-1 .94.94 0 0 0-1-1h-1.9c2-2.5 2.9-3.3 2.9-5zm-9 1h-1v-1a.94.94 0 0 0-1-1 .94.94 0 0 0-1 1v1h-1a.94.94 0 0 0-1 1 .94.94 0 0 0 1 1h1v1a.94.94 0 0 0 1 1 .94.94 0 0 0 1-1v-1h1a.94.94 0 0 0 1-1 .94.94 0 0 0-1-1zm16-1h-4a.94.94 0 0 0-1 1 .94.94 0 0 0 1 1h4a.94.94 0 0 0 1-1 .94.94 0 0 0-1-1zm0 3h-4a.94.94 0 0 0-1 1 .94.94 0 0 0 1 1h4a.94.94 0 0 0 1-1 .94.94 0 0 0-1-1zm7.4-2.3c1.5-2.3 1.8-2.5 1.5-3.1s-.8-.6-4.9-.6a.94.94 0 0 0-1 1 .94.94 0 0 0 1 1h2.1l-1 1.5c-.3.5-.2 1.1.3 1.4 0 0 .1 0 .1.1l.3.2c.7.3 1.2 1 1.2 1.8a1.11 1.11 0 0 1-1.1 1.1c-.3 0-.6-.1-.8-.3l-.4-.4c-.4-.4-1-.4-1.4 0s-.4 1 0 1.4h0l.4.4a3.14 3.14 0 0 0 4.4 0c.6-.6.9-1.4.9-2.2 0-1.4-.6-2.6-1.6-3.3z"/><path d="M63 40h-1V1a.94.94 0 0 0-1-1H3a.94.94 0 0 0-1 1v39H1a.94.94 0 0 0-1 1v6a.94.94 0 0 0 1 1h9.5L4.1 62.6c-.2.5 0 1.1.5 1.3.1.1.3.1.4.1 5.3 0 5.6.2 5.9-.6l2.8-6.4h36.6c3 6.8 2.8 7 3.7 7 5.3 0 5.4.2 5.8-.5s.6.2-6.3-15.5H63a.94.94 0 0 0 1-1v-6a.94.94 0 0 0-1-1zM4 2h56v38h-2V5a.94.94 0 0 0-1-1H7a.94.94 0 0 0-1 1v35H4V2zm47 38H41v-3a.94.94 0 0 1 1-1h8a.94.94 0 0 1 1 1v3zm-1-6h-8c-1.7 0-3 1.3-3 3v3H8V6h48v34h-3v-3c0-1.7-1.3-3-3-3zM9.4 62H6.5l6.1-14h2.8c-12.6 29-.4 1.2-6 14zm36.9-14l1.3 3H16.3l1.3-3h28.7zm-31.7 7l.9-2h33.1l.9 2H14.6zm42.9 7h-2.8c-16.2-37 8.5 19.5-6.1-14h2.8l6.1 14zM62 46H2v-4h60v4z"/></svg>