<svg xmlns="http://www.w3.org/2000/svg" xmlns:xlink="http://www.w3.org/1999/xlink" viewBox="0 0 64 64" xmlns:v="https://vecta.io/nano"><g fill="#fff"><path d="M57 6h-1V5a1 1 0 0 0-1-1h-3V1a1 1 0 0 0-1-1c-9 0-13.88-.86-19 3.65C26.85-.88 22 0 13 0a1 1 0 0 0-1 1v3H9a1 1 0 0 0-1 1v1H7a5 5 0 0 0-5 5v36a5 5 0 0 0 5 5h17.92l-.62 7.92A2.31 2.31 0 0 1 22 62h-2a1 1 0 0 0 0 2h24a1 1 0 0 0 0-2h-2a2.3 2.3 0 0 1-2.3-2.07L39.08 52H57a5 5 0 0 0 5-5V11a5 5 0 0 0-5-5zm-3 0v30H34.84c3.95-2.54 6.81-2 16.16-2a1 1 0 0 0 1-1V6zm-4-4v30c-8.16 0-12.26-.66-17 2.83V5.42A12.56 12.56 0 0 1 41.66 2zM14 2c7.83 0 12.48-.82 17 3.42v29.41C26.16 31.27 21.91 32 14 32zm-4 4h2v27a1 1 0 0 0 1 1c9.28 0 12.21-.54 16.16 2H10zM7 8h1v29a1 1 0 0 0 1 1h46a1 1 0 0 0 1-1V8h1a3 3 0 0 1 3 3v31H4V11a3 3 0 0 1 3-3zm31.35 54H25.64c.77-1.21.61-1.38 1.29-10h10.15c.6 7.84.44 8.69 1.27 10zM60 47a3 3 0 0 1-3 3H7a3 3 0 0 1-3-3v-3h56zm-29 1h2a1 1 0 0 0 0-2h-2a1 1 0 0 0 0 2z"/><use xlink:href="#B"/><use xlink:href="#B" y="5"/><use xlink:href="#B" y="10"/><use xlink:href="#B" y="15"/><use xlink:href="#B" y="20"/><use xlink:href="#B" x="19"/><use xlink:href="#B" x="19" y="5"/><use xlink:href="#B" x="19" y="10"/><use xlink:href="#B" x="19" y="15"/><use xlink:href="#B" x="19" y="20"/></g><defs ><path id="B" d="M18 8h9a1 1 0 0 0 0-2h-9a1 1 0 0 0 0 2z"/></defs></svg>