<svg xmlns="http://www.w3.org/2000/svg" xmlns:xlink="http://www.w3.org/1999/xlink" viewBox="0 0 779.6 391.5" xmlns:v="https://vecta.io/nano"><defs><path id="A" d="M382.1 9l-264 116v21.7L381.6 36.6 672.1 137z"/></defs><clipPath id="B"><use xlink:href="#A"/></clipPath><g clip-path="url(#B)"><linearGradient id="C" gradientUnits="userSpaceOnUse" x1="118.115" y1="77.858" x2="672.115" y2="77.858"><stop offset="0" stop-color="#38a1fd"/><stop offset=".11" stop-color="#38a1fd"/><stop offset=".42" stop-color="#226bfa"/><stop offset=".73" stop-color="#0f3ef8"/><stop offset=".88" stop-color="#082cf7"/></linearGradient><path d="M118.1 9h554v137.7h-554z" fill="url(#C)"/></g><path d="M92.1 136v25.9l-29 13.1 14.5 13.9 9.5-6.9-1 41-86-36z" fill="#38a1fd"/><defs><path id="D" d="M118.1 170.5l7 70.5 59 28 22-78c107.5-60.4 238.8-60 346 1l10 37 125.4-58.5-305.4-121-264 121z"/></defs><clipPath id="E"><use xlink:href="#D"/></clipPath><g clip-path="url(#E)"><linearGradient id="F" gradientUnits="userSpaceOnUse" x1="118.05" y1="159.194" x2="687.467" y2="159.194"><stop offset="0" stop-color="#38a1fd"/><stop offset=".12" stop-color="#38a1fd"/><stop offset=".2" stop-color="#3191fc"/><stop offset=".45" stop-color="#2066fa"/><stop offset=".68" stop-color="#1346f8"/><stop offset=".87" stop-color="#0b33f7"/><stop offset="1" stop-color="#082cf7"/></linearGradient><path d="M118.1 49.5h569.4V269H118.1z" fill="url(#F)"/></g><defs><path id="G" d="M-157.9-285h1080V795h-1080z"/></defs><clipPath id="H"><use xlink:href="#G"/></clipPath><g clip-path="url(#H)"><path d="M565.1 245l6.8 24 206.3-89.5-40.1-13.5z" fill="#082cf7"/><path d="M105.4 136l12.8 199.7c-.1 7-6.2 12.1-12 11.3-4.8-.7-8.9-5.3-9-11l8.2-200" fill="#38a1fd"/></g><defs><path id="I" d="M378.1 168c-52.2.5-103.7 12.1-151 34l-40 186c123.4-58.7 266.8-58.7 390.2 0l-42.1-186c-48.3-22.4-100.9-34-154.1-34h-3"/></defs><clipPath id="J"><use xlink:href="#I"/></clipPath><g clip-path="url(#J)"><linearGradient id="K" gradientUnits="userSpaceOnUse" x1="187.093" y1="278.031" x2="577.293" y2="278.031"><stop offset="0" stop-color="#38a1fd"/><stop offset="1" stop-color="#082cf7"/></linearGradient><path d="M187.1 168h390.2v220H187.1z" fill="url(#K)"/></g></svg>