<svg xmlns="http://www.w3.org/2000/svg" xmlns:xlink="http://www.w3.org/1999/xlink" viewBox="0 0 896.7 462.3" xmlns:v="https://vecta.io/nano"><style><![CDATA[.Q{fill:#ffc9b0}.R{fill:#2f2e41}.S{fill:#f3f8ff}.T{fill:#f2f2f2}.U{fill:#649bfa}]]></style><path d="M895.5 462.2H1.2c-.7 0-1.2-.5-1.2-1.2s.5-1.2 1.2-1.2h894.3c.7 0 1.2.5 1.2 1.2 0 .6-.6 1.2-1.2 1.2z" fill="#3f3d56"/><g class="S"><circle cx="280.4" cy="51" r="6.5"/><circle cx="254.6" cy="51" r="6.5"/><circle cx="228.8" cy="51" r="6.5"/><circle cx="203" cy="51" r="6.5"/><circle cx="280.4" cy="78" r="6.5"/><circle cx="254.6" cy="78" r="6.5"/><circle cx="228.8" cy="78" r="6.5"/><circle cx="203" cy="78" r="6.5"/><circle cx="280.4" cy="105" r="6.5"/><circle cx="254.6" cy="105" r="6.5"/><circle cx="228.8" cy="105" r="6.5"/><circle cx="203" cy="105" r="6.5"/><circle cx="280.4" cy="132" r="6.5"/><circle cx="254.6" cy="132" r="6.5"/><circle cx="228.8" cy="132" r="6.5"/><circle cx="203" cy="132" r="6.5"/></g><circle cx="280.4" cy="159" r="6.5" class="T"/><g class="S"><circle cx="254.6" cy="159" r="6.5"/><circle cx="228.8" cy="159" r="6.5"/><circle cx="203" cy="159" r="6.5"/></g><g class="T"><circle cx="280.4" cy="186" r="6.5"/><circle cx="254.6" cy="186" r="6.5"/><circle cx="228.8" cy="186" r="6.5"/><circle cx="203" cy="186" r="6.5"/></g><g fill="#b6d5ff"><path d="M223.5 362.4v2c0 6.9 5.6 12.5 12.5 12.5h90c6.9 0 12.5-5.6 12.5-12.5v-2c0-2.9-1-5.8-2.9-8-.6-.7-1.3-1.4-2.1-2 0 0-49.5-1.1-49.5-2.5h-48c-6.9 0-12.5 5.6-12.5 12.5z"/><path d="M275.3 376.4h13v84h-13z"/><path d="M325.3 459.9c0 1.4-19.7.5-44 .5s-44 .9-44-.5 19.7-12.5 44-12.5 44 11.1 44 12.5z"/></g><path d="M307.4 360.7c3.5-4.8 2.6-11.5-2.2-15-.5-.4-1-.7-1.6-1L276 250.8l-21 10.3 33.7 89.1c-2.3 5.5.3 11.8 5.8 14.1 4.6 1.9 9.9.4 12.9-3.6h0z" fill="#a0616a"/><path d="M282.3 266.5l-23.5 6.4a4.77 4.77 0 0 1-5.9-3.4c-.1-.2-.1-.5-.1-.7l-2.8-24.1c-1.9-7.1 2.4-14.5 9.5-16.4s14.4 2.3 16.3 9.4l9.7 22.2c1.1 2.4-.1 5.3-2.5 6.3-.3.1-.5.2-.7.3h0z" fill="#6c63ff"/><path d="M313.5 450.1h12.3l5.8-31.8h-18.1z" class="Q"/><g class="R"><path d="M310.4 446.1h24.1 0a15.41 15.41 0 0 1 15.4 15.4v.5h-39.5v-15.9z"/><use xlink:href="#B"/></g><g class="Q"><circle cx="274.2" cy="193.8" r="24.6"/><path d="M306.5 449.1h12.3l5.8-31.8h-18.1z"/></g><g class="R"><path d="M303.4 445.1h24.1 0a15.41 15.41 0 0 1 15.4 15.4v.5h-39.5v-15.9z"/><use xlink:href="#B" x="-7" y="3"/><path d="M281.7 232.3l-26-9s-16.3 12.5-8.5 43.6c4.1 16.1 2.9 33-3.4 48.3-.8 1.9-1.6 3.7-2.6 5.5 0 0 29 35 56 9l-10.5-50.5c0 .1 16.5-33.4-5-46.9z"/></g><g fill="#725858"><path d="M277.2 219.2c-3.5-5.2-6.3-12.5-2.4-17.5 3.8-4.9 11.3-4.2 17.1-6.4 8.1-3 12.8-12.5 11.3-21.1s-8.3-15.6-16.5-18.5-17.3-2-25.3 1.4c-9.8 4.1-18.3 12-21.8 22.1s-1.6 22.1 5.7 29.8c7.9 8.3 20.2 10.5 31.6 10.4"/><path d="M254.4 174.6c-4.4 3.6-11.1 2-15.9-1.2s-8.6-7.6-13.7-10.1c-9-4.4-19.9-1.5-28.7 3.4s-16.6 11.5-25.8 15.3-21.1 4-28.1-3.2c-4.6 13.4 2.5 28.1 15.9 32.7 7.2 2.5 15.2 1.6 21.8-2.3C190 203 195.6 190 207 186.6c6.3-1.9 13.1-.4 19.4 1.3s13 3.4 19.4 2 12.4-7.2 11.6-13.7l-3-1.6z"/></g><path d="M334.3 406c-2.6-16.9-2.6-34.1 0-51 .3-2.1 2.1-3.6 4.2-3.6h39.9c1.3 0 2.5.6 3.4 1.6.8 1 1.1 2.4.8 3.7a103.02 103.02 0 0 0 0 47.5c.3 1.3 0 2.7-.8 3.7s-2 1.6-3.4 1.6h-39.9c-2.1.1-3.9-1.4-4.2-3.5z" class="U"/><g fill="#fff"><use xlink:href="#C"/><use xlink:href="#C" y="12.3"/></g><path d="M344.8 356.2c2.2-5.5-.4-11.8-5.9-14l-1.8-.6-50.1-84-17.7 15.2 54.9 77.8c-.9 5.9 3.2 11.4 9.1 12.3 4.8.7 9.6-2.1 11.5-6.7h0z" class="Q"/><path d="M296.9 271.2l-21.1 12c-2.3 1.3-5.3.5-6.6-1.8l-.3-.6-8.8-22.6c-3.6-6.4-1.3-14.6 5.1-18.2s14.5-1.3 18.2 5.1l14.9 19c1.6 2.1 1.3 5.1-.8 6.8l-.6.3h0z" class="R"/><path d="M522 300.7H116a6.49 6.49 0 1 0 0 13h11.5v141.5a6.49 6.49 0 1 0 13 0v-129l72.9 132.1c1.8 3.1 5.8 4.2 8.9 2.4s4.2-5.8 2.4-8.9l-76.2-138.1h348v.1l-76.1 138c-1.8 3.1-.7 7.1 2.4 8.9s7.1.7 8.9-2.4l64.9-117.6v114.5a6.49 6.49 0 1 0 13 0v-138l1.9-3.4H522a6.49 6.49 0 0 0 6.5-6.5c0-3.6-2.9-6.6-6.5-6.6z" fill="#093f68"/><g fill="#d1e4fb"><path d="M275 296.7h79c1.9 0 3.5 1.6 3.5 3.5h0c0 1.9-1.6 3.5-3.5 3.5h-79c-1.9 0-3.5-1.6-3.5-3.5h0c0-1.9 1.5-3.5 3.5-3.5z"/><path d="M407 303.7h-89a6.49 6.49 0 0 1-6.5-6.5v-49a6.49 6.49 0 0 1 6.5-6.5h89a6.49 6.49 0 0 1 6.5 6.5v49a6.49 6.49 0 0 1-6.5 6.5z"/></g><circle cx="362.5" cy="272.7" r="6" fill="#fff"/><path d="M474.9 183V7.5c0-4.2 3.4-7.5 7.5-7.5h138.7c4.2 0 7.5 3.4 7.5 7.5V183c0 4.2-3.4 7.5-7.5 7.5H482.4c-4.1 0-7.5-3.3-7.5-7.5zm7.5-181.3c-3.2 0-5.8 2.6-5.8 5.9V183c0 3.2 2.6 5.8 5.8 5.9h138.7c3.2 0 5.8-2.6 5.8-5.9V7.5c0-3.2-2.6-5.8-5.8-5.9H482.4z" fill="#e6e6e6"/><path d="M559.6 80.6v-36a3.8 3.8 0 0 1 3.8-3.8h30.5a3.8 3.8 0 0 1 3.8 3.8v36a3.8 3.8 0 0 1-3.8 3.8h-30.5c-2.2 0-3.8-1.7-3.8-3.8z" class="U"/><path d="M500.2 97.3v-36a3.8 3.8 0 0 1 3.8-3.8h30.5a3.8 3.8 0 0 1 3.8 3.8v36a3.8 3.8 0 0 1-3.8 3.8H504a3.8 3.8 0 0 1-3.8-3.8z" fill="#d1e4fb"/><path d="M547.9 148.3v-36a3.8 3.8 0 0 1 3.8-3.8h30.5a3.8 3.8 0 0 1 3.8 3.8v36a3.8 3.8 0 0 1-3.8 3.8h-30.5c-2.2-.1-3.8-1.7-3.8-3.8z" fill="#bf004c"/><g class="S"><circle cx="780.7" cy="11.8" r="6.5"/><circle cx="780.7" cy="37.6" r="6.5"/><circle cx="780.7" cy="63.4" r="6.5"/><circle cx="780.7" cy="89.1" r="6.5"/><circle cx="753.7" cy="11.8" r="6.5"/><circle cx="753.7" cy="37.6" r="6.5"/><circle cx="753.7" cy="63.4" r="6.5"/><circle cx="753.7" cy="89.1" r="6.5"/><circle cx="726.7" cy="11.8" r="6.5"/><circle cx="726.7" cy="37.6" r="6.5"/><circle cx="726.7" cy="63.4" r="6.5"/><circle cx="726.7" cy="89.1" r="6.5"/><circle cx="699.7" cy="11.8" r="6.5"/><circle cx="699.7" cy="37.6" r="6.5"/><circle cx="699.7" cy="63.4" r="6.5"/></g><circle cx="699.7" cy="89.1" r="6.5" class="T"/><g class="S"><circle cx="672.7" cy="11.8" r="6.5"/><circle cx="672.7" cy="37.6" r="6.5"/><circle cx="672.7" cy="63.4" r="6.5"/></g><circle cx="672.7" cy="89.1" r="6.5" class="T"/><g class="S"><circle cx="645.7" cy="11.8" r="6.5"/><circle cx="645.7" cy="37.6" r="6.5"/><circle cx="645.7" cy="63.4" r="6.5"/><circle cx="645.7" cy="89.1" r="6.5"/></g><path d="M671.8 241.3c-2.1-5.7.9-12 6.6-14.1.4-.1.8-.3 1.2-.4.5-.1 1-.2 1.5-.2l24.3-42.6-6.1-10.5 15.3-11.8 11.7 16.2c2.9 4 2.8 9.4-.3 13.3l-33.4 42.7c.1.3.2.7.3 1 1.4 5.9-2.2 11.8-8.1 13.3-.4.1-.8.2-1.2.2-.4.1-.9.1-1.3.1-4.8 0-8.9-2.9-10.5-7.2zm-47.4 209.6h-12.3l-5.8-47.3h18.1z" class="Q"/><path d="M603.4 447.4H627h0v14.9h0-38.5 0 0c0-8.3 6.6-14.9 14.9-14.9z" class="R"/><path d="M725.4 450.9h-12.3l-5.8-47.3h18.1z" class="Q"/><path d="M704.4 447.4H728h0v14.9h0-38.5 0 0c0-8.3 6.6-14.9 14.9-14.9z" class="R"/><path d="M717.9 163.9l-27.5 10.5-6.7-18.7c-1.8-5.1.3-10.8 5-13.5h0c4.8-2.7 10.8-1.5 14.3 2.8l14.9 18.9z" fill="#6c63ff"/><path d="M625.4 412.6l-23.1-5.3c-2.5-.6-4.2-3-3.8-5.6 9.3-58.7 18.2-93.1 41.1-136.8.3-.8 3.9-17.3 6.2-28.3-.1-2.5 1.7-4.6 4.2-5l43-6.6c.6-.2 1.3-.3 2-.3l.4.1v.4c0 .4-.4.5-.6.5l-.6.1c.7.3 1.3.7 1.8 1.2 18.9 22.7 28.7 97 41.1 179.2.1 1.4-.3 2.7-1.3 3.6-.9 1-2.2 1.6-3.5 1.6l-27.5.7c-2.5.1-4.7-1.7-5-4.2l-18.5-107c-.3-2.2-2.4-3.7-4.5-3.3-1.3.2-2.4 1-3 2.2-14.9 30.4-28.9 56.8-42.6 109.3-.6 2.2-2.5 3.7-4.8 3.7-.2-.1-.6-.1-1-.2z" class="R"/><path d="M647.8 237.9c-1.2-.8-1.9-2.1-2.1-3.5-3.5-32.9-1.1-58.7 7.5-78.7 3.1-7 9.2-12.2 16.6-14.2l22.2-1.1.1.1c10.3 5 16.1 16.3 14.2 27.6-7.2 18.9-13.1 38.5-8.6 54.3.4 1.3.2 2.8-.5 4s-1.8 2-3.1 2.3l-42.4 10.1c-1.2.2-2.7-.1-3.9-.9z" class="U"/><path d="M638.3 190.7L595.6 157l-1 .3c-3 .7-6.3.1-8.8-1.7-2.6-1.8-4.3-4.6-4.6-7.7-.6-5.1 2.4-9.9 7.2-11.6 5.7-2.1 12 .9 14.1 6.6.1.4.3.8.4 1.2.1.5.2 1 .2 1.5l42.5 24.5 10.6-6.1 11.7 15.3-16.6 11.7c-3.9 2.8-9.2 2.6-13-.3z" class="Q"/><path d="M672.9 184.1l-24.3-16.6 11.4-16.2c3.1-4.4 9-6 13.9-3.6h0c5 2.4 7.5 8 5.9 13.3l-6.9 23.1z" class="U"/><circle cx="684.7" cy="107.4" r="24.6" class="Q"/><path d="M675.7 103.8c-6.3 4.3-14.6 8.8-21 4.2-4.2-3-5.6-8.6-3.9-13.5 3.1-8.8 11.6-12.7 19.7-15.7 10.5-3.9 22-7 32.9-4.2s20.5 13.3 18.5 24.4c-1.6 8.9-10 16.3-8.8 25.2 1.2 9 11.3 13.8 20.3 15.4s19 2.1 25.4 8.6c8.2 8.2 6.2 22.9-1.6 31.5s-19.4 12.6-30.7 15.2c-15 3.5-31.1 5.4-45.3-.5s-25.3-21.7-21.1-36.5c1.7-6.3 5.8-11.5 9.8-16.7s8-10.5 9.5-16.8c1.3-5.3.3-11.4-3.2-15.3-1.3-1.4-1.5-3.5-.6-5.2l.1-.1z" fill="#02183e"/><defs ><path id="B" d="M327.7 433.1h-.4l-17-1.2c-2.5-.2-4.3-2.4-4.1-4.9 0-.4.1-.8.3-1.1l22.7-51c.3-.9.3-1.9-.2-2.8s-1.3-1.5-2.2-1.8c-10.7-2.8-38.1-10.2-61.8-18.9-10.2-3.7-16.6-9.1-19-16-3.2-9.1 1.6-17.4 1.8-17.7l.2-.3 22.3 2 24.2 2.1 53 28.4c9.2 5 13.1 16.2 8.8 25.8l-24.4 54.8c-.8 1.5-2.4 2.5-4.2 2.6z"/><path id="C" d="M366.1 376.1h-20.9c-1.7 0-3-1.3-3-3v-1.2c0-1.7 1.3-3 3-3h20.9c1.7 0 3 1.3 3 3v1.2c0 1.7-1.3 3-3 3z"/></defs></svg>