<svg xmlns="http://www.w3.org/2000/svg" viewBox="0 0 1087 800.5" xmlns:v="https://vecta.io/nano"><path d="M117.5 105.5h910v490h-910z" fill="#f3f8ff"/><path d="M205.5 189.5h294v361h-294z" opacity=".3" fill="#9bc4f6" enable-background="new"/><path d="M612.5 215.5h235v13h-235zm0 24h342v13h-342zm0 58h235v13h-235zm0 96h235v13h-235zm0-72h342v13h-342zm0 24h342v13h-342zm0 24h342v13h-342z" fill="#093f68"/><path d="M612.5 451.5h123v34h-123z" fill="#649bfa"/><path d="M224.5 170h294v361h-294z" fill="#093f68"/><path d="M476.5 369.6c0 70.1-41.7 94.6-93.1 94.6s-93.1-24.5-93.1-94.6 93.1-159.3 93.1-159.3 93.1 89.2 93.1 159.3z" fill="#649bfa"/><path d="M380 453.5l1-58.7 39.6-72.6-39.5 63.4.4-26.4 27.4-52.5-27.2 45.5h0l.7-47.4 29.3-41.8-29.1 34.3.4-87-3 115.2.3-4.8-29.8-45.5 29.3 54.7-2.8 53-.1-1.5-34.3-47.9 34.2 52.9-.3 6.6-.1.1v.6l-7 134.4h9.4l1.1-69.4 34.2-52.8z" fill="#3f3d56"/><ellipse cx="131.5" cy="783.5" rx="131" ry="17" fill="#093f68"/><path d="M69.6 312.9l-4.4 10.3 4.9 66.9s-2.7 3.8 0 6.5 2.2 3.8 2.2 3.8-4.4 0-2.2 3.3 2.2 4.9 2.2 4.9l-1.1 3.3s2.2 2.7 2.2 4.9 14.1 69.1 14.1 69.1l13.6-26.7-7.6-106.1-23.9-40.2z" fill="#649bfa"/><path d="M212.7 480.2s23.9 17.6 24.8 31.7-30.8-21-31.1-24.9 6.3-6.8 6.3-6.8z" fill="#ffc9b0"/><path d="M62.6 746.9l-6 19.6s-8.7 19 3.3 21.8 23.4-7.6 23.4-7.6v-13.1l4.4-20.7H62.6zm97.9 0s-2.7 37 3.3 39.2 27.2 2.7 27.7 0 7.1-5.4 2.2-9.2-8.2-26.1-8.2-26.1l-25-3.9z" fill="#2f2e41"/><path d="M105.5 396.6V413S87.6 450.5 81 509.8 52.2 749.7 57.7 752.9s64.2 5.4 65.8 1.1 3.3-131.6 3.3-131.6l20.1-89.8s3.8 32.1 7.1 37.5-5.4 182.2 0 184.9 78.9 7.6 77.8-1.1-25.6-244.8-25.6-244.8-12.5-111.5-16.3-112.6-38.6-2.2-44.1-1.1-40.3 1.2-40.3 1.2z" fill="#1a1a1a"/><circle cx="146.9" cy="230.7" r="31" fill="#ffc9b0"/><path d="M153.4 256.9s-15.8 24.5-12 31-40.3-6.5-40.3-6.5 26.7-32.6 26.1-36.4 26.2 11.9 26.2 11.9z" fill="#ffb9b9"/><g fill="#649bfa"><path d="M186 293.3s-28.8-9.2-32.6-13.1c-2.4-2.5-4.6-5.2-6.5-8.2l-35.9-4.9c-1.1 0-9.2 9.8-11.4 12s-30 16.9-30 20.7-4.4 23.4-4.4 23.4S75 343.3 81 347.7s7.6 3.3 8.2 10.3 8.2 18.5 8.2 18.5 4.9 12.5 3.8 16.3-6 7.1 5.4 6 68 2.2 68-3.8-10.9-63.1-10.9-63.1l22.3-38.6z"/><path d="M175.7 294.4l10.3-1.1s3.8 2.2 4.4 23.4.5 72.3 4.4 76.7 19.6 71.8 19.6 71.8 4.4 1.1 4.4 4.9 4.9 7.1 2.7 11.4 2.2 3.3-.5 6-15.8 8.2-16.3 4.9 1.6-3.8-.5-4.9-2.2-1.6-2.7-5.4-5.4-7.6-4.9-9.2-23.9-49-23.9-50.6-1.6-7.6-3.8-8.7-5.4-2.2-3.8-4.9-4.4-84.3-4.4-84.3l15-30z"/></g><path d="M173.1 211.1c-9.5-10.3-24.4-15.8-38.1-12.7s-25.2 15.2-26.3 29.2c-.2 2.9 0 5.8-.8 8.6-1.2 4.7-5 8.4-6.3 13-.9 3.1-.6 6.5-1.5 9.6-1.7 5.7-7 9.5-11.1 13.9-1.6 1.6-2.9 3.6-3.5 5.8-.4 1.9-.4 3.9-.3 5.9.2 10.6-3.8 20.9-11 28.6 4.3-3.2 8.8-5.8 13.7-8-2.4 7.7-.2 16.7 5.8 22s15.7 6.1 22.3 1.4c3.9-2.8 6.4-7 8.8-11.1l9.1-15.6c1.7-2.8 3.4-5.7 6-7.6 2.1-1.5 4.6-2.3 6.8-3.9 5.3-3.8 6.8-11.3 5.8-17.7s-3.9-12.5-5.6-18.8c-1.3-5-1.7-10.7 1.2-15 3.9-5.6 12-6.3 17.4-10.7 2-1.6 2.9-3.6 4.4-5.6 1.3-1.9 1.7-1.2 3.7-1.3 5.7-.2 1.6-7.7-.5-10z" fill="#02183e"/><ellipse cx="146" cy="241.5" rx="2.5" ry="6" fill="#ffc9b0"/><g fill="#f3f8ff"><circle cx="674" cy="694" r="32"/><circle cx="32" cy="64" r="32"/><circle cx="1055" cy="32" r="32"/></g></svg>