<?xml version="1.0" encoding="utf-8"?>
<!-- Generator: Adobe Illustrator 22.0.1, SVG Export Plug-In . SVG Version: 6.00 Build 0)  -->
<svg version="1.1" id="Layer_1" xmlns="http://www.w3.org/2000/svg" xmlns:xlink="http://www.w3.org/1999/xlink" x="0px" y="0px"
	 viewBox="0 0 400 300" style="enable-background:new 0 0 400 300;" xml:space="preserve">
<style type="text/css">
	.st0{fill:#093F68;}
	.st1{fill:#649BFA;}
	.st2{fill:#FFFFFF;}
	.st3{fill:#725858;}
	.st4{fill:#FFC9B0;}
	.st5{fill:#FEB917;}
	.st6{fill:#E8601C;}
</style>
<g id="_97_graduation_outline">
	<path class="st0" d="M232.5,195.8c0.6,1.6,1,3.3,1.2,5.1c0.1,1,0.2,2,0.2,3v36.4h-69.2v-36.4c0-1,0.1-2,0.2-3
		c0.2-1.7,0.6-3.4,1.2-5.1l33.2,14.9L232.5,195.8z"/>
	<path class="st0" d="M234,241.2h-69.2c-0.6,0-1-0.4-1-1v-36.4c0-1,0.1-2.1,0.2-3.1c0.2-1.8,0.6-3.6,1.3-5.3
		c0.1-0.3,0.3-0.5,0.6-0.6c0.3-0.1,0.5-0.1,0.8,0l32.8,14.7l32.8-14.7c0.3-0.1,0.5-0.1,0.8,0c0.3,0.1,0.5,0.3,0.6,0.6
		c0.6,1.7,1,3.5,1.3,5.3c0.1,1,0.2,2,0.2,3.1v36.4C235,240.8,234.6,241.2,234,241.2L234,241.2z M165.8,239.2H233v-35.4
		c0-0.9-0.1-1.9-0.2-2.8c-0.2-1.3-0.4-2.6-0.8-3.8l-32.2,14.4c-0.3,0.1-0.6,0.1-0.8,0l-32.2-14.4c-0.4,1.3-0.7,2.5-0.8,3.9
		c-0.1,0.9-0.2,1.9-0.2,2.8V239.2z"/>
	<path class="st1" d="M231.3,193.1l-32,16.4l-32-16.4c4.3-5.6,7.6-12.6,20.8-12.6h22.4C222.3,180.4,227,187.4,231.3,193.1z"/>
	<path class="st0" d="M199.4,210.5c-0.2,0-0.3,0-0.5-0.1l-32-16.4c-0.3-0.1-0.4-0.4-0.5-0.7c-0.1-0.3,0-0.6,0.2-0.8
		c0.5-0.6,1-1.3,1.4-2c3.7-5.2,8-11.1,20.1-11.1h22.4c11.8,0,16.9,6.8,21,12.3l0.6,0.8c0.2,0.2,0.2,0.5,0.2,0.8
		c-0.1,0.3-0.3,0.5-0.5,0.7l-32,16.4C199.6,210.4,199.5,210.4,199.4,210.5z M168.9,192.7l30.4,15.6l30.4-15.6
		c-4-5.3-8.6-11.3-19.3-11.3h-22.4c-11.1,0-14.9,5.2-18.5,10.2L168.9,192.7z"/>
	<polygon class="st2" points="202.5,211.9 210.5,180.4 188.2,180.4 196.6,211.9 	"/>
	<path class="st0" d="M202.5,212.9h-5.8c-0.5,0-0.9-0.3-1-0.7l-8.5-31.4c-0.1-0.5,0.2-1.1,0.7-1.2c0.1,0,0.2,0,0.3,0h22.4
		c0.6,0,1,0.4,1,1c0,0.1,0,0.2,0,0.3l-8.1,31.4C203.3,212.6,202.9,212.9,202.5,212.9z M197.4,210.9h4.3l7.6-29.4h-19.8L197.4,210.9z
		"/>
	<polygon class="st0" points="197.8,189.6 199.5,192.1 194.8,205 199.4,207 204.3,204.9 200.4,191.9 201.9,189.5 200,186.9 	"/>
	<path class="st0" d="M199.4,208c-0.1,0-0.3,0-0.4-0.1l-4.5-2c-0.5-0.2-0.7-0.8-0.5-1.3l4.5-12.4l-1.4-2.1c-0.2-0.3-0.2-0.8,0-1.1
		l2.2-2.7c0.2-0.2,0.5-0.4,0.8-0.4c0.3,0,0.6,0.2,0.8,0.4l1.9,2.6c0.2,0.3,0.2,0.8,0,1.1l-1.3,2.1l3.8,12.5c0.1,0.5-0.1,1-0.6,1.2
		l-4.9,2.1C199.6,208,199.5,208,199.4,208z M196.1,204.5l3.3,1.4l3.7-1.6l-3.1-10.4L196.1,204.5z M199.1,189.6l0.8,1.2l0.8-1.3
		l-0.7-1L199.1,189.6z"/>
	<path class="st3" d="M197.6,87.8c6.3-0.1,12.6,0.6,18.7,2.1c6.6,1.7,13.2,4.5,18.3,9.1c6,5.3,8,12.2,8,20.1v27.7h-82.5
		c-0.5-1.6,0.3-3.6,0.3-5.2c0-1.8-0.3-3.6-0.8-5.4c-1-4.5-1.5-9.1-1.7-13.7c-0.2-9.7,3.9-19,11-25.5C176.1,90.5,187,88,197.6,87.8z"
		/>
	<path class="st0" d="M242.6,147.7h-82.5c-0.5,0-0.9-0.3-1-0.7c-0.3-1.3-0.2-2.6,0.1-3.9c0.1-0.5,0.2-1.1,0.2-1.6
		c0-1.3-0.2-2.6-0.5-3.9c-0.1-0.4-0.2-0.8-0.3-1.2c-1-4.6-1.5-9.2-1.6-13.9c-0.2-10,3.9-19.5,11.3-26.3c8.4-7.5,20.5-9.3,29.3-9.4
		l0,0c6.4-0.1,12.8,0.6,19,2.1c7.6,1.9,13.9,5,18.8,9.3c5.7,5,8.3,11.6,8.3,20.8v27.7C243.6,147.3,243.2,147.7,242.6,147.7z
		 M161,145.7h80.6V119c0-8.6-2.4-14.8-7.6-19.3c-4.6-4-10.6-7-17.9-8.8c-6-1.5-12.3-2.2-18.5-2.1l0,0c-11.9,0.2-21.8,3.3-28,8.9
		c-6.9,6.4-10.8,15.4-10.6,24.8c0.1,4.6,0.7,9.1,1.6,13.6c0.1,0.4,0.2,0.8,0.3,1.1c0.4,1.4,0.6,2.9,0.6,4.4c0,0.6-0.1,1.3-0.2,1.9
		C161,144.2,161,145,161,145.7L161,145.7z"/>
	<path class="st4" d="M193.9,174h11.8l0,0v6.8c0,2.8-2.2,5-5,5h-1.8c-2.8,0-5-2.2-5-5L193.9,174L193.9,174z"/>
	<path class="st0" d="M200.7,186.8h-1.8c-3.3,0-6-2.7-6-6V174c0-0.6,0.4-1,1-1h11.8c0.6,0,1,0.4,1,1v6.8
		C206.6,184.1,204,186.8,200.7,186.8z M194.9,175v5.8c0,2.2,1.8,4,4,4h1.8c2.2,0,4-1.8,4-4V175H194.9z"/>
	<ellipse class="st4" cx="166.1" cy="143.4" rx="11.4" ry="9.9"/>
	<path class="st0" d="M166.1,154.3c-6.9,0-12.4-4.9-12.4-10.9s5.6-10.9,12.4-10.9s12.4,4.9,12.4,10.9S173,154.3,166.1,154.3z
		 M166.1,134.5c-5.8,0-10.4,4-10.4,8.9s4.7,8.9,10.4,8.9s10.4-4,10.4-8.9S171.9,134.5,166.1,134.5L166.1,134.5z"/>
	<ellipse class="st4" cx="232.8" cy="143.4" rx="11.4" ry="9.9"/>
	<path class="st0" d="M232.8,154.3c-6.9,0-12.4-4.9-12.4-10.9s5.6-10.9,12.4-10.9s12.4,4.9,12.4,10.9S239.7,154.3,232.8,154.3z
		 M232.8,134.5c-5.8,0-10.4,4-10.4,8.9s4.7,8.9,10.4,8.9s10.4-4,10.4-8.9S238.6,134.5,232.8,134.5L232.8,134.5z"/>
	<path class="st4" d="M199.8,175.5L199.8,175.5c-19,0-34.5-15.4-34.5-34.5c0,0,0,0,0,0v-19.8c0-3,2.5-5.5,5.5-5.5c0.2,0,0.3,0,0.5,0
		c6.6,0.6,17.9,1.5,29,1.5c9.1-0.1,18.2-1,27.1-2.7c3-0.6,5.9,1.4,6.5,4.4c0.1,0.3,0.1,0.6,0.1,1l0.2,21.1
		C234.2,160.1,218.8,175.5,199.8,175.5z"/>
	<path class="st0" d="M199.8,176.5c-19.6,0-35.5-15.9-35.5-35.5v-19.8c0-3.6,2.9-6.5,6.5-6.5c0.2,0,0.4,0,0.6,0
		c7.2,0.7,18.1,1.5,28.9,1.5c9.1-0.1,18.1-1,27-2.7c3.5-0.7,7,1.7,7.6,5.2c0.1,0.4,0.1,0.8,0.1,1.1l0.2,21.1
		C235.3,160.6,219.4,176.5,199.8,176.5z M170.8,116.7c-2.5,0-4.5,2-4.5,4.5V141c0,18.5,15,33.5,33.5,33.5s33.5-15,33.5-33.5l0,0
		l-0.3-21.1c0-2.5-2.1-4.5-4.6-4.5c-0.3,0-0.5,0-0.8,0.1c-9,1.7-18.2,2.7-27.3,2.8c-10.9,0-21.8-0.8-29.1-1.5L170.8,116.7z"/>
	<circle class="st0" cx="183.8" cy="136" r="3.2"/>
	<circle class="st0" cx="216.7" cy="136" r="3.2"/>
	<path class="st0" d="M200.3,150.6c-1,0-2.1-0.1-3.1-0.3c-0.6-0.1-0.9-0.6-0.8-1.2s0.6-0.9,1.2-0.8c1.6,0.2,3.2,0.2,4.7,0
		c0.2-0.9-1-4.3-2.7-7.6c-0.3-0.5-0.1-1.1,0.4-1.4c0.5-0.3,1.1-0.1,1.4,0.4c1.1,2.1,3.6,7.4,2.7,9.4c-0.2,0.5-0.6,0.9-1.2,1
		C202.1,150.4,201.2,150.6,200.3,150.6z"/>
	<path class="st2" d="M186,155.4v2.7c0,4.8,6.1,8.7,13.5,8.7l0,0c7.5,0,13.5-3.9,13.5-8.7v-2.7H186z"/>
	<path class="st0" d="M199.5,167.8c-8,0-14.5-4.3-14.5-9.7v-2.7c0-0.6,0.4-1,1-1h27c0.6,0,1,0.4,1,1v2.7
		C214,163.4,207.5,167.8,199.5,167.8z M187,156.4v1.7c0,4.2,5.6,7.7,12.5,7.7s12.5-3.4,12.5-7.7v-1.7H187z"/>
	<path class="st0" d="M179.8,241.2c-0.6,0-1-0.4-1-1v-34.4c0-0.6,0.4-1,1-1s1,0.4,1,1v34.4C180.8,240.8,180.4,241.2,179.8,241.2z"/>
	<path class="st0" d="M218.9,241.2c-0.6,0-1-0.4-1-1v-34.4c0-0.6,0.4-1,1-1s1,0.4,1,1v34.4C219.9,240.8,219.4,241.2,218.9,241.2z"/>
	<path class="st0" d="M183.6,150.4c-6.4,0-11.6-5.2-11.6-11.6c0-6.4,5.2-11.7,11.6-11.7c6.4,0,11.6,5.2,11.6,11.7c0,0,0,0,0,0
		C195.2,145.2,190,150.4,183.6,150.4z M183.6,129.1c-5.3,0-9.7,4.3-9.7,9.6s4.3,9.7,9.6,9.7c5.3,0,9.7-4.3,9.7-9.6c0,0,0,0,0,0
		C193.2,133.4,188.9,129.1,183.6,129.1z"/>
	<path class="st0" d="M216.7,150.4c-6.4,0-11.6-5.2-11.6-11.6c0-6.4,5.2-11.7,11.6-11.7c6.4,0,11.6,5.2,11.6,11.7c0,0,0,0,0,0
		C228.4,145.2,223.2,150.4,216.7,150.4z M216.7,129.1c-5.3,0-9.7,4.3-9.7,9.6s4.3,9.7,9.6,9.7c5.3,0,9.7-4.3,9.7-9.6c0,0,0,0,0,0
		C226.4,133.4,222.1,129.1,216.7,129.1z"/>
	<path class="st0" d="M206.7,136.3c-0.2,0-0.5-0.1-0.7-0.3c-6.1-5.4-11.2-0.8-11.4-0.6c-0.4,0.4-1,0.4-1.4,0c-0.4-0.4-0.4-1,0-1.4
		l0,0c0.1-0.1,6.6-6.2,14.1,0.5c0.4,0.4,0.5,1,0.1,1.4c0,0,0,0,0,0C207.2,136.2,207,136.3,206.7,136.3z"/>
	<path class="st0" d="M189.3,125.8L189.3,125.8h-15.2c-1.1,0-2-0.9-2-2s0.9-2,2-2l0,0h15.2c1.1,0,2,0.9,2,2S190.4,125.8,189.3,125.8
		z"/>
	<path class="st0" d="M213,126.2c-1.1,0-2-0.8-2.1-1.9s0.8-2,1.9-2.1l15.2-0.8c1.1-0.1,2,0.8,2.1,1.9c0.1,1.1-0.8,2-1.9,2.1
		L213,126.2L213,126.2z"/>
	<path class="st1" d="M177,77.7l23,2.8l23-2.8v25.1c-15,4.6-31,4.6-45.9,0L177,77.7z"/>
	<path class="st0" d="M200,107.3c-7.9,0.1-15.8-1.1-23.3-3.5c-0.4-0.1-0.7-0.5-0.7-0.9V77.7c0-0.3,0.1-0.6,0.3-0.8
		c0.2-0.2,0.5-0.3,0.8-0.2l22.9,2.8l22.9-2.8c0.3,0,0.6,0,0.8,0.2c0.2,0.2,0.3,0.5,0.3,0.8v25.1c0,0.4-0.3,0.8-0.7,0.9
		C215.8,106.2,207.9,107.4,200,107.3z M178,102.1c14.3,4.3,29.6,4.3,43.9,0V78.9l-21.9,2.7c-0.1,0-0.2,0-0.2,0L178,78.9V102.1z"/>
	<polygon class="st1" points="200,98.6 152.2,77.7 200,56.8 247.8,77.7 	"/>
	<path class="st0" d="M200,99.6c-0.1,0-0.3,0-0.4-0.1l-47.8-20.9c-0.5-0.2-0.7-0.8-0.5-1.3c0.1-0.2,0.3-0.4,0.5-0.5l47.8-20.9
		c0.3-0.1,0.5-0.1,0.8,0l47.8,20.9c0.5,0.2,0.7,0.8,0.5,1.3c-0.1,0.2-0.3,0.4-0.5,0.5l-47.8,20.9C200.3,99.6,200.1,99.6,200,99.6z
		 M154.7,77.7L200,97.5l45.3-19.8L200,57.9L154.7,77.7z"/>
	<path class="st0" d="M152.2,112.3c-0.6,0-1-0.4-1-1V77.7c0-0.6,0.4-1,1-1s1,0.4,1,1v33.6C153.2,111.9,152.7,112.3,152.2,112.3z"/>
	<polygon class="st1" points="152.2,108.2 146.6,125.2 154.9,125.2 	"/>
	<path class="st0" d="M154.9,126.2h-8.3c-0.6,0-1-0.4-1-0.9c0-0.1,0-0.2,0-0.4l5.5-16.9c0.2-0.5,0.7-0.8,1.3-0.6
		c0.4,0.1,0.6,0.4,0.7,0.8l2.8,16.9c0.1,0.5-0.3,1.1-0.8,1.1C155,126.2,155,126.2,154.9,126.2L154.9,126.2z M148,124.2h5.7
		l-1.9-11.7L148,124.2z"/>
	<path class="st5" d="M233.8,200.9l-34.4,15l-34.4-15c0.2-1.7,0.6-3.4,1.2-5.1c0.3-0.9,0.8-1.9,1.2-2.8l32,14l32-14
		c0.5,0.9,0.9,1.8,1.2,2.8C233.2,197.5,233.6,199.2,233.8,200.9z"/>
	<path class="st0" d="M199.4,216.9c-0.1,0-0.3,0-0.4-0.1l-34.4-15c-0.4-0.2-0.6-0.6-0.6-1c0.2-1.8,0.6-3.6,1.3-5.3
		c0.4-1,0.8-2,1.3-2.9c0.2-0.5,0.8-0.6,1.3-0.4l31.6,13.8l31.6-13.8c0.5-0.2,1,0,1.3,0.4c0.5,0.9,0.9,1.9,1.3,2.9
		c0.6,1.7,1,3.5,1.3,5.3c0,0.4-0.2,0.8-0.6,1l-34.4,15C199.6,216.9,199.5,216.9,199.4,216.9z M166,200.3l33.3,14.6l33.3-14.6
		c-0.2-1.4-0.6-2.8-1.1-4.1c-0.2-0.6-0.5-1.2-0.8-1.8L199.8,208c-0.3,0.1-0.5,0.1-0.8,0l-31.1-13.6c-0.3,0.6-0.5,1.2-0.8,1.8
		C166.6,197.5,166.2,198.9,166,200.3z"/>
	<polygon class="st6" points="150.9,216.2 142.1,218.3 145.9,219.8 143.7,223.6 153.4,221.5 	"/>
	<path class="st0" d="M143.7,224.6c-0.3,0-0.6-0.1-0.8-0.4c-0.2-0.3-0.3-0.7-0.1-1.1l1.6-2.8l-2.7-1.1c-0.4-0.2-0.7-0.6-0.6-1
		c0-0.4,0.3-0.8,0.8-0.9l8.8-2.1c0.5-0.1,0.9,0.1,1.1,0.5l2.5,5.3c0.1,0.3,0.1,0.6,0,0.9c-0.1,0.3-0.4,0.5-0.7,0.5l-9.8,2.1
		C143.8,224.6,143.8,224.6,143.7,224.6z M145.4,218.6l0.8,0.3c0.3,0.1,0.5,0.3,0.6,0.6c0.1,0.3,0.1,0.6-0.1,0.8l-1.1,1.8l6.3-1.3
		l-1.6-3.4L145.4,218.6z"/>
	<path class="st2" d="M142,195.2l19.2,45.2c0.8,2,5.1,2.1,9.5,0.2s7.3-5,6.4-7l-19.2-45.2L142,195.2z"/>
	<path class="st0" d="M164.7,242.9h-0.2c-2.2,0-3.7-0.8-4.3-2.2L141,195.6c-0.2-0.5,0-1.1,0.5-1.3l15.9-6.7c0.2-0.1,0.5-0.1,0.8,0
		c0.2,0.1,0.4,0.3,0.6,0.5l19.2,45.2c1.1,2.6-1.9,6.1-7,8.3C169,242.3,166.9,242.8,164.7,242.9z M143.3,195.7L162,240
		c0.2,0.6,1.2,0.9,2.5,0.9c1.9,0,3.9-0.5,5.6-1.3c4.3-1.8,6.4-4.6,5.9-5.6l-18.8-44.3L143.3,195.7z"/>
	<path class="st6" d="M166.4,208.6l2.1,4.9c0.8,2-2,5.1-6.4,7s-8.6,1.8-9.5-0.2l-2.1-4.9c0.8,2,5.1,2.1,9.5,0.2
		S167.2,210.5,166.4,208.6z"/>
	<path class="st0" d="M156.2,222.8H156c-2.2,0-3.7-0.8-4.3-2.1l-2.1-4.9c-0.2-0.5,0-1.1,0.5-1.3s1.1,0,1.3,0.5c0,0,0,0,0,0.1l0,0
		c0.5,1.1,3.9,1.5,8.2-0.3c1.8-0.7,3.5-1.8,4.8-3.2c0.9-1,1.3-1.9,1.1-2.4l0,0c-0.2-0.5,0-1.1,0.5-1.3s1.1,0,1.3,0.5c0,0,0,0,0,0.1
		l0,0l2.1,4.9c1.1,2.6-1.9,6.1-6.9,8.3C160.5,222.2,158.4,222.7,156.2,222.8z M152.6,217.7l0.9,2.1c0.2,0.6,1.2,0.9,2.5,0.9
		c2,0,3.9-0.4,5.7-1.3c4.3-1.8,6.4-4.6,5.9-5.6l-0.9-2.1c-0.2,0.4-0.5,0.7-0.8,1c-1.6,1.6-3.4,2.8-5.5,3.7
		C157.9,217.6,155.3,218,152.6,217.7z"/>
	
		<ellipse transform="matrix(0.9206 -0.3906 0.3906 0.9206 -62.9975 73.7796)" class="st2" cx="149.9" cy="191.8" rx="8.6" ry="3.9"/>
	<path class="st0" d="M145.6,197.7c-2.3,0-4-0.7-4.6-2.2c-1.1-2.6,1.9-6.1,6.9-8.3c2-0.9,4.2-1.4,6.5-1.4c2.2,0,3.7,0.8,4.3,2.2l0,0
		c0.6,1.3,0,3-1.4,4.6c-1.6,1.6-3.4,2.8-5.5,3.7C149.9,197.2,147.7,197.7,145.6,197.7z M154.2,187.9c-1.9,0.1-3.7,0.5-5.4,1.3
		c-4.3,1.8-6.4,4.6-5.9,5.6s3.9,1.5,8.2-0.3c1.8-0.7,3.5-1.8,4.8-3.2c0.9-1,1.3-1.9,1.1-2.5l0,0c-0.2-0.6-1.2-0.9-2.5-0.9
		L154.2,187.9z"/>
	<circle class="st6" cx="166.4" cy="213.6" r="5.5"/>
	<path class="st0" d="M166.4,220c-0.8,0-1.7-0.2-2.4-0.5c-1.6-0.6-2.9-1.9-3.5-3.5c-1.5-3.2-0.1-7.1,3.1-8.6
		c3.2-1.5,7.1-0.1,8.6,3.1c0.1,0.2,0.2,0.3,0.2,0.5l0,0c1.4,3.3-0.1,7.1-3.4,8.5C168.2,219.9,167.3,220.1,166.4,220L166.4,220z
		 M166.4,209.1c-2.5,0-4.5,2-4.5,4.5c0,0.6,0.1,1.2,0.4,1.7c1,2.3,3.6,3.3,5.8,2.4c0,0,0,0,0,0c2.3-1,3.3-3.6,2.4-5.9l0,0
		C169.9,210.1,168.2,209.1,166.4,209.1L166.4,209.1z"/>
	<path class="st4" d="M151.2,236.9c0,0-3.2-6,3.9-11.4l1.3,3.1c0,0,3.2-4.1,6.3-2.9s8,5.2,4.9,10.1
		C164.2,241.4,155.5,247.1,151.2,236.9z"/>
	<path class="st0" d="M157.9,243.5c-0.2,0-0.4,0-0.6,0c-2.1-0.2-5-1.4-7.1-6.2c-0.3-0.7-3.1-7.1,4.2-12.6c0.2-0.2,0.6-0.2,0.9-0.2
		c0.3,0.1,0.5,0.3,0.7,0.6l0.7,1.7c1.4-1.3,3.8-3,6.4-2c2.4,0.9,5.2,3.1,6.2,5.9c0.6,1.9,0.4,4-0.8,5.7
		C166.3,239.9,162.1,243.5,157.9,243.5z M154.7,227.1c-5,4.6-2.7,9.1-2.6,9.4v0.1c1.3,3.1,3.1,4.8,5.4,5c3.4,0.3,7.3-3,9.3-6.2
		c0.8-1.2,1-2.6,0.6-4c-0.8-2.2-3.1-3.9-5-4.6c-2.4-0.9-5.2,2.5-5.2,2.6c-0.2,0.3-0.6,0.4-0.9,0.4c-0.4,0-0.7-0.3-0.8-0.6
		L154.7,227.1z"/>
	<path class="st0" d="M173.7,135.8h-7.6c-0.6,0-1-0.4-1-1s0.4-1,1-1h7.6c0.6,0,1,0.4,1,1S174.2,135.8,173.7,135.8z"/>
	<path class="st0" d="M233.7,135.8h-7.6c-0.6,0-1-0.4-1-1s0.4-1,1-1h7.6c0.6,0,1,0.4,1,1S234.3,135.8,233.7,135.8z"/>
	<path class="st4" d="M240.5,227.8c1.3-2.1,3-4.6,3.5-5.2c2.5-3.2-0.7-6.5-3.2-3.5c-1.6,2-3,4-4.3,6.2l-1.3-0.6
		c1.7-10.6,0.1-11.6-2.8-11.1c-1.9,0.4-3.1,6.1-3.7,10.4c-1.7,0.7-3,1.9-3.7,3.6l-1.8,4.1c-1.5,3.4,0,7.5,3.5,9l4.1,1.8
		c3.4,1.5,7.5,0,9-3.5l1.8-4.1C242.6,232.6,242.2,229.8,240.5,227.8z"/>
	<path class="st0" d="M233.5,244.2c-1.1,0-2.2-0.2-3.2-0.7l-4.1-1.8c-4-1.7-5.8-6.4-4-10.3c0,0,0,0,0,0l1.8-4.1
		c0.7-1.7,2.1-3,3.7-3.9c1.3-9,3.1-10.4,4.4-10.7c1.2-0.4,2.4-0.1,3.4,0.6c1.4,1.3,1.6,4.3,0.8,10.2c1.1-1.8,2.3-3.5,3.7-5.1
		c1.6-1.9,3.5-1.8,4.7-0.9c1.4,1.1,1.8,3.4,0.1,5.7c-0.4,0.5-1.8,2.6-3.1,4.6c1.6,2.3,1.9,5.2,0.8,7.7l-1.8,4.1
		C239.4,242.3,236.6,244.2,233.5,244.2L233.5,244.2z M233.5,214.6c-0.3,0-0.6,0-0.9,0.1c0,0-1.6,0.4-2.9,9.6c0,0.4-0.3,0.7-0.6,0.8
		c-1.4,0.6-2.6,1.7-3.2,3.1l-1.8,4.1c-0.6,1.4-0.7,3-0.1,4.5c0.5,1.5,1.7,2.6,3.1,3.2l4.1,1.8c2.9,1.3,6.4,0,7.7-3c0,0,0,0,0,0
		l1.8-4.1c0.9-2.1,0.6-4.5-0.9-6.2c-0.3-0.3-0.3-0.8-0.1-1.2c0.5-0.7,2.9-4.4,3.6-5.3c1-1.2,0.8-2.4,0.2-2.9s-1.2-0.2-1.9,0.6
		c-1.5,1.9-3,4-4.3,6.1c-0.3,0.4-0.8,0.6-1.3,0.4l-1.3-0.6c-0.4-0.2-0.7-0.6-0.6-1.1c1.1-7,0.6-9.2,0-9.8
		C234,214.6,233.7,214.5,233.5,214.6L233.5,214.6z"/>
	<path class="st0" d="M227.3,237.5c-0.6,0.1-1.1-0.3-1.1-0.9c-0.1-0.6,0.3-1.1,0.9-1.1c2.3-0.6,1.8-4.1,1.8-4.1
		c-0.1-0.5,0.3-1,0.9-1.1c0,0,0.1,0,0.1,0c1.8,0,3.7-0.4,5.3-1.2c-0.9-0.6-4.2-1.6-7.4-2.1c-0.6-0.1-0.9-0.6-0.8-1.2
		c0.1-0.6,0.6-0.9,1.2-0.8c2.4,0.4,8.1,1.5,9.1,3.3c0.2,0.4,0.3,0.9,0.1,1.3c-0.7,1.8-4.1,2.4-6.3,2.6c0,1.9-0.8,4.6-3.4,5.3
		L227.3,237.5z M235.3,229.3L235.3,229.3z"/>
	<path class="st0" d="M212,161.4h-25.5c-0.6,0-1-0.4-1-1s0.4-1,1-1H212c0.6,0,1,0.4,1,1S212.6,161.4,212,161.4z"/>
</g>
</svg>
