<?xml version="1.0" encoding="utf-8"?>
<!-- Generator: Adobe Illustrator 22.0.1, SVG Export Plug-In . SVG Version: 6.00 Build 0)  -->
<svg version="1.1" id="Layer_1" xmlns="http://www.w3.org/2000/svg" xmlns:xlink="http://www.w3.org/1999/xlink" x="0px" y="0px"
	 viewBox="0 0 400 300" style="enable-background:new 0 0 400 300;" xml:space="preserve">
<style type="text/css">
	.st0{fill:#FFFFFF;}
	.st1{fill:#093F68;}
	.st2{fill:#DFEAEF;}
	.st3{fill:#FFC9B0;}
	.st4{fill:#649BFA;}
	.st5{fill:#00A57F;}
	.st6{fill:#725858;}
	.st7{fill:#FEB917;}
	.st8{fill:#E8601C;}
</style>
<g id="_48_group_presentation_outline">
	<polygon class="st0" points="162.2,219.2 155.6,219.2 158.6,194.4 165.2,194.4 	"/>
	<path class="st1" d="M162.2,220.2h-6.6c-0.3,0-0.6-0.1-0.8-0.3c-0.2-0.2-0.3-0.5-0.2-0.8l3-24.8c0.1-0.5,0.5-0.9,1-0.9h6.6
		c0.3,0,0.6,0.1,0.8,0.3c0.2,0.2,0.3,0.5,0.2,0.8l-3,24.8C163.1,219.8,162.7,220.2,162.2,220.2z M156.7,218.2h4.6l2.8-22.8h-4.6
		L156.7,218.2z"/>
	<polygon class="st0" points="237.6,219.2 244.2,219.2 241.2,194.4 234.6,194.4 	"/>
	<path class="st1" d="M244.2,220.2h-6.6c-0.5,0-0.9-0.4-1-0.9l-3-24.8c-0.1-0.5,0.3-1,0.9-1.1c0,0,0.1,0,0.1,0h6.6
		c0.5,0,0.9,0.4,1,0.9l3,24.8c0,0.3,0,0.6-0.2,0.8C244.8,220.1,244.5,220.2,244.2,220.2z M238.5,218.2h4.6l-2.8-22.8h-4.6
		L238.5,218.2z"/>
	<rect x="146" y="88.5" class="st0" width="108" height="121.6"/>
	<path class="st1" d="M254,211.1H146c-0.6,0-1-0.4-1-1V88.5c0-0.6,0.4-1,1-1h108c0.6,0,1,0.4,1,1v121.6
		C255,210.6,254.6,211.1,254,211.1z M147,209.1h106V89.5H147V209.1z"/>
	<path class="st2" d="M242,137.5h-84.8c-0.6,0-1-0.4-1-1v-36.1c0-0.6,0.4-1,1-1H242c0.6,0,1,0.4,1,1v36.1
		C243,137.1,242.6,137.5,242,137.5z M158.2,135.5H241v-34.1h-82.8L158.2,135.5z"/>
	<path class="st2" d="M242,181.8h-84.8c-0.6,0-1-0.4-1-1v-36.1c0-0.6,0.4-1,1-1H242c0.6,0,1,0.4,1,1v36.1
		C243,181.3,242.6,181.8,242,181.8z M158.2,179.8H241v-34.1h-82.8L158.2,179.8z"/>
	<path class="st2" d="M242.8,190.1h-85.6c-0.6,0-1-0.4-1-1s0.4-1,1-1h85.6c0.6,0,1,0.4,1,1S243.3,190.1,242.8,190.1L242.8,190.1z"/>
	<path class="st2" d="M231.8,198.8h-74.6c-0.6,0-1-0.4-1-1s0.4-1,1-1h74.6c0.6,0,1,0.4,1,1S232.4,198.8,231.8,198.8z"/>
	<path class="st3" d="M244.3,196.2c-0.4-1-0.8-2.1-1-3.2c-0.1-0.6-0.1-1.3,0.1-1.9V191l-1.8,0.5l-9.1,2.6l-3.2,0.9
		c-2.5-1.4-5.1-2.5-7.8-3.4c-3.7-1.1-4,1.2-2.4,2c1.3,0.5,2.5,1.2,3.6,2c-2.4-0.4-7.7,0.9-8,2.3c-0.1,0.6-2.2,5.6,2.8,6.6
		c3.4,0.7,10.5-0.6,11.1-0.7l16.7-4.8C244.8,198.1,244.5,197.1,244.3,196.2z"/>
	<path class="st1" d="M219.9,205.7c-1,0-1.9-0.1-2.9-0.3c-1.4-0.2-2.7-1-3.5-2.3c-1.2-2-0.4-4.6-0.1-5.4l0.1-0.1
		c0.4-1.5,3.1-2.4,5.6-2.8l-0.6-0.3c-1.1-0.4-1.7-1.6-1.4-2.8c0.2-0.5,1.1-2.1,4.5-1.1c2.6,0.9,5.2,2,7.7,3.3l13.8-3.9
		c0.3-0.1,0.6,0,0.9,0.1c0.3,0.2,0.4,0.5,0.4,0.8v0.1c0,0.1,0,0.2,0,0.3c-0.1,0.5-0.2,0.9-0.1,1.4c0.2,1,0.5,2,0.9,3v0.1
		c0.3,1,0.6,1.9,0.9,2.8c0.2,0.5-0.1,1.1-0.6,1.3c0,0,0,0,0,0l-16.8,4.8C225.8,205.3,222.9,205.6,219.9,205.7z M215.4,198.2
		c0,0.1,0,0.1-0.1,0.2c-0.2,0.6-0.8,2.6-0.1,3.8c0.5,0.7,1.3,1.2,2.2,1.3c3.1,0.7,10-0.5,10.7-0.7l15.7-4.5
		c-0.2-0.6-0.4-1.2-0.6-1.8c-0.4-1.1-0.8-2.2-1-3.3c-0.1-0.3-0.1-0.6-0.1-0.9l-12.7,3.6c-0.3,0.1-0.5,0-0.8-0.1
		c-2.4-1.3-5-2.5-7.6-3.3c-1.4-0.4-2-0.2-2.1-0.1s0.1,0.1,0.4,0.3c1.3,0.6,2.6,1.3,3.8,2.1c0.3,0.3,0.5,0.8,0.3,1.2
		c-0.2,0.4-0.6,0.6-1.1,0.6C220.2,196.3,215.9,197.5,215.4,198.2L215.4,198.2z"/>
	<path class="st1" d="M224.7,200.8c-0.1,0-0.2,0-0.3,0c-1.1-0.3-2.1-1-2.7-2.1c-0.5-1.1-0.5-2.3-0.1-3.4c0.2-0.5,0.8-0.8,1.3-0.6
		c0,0,0,0,0,0c0.5,0.2,0.8,0.8,0.6,1.3c-0.2,0.6-0.2,1.3,0.1,1.8c0.3,0.5,0.8,0.9,1.4,1.1c0.6,0.1,0.9,0.6,0.9,1.1
		C225.7,200.6,225.2,201,224.7,200.8L224.7,200.8z"/>
	<path class="st4" d="M316.4,178.9c-5.8-12.7-15-19-19.4-20.9s-8.8-3-18.2-3c-10,0-15.2,2.3-19.1,8.2c-6.2,9.2-4.1,16.4-17,26.1
		c1.1,2.7,2,5.5,2.9,8.3c0.2,0.6,0.4,1.3,0.6,1.9c4.2-2.5,11.5-7.4,16.8-13.7l1,4.6v5.6h32.9v-23.5c3.8,3,6.8,6.9,8.8,11.2
		c1.6,3.6,2.8,7.3,3.8,11.2l11.3-2.9C319.7,187.5,318.2,183.1,316.4,178.9z"/>
	<path class="st1" d="M246.2,200.4c-0.1,0-0.2,0-0.3-0.1c-0.3-0.1-0.5-0.3-0.6-0.6l-0.2-0.5c-0.2-0.5-0.3-0.9-0.5-1.4l-0.4-1.1
		c-0.8-2.5-1.5-4.8-2.5-7.1c-0.2-0.4,0-0.9,0.3-1.2c8.2-6.2,10.2-11.3,12.3-16.6c1.1-3.3,2.7-6.4,4.5-9.3c4.2-6.2,9.8-8.6,20-8.6
		c9.5,0,14,1.1,18.6,3.1c5.8,2.5,14.5,9.7,19.9,21.4l0,0c1.9,4.3,3.4,8.7,4.5,13.3c0.1,0.3,0,0.5-0.1,0.8c-0.1,0.2-0.4,0.4-0.6,0.5
		l-11.4,2.9c-0.5,0.1-1.1-0.2-1.2-0.7c0,0,0,0,0,0c-0.9-3.8-2.2-7.4-3.7-11c-1.7-3.6-4-6.8-6.9-9.4V196c0,0.6-0.4,1-1,1H264
		c-0.6,0-1-0.4-1-1v-5.6l-0.5-2.6c-4.7,4.8-10,9-15.7,12.4C246.6,200.4,246.4,200.5,246.2,200.4z M243.9,189.5
		c0.9,2.1,1.6,4.4,2.2,6.5l0.4,1.1c0.1,0.3,0.1,0.5,0.2,0.7c4.1-2.5,10.7-7.1,15.5-12.9c0.2-0.3,0.6-0.4,1-0.3
		c0.4,0.1,0.7,0.4,0.7,0.8l1,4.6c0,0.1,0,0.1,0,0.2v4.7h30.9v-22.5c0-0.4,0.2-0.7,0.6-0.9c0.3-0.2,0.8-0.1,1.1,0.1
		c3.9,3.1,7,7.1,9.1,11.6c1.5,3.3,2.7,6.8,3.6,10.4l9.4-2.4c-1-4.1-2.4-8.1-4.1-12l0,0c-6.8-14.8-17.6-19.9-18.9-20.4
		c-4.3-1.9-8.6-3-17.8-3c-9.5,0-14.5,2.1-18.3,7.7c-1.8,2.8-3.2,5.8-4.3,8.9C254.1,177.8,252,183.2,243.9,189.5L243.9,189.5z"/>
	<polygon class="st1" points="301,218.8 296.9,196 264,196 261.3,218.8 	"/>
	<path class="st1" d="M301,219.8h-39.7c-0.3,0-0.6-0.1-0.7-0.3c-0.2-0.2-0.3-0.5-0.3-0.8l2.7-22.9c0.1-0.5,0.5-0.9,1-0.9h32.9
		c0.5,0,0.9,0.3,1,0.8l4.1,22.9c0.1,0.3,0,0.6-0.2,0.8C301.6,219.7,301.3,219.8,301,219.8z M262.5,217.8h37.3L296,197h-31.1
		L262.5,217.8z"/>
	<path class="st5" d="M299.1,233.4l-17-11.8c-0.7-0.5-0.9-1.5-0.4-2.2l8-11.6c0.5-0.7,1.5-0.9,2.2-0.4l17,11.8
		c0.7,0.5,0.9,1.5,0.4,2.2l-8,11.6C300.9,233.7,299.9,233.9,299.1,233.4z"/>
	<path class="st1" d="M300,234.7c-0.5,0-1-0.2-1.5-0.5l-17-11.8l0,0c-1.2-0.8-1.5-2.4-0.7-3.6c0,0,0,0,0,0l8-11.6
		c0.8-1.2,2.4-1.5,3.6-0.7l17,11.8c0.6,0.4,1,1,1.1,1.7c0.1,0.7,0,1.4-0.4,1.9l-8,11.6C301.7,234.3,300.9,234.7,300,234.7L300,234.7
		z M282.7,220.8l17,11.8c0.1,0.1,0.3,0.1,0.5,0.1c0.2,0,0.3-0.1,0.4-0.3l8-11.6c0.1-0.1,0.1-0.3,0.1-0.4c0-0.2-0.1-0.3-0.3-0.4
		l-17-11.8c-0.3-0.2-0.6-0.1-0.8,0.1c0,0,0,0,0,0l-8,11.6c-0.1,0.1-0.1,0.3-0.1,0.4C282.5,220.6,282.6,220.7,282.7,220.8
		L282.7,220.8z"/>
	<path class="st3" d="M311.8,189.3c2.5,1.4,4.9,2.8,7.3,4.3c-4,7.3-9,16.9-10.7,19.5c-2.3,3.6-4.5,6.7-5.9,7s-4.9-2.2-5.6-3.1
		s3.3-4.6,3.3-4.6l-2.5-1.4c0.1-0.9,4.4-3.2,4.4-3.2C302.2,207.5,307.7,196.9,311.8,189.3z"/>
	<path class="st1" d="M302.2,221.1c-2.1,0-5.5-2.6-6.1-3.5c-0.3-0.4-1-1.4,2.5-5l-1.3-0.7c-0.4-0.2-0.6-0.6-0.5-1
		c0-0.4,0.2-1.4,4.6-3.8c1-2,6-11.6,9.6-18.3c0.1-0.2,0.3-0.4,0.6-0.5c0.3-0.1,0.5,0,0.8,0.1c2.5,1.4,5,2.9,7.3,4.3
		c0.5,0.3,0.6,0.9,0.4,1.3c-1,1.9-2.2,4-3.3,6.1c-3.2,5.9-6.2,11.5-7.5,13.5c-3.9,6.1-5.5,7.2-6.5,7.5
		C302.5,221.1,302.4,221.1,302.2,221.1z M297.8,216.6c0.9,0.9,3.6,2.7,4.4,2.5c0.4-0.1,1.8-1,5.3-6.6c1.2-1.9,4.4-7.7,7.4-13.4
		c1-1.8,1.9-3.6,2.8-5.3c-1.8-1.1-3.7-2.2-5.5-3.3c-4.1,7.7-9,17.1-9.2,17.6c-0.1,0.2-0.3,0.4-0.5,0.5c-1.1,0.6-2.2,1.3-3.3,2
		l1.4,0.8c0.3,0.2,0.5,0.4,0.5,0.8c0,0.3-0.1,0.6-0.3,0.9C299.7,214.2,298.7,215.3,297.8,216.6z M302.1,207.9L302.1,207.9z"/>
	<path class="st6" d="M292,93.5c0,0,16.7-0.9,19.2,15c1.7,10.6,2.4,21.1,5.8,31.4c-10.2,8.8-24.5,12.5-37.9,10.2
		c-13.4-2.5-25.3-10.2-33.2-21.3c3.7-8.1,6.4-16.6,8.1-25.4c1.1-6.2,3.2-9.9,8.9-13.2c4.9-2.7,10.5-4,16-3.6
		c2.6,0.2,5.2,0.9,7.6,2.1C287.5,89.2,291.6,93.5,292,93.5z"/>
	<path class="st1" d="M287.2,151.7c-2.7,0-5.5-0.3-8.2-0.7c-13.7-2.5-25.9-10.3-33.9-21.7c-0.2-0.3-0.2-0.7-0.1-1
		c3.7-8,6.4-16.5,8-25.2c1.1-6,3-10.2,9.4-13.8c5.1-2.8,10.9-4.1,16.7-3.7c2.8,0.2,5.5,0.9,8,2.2c1.2,0.8,2.2,1.8,3.2,2.8
		c0.7,0.6,1.6,1.5,2,1.8h0.1c2.7,0,17.5,0.7,19.9,15.8c0.4,2.8,0.8,5.5,1.2,8.2c1.1,8,2.1,15.5,4.6,23c0.1,0.4,0,0.8-0.3,1.1
		C309.2,147.8,298.4,151.8,287.2,151.7z M247.1,128.7c7.7,10.7,19.3,18,32.3,20.4c13,2.3,26.3-1.2,36.5-9.5
		c-2.4-7.5-3.5-15.3-4.5-22.8c-0.4-2.7-0.7-5.4-1.2-8.2c-1-6.2-4.3-10.4-9.9-12.6c-2.7-1-5.5-1.5-8.3-1.5l0,0
		c-0.6,0-0.9-0.2-3.1-2.4c-0.9-0.9-1.8-1.7-2.8-2.5c-2.3-1.1-4.7-1.8-7.2-1.9c-5.4-0.4-10.8,0.8-15.5,3.4c-5.7,3.2-7.3,6.9-8.4,12.5
		C253.4,112.2,250.7,120.6,247.1,128.7z M292,93.5L292,93.5z M292,92.5L292,92.5z"/>
	<polygon class="st7" points="282.6,156 277.3,183.3 275,157.4 	"/>
	<path class="st1" d="M277.3,184.3L277.3,184.3c-0.6,0-1-0.4-1-0.9l-2.2-25.8c0-0.5,0.3-1,0.8-1.1l7.6-1.4c0.3-0.1,0.7,0,0.9,0.3
		c0.2,0.2,0.3,0.6,0.3,0.9l-5.3,27.3C278.2,183.9,277.7,184.3,277.3,184.3z M276.1,158.3l1.5,17.8l3.7-18.8L276.1,158.3z"/>
	<path class="st4" d="M248.5,199.7l-2.2,1.3c-1,0.6-2.2,0.3-2.8-0.7l-5-8.5c-0.6-1-0.3-2.2,0.7-2.8l2.2-1.3c1-0.6,2.2-0.3,2.8,0.7
		l5,8.5C249.8,197.9,249.5,199.2,248.5,199.7z"/>
	<path class="st1" d="M245.3,202.3c-0.3,0-0.5,0-0.8-0.1c-0.8-0.2-1.4-0.7-1.9-1.4l-5-8.5c-0.9-1.4-0.4-3.3,1-4.1c0,0,0,0,0,0
		l2.2-1.3c1.4-0.9,3.3-0.4,4.1,1c0,0,0,0,0,0l5,8.5c0.9,1.4,0.4,3.3-1,4.1c0,0,0,0,0,0l-2.2,1.3
		C246.3,202.2,245.8,202.3,245.3,202.3z M242.4,188.5c-0.2,0-0.4,0.1-0.5,0.1l-2.2,1.3c-0.5,0.3-0.7,0.9-0.4,1.4c0,0,0,0,0,0l5,8.5
		c0.1,0.2,0.4,0.4,0.6,0.5c0.3,0.1,0.5,0,0.8-0.1l2.2-1.3l0,0c0.5-0.3,0.7-0.9,0.4-1.4c0,0,0,0,0,0l-5-8.5
		C243.1,188.7,242.8,188.5,242.4,188.5L242.4,188.5z"/>
	<path class="st3" d="M279.3,159.4h-1.2c-1.9,0-3.4-1.5-3.4-3.3v0v-4.5l0,0h7.9l0,0v4.5C282.6,157.9,281.1,159.4,279.3,159.4
		L279.3,159.4L279.3,159.4z"/>
	<path class="st1" d="M279.3,160.4h-1.2c-2.4,0-4.3-1.9-4.4-4.3c0,0,0,0,0,0v-4.5c0-0.6,0.4-1,1-1h7.9c0.6,0,1,0.4,1,1v4.5
		C283.6,158.4,281.7,160.3,279.3,160.4C279.3,160.4,279.3,160.4,279.3,160.4z M275.7,152.5v3.5c0,1.3,1.1,2.3,2.4,2.3h1.2
		c1.3,0,2.3-1,2.3-2.3v-3.5L275.7,152.5z"/>
	<ellipse class="st3" cx="258.3" cy="131.8" rx="5.9" ry="6.6"/>
	<path class="st1" d="M258.3,139.4c-3.8,0-6.9-3.4-6.9-7.6s3.1-7.6,6.9-7.6s6.9,3.4,6.9,7.6C265.2,136,262.1,139.4,258.3,139.4z
		 M258.3,126.2c-2.7,0-4.9,2.5-4.9,5.6s2.2,5.6,4.9,5.6c2.7,0,4.9-2.5,4.9-5.6S261,126.2,258.3,126.2z"/>
	<path class="st3" d="M278.9,153.3c13,0,24.6-16,24.6-28.8l-3.1,1.2c0,0-16.1-13.3-14-20.9c0,0-4.8,5.7-11.6,5.6
		c-12.6,0-17.5-3.4-17.5-3.4v23.1C257.3,143,266,153.3,278.9,153.3z"/>
	<path class="st1" d="M278.9,154.3c-13.1,0-22.6-10.1-22.6-24.1v-23.1c0-0.4,0.2-0.7,0.5-0.9c0.3-0.2,0.7-0.2,1,0
		c0,0,4.9,3.2,17,3.2l0,0c6.3,0,10.8-5.2,10.8-5.3c0.4-0.4,1-0.5,1.4-0.1c0.3,0.3,0.4,0.7,0.3,1.1c-1.6,5.5,8.6,15.6,13.2,19.4
		l2.5-1c0.5-0.2,1.1,0.1,1.3,0.6c0,0.1,0.1,0.2,0.1,0.3C304.5,137.7,292.4,154.3,278.9,154.3z M258.3,108.8v21.4
		c0,12.8,8.7,22.1,20.6,22.1c10,0,22.7-12.2,23.5-26.3l-1.7,0.6c-0.3,0.1-0.7,0.1-1-0.2c-2.8-2.4-5.5-5-7.9-7.7
		c-4-4.5-6.2-8.3-6.6-11.4c-2.9,2.6-6.6,4-10.5,4.2l0,0C265.8,111.5,260.6,109.8,258.3,108.8z"/>
	<ellipse class="st1" cx="287.6" cy="127" rx="2.1" ry="2.1"/>
	<circle class="st1" cx="266.7" cy="127" r="2.1"/>
	<path class="st1" d="M274.4,134.1c-0.6,0-1.2-0.1-1.8-0.2c-0.4-0.1-0.8-0.4-1-0.8c-0.6-1.4,0.9-4.7,1.8-6.6
		c0.3-0.5,0.9-0.7,1.4-0.4c0.5,0.3,0.7,0.9,0.4,1.3l0,0c-0.8,1.4-1.4,3-1.8,4.6c0.9,0.1,1.9,0.1,2.8-0.1c0.6-0.1,1.1,0.3,1.2,0.8
		c0.1,0.6-0.3,1.1-0.8,1.2C275.9,134.1,275.1,134.1,274.4,134.1z M273.4,132.3L273.4,132.3z"/>
	<path class="st1" d="M290.5,122.5h-0.2l-10.2-0.9c-1.1-0.1-1.9-1.1-1.8-2.2s1.1-1.9,2.2-1.8l10.1,0.9c1.1,0,2,1,1.9,2.1
		C292.6,121.7,291.7,122.5,290.5,122.5L290.5,122.5L290.5,122.5z"/>
	<path class="st1" d="M271.4,121.3L271.4,121.3l-10.3-0.5c-1.1-0.1-2-1-1.9-2.1s1-2,2.1-1.9l10.2,0.5c1.1,0,2,0.9,1.9,2.1
		C273.4,120.5,272.5,121.3,271.4,121.3L271.4,121.3z"/>
	<path class="st3" d="M298.8,126.2c0,0,5.6-3.9,8.7,1.1s0.1,13.6-9.2,11.1"/>
	<path class="st1" d="M301.4,139.9c-1.1,0-2.3-0.2-3.4-0.5c-0.5-0.1-0.9-0.7-0.7-1.2c0.1-0.5,0.7-0.9,1.2-0.7c0,0,0,0,0.1,0
		c3.5,0.9,6.2,0.3,7.8-1.9c1.6-2.3,1.7-5.4,0.3-7.8c-0.5-1-1.5-1.7-2.5-2c-2.2-0.5-4.7,1.2-4.7,1.2c-0.5,0.3-1.1,0.2-1.4-0.3
		c-0.3-0.5-0.2-1.1,0.3-1.4l0,0c0.1-0.1,3.1-2.2,6.3-1.5c1.6,0.4,3,1.4,3.9,2.9c1.9,3.1,1.7,7-0.4,10
		C306.4,138.8,304,140,301.4,139.9z"/>
	<path class="st4" d="M322,192.3l-0.2,2.2c-0.1,1.2-1.2,2.1-2.4,2l-11.9-1.1c-1.2-0.1-2.1-1.2-2-2.4l0.2-2.2c0.1-1.2,1.2-2.1,2.4-2
		l11.9,1.1C321.2,190,322.1,191.1,322,192.3z"/>
	<path class="st1" d="M319.6,197.5h-0.3l-11.9-1.1c-1.8-0.2-3.1-1.7-2.9-3.5c0,0,0,0,0,0l0.2-2.2c0.1-0.8,0.5-1.6,1.1-2.2
		c0.6-0.6,1.5-0.8,2.3-0.7l12,1.1c1.8,0.2,3.1,1.7,2.9,3.5l-0.2,2.2C322.6,196.2,321.2,197.5,319.6,197.5z M307.8,189.8
		c-0.3,0-0.6,0.1-0.8,0.3c-0.2,0.2-0.4,0.5-0.4,0.8l-0.2,2.2c-0.1,0.7,0.4,1.2,1.1,1.3l11.9,1.1c0.3,0,0.6-0.1,0.9-0.3
		c0.2-0.2,0.4-0.5,0.4-0.8l0.2-2.2l0,0c0-0.3-0.1-0.6-0.3-0.9c-0.2-0.2-0.5-0.4-0.8-0.4l-11.9-1.1L307.8,189.8z"/>
	<path class="st0" d="M271.4,137.2l9,0.4c0,0-0.8,9.2-4,10.1S271,142.7,271.4,137.2z"/>
	<path class="st1" d="M275.8,148.9c-0.8,0-1.6-0.3-2.3-0.9c-2.1-1.8-3.4-6.3-3.1-10.8c0-0.5,0.5-1,1-0.9l9,0.4
		c0.3,0,0.5,0.1,0.7,0.3c0.2,0.2,0.3,0.5,0.3,0.7c-0.1,1.6-1,10-4.7,11C276.4,148.8,276.1,148.9,275.8,148.9z M272.3,138.3
		c0,3.5,1,6.9,2.4,8.2c0.4,0.4,0.9,0.5,1.3,0.4c1.6-0.4,2.7-4.8,3.2-8.2L272.3,138.3z"/>
	
		<rect x="283.8" y="212.3" transform="matrix(0.6011 -0.7992 0.7992 0.6011 -56.8246 314.369)" class="st0" width="5.5" height="3.7"/>
	<path class="st1" d="M286.3,218.4c-0.2,0-0.4-0.1-0.6-0.2l-2.9-2.2c-0.4-0.3-0.5-1-0.2-1.4l3.3-4.4c0.2-0.2,0.4-0.4,0.6-0.4
		c0.3,0,0.5,0,0.8,0.2l2.9,2.2c0.4,0.3,0.5,1,0.2,1.4l-3.3,4.4c-0.2,0.2-0.4,0.4-0.7,0.4L286.3,218.4z M284.8,215l1.3,1l2.1-2.8
		l-1.3-1L284.8,215z"/>
	<path class="st1" d="M263,186.7c-0.4,0-0.8-0.2-0.9-0.6c-3.8-8.9,1.3-19.1,1.5-19.5c0.3-0.5,0.9-0.7,1.4-0.4
		c0.5,0.3,0.6,0.8,0.4,1.3c0,0.1-4.9,9.8-1.5,17.8c0.2,0.5,0,1.1-0.5,1.3c0,0,0,0,0,0C263.3,186.7,263.1,186.7,263,186.7z"/>
	<path class="st3" d="M89.4,218.8c0,0-0.1,3.3,0,5.1s2.5,2.8,2.3,4.4s0,2.8-1.2,3c-0.7,0.1-1.5,0.1-2.2,0c0,0,1.8,2.5-0.7,2.8
		s-7.2,1.1-8.1-1.1s1.5-14.1,1.5-14.1"/>
	<path class="st1" d="M83.2,235.5c-2.1,0-4-0.4-4.7-2.1c-1-2.4,1-12.7,1.4-14.7c0.1-0.5,0.6-0.9,1.2-0.8c0,0,0,0,0,0
		c0.5,0.1,0.9,0.6,0.8,1.2c-1,4.8-2.1,12.2-1.6,13.6s4.4,0.8,6.2,0.6l0.8-0.1c0.2,0,0.3,0,0.5-0.1c-0.1-0.4-0.2-0.8-0.5-1.1
		c-0.2-0.3-0.2-0.8,0-1.1c0.2-0.3,0.6-0.5,1-0.5c0.7,0.1,1.3,0.1,2,0c0.1-0.3,0.1-0.7,0.1-1c0-0.4,0.1-0.8,0.2-1.2s-0.3-0.7-0.8-1.3
		c-0.8-0.7-1.3-1.7-1.5-2.8c-0.2-1.9,0-5.1,0-5.3c0-0.5,0.5-1,1-0.9c0.6,0,1,0.4,1,1c0,0-0.1,3.3,0,5c0.2,0.6,0.5,1.2,1,1.6
		c0.9,0.7,1.3,1.9,1.3,3c-0.1,0.4-0.1,0.7-0.1,1c-0.1,1.1-0.3,2.5-1.9,2.7c-0.3,0-0.5,0.1-0.8,0.1c0.3,1.2-0.4,2.4-1.5,2.7
		c-0.2,0.1-0.4,0.1-0.7,0.1l-0.8,0.1C85.7,235.3,84.4,235.5,83.2,235.5z"/>
	<path class="st6" d="M114.8,88.7c1-0.2,2.1-0.3,3.1-0.3c4.8,0,9.7-0.1,14.1,2c9,4.5,14.8,13.7,14.8,23.7v19.7H88.3
		c-0.3-1.2,0.2-2.5,0.2-3.7c0-1.3-0.2-2.6-0.6-3.8c-0.7-3.2-1.1-6.5-1.2-9.8c0-5.2,1.1-10.3,3.2-15c1.2-2.8,2.5-5.8,5.1-7.6
		s6.5-1.8,8.3,0.7C106.4,91.5,110.4,89.3,114.8,88.7z"/>
	<path class="st1" d="M146.9,134.9H88.3c-0.5,0-0.9-0.3-1-0.7c-0.2-0.9-0.2-1.9,0.1-2.9c0.3-1.3,0.2-2.6-0.2-3.8
		c-0.1-0.3-0.1-0.6-0.2-0.8c-0.7-3.3-1.1-6.6-1.2-9.9c0-5.3,1.1-10.5,3.3-15.4c1.2-2.8,2.7-6.1,5.4-8c2.5-1.8,6.5-2.1,8.9,0
		c3.1-3,7.1-4.9,11.3-5.6l0,0c1.1-0.2,2.2-0.3,3.3-0.3h0.8c4.6,0,9.3,0,13.7,2.1c9.4,4.6,15.4,14.2,15.4,24.6v19.7
		C147.8,134.4,147.4,134.8,146.9,134.9C146.9,134.8,146.9,134.8,146.9,134.9z M89.2,132.9h56.7v-18.7c0-9.7-5.6-18.5-14.3-22.8
		c-3.9-1.9-8.4-1.9-12.8-1.9h-0.9c-1,0-2,0.1-3,0.2l0,0c-4.2,0.6-8.1,2.7-11,5.8c-0.2,0.2-0.5,0.3-0.8,0.3c-0.3,0-0.6-0.2-0.8-0.4
		c-1.4-2-4.8-1.9-6.9-0.4c-2.2,1.6-3.5,4.4-4.6,7.1c-2,4.6-3.1,9.6-3.1,14.6c0.1,3.2,0.5,6.4,1.1,9.6c0,0.3,0.1,0.5,0.2,0.8
		c0.3,1.1,0.4,2.1,0.4,3.2c0,0.5-0.1,0.9-0.2,1.4C89.3,132,89.2,132.4,89.2,132.9z M114.8,88.7L114.8,88.7z"/>
	<path class="st3" d="M169.8,161c0.3-0.1,4-7.1,4-7.1s-0.1-4.4-0.1-6.6s1.7-2.5,2.1-1.5c0.4,1.4,0.6,2.8,0.9,4.2
		c0.1,0,2.6-7.1,3.2-7.4s7.1,3,7.4,5.2c0.2,1.1-0.9,4.6-2.2,7.9c-0.4,0.9-3.6,3-3.6,3s-3.8,5-4.8,6.1L169.8,161z"/>
	<path class="st1" d="M176.7,166c-0.2,0-0.3,0-0.5-0.1l-6.9-4c-0.5-0.3-0.6-0.9-0.4-1.4c0.1-0.1,0.1-0.2,0.2-0.2
		c0.4-0.5,2.1-3.7,3.7-6.6c0-1-0.1-4.5-0.1-6.4s1-2.8,1.9-3c0.9-0.2,1.8,0.3,2.1,1.1c0.1,0.3,0.2,0.6,0.3,0.9
		c1.5-3.8,1.9-4.3,2.4-4.6c0.3-0.2,0.8-0.4,3.2,0.8c0.9,0.5,5.3,2.8,5.7,5.2c0.2,1.4-1.1,5.4-2.2,8.4c-0.4,1.1-2.5,2.5-3.9,3.4
		c-0.6,0.9-3.8,5-4.8,6.1C177.2,165.9,177,166,176.7,166z M171.2,160.7l5.2,3c1.4-1.7,4.2-5.4,4.2-5.5c0.1-0.1,0.2-0.2,0.3-0.2
		c1.2-0.7,2.3-1.5,3.2-2.5c1.7-4.5,2.2-6.9,2.1-7.4c-0.2-1.2-4.4-3.8-6-4.3c-0.6,1.1-1.7,4-2.1,5.2c-0.8,2-0.8,2.2-1.6,2.1
		s-0.9-0.7-1.1-1.8c-0.1-1-0.3-2-0.6-3c-0.2,0.3-0.3,0.6-0.3,1c0,2.1,0.1,6.5,0.1,6.5c0,0.2,0,0.3-0.1,0.5
		C172.9,157.8,171.8,159.7,171.2,160.7z"/>
	<path class="st1" d="M178.6,156.1c-0.5,0-1-0.4-1-0.9c0-1.6-0.6-3.1-1.6-4.4c-0.4-0.4-0.4-1,0-1.4c0.4-0.4,1-0.4,1.4,0l0,0
		c1.4,1.6,2.2,3.6,2.3,5.7C179.6,155.6,179.2,156.1,178.6,156.1C178.7,156.1,178.6,156.1,178.6,156.1z"/>
	<path class="st4" d="M169.4,158.5c0,0-3.1,9.5-11.9,12.3c-4.3,1.4-11.6-4.4-15.5-7.9c-4.4-4-10.1-6.2-16.1-6.1
		c-3.2,0-7.2-0.2-11.7-0.3c-3.3,0.2-6.5,0.8-9.6,1.7c-7.9,3.4-14.2,9.7-17.6,17.6c-5,11.4-8.4,43-8.4,43l12.5,0.2
		c1.2-11.7,4.6-28.1,7.8-35.5c0.2-0.5,0.5-1,0.7-1.5v21.7h36.9l0.1-21.5v-5.7c0,0,10.2,14.7,25.6,6.3c12.3-6.7,15.7-17.6,16.8-19.1
		L169.4,158.5z"/>
	<path class="st1" d="M91.1,219.9L91.1,219.9l-12.5-0.2c-0.3,0-0.6-0.1-0.7-0.3c-0.2-0.2-0.3-0.5-0.2-0.8c0.1-1.3,3.4-31.8,8.5-43.3
		c3.5-8.1,9.9-14.5,17.9-18l0.2-0.1c3.2-1,6.6-1.6,9.9-1.8h0.1c2,0,3.8,0.1,5.6,0.2c2.2,0.1,4.3,0.2,6.1,0.1
		c6.2-0.1,12.2,2.2,16.7,6.4c4.9,4.4,11.3,8.8,14.6,7.7c8.2-2.6,11.2-11.6,11.3-11.7c0.1-0.3,0.3-0.5,0.6-0.6c0.3-0.1,0.6-0.1,0.8,0
		l9.7,5.1c0.3,0.1,0.4,0.4,0.5,0.6c0.1,0.3,0,0.6-0.1,0.8c-0.2,0.4-0.5,0.8-0.7,1.3c-3.3,7.7-9.1,14.1-16.5,18.1
		c-12.2,6.6-21.4-0.6-25.1-4.4l-0.1,24.5c0,0.6-0.4,1-1,1H99.6c-0.6,0-1-0.4-1-1v-16.7c-2.9,8.4-5.6,22.5-6.6,32.1
		C92,219.5,91.6,219.9,91.1,219.9z M79.7,217.8l10.5,0.2c1.2-11.1,4.4-27.3,7.8-34.9c0.2-0.5,0.5-1,0.8-1.6c0.3-0.5,0.9-0.6,1.4-0.4
		c0.3,0.2,0.5,0.5,0.5,0.9v20.7h34.9l0.1-26.2c0-0.5,0.3-0.9,0.7-1c0.4-0.1,0.9,0,1.1,0.4c0.4,0.6,9.9,13.8,24.3,6
		c7-3.9,12.5-9.9,15.6-17.2l0.3-0.6l-7.8-4.1c-1.1,2.7-4.7,9.5-12.1,11.9c-4.8,1.5-12.4-4.4-16.5-8.1c-4.2-3.8-9.7-5.9-15.4-5.9
		c-1.8,0-3.9-0.1-6.2-0.1c-1.7-0.1-3.6-0.1-5.6-0.2c-3.1,0.2-6.2,0.7-9.2,1.6l-0.2,0.1c-7.6,3.3-13.6,9.4-16.8,17
		C83.5,186.1,80.4,212.1,79.7,217.8z"/>
	<path class="st3" d="M113,153.2h8.4l0,0v4.8c0,2-1.6,3.6-3.5,3.6h0h-1.3c-1.9,0-3.5-1.6-3.5-3.6V153.2L113,153.2z"/>
	<path class="st1" d="M117.8,162.5h-1.3c-2.5,0-4.5-2.1-4.5-4.5v-4.8c0-0.6,0.4-1,1-1h8.3c0.6,0,1,0.4,1,1v4.8
		C122.3,160.5,120.3,162.5,117.8,162.5C117.8,162.5,117.8,162.5,117.8,162.5z M114,154.2v3.8c0,1.4,1.1,2.5,2.5,2.5h1.3
		c1.4,0,2.5-1.1,2.5-2.5v-3.8H114z"/>
	<ellipse class="st3" cx="93.3" cy="131.5" rx="8.1" ry="7"/>
	<path class="st1" d="M93.3,139.5c-5,0-9.1-3.6-9.1-8s4.1-8,9.1-8s9.1,3.6,9.1,8S98.3,139.5,93.3,139.5z M93.3,125.5
		c-3.9,0-7.1,2.7-7.1,6s3.2,6,7.1,6s7.1-2.7,7.1-6S97.2,125.5,93.3,125.5L93.3,125.5z"/>
	<ellipse class="st3" cx="140.6" cy="131.5" rx="8.1" ry="7"/>
	<path class="st1" d="M140.6,139.5c-5,0-9.1-3.6-9.1-8s4.1-8,9.1-8s9.1,3.6,9.1,8S145.6,139.5,140.6,139.5z M140.6,125.5
		c-3.9,0-7.1,2.7-7.1,6s3.2,6,7.1,6s7.1-2.7,7.1-6S144.5,125.5,140.6,125.5L140.6,125.5z"/>
	<path class="st3" d="M117.1,154.3L117.1,154.3c-13.5,0-24.5-11-24.5-24.5l0,0v-13.2c0,0,6.2-3.5,8-9.1c0,0,11.7,4.4,18.5,4.4
		c7.8,0.1,15.4-1.6,22.5-4.8v22.7C141.6,143.3,130.7,154.3,117.1,154.3C117.1,154.3,117.1,154.3,117.1,154.3z"/>
	<path class="st1" d="M117.1,155.3c-14.1,0-25.5-11.4-25.5-25.5v-13.2c0-0.4,0.2-0.7,0.5-0.9c0.1,0,5.9-3.4,7.5-8.5
		c0.1-0.3,0.3-0.5,0.5-0.6c0.3-0.1,0.5-0.1,0.8,0c0.1,0,11.6,4.3,18.1,4.3l0,0c7.6,0,15.1-1.6,22-4.7c0.5-0.3,1.1-0.1,1.3,0.4
		c0.1,0.1,0.1,0.3,0.1,0.5v22.7C142.5,143.9,131.2,155.2,117.1,155.3z M93.6,117.2v12.6c0,13,10.5,23.5,23.5,23.5
		s23.5-10.5,23.5-23.5v-21.1c-6.8,2.9-14.1,4.3-21.5,4.3l0,0c-5.8,0-14.9-3.1-17.9-4.1C99.3,113.2,95.1,116.2,93.6,117.2z"/>
	<circle class="st1" cx="105.8" cy="126.2" r="2.3"/>
	<circle class="st1" cx="129.2" cy="126.2" r="2.3"/>
	<path class="st1" d="M117,134.9c-0.8,0-1.5-0.1-2.3-0.2c-0.5-0.1-0.9-0.6-0.8-1.1c0.1-0.5,0.6-0.9,1.2-0.8c1,0.2,2,0.2,3,0.1
		c-0.4-1.8-1-3.4-1.9-5c-0.3-0.5-0.1-1.1,0.3-1.4s1.1-0.1,1.4,0.3c0,0,0,0.1,0.1,0.1c1,1.9,2.6,5.4,1.9,6.9c-0.2,0.4-0.6,0.7-1,0.9
		C118.3,134.8,117.6,134.9,117,134.9z"/>
	<path class="st1" d="M110.4,120.5L110.4,120.5H99.6c-1.1,0-2-0.9-2-2s0.9-2,2-2l0,0h10.8c1.1,0,2,0.9,2,2S111.5,120.5,110.4,120.5z
		"/>
	<path class="st1" d="M125.8,120.7c-1.1,0-2-0.8-2.1-1.9s0.8-2,1.9-2.1l10.8-0.6c1.1-0.1,2,0.8,2.1,1.9c0.1,1.1-0.8,2-1.9,2.1l0,0
		L125.8,120.7L125.8,120.7z"/>
	<path class="st0" d="M121.3,138.2l-8.3-1.6c0,0-1.2,8.9,2,11.3S120.3,147.1,121.3,138.2z"/>
	<path class="st1" d="M116.8,149.6c-0.9,0-1.8-0.4-2.5-0.9c-3.5-2.6-2.5-11.2-2.4-12.2c0-0.3,0.2-0.5,0.4-0.7
		c0.2-0.2,0.5-0.2,0.8-0.2l8.4,1.6c0.5,0.1,0.9,0.6,0.8,1.1c-0.7,6.5-2.1,10.1-4.3,11.1C117.6,149.5,117.2,149.6,116.8,149.6z
		 M113.8,137.8c-0.3,3.3,0,8,1.7,9.3c1,0.8,1.5,0.5,1.7,0.5c0.6-0.3,2.1-1.6,3-8.5L113.8,137.8z"/>
	<rect x="99.6" y="203.6" class="st1" width="37" height="15.2"/>
	<path class="st1" d="M136.7,219.8h-37c-0.6,0-1-0.4-1-1v-15.2c0-0.6,0.4-1,1-1h37c0.6,0,1,0.4,1,1v15.2
		C137.7,219.4,137.2,219.8,136.7,219.8z M100.6,217.8h35.1v-13.2h-35L100.6,217.8z"/>
	<path class="st8" d="M116.6,162.8h2.5c0.9,0,1.7,0.8,1.7,1.7v1.2c0,0.9-0.8,1.7-1.7,1.7h-2.5c-0.9,0-1.7-0.8-1.7-1.7v-1.2
		C114.9,163.6,115.6,162.8,116.6,162.8z"/>
	<path class="st1" d="M119,168.4h-2.4c-1.5,0-2.7-1.2-2.7-2.7v-1.2c0-1.5,1.2-2.7,2.7-2.7h2.4c1.5,0,2.7,1.2,2.7,2.7v1.2
		C121.7,167.2,120.5,168.4,119,168.4z M116.6,163.8c-0.4,0-0.7,0.3-0.7,0.7v1.2c0,0.4,0.3,0.7,0.7,0.7h2.4c0.4,0,0.7-0.3,0.7-0.7
		v-1.2c0-0.4-0.3-0.7-0.7-0.7H116.6z"/>
	<polygon class="st8" points="116.1,167.4 112.4,188.3 117.8,195.3 121.8,188 119.5,167.4 	"/>
	<path class="st1" d="M117.8,196.3c-0.3,0-0.6-0.1-0.8-0.4l-5.4-7c-0.2-0.2-0.2-0.5-0.2-0.8l3.7-20.9c0.1-0.5,0.5-0.8,1-0.8h3.3
		c0.5,0,0.9,0.4,1,0.9l2.3,20.6c0,0.2,0,0.4-0.1,0.6l-4,7.4C118.6,196.1,118.2,196.3,117.8,196.3L117.8,196.3z M113.5,188l4.2,5.5
		l3.1-5.8l-2.2-19.4H117L113.5,188z"/>
	<path class="st1" d="M99.6,183c-0.6,0-1-0.4-1-1v-12.5c0-0.6,0.4-1,1-1s1,0.4,1,1V182C100.6,182.6,100.2,183,99.6,183z"/>
</g>
</svg>
