<?xml version="1.0" encoding="utf-8"?>
<!-- Generator: Adobe Illustrator 22.0.1, SVG Export Plug-In . SVG Version: 6.00 Build 0)  -->
<svg version="1.1" id="Layer_1" xmlns="http://www.w3.org/2000/svg" xmlns:xlink="http://www.w3.org/1999/xlink" x="0px" y="0px"
	 viewBox="0 0 400 300" style="enable-background:new 0 0 400 300;" xml:space="preserve">
<style type="text/css">
	.st0{fill:#FFFFFF;}
	.st1{fill:#093F68;}
	.st2{fill:#649BFA;}
	.st3{fill:#FFC9B0;}
	.st4{fill:#725858;}
	.st5{fill:#E8601C;}
	.st6{fill:#00A57F;}
	.st7{fill:#FFBC0E;}
	.st8{fill:#DFEAEF;}
</style>
<g id="_493_conference_presentation_outline">
	<rect x="103.9" y="57" class="st0" width="186.5" height="89.8"/>
	<path class="st1" d="M290.4,147.8H103.9c-0.6,0-1-0.4-1-1V57c0-0.6,0.4-1,1-1h186.5c0.6,0,1,0.4,1,1v89.8
		C291.4,147.4,291,147.8,290.4,147.8L290.4,147.8z M104.9,145.8h184.5V58H104.9V145.8z"/>
	<path class="st1" d="M160.1,155.9c-0.6,0-1-0.4-1-1v-21.6c0-0.3,0.1-0.5,0.3-0.7l7.8-7.6c0.4-0.4,1-0.4,1.4,0s0.4,1,0,1.4l0,0
		l-7.5,7.3v21.1C161.1,155.4,160.6,155.8,160.1,155.9L160.1,155.9z"/>
	<path class="st2" d="M165.3,124l3.3-3.1c1.1-1,2.7-0.9,3.7,0.2l0.2,0.2c1,1.1,0.9,2.7-0.2,3.7l-3.3,3.1c-1.1,1-2.7,0.9-3.7-0.2
		l-0.2-0.2C164.2,126.7,164.2,125,165.3,124z"/>
	<path class="st1" d="M167.3,129.8h-0.2c-1,0-1.9-0.5-2.5-1.2l-0.2-0.2c-1.3-1.5-1.2-3.8,0.2-5.1l3.4-3.1c1.5-1.4,3.8-1.3,5.1,0.2
		l0,0l0.2,0.3c1.4,1.5,1.3,3.8-0.2,5.1l0,0l-3.4,3.1C169.1,129.5,168.2,129.8,167.3,129.8z M170.4,121.3c-0.4,0-0.8,0.2-1.1,0.4
		l-3.3,3.1c-0.3,0.3-0.5,0.7-0.5,1.1s0.1,0.8,0.4,1.2l0.2,0.2c0.3,0.3,0.7,0.5,1.1,0.5c0.4,0,0.8-0.1,1.2-0.4l3.4-3.1l0,0
		c0.7-0.6,0.7-1.6,0.1-2.3l-0.2-0.3C171.3,121.5,170.9,121.3,170.4,121.3L170.4,121.3z"/>
	<path class="st2" d="M224.7,165.4v-23.2c0-7.7-6.2-13.9-13.9-13.9l0,0h-21.9c-7.7,0-13.9,6.2-13.9,13.9v23.2H224.7z"/>
	<path class="st1" d="M224.7,166.4H175c-0.6,0-1-0.4-1-1v-23.2c0-8.2,6.7-14.9,14.9-14.9h21.9c8.2,0,14.9,6.7,14.9,14.9v23.2
		C225.8,165.9,225.3,166.4,224.7,166.4L224.7,166.4z M176,164.4h47.8v-22.2c0-7.1-5.8-12.9-12.9-12.9H189c-7.1,0-12.9,5.8-12.9,12.9
		L176,164.4z"/>
	<polygon class="st0" points="208.9,128.3 200,162 190.9,128.3 	"/>
	<path class="st1" d="M200,163c-0.5,0-0.9-0.3-1-0.7l-9-33.7c-0.1-0.3,0-0.6,0.2-0.9c0.2-0.2,0.5-0.4,0.8-0.4h18
		c0.3,0,0.6,0.1,0.8,0.4c0.2,0.2,0.3,0.6,0.2,0.9l-8.9,33.7C200.9,162.7,200.5,163,200,163L200,163z M192.2,129.3l7.8,28.8l7.6-28.8
		H192.2z"/>
	<path class="st3" d="M196.4,125.6h7l0,0v4c0,1.7-1.3,3-3,3h-1.1c-1.7,0-3-1.3-3-3L196.4,125.6L196.4,125.6z"/>
	<path class="st1" d="M200.4,133.6h-1c-2.2,0-4-1.8-4-4v-4c0-0.6,0.4-1,1-1h7c0.6,0,1,0.4,1,1v4
		C204.4,131.8,202.6,133.6,200.4,133.6z M197.4,126.6v3c0,1.1,0.9,2,2,2h1c1.1,0,2-0.9,2-2v-3C202.4,126.6,197.4,126.6,197.4,126.6z
		"/>
	<path class="st4" d="M176.1,106c-0.6-1.5-0.9-3.1-0.8-4.8c-0.1-5.8,0.4-11.5,1.3-17.2c0.3-2.9,1.2-5.6,2.5-8.2
		c1.2-1.9,2.7-3.6,4.5-4.9c4.5-3.6,10.1-5.5,15.9-5.4c11.1,0.3,20.3,8.2,23.1,18.7c1.3,5.2,1.7,10.6,1.1,16c0,1.7-0.4,3.3-1.2,4.8
		c-1.9,2.9-5.8,1.3-8.7,1.4l-13.5,0.4c-5.4,0.2-10.9,1.1-16.3,1c-1.7,0-4.9,0.4-6.6-0.3C176.9,107.2,176.4,106.7,176.1,106z"/>
	<path class="st1" d="M180.3,108.8c-1.1,0.1-2.1-0.1-3.2-0.4c-0.9-0.4-1.6-1.1-2-2c-0.7-1.7-1-3.4-0.9-5.2
		c-0.1-5.8,0.4-11.7,1.3-17.4c0.4-3,1.3-5.9,2.7-8.5c1.2-2,2.8-3.7,4.7-5.2c4.7-3.7,10.6-5.7,16.6-5.6c11.1,0.3,21,8.2,24,19.4
		c1.3,5.3,1.7,10.9,1.2,16.4c0,1.8-0.5,3.6-1.4,5.2c-1.8,2.7-4.7,2.3-7.1,2c-0.8-0.1-1.6-0.2-2.4-0.2l-13.5,0.4
		c-2.3,0.1-4.6,0.3-6.8,0.5c-3.2,0.3-6.4,0.5-9.6,0.5c-0.5,0-1.1,0-1.7,0S181,108.8,180.3,108.8z M199,66.4
		c-5.4,0-10.6,1.9-14.8,5.2c-1.7,1.3-3.1,2.8-4.2,4.6c-1.3,2.4-2.1,5.1-2.4,7.8c-0.9,5.6-1.4,11.4-1.3,17.1
		c-0.1,1.5,0.2,2.9,0.7,4.3l0,0c0.2,0.4,0.6,0.8,1,1c1.4,0.3,2.9,0.4,4.4,0.2c0.7,0,1.3-0.1,1.8,0c3.1,0,6.3-0.2,9.4-0.5
		c2.3-0.2,4.6-0.4,6.9-0.5l13.5-0.4c0.9,0,1.8,0.1,2.6,0.2c2.6,0.3,4.2,0.4,5.2-1.1c0.7-1.3,1.1-2.8,1.1-4.3
		c0.5-5.3,0.1-10.6-1.1-15.7c-2.8-10.3-11.9-17.7-22.2-18H199V66.4z"/>
	<ellipse class="st3" cx="179.5" cy="107.6" rx="6.8" ry="5.8"/>
	<path class="st1" d="M179.5,114.4c-4.3,0-7.8-3.1-7.8-6.8s3.5-6.8,7.8-6.8s7.8,3.1,7.8,6.8S183.8,114.4,179.5,114.4z M179.5,102.7
		c-3.2,0-5.8,2.2-5.8,4.8s2.6,4.8,5.8,4.8s5.8-2.2,5.8-4.8S182.7,102.7,179.5,102.7z"/>
	<ellipse class="st3" cx="218.9" cy="107.6" rx="6.8" ry="5.8"/>
	<path class="st1" d="M219,114.4c-4.3,0-7.8-3.1-7.8-6.8s3.5-6.8,7.8-6.8s7.8,3.1,7.8,6.8S223.2,114.4,219,114.4z M219,102.7
		c-3.2,0-5.8,2.2-5.8,4.8s2.6,4.8,5.8,4.8s5.8-2.2,5.8-4.8S222.1,102.7,219,102.7z"/>
	<path class="st3" d="M199.4,126.6c-11.3,0-20.4-9.1-20.4-20.4c0-2.8,0-5.7,0.2-8.5c0.1-2.4-0.2-5.2,0.5-7.4
		c0.6-1.9,1.4-3.8,2.4-5.5c1.1-1.7,2.8-2.9,4.8-3.4c4.4-0.8,8.3,3.7,12.8,3.8c3.1,0.1,5.8-1.9,8.6-3.2c13.8-6.6,11.4,17,11.4,24.3
		C219.8,117.4,210.7,126.6,199.4,126.6L199.4,126.6z"/>
	<path class="st1" d="M199.4,127.6c-11.8,0-21.4-9.6-21.4-21.4c0-2.5,0-5.5,0.2-8.5c0-0.7,0-1.4,0-2.1c-0.1-1.9,0.1-3.8,0.6-5.7
		c0.6-2,1.5-3.9,2.6-5.7c1.2-1.9,3.2-3.3,5.4-3.8c2.8-0.5,5.2,0.7,7.6,1.9c1.7,1,3.5,1.7,5.5,1.9c2.1,0.1,4.1-1,6.2-2.1
		c0.7-0.4,1.3-0.7,2-1c3.3-1.6,6-1.6,8.1-0.3c5.3,3.5,5,15.4,4.8,22.5c0,1.1-0.1,2.1-0.1,2.9C220.8,118,211.2,127.5,199.4,127.6z
		 M188,82.3c-0.3,0-0.6,0-0.9,0.1c-1.7,0.4-3.2,1.5-4.1,3c-1,1.6-1.8,3.4-2.3,5.2c-0.4,1.6-0.6,3.3-0.5,5c0,0.7,0,1.5,0,2.2
		c-0.1,3-0.2,6-0.2,8.4c0,10.7,8.7,19.4,19.4,19.4s19.4-8.7,19.4-19.4c0-0.8,0-1.8,0.1-3c0.2-6.3,0.5-17.9-3.9-20.8
		c-1.5-1-3.6-0.8-6.2,0.4c-0.6,0.3-1.3,0.7-1.9,1c-2.2,1.2-4.5,2.4-7.2,2.3c-2.2-0.2-4.4-0.9-6.3-2.1
		C191.5,83.1,189.8,82.3,188,82.3z"/>
	<path class="st1" d="M199.4,112c-0.6,0-1.3-0.1-1.9-0.2c-0.6-0.1-0.9-0.6-0.8-1.2s0.6-0.9,1.2-0.8c0.8,0.1,1.5,0.1,2.3,0.1
		c-0.3-1.4-0.9-2.7-1.5-3.9c-0.2-0.5,0-1.1,0.5-1.3c0.5-0.2,1.1-0.1,1.3,0.4c0.9,1.6,2.2,4.6,1.6,5.9c-0.2,0.4-0.6,0.7-1,0.8
		C200.4,111.9,199.9,112,199.4,112z"/>
	<path class="st5" d="M198.9,133.3h2.2c0.8,0,1.5,0.7,1.5,1.5v1.1c0,0.8-0.7,1.5-1.5,1.5h-2.2c-0.8,0-1.5-0.7-1.5-1.5v-1.1
		C197.4,134,198.1,133.3,198.9,133.3z"/>
	<path class="st1" d="M201.1,138.3H199c-1.4,0-2.5-1.1-2.5-2.5v-1.1c0-1.4,1.1-2.5,2.5-2.5h2.2c1.4,0,2.5,1.1,2.5,2.5v1.1
		C203.6,137.2,202.5,138.3,201.1,138.3L201.1,138.3z M199,134.3c-0.3,0-0.5,0.2-0.5,0.5l0,0v1.1c0,0.3,0.2,0.5,0.5,0.5l0,0h2.2
		c0.3,0,0.5-0.2,0.5-0.5v-1.1c0-0.3-0.2-0.5-0.5-0.5H199z"/>
	<polygon class="st5" points="203,150.6 200,162 196.7,149.7 198.6,137.3 201.5,137.3 	"/>
	<path class="st1" d="M200,163c-0.5,0-0.9-0.3-1-0.7l-3.3-12.3c0-0.1,0-0.3,0-0.4l1.9-12.3c0.1-0.5,0.5-0.9,1-0.9h2.9
		c0.5,0,0.9,0.4,1,0.9l1.5,13.3c0,0.1,0,0.2,0,0.4l-3,11.4C200.9,162.7,200.5,163,200,163L200,163z M197.7,149.6l2.3,8.5l2-7.6
		l-1.4-12.2h-1.2L197.7,149.6z"/>
	<path class="st1" d="M186.3,166.4c-0.6,0-1-0.4-1-1v-25.1c0-0.6,0.4-1,1-1s1,0.4,1,1v25.1C187.3,165.9,186.9,166.4,186.3,166.4z"/>
	<path class="st1" d="M213.4,166.4c-0.6,0-1-0.4-1-1v-25.1c0-0.6,0.4-1,1-1s1,0.4,1,1v25.1C214.4,165.9,214,166.4,213.4,166.4z"/>
	<path class="st2" d="M154.7,154h86.5c1.8,0,3.2,1.4,3.2,3.2v1.6c0,1.8-1.4,3.2-3.2,3.2h-86.5c-1.8,0-3.2-1.4-3.2-3.2v-1.6
		C151.5,155.4,153,154,154.7,154z"/>
	<path class="st1" d="M241.2,163h-86.5c-2.3,0-4.2-1.9-4.2-4.2v-1.6c0-2.3,1.9-4.2,4.2-4.2h86.5c2.3,0,4.2,1.9,4.2,4.2v1.6
		C245.4,161.1,243.5,163,241.2,163z M154.7,155c-1.2,0-2.2,1-2.2,2.2v1.6c0,1.2,1,2.2,2.2,2.2h86.5c1.2,0,2.2-1,2.2-2.2v-1.6
		c0-1.2-1-2.2-2.2-2.2H154.7z"/>
	<polygon class="st2" points="161.4,234.7 234.5,234.7 239.3,162 156.6,162 	"/>
	<path class="st1" d="M234.5,235.7h-73.1c-0.5,0-1-0.4-1-0.9l-4.8-72.7c0-0.6,0.4-1,0.9-1.1c0,0,0,0,0.1,0h82.7c0.6,0,1,0.4,1,1
		c0,0,0,0,0,0.1l-4.8,72.7C235.5,235.2,235.1,235.7,234.5,235.7z M162.3,233.7h71.3l4.6-70.7h-80.5L162.3,233.7z"/>
	<path class="st3" d="M113.7,216.5h6.7l0,0v3.8c0,1.6-1.3,2.8-2.8,2.8l0,0h-1c-1.6,0-2.8-1.3-2.8-2.8l0,0L113.7,216.5L113.7,216.5z"
		/>
	<path class="st1" d="M117.5,224.2h-1c-2.1,0-3.8-1.7-3.8-3.8v-3.8c0-0.6,0.4-1,1-1h6.7c0.6,0,1,0.4,1,1v3.8
		C121.3,222.4,119.6,224.2,117.5,224.2z M114.7,217.5v2.8c0,1,0.8,1.8,1.8,1.8l0,0h1c1,0,1.8-0.8,1.8-1.8v-2.8H114.7z"/>
	<path class="st3" d="M117,217.4L117,217.4c-10.8,0-19.5-8.7-19.5-19.5v-14.2c1.1,1.9,4.9,1.1,10.5-8.4c20.8,10.5,28.5,4.5,28.5,4.5
		v18.1C136.5,208.6,127.8,217.4,117,217.4L117,217.4z"/>
	<path class="st1" d="M117,218.4c-11.3,0-20.5-9.2-20.5-20.5v-14.2c0-0.6,0.5-1,1-1c0.3,0,0.7,0.2,0.8,0.5c0.1,0.2,0.4,0.4,0.6,0.3
		l0,0c0.5,0,3.3-0.4,8.1-8.7c0.3-0.5,0.8-0.6,1.3-0.4c19.8,10,27.4,4.6,27.5,4.6c0.4-0.3,1.1-0.3,1.4,0.2c0.1,0.2,0.2,0.4,0.2,0.6
		v18.1C137.5,209.2,128.3,218.4,117,218.4z M98.5,185.5v12.4c-0.3,10.2,7.7,18.8,17.9,19.1s18.8-7.7,19.1-17.9c0-0.4,0-0.8,0-1.2
		v-16.4c-3.2,1.3-11.6,2.9-27.2-4.8c-3.5,5.8-6.7,8.9-9.3,8.9C98.8,185.5,98.7,185.5,98.5,185.5z"/>
	<path class="st1" d="M140.3,243v-9c0-7.3-6-13.3-13.3-13.3h-21c-7.3,0-13.3,6-13.3,13.3v9H140.3z"/>
	<path class="st1" d="M140.3,244H92.7c-0.6,0-1-0.4-1-1v-9c0-7.9,6.4-14.3,14.3-14.3h21c7.9,0,14.3,6.4,14.3,14.3v9
		C141.3,243.6,140.9,244,140.3,244L140.3,244z M93.7,242h45.6v-8c0-6.8-5.5-12.3-12.3-12.3h-21c-6.8,0-12.3,5.5-12.3,12.3L93.7,242z
		"/>
	<path class="st4" d="M94.8,194.5c-0.1-1.7-0.4-3.4-0.8-5c-1.4-5.2,0.6-11.4,4.3-15.3s10.2-5.5,14.5-2.2c1.4-2.6,4.7-3.3,7.7-3.8
		c4.2-0.7,8.8-1.3,12.4,0.9s6.3,7.1,7.3,11.1c0.6,2.4,0.8,4.9,0.6,7.4c-0.1,0.6-1.6,6.1-1.6,6.1c-1.4-1.3-2-3.2-3-4.8
		s-2.7-3.1-4.6-2.8c1,5.9,0.8,11.9-0.9,17.6c-0.5,1.9-1.3,3.7-2.5,5.3c-6.4,7.9-25.3,3.8-30.5-3.6C95.5,202.3,95.3,198.3,94.8,194.5
		z"/>
	<path class="st1" d="M116.9,214.4H116c-7.9-0.3-15.9-3.8-19.1-8.4c-2.2-3.1-2.6-6.9-3-10.6l-0.1-0.8c-0.1-1.6-0.4-3.3-0.8-4.9
		c-1.4-5.3,0.4-11.8,4.5-16.3c3.6-3.8,10.1-5.9,14.9-2.9c1.7-2.1,4.7-2.9,7.8-3.4c4.7-0.8,9.2-1.2,13.1,1c4.1,2.4,6.7,7.7,7.8,11.8
		c0.6,2.5,0.8,5.1,0.6,7.7c-0.1,0.4-0.5,2-1.3,5.1c-0.2,0.6-0.3,1-0.3,1.2s-0.1,0.4-0.3,0.5c-0.4,0.4-1,0.4-1.4,0.1l-0.1-0.1
		c-0.9-1-1.7-2.1-2.2-3.4c-0.3-0.5-0.6-1.1-0.9-1.6c-0.6-1-1.5-1.8-2.5-2.2c0.8,5.6,0.5,11.3-1.1,16.8c-0.5,2.1-1.4,4-2.7,5.7
		C126.5,212.7,122.3,214.4,116.9,214.4z M107.3,171.2c-3.1,0.1-6.1,1.4-8.3,3.6c-3.6,3.9-5.3,9.8-4,14.4c0.4,1.7,0.7,3.4,0.8,5.2
		l0,0l0.1,0.8c0.4,3.4,0.7,7,2.6,9.7c2.8,4,10.3,7.2,17.5,7.5c5.2,0.2,9.2-1.2,11.4-3.9c1.1-1.5,1.9-3.2,2.3-5
		c1.6-5.6,1.9-11.4,0.8-17.1c-0.1-0.5,0.3-1.1,0.8-1.2l0,0c2.4-0.4,4.5,1.4,5.6,3.2c0.3,0.6,0.6,1.1,0.9,1.7s0.5,1,0.8,1.4
		c0.4-1.4,1-3.7,1-4.1c0.2-2.3,0-4.7-0.5-7c-0.9-3.7-3.2-8.4-6.8-10.5c-3.3-1.9-7.4-1.4-11.7-0.8c-2.7,0.4-5.7,1.1-6.9,3.3
		c-0.3,0.5-0.9,0.7-1.4,0.4l-0.1-0.1C110.8,171.7,109.1,171.2,107.3,171.2z"/>
	<path class="st3" d="M167.2,219.5h6.7l0,0v3.8c0,1.6-1.3,2.8-2.8,2.8l0,0h-1c-1.6,0-2.8-1.3-2.8-2.8l0,0L167.2,219.5L167.2,219.5z"
		/>
	<path class="st1" d="M171,227.1h-1c-2.1,0-3.8-1.7-3.8-3.8l0,0v-3.8c0-0.6,0.4-1,1-1h6.6c0.6,0,1,0.4,1,1v3.8
		C174.8,225.4,173.1,227.1,171,227.1L171,227.1z M168.2,220.5v2.8c0,1,0.8,1.8,1.8,1.8h1c1,0,1.8-0.8,1.8-1.8v-2.8H168.2z"/>
	<path class="st3" d="M170.5,220.4c-6.3,0-12.2-3.1-15.9-8.1c-4.4-6.2-3.9-14.4-2.9-21.6c0.6-4,1.8-8.3,4.9-10.9
		c1.4-1,2.9-1.8,4.6-2.3c5-1.6,9.1-0.2,14.1-0.1c4.7,0.1,8.9,0.9,12,4.8c4.6,5.8,2.6,12.2,2.6,18.8
		C190,211.6,181.3,220.3,170.5,220.4z"/>
	<path class="st1" d="M170.5,221.4L170.5,221.4c-6.6-0.1-12.8-3.2-16.7-8.6c-4.5-6.3-4.1-14.4-3-22.3c0.8-5.6,2.5-9.2,5.3-11.5
		c1.5-1.1,3.1-2,4.9-2.5c3.7-1.2,6.9-0.8,10.1-0.5c1.4,0.1,2.8,0.3,4.3,0.3c4.4,0.1,9.3,0.8,12.8,5.1c3.8,4.7,3.4,9.9,3.1,14.9
		c-0.1,1.5-0.2,3-0.2,4.6C191.1,212.2,181.9,221.4,170.5,221.4L170.5,221.4z M166.5,177.7c-1.7,0-3.3,0.2-4.9,0.7
		c-1.5,0.4-3,1.2-4.2,2.1c-2.4,2-3.9,5.2-4.6,10.2c-1,7.5-1.4,15.1,2.7,20.9c3.5,4.8,9.1,7.7,15.1,7.7c10.2,0,18.5-8.3,18.5-18.5
		c0-1.6,0.1-3.2,0.2-4.7c0.4-4.8,0.7-9.3-2.6-13.4c-3-3.8-7.2-4.3-11.3-4.4c-1.6,0-3-0.2-4.5-0.3C169.4,177.8,168,177.7,166.5,177.7
		L166.5,177.7z"/>
	<path class="st5" d="M193.8,243v-6c0-7.3-6-13.3-13.3-13.3l0,0h-21c-7.3,0-13.3,6-13.3,13.3l0,0v6H193.8z"/>
	<path class="st1" d="M193.8,244h-47.6c-0.6,0-1-0.4-1-1v-6c0-7.9,6.4-14.3,14.3-14.3h21c7.9,0,14.3,6.4,14.3,14.3v6
		C194.9,243.6,194.4,244,193.8,244L193.8,244z M147.3,242h45.6v-5c0-6.8-5.5-12.3-12.3-12.3h-21c-6.8,0-12.3,5.5-12.3,12.3
		L147.3,242z"/>
	<path class="st4" d="M148.9,197.5c1.3-4.9,2.8-9.7,4.7-14.3c1-2.9,2.5-5.6,4.5-7.9c1.4-1.5,2.8-1.7,4.8-1.6c0.4,0,3.9,0.2,3.4,1.2
		c1.5-2.6,4.8-3.3,7.6-3.7c3.5-0.6,7.2-1,10.2,1.2s5.1,5.4,5.9,9.1c0.2,0.7,0.3,1.4,0.3,2.1c-0.2,1.3-0.7,2.4-1.4,3.5
		c-1.3,2.1-3.1,4.4-4,6.7c-1.1,2.7-0.4,6.8-0.1,9.6c0.6,6.9,2,13.7,2.3,20.7c0.1,3.9-4.5,4.5-7.4,5.5c-4.4,1.6-9.2,2.1-13.8,1.3
		c-7.6-1.2-14.6-5.1-20.6-10c-0.9-0.7,0.8-8.7,0.9-9.9c0.4-3,1-6,1.6-9C148.2,200.5,148.5,199,148.9,197.5z"/>
	<path class="st1" d="M170.3,232.3c-1.5,0-3.1-0.1-4.6-0.4c-7-1.1-14.1-4.5-21.1-10.2c-0.8-0.7-1-2.1,0.3-9.5
		c0.1-0.6,0.2-1.1,0.2-1.4c0.3-2.6,0.9-5.4,1.6-9.1c0.3-1.5,0.7-3,1.1-4.6l0,0c1.3-4.9,2.9-9.7,4.8-14.5c1-3,2.7-5.8,4.8-8.2
		c1.7-1.7,3.4-2,5.6-1.9c1.1,0,2.2,0.2,3.3,0.6c2.1-2.2,5.4-2.8,7.5-3.1c3.1-0.5,7.4-1.2,10.9,1.4c3.2,2.4,5.4,5.8,6.3,9.6
		c0.2,0.8,0.3,1.6,0.3,2.4c-0.2,1.4-0.8,2.8-1.6,3.9c-0.4,0.6-0.8,1.2-1.2,1.8c-1.1,1.5-2,3.1-2.7,4.8c-0.8,2-0.5,5.1-0.2,7.6
		c0.1,0.6,0.1,1.1,0.2,1.6c0.2,2.9,0.6,5.9,1,8.7c0.5,3.9,1.1,8,1.3,12s-3.6,5.1-6.4,6c-0.6,0.2-1.1,0.4-1.6,0.5
		C176.9,231.7,173.6,232.3,170.3,232.3z M146.1,220.3c6.7,5.4,13.4,8.6,20,9.6c4.5,0.7,9,0.3,13.3-1.3c0.5-0.2,1.1-0.4,1.8-0.6
		c3-0.9,5-1.7,5-4c-0.1-3.9-0.7-7.9-1.2-11.8c-0.4-2.9-0.8-5.9-1-8.8c0-0.5-0.1-1-0.1-1.5c-0.3-2.7-0.6-6.1,0.4-8.6
		c0.8-1.8,1.8-3.5,2.9-5.1c0.4-0.6,0.8-1.2,1.1-1.7c0.7-0.9,1.1-1.9,1.3-3c0-0.6-0.1-1.2-0.2-1.8c-0.7-3.4-2.7-6.4-5.5-8.5
		c-2.6-2-5.8-1.6-9.4-1.1c-2.8,0.4-5.6,1.1-6.9,3.3l0,0c-0.3,0.5-0.9,0.6-1.4,0.4c-0.3-0.2-0.5-0.4-0.5-0.7
		c-0.8-0.2-1.6-0.3-2.4-0.4c-1.8-0.1-2.9,0.1-4,1.3c-1.9,2.2-3.4,4.8-4.3,7.6c-1.9,4.6-3.4,9.4-4.7,14.2l0,0c-0.4,1.5-0.7,3-1.1,4.5
		c-0.8,3.6-1.3,6.3-1.6,8.9c0,0.3-0.1,0.8-0.2,1.4C146.7,214.2,145.8,219.1,146.1,220.3L146.1,220.3z M148.9,197.5L148.9,197.5z"/>
	<path class="st3" d="M220.7,221.3h6.7l0,0v3.8c0,1.6-1.3,2.8-2.8,2.8l0,0h-1c-1.6,0-2.8-1.3-2.8-2.8l0,0L220.7,221.3L220.7,221.3z"
		/>
	<path class="st1" d="M224.6,229h-1c-2.1,0-3.8-1.7-3.8-3.8l0,0v-3.8c0-0.6,0.4-1,1-1h6.7c0.6,0,1,0.4,1,1v3.8
		C228.4,227.3,226.7,229,224.6,229L224.6,229z M221.7,222.4v2.8c0,1,0.8,1.8,1.8,1.8h1c1,0,1.8-0.8,1.8-1.8v-2.8H221.7z"/>
	<path class="st3" d="M224.1,222.2L224.1,222.2c-10.8,0-19.5-8.7-19.5-19.5l0,0v-14.2c1.1,1.9,4.9,1.1,10.5-8.4
		c20.8,10.5,28.5,4.5,28.5,4.5v18.1C243.6,213.4,234.8,222.2,224.1,222.2L224.1,222.2z"/>
	<path class="st1" d="M224.1,223.2c-11.3,0-20.5-9.2-20.5-20.5v-14.2c0-0.6,0.5-1,1-1c0.3,0,0.7,0.2,0.8,0.5
		c0.1,0.2,0.4,0.4,0.6,0.3l0,0c0.5,0,3.3-0.4,8.1-8.7c0.3-0.5,0.8-0.6,1.3-0.4c19.8,10,27.4,4.6,27.5,4.6c0.3-0.2,0.7-0.3,1.1-0.1
		c0.3,0.2,0.5,0.5,0.6,0.9v18.1C244.5,214,235.4,223.2,224.1,223.2z M205.5,190.3v12.4c-0.3,10.2,7.7,18.8,17.9,19.1
		s18.8-7.7,19.1-17.9c0-0.4,0-0.8,0-1.2v-16.4c-3.2,1.3-11.6,2.9-27.1-4.8c-3.5,5.8-6.7,8.9-9.3,8.9
		C205.9,190.3,205.7,190.3,205.5,190.3z"/>
	<path class="st6" d="M247.4,243v-4.2c0-7.3-5.9-13.3-13.3-13.3l0,0h-21c-7.3,0-13.3,5.9-13.3,13.3l0,0v4.2H247.4z"/>
	<path class="st1" d="M247.4,244h-47.6c-0.6,0-1-0.4-1-1v-4.2c0-7.9,6.4-14.3,14.3-14.3h21c7.9,0,14.3,6.4,14.3,14.3v4.2
		C248.4,243.6,247.9,244,247.4,244L247.4,244z M200.8,242h45.6v-3.2c0-6.8-5.5-12.3-12.3-12.3h-21c-6.8,0-12.3,5.5-12.3,12.3
		L200.8,242z"/>
	<path class="st4" d="M207.5,193.8c-1.8-1.4-3.8-2.7-4.5-4.7c-1.7-4.9,3-12.2,7.6-13.8c1.1-0.4,9.8,0.2,9.2,1.4
		c1.4-2.6,4.7-3.3,7.7-3.8c4.1-0.6,9.3-1.7,12.4,1.6c3,3.1,5.1,6.9,6.2,11c1.1,4.5,1.4,9.1,0.9,13.7c-0.2,3.6-1.1,7.2-2.8,10.4
		c-3.1,5.1-7.8,9-13.5,11.1c-2.9,1.2-6.2,1.6-9.3,1c-5.7-1.2-8.9-6.2-9.5-11.6c-0.4-3.8,0.7-9.6-1.2-13
		C209.9,195.8,208.8,194.7,207.5,193.8z"/>
	<path class="st1" d="M224.3,223c-1,0-2-0.1-3-0.3c-5.6-1.2-9.6-6-10.3-12.5c-0.1-1.5-0.1-3-0.1-4.4c0.1-3,0.1-6.1-1-8.1
		c-0.8-1.2-1.8-2.2-3-3.1l-0.5-0.3c-1.8-1.3-3.6-2.7-4.4-4.9c-1.9-5.5,3.1-13.2,8.3-15.1c0.9-0.3,6.9-0.1,9.3,0.9
		c1.8-2,4.7-2.8,7.7-3.3l0.5-0.1c4.2-0.7,9.4-1.5,12.7,1.9c3.1,3.2,5.3,7.1,6.5,11.4c1.1,4.6,1.5,9.4,0.9,14.1
		c-0.2,3.8-1.1,7.4-2.9,10.8c-3.2,5.3-8.2,9.4-14,11.6C229,222.5,226.6,223,224.3,223z M212,176.2c-0.4,0-0.7,0-1.1,0.1
		c-4.2,1.5-8.5,8.2-7,12.5c0.6,1.6,2.1,2.7,3.7,3.9l0.5,0.4l0,0c1.4,1,2.7,2.2,3.6,3.7c1.4,2.5,1.3,5.9,1.3,9.1
		c-0.1,1.4,0,2.8,0.1,4.1c0.5,4.4,3,9.5,8.7,10.7c3,0.5,6,0.2,8.8-1c5.4-2,9.9-5.8,12.9-10.7c1.6-3.1,2.5-6.5,2.6-10
		c0.5-4.5,0.2-9-0.9-13.4c-1.1-4-3.1-7.6-6-10.6c-2.6-2.7-7.3-1.9-11-1.3l-0.6,0.1c-2.7,0.4-5.7,1.1-6.9,3.3l0,0
		c-0.3,0.5-0.9,0.7-1.4,0.4l0,0c-0.2-0.1-0.4-0.4-0.5-0.6C216.6,176.4,214.3,176.1,212,176.2z"/>
	<path class="st3" d="M274.2,216.5h6.7l0,0v3.8c0,1.6-1.3,2.8-2.8,2.8h-1c-1.6,0-2.8-1.3-2.8-2.8L274.2,216.5L274.2,216.5z"/>
	<path class="st1" d="M278.1,224.2h-1c-2.1,0-3.8-1.7-3.8-3.8v-3.8c0-0.6,0.4-1,1-1h6.7c0.6,0,1,0.4,1,1v3.8
		C281.9,222.4,280.2,224.2,278.1,224.2z M275.2,217.5v2.8c0,1,0.8,1.8,1.8,1.8h1c1,0,1.8-0.8,1.8-1.8v-2.8H275.2z"/>
	<path class="st3" d="M277.6,217.4L277.6,217.4c-10.8,0-19.5-8.7-19.5-19.5l0,0v-14.2c1.1,1.9,4.9,1.1,10.5-8.4
		c20.8,10.5,28.5,4.5,28.5,4.5v18.1C297.1,208.6,288.3,217.4,277.6,217.4z"/>
	<path class="st1" d="M277.6,218.4c-11.3,0-20.5-9.2-20.5-20.5v-14.2c0-0.5,0.3-0.9,0.7-1c0.4-0.1,0.9,0.1,1.1,0.4
		c0.1,0.2,0.4,0.4,0.7,0.3c0.5,0,3.3-0.4,8.1-8.7c0.3-0.5,0.8-0.6,1.3-0.4c19.8,10,27.4,4.6,27.5,4.6c0.3-0.2,0.7-0.2,1-0.1
		c0.3,0.2,0.5,0.5,0.5,0.9v18.1C298,209.2,288.9,218.3,277.6,218.4z M259.1,185.5v12.4c-0.3,10.2,7.7,18.8,17.9,19.1
		c10.2,0.3,18.8-7.7,19.1-17.9c0-0.4,0-0.8,0-1.2v-16.4c-3.2,1.3-11.6,2.9-27.1-4.8c-3.5,5.8-6.7,8.9-9.3,8.9
		C259.4,185.5,259.2,185.5,259.1,185.5z"/>
	<path class="st7" d="M300.9,243v-9c0-7.3-6-13.3-13.3-13.3h-21c-7.3,0-13.3,6-13.3,13.3v9H300.9z"/>
	<path class="st1" d="M300.9,244h-47.6c-0.6,0-1-0.4-1-1v-9c0-7.9,6.4-14.3,14.3-14.3h21c7.9,0,14.3,6.4,14.3,14.3v9
		C301.9,243.6,301.4,244,300.9,244L300.9,244z M254.3,242h45.6v-8c0-6.8-5.5-12.3-12.3-12.3h-21c-6.8,0-12.3,5.5-12.3,12.3V242z"/>
	<path class="st4" d="M259.9,187.5c-1.2-0.4-2.3-1.1-3.1-2c-0.5-0.8-0.7-1.6-0.7-2.5c-0.6-10.5,9.6-18.7,19.5-15
		c0.6,0.2,3.2-1,4-1.2c1.8-0.3,3.5-0.5,5.3-0.3c3,0.2,5.9,1,8.5,2.5c2.1,1.4,3.8,3.3,4.9,5.5c1.9,3.4,2,7.2,3,10.9
		c1.2,4.6,2.4,9.3,3.4,14c1.6,8.3,2.5,16.8,2.6,25.3c0.2,6.8-0.6,10-8.2,11.9c-3.9,0.8-7.8,1-11.8,0.6c-3.4,0-6.7-0.5-9.9-1.4
		c-3.3-0.9-6.1-2.9-8.1-5.6c-4.3-6.6-2.6-16.7-3.7-24.1c-0.6-3.9-0.1-7.5-0.6-11.3c-0.2-2.7-1.6-5.2-3.9-6.7
		C260.7,187.8,260.3,187.7,259.9,187.5z"/>
	<path class="st1" d="M291.7,238.3c-1.5,0-3-0.1-4.5-0.1c-3.4,0-6.9-0.5-10.2-1.4c-3.5-0.9-6.5-3.1-8.6-6
		c-3.1-4.7-3.2-10.9-3.4-16.9c0-2.5-0.2-5.1-0.5-7.6c-0.3-2.1-0.4-4.1-0.4-6.2c0-1.7-0.1-3.5-0.2-5.2c-0.1-2.4-1.4-4.7-3.4-6
		c-0.3-0.2-0.7-0.3-1-0.5l0,0l-0.3-0.1c-1.2-0.4-2.4-1.2-3.2-2.2c-0.5-0.9-0.8-1.9-0.9-3c-0.3-5.4,2.1-10.7,6.5-13.9
		c4.1-3.1,9.5-3.9,14.3-2.1c0.7-0.2,1.4-0.4,2-0.7c0.5-0.2,1-0.4,1.5-0.5c1.8-0.4,3.7-0.5,5.6-0.4c3.1,0.2,6.2,1.1,8.9,2.6
		c2.3,1.4,4.1,3.4,5.3,5.8c1.2,2.4,2,4.9,2.3,7.6c0.2,1.2,0.4,2.4,0.8,3.6c1.5,5.7,2.5,10,3.4,14.1c1.6,8.4,2.5,16.9,2.6,25.4
		c0.2,7.5-1,10.9-9,12.9C296.8,238.1,294.3,238.3,291.7,238.3z M260.3,186.6c0.4,0.2,0.8,0.4,1.2,0.6c2.6,1.7,4.2,4.4,4.4,7.5
		c0.2,1.8,0.3,3.6,0.3,5.4c0,2,0.1,4,0.3,5.9c0.3,2.6,0.5,5.2,0.5,7.9c0.1,5.7,0.3,11.6,3,15.8c1.8,2.6,4.5,4.4,7.6,5.2
		c3.2,0.8,6.4,1.3,9.7,1.3c3.8,0.4,7.7,0.2,11.5-0.6c7-1.7,7.6-4.3,7.5-10.9c-0.1-8.4-1-16.8-2.6-25.1c-0.8-4-1.9-8.4-3.4-14
		c-0.3-1.3-0.6-2.5-0.8-3.7c-0.3-2.4-1-4.8-2.1-6.9c-1-2.1-2.6-3.8-4.5-5.1c-2.5-1.4-5.2-2.2-8-2.3c-1.7-0.1-3.4,0-5.1,0.3
		c-0.4,0.1-0.8,0.3-1.2,0.4c-1.8,0.7-2.7,0.9-3.3,0.7c-4.2-1.6-8.9-0.9-12.5,1.8c-3.8,2.8-6,7.5-5.7,12.2c0,0.7,0.2,1.4,0.5,2
		c0.6,0.7,1.4,1.2,2.3,1.5L260.3,186.6z"/>
	<path class="st8" d="M152.6,73.8h-36.3c-0.6,0-1-0.4-1-1s0.4-1,1-1h36.3c0.6,0,1,0.4,1,1S153.2,73.8,152.6,73.8z"/>
	<path class="st8" d="M132.8,87.6h-16.5c-0.6,0-1-0.4-1-1s0.4-1,1-1h16.5c0.6,0,1,0.4,1,1S133.4,87.6,132.8,87.6z"/>
	<path class="st8" d="M147.5,134.3h-31.2c-0.6,0-1-0.4-1-1V98.8c0-0.6,0.4-1,1-1s1,0.4,1,1v33.5h30.2c0.6,0,1,0.4,1,1
		S148.1,134.3,147.5,134.3z"/>
	<path class="st8" d="M116.3,134.3c-0.1,0-0.3,0-0.4-0.1c-0.5-0.2-0.7-0.8-0.5-1.3l0,0c0.9-1.9,8.6-18.8,14.4-20.6
		c0.9-0.3,1.8-0.2,2.6,0.3c1.7,1,3.1,2.5,3.9,4.3c0.4,0.7,0.7,1.3,1.1,1.4s1,0,3-1.4c5.9-4.1,11.2-15.3,11.3-15.4
		c0.2-0.5,0.8-0.8,1.3-0.6s0.8,0.8,0.6,1.3c0,0,0,0.1-0.1,0.1c-0.2,0.5-5.6,11.8-11.9,16.2c-2.1,1.5-3.5,2-4.6,1.7s-1.8-1.3-2.4-2.3
		c-0.7-1.5-1.8-2.7-3.2-3.6c-0.3-0.2-0.7-0.2-1-0.1c-4.2,1.3-10.9,14.5-13.2,19.5C117.1,134.1,116.7,134.3,116.3,134.3z"/>
	<path class="st8" d="M275.6,73.8h-37.3c-0.6,0-1-0.4-1-1s0.4-1,1-1h37.3c0.6,0,1,0.4,1,1S276.1,73.8,275.6,73.8z"/>
	<path class="st8" d="M275.6,84.2h-37.3c-0.6,0-1-0.4-1-1s0.4-1,1-1h37.3c0.6,0,1,0.4,1,1S276.1,84.2,275.6,84.2z"/>
	<path class="st8" d="M275.6,94.7h-37.3c-0.6,0-1-0.4-1-1s0.4-1,1-1h37.3c0.6,0,1,0.4,1,1S276.1,94.7,275.6,94.7z"/>
	<path class="st8" d="M275.6,134.3h-37.3c-0.6,0-1-0.4-1-1v-25.4c0-0.6,0.4-1,1-1h37.3c0.6,0,1,0.4,1,1v25.4
		C276.6,133.8,276.1,134.3,275.6,134.3z M239.3,132.3h35.3v-23.4h-35.3V132.3z"/>
</g>
<circle class="st1" cx="189.5" cy="100.8" r="2.3"/>
<circle class="st1" cx="210" cy="100.8" r="2.3"/>
<path class="st1" d="M195,95.9L195,95.9h-10.8c-1.1,0-2-0.9-2-2s0.9-2,2-2l0,0H195c1.1,0,2,0.9,2,2S196.1,95.9,195,95.9z"/>
<path class="st1" d="M203.6,96.2c-1.1,0-2-0.8-2.1-1.9c-0.1-1.1,0.8-2,1.9-2.1l10.8-0.6c1.1-0.1,2,0.8,2.1,1.9s-0.8,2-1.9,2.1l0,0
	L203.6,96.2L203.6,96.2z"/>
<path class="st0" d="M204.3,115.5l-9.7-1.2c0,0-1.4,6.7,2.3,8.5C200.6,124.6,203.1,122.2,204.3,115.5z"/>
<path class="st1" d="M199,124.1c-1.1,0-2.1-0.3-2.9-0.7c-4.1-1.9-2.9-8.4-2.8-9.1c0-0.2,0.2-0.4,0.5-0.5s0.6-0.1,0.9-0.1l9.8,1.2
	c0.6,0.1,1.1,0.4,0.9,0.8c-0.8,4.9-2.5,7.6-5,8.3C199.9,124,199.5,124.1,199,124.1z M195.5,115.2c-0.4,2.5,0,6,2,7
	c1.2,0.6,1.8,0.4,2,0.4c0.7-0.2,2.5-1.2,3.5-6.4L195.5,115.2z"/>
</svg>
