<svg xmlns="http://www.w3.org/2000/svg" viewBox="0 0 64 64" xmlns:v="https://vecta.io/nano"><path d="M56 63H8c1.4-8.5 1.5-14.4 8.1-19.7H48c6.5 5.3 6.6 11.5 8 19.7z" fill="#1a1a1a"/><path d="M48,42c0,7.5-5.9,13.7-13.4,14h-5.2C21.9,55.7,16,49.5,16,42H48z" fill="#a2c3fc"/><linearGradient id="A" gradientUnits="userSpaceOnUse" x1="32" y1="63" x2="32" y2="55"><stop offset="0" stop-color="#e9a254"/><stop offset="1" stop-color="#f4bb79"/></linearGradient><circle cx="32" cy="59" r="4" fill="url(#A)"/><circle cx="32" cy="59" r="4" fill="#feb917"/><g fill="#ffc9b0"><path d="M36 38.3V42c-2.2 2.2-5.8 2.2-8 0v-3.7a12.19 12.19 0 0 0 8 0z"/><path d="M44 13.2V27a12.04 12.04 0 0 1-12 12c-6.2 0-11.4-4.7-11.9-10.9-.1-.8 0 .2 0-14.9 0 0 23.9 0 23.9 0z"/><path d="M36 38.3v2a12.19 12.19 0 0 1-8 0v-2a12.19 12.19 0 0 0 8 0zM45 28h-1v-6h1c1.7 0 3 1.3 3 3s-1.3 3-3 3zm-26-6h1v6h-1c-1.7 0-3-1.3-3-3s1.3-3 3-3z"/></g><path d="M44 23c-.5-3.3-1-6-4-9-4 2.6-6.8 2-17 2l-3 7c-.7-2.6-1-5.4-1-8.1C19 8.9 23.8 4 29.8 4h0c4.9 0 7.6-.5 10.1 2 2.9.6 5 3.1 5 6.1.3 3.7-.1 7.3-.9 10.9z" fill="#725858"/><linearGradient id="B" gradientUnits="userSpaceOnUse" x1="20" y1="23" x2="20" y2="23"><stop offset="0" stop-color="#474f72"/><stop offset="1" stop-color="#878c9f"/></linearGradient><path d="M20 23h0 0z" fill="url(#B)"/><path d="M19 1h26v10H19z" fill="#1a1a1a"/><path d="M34.8 32.4c-.4-.4-1-.4-1.4 0h0a1.93 1.93 0 0 1-2.8 0c-.4-.4-1-.4-1.4 0s-.4 1 0 1.4h0c2.7 2.7 7.1.1 5.6-1.4zM25 23v1a.94.94 0 0 0 1 1 .94.94 0 0 0 1-1v-1a.94.94 0 0 0-1-1 .94.94 0 0 0-1 1zm14 1v-1a.94.94 0 0 0-1-1 .94.94 0 0 0-1 1v1a.94.94 0 0 0 1 1 .94.94 0 0 0 1-1zm10 18.8V42a.94.94 0 0 0-1-1H37v-2c4.2-1.7 7.1-5.5 7.8-10 5.3 0 5.5-7.4.6-8 .7-3.9.6-6.6.6-19h2v17a.94.94 0 0 0 1 1 .94.94 0 0 0 1-1V2h3a.94.94 0 0 0 1-1 .94.94 0 0 0-1-1H11a.94.94 0 0 0-1 1 .94.94 0 0 0 1 1h7c0 9.8-.2 9.4.4 9.8-.7 2.7-.3 6.6.2 9.3-5 .5-4.7 8 .6 8 .7 4.5 3.7 8.2 7.8 10v2H16a.94.94 0 0 0-1 1v.8c-6.5 5.6-6.6 11.7-8 20-.1.5.3 1.1.8 1.1h0c3.1.5-.2-11 7.5-18.7 1.3 6 6.2 10.5 12.2 11.5-1.2 2.5-.3 5.5 2.2 6.7s5.5.3 6.7-2.2c.7-1.4.7-3.1 0-4.5 6-1 10.9-5.6 12.2-11.5 5 5 5.1 10.1 6.4 17.9.1.6.6.9 1.2.8s.9-.6.8-1.2c-1.4-8.3-1.5-14.4-8-20zM31 54.1L24.7 43h2.9c2.5 2.2 6.3 2.2 8.8 0h2.9L33 54.1c-.7-.1-1.3-.1-2 0zM20.4 19.6c-.3-2.3-.6-5.4.1-7.6l23.5.1c.1 2 0 3.9-.2 5.9-.7-1.8-1.8-3.4-3.1-4.7-.3-.3-.9-.4-1.3-.1-3.5 2.4-6 1.8-16.4 1.8-.9 0-.9.7-2.6 4.6zM47 25c0 1.1-.9 2-2 2-.1-1.3-.1-2.7 0-4 1.1 0 2 .9 2 2zM44 2v8H20V2h24zM17 25c0-1.1.9-2 2-2 0 .1 0-.3 0 4-1.1 0-2-.9-2-2zm4 2v-3.8l2.7-6.2c9.7 0 12.3.5 16.2-1.7 2.4 2.7 2.8 5.3 3.2 7.8V27a10.97 10.97 0 0 1-11 11C26 38 21 33.1 21 27zm14 12.7v1.9c-1.7 1.5-4.3 1.5-6 0 0-2.2 0-1.9.1-1.9 2 .4 4 .4 5.9 0zM17 43h5.4l6.7 12c-6.5-.5-11.6-5.6-12.1-12zm15 19c-3.9 0-4-6 0-6s3.9 6 0 6zm11.2-10.8c-2.2 2.2-5.2 3.6-8.3 3.7L41.6 43H47c-.3 3.1-1.6 6-3.8 8.2z" fill="#093f68"/></svg>