<svg xmlns="http://www.w3.org/2000/svg" viewBox="0 0 400 300" xmlns:v="https://vecta.io/nano"><style><![CDATA[.Z{fill:#e27825}.a{fill:#ffe8bc}.b{fill:#649bfa}.c{enable-background:new}.d{fill:#feb917}.e{fill:#fdba45}.f{fill:#1a1a1a}.g{fill:#faa590}.h{fill:#e8601c}.i{fill:#1371a5}.j{fill:#e85858}]]></style><g class="g"><path d="M141.1 57.1l-13.1.6s-12.7-2.5-14.8-1.2c-1.9 1.1-10.1 3.7-9.5 5s7.9-.7 7.9-.7-2.9 1.3-1.7 2.3 5.7-2.1 7.1-1.7 27.3 1.9 27.3 1.9"/><path d="M127.3 61.4c-3.5.6-7 .3-10.3-.9-.6-.2-.9.8-.3 1 3.5 1.2 7.2 1.5 10.9.9.5-.1.3-1.1-.3-1z"/></g><path d="M191.7 35.2s10.4 4.1 10.6 11.6 1.6 8.7 7.5 10.5 11.7 3 12 7.3-9.9 8.4-15.6 10.4-23.3-15.9-22.2-22.9" class="h"/><path d="M13.9 193.1l183.9 106.2c5.6 3.2 12.5 3.2 18.1-.1l146.2-86.6c2.2-1.3 2.9-4.2 1.6-6.4-.4-.7-1-1.2-1.6-1.6L170.3 94.3a6.05 6.05 0 0 0-6.1 0L13.9 182.6c-2.9 1.7-3.9 5.4-2.2 8.3a5.81 5.81 0 0 0 2.2 2.2z" fill="#e0ebfe"/><linearGradient id="A" gradientUnits="userSpaceOnUse" x1="131.108" y1="267.323" x2="146.228" y2="248.673"><stop offset=".01" stop-color="#fff" stop-opacity="0"/><stop offset="1" stop-color="#4587f9"/></linearGradient><path d="M152.8 273.3l-56.2-31.1 53.9-31.2 59.5 26.7-41.3 24.3c-6.3 3.9-9.7 7.3-15.9 11.3z" opacity=".48" fill="url(#A)" class="c"/><linearGradient id="B" gradientUnits="userSpaceOnUse" x1="253.788" y1="241.468" x2="279.208" y2="203.338"><stop offset=".01" stop-color="#fff" stop-opacity="0"/><stop offset="1" stop-color="#4587f9"/></linearGradient><path d="M325.5 216.7L266 190.1l-53.9 31.1 56.7 30.8z" opacity=".48" fill="url(#B)" class="c"/><linearGradient id="C" gradientUnits="userSpaceOnUse" x1="44.037" y1="204.514" x2="65.264" y2="172.683"><stop offset=".01" stop-color="#fff" stop-opacity="0"/><stop offset="1" stop-color="#4587f9"/></linearGradient><path d="M45.6 211.7l-27.7-18.3 46.8-26.5 30.5 11.2-35.5 23.8c-5.8 3.8-8.4 5.8-14.1 9.8z" opacity=".48" fill="url(#C)" class="c"/><path d="M290 132l7 3.7-18.9 17.8-16.6 5.2-5.6-7.5" class="a"/><path d="M264 154.9l-6.4-3.6L290 132l-.7-.4-33.4 19.6v50l7.3 4.2 2.8-2.9" class="b"/><path d="M264 154.9l-6.4-3.6L290 132l-.7-.4-33.4 19.6v50l7.3 4.2 2.8-2.9" opacity=".42" class="c i"/><path d="M297 135.7l-33.8 19.7v50l34.3-20.5z" class="b"/><path d="M264.5 152.1l2 1.3v10.7l1.3-1.7 1 1v-11.3l-2-1.3z" class="j"/><path d="M299.7 137.8l6.9 3.7-18.9 17.7-16.6 5.2-5.5-7.5" class="a"/><path d="M273.6 160.7l-6.4-3.7 32.5-19.2-.8-.5-33.3 19.6V207l7.2 4.1 2.8-2.9" class="b"/><path d="M273.6 160.7l-6.4-3.7 32.5-19.2-.8-.5-33.3 19.6V207l7.2 4.1 2.8-2.9" opacity=".42" class="c i"/><path d="M306.6 141.5l-33.8 19.6v50l34.3-20.5z" class="b"/><path d="M274.1 157.9l2.1 1.3v10.6l1.3-1.7.9 1.1v-11.3l-1.9-1.4z" class="j"/><path d="M310.4 143l6.9 3.7-18.9 17.8-16.6 5.2-5.5-7.5" class="a"/><path d="M284.3 165.9l-6.4-3.6 32.5-19.3-.8-.4-33.3 19.6v50.1l7.2 4.1 2.8-2.9" class="b"/><path d="M284.3 165.9l-6.4-3.6 32.5-19.3-.8-.4-33.3 19.6v50.1l7.2 4.1 2.8-2.9" opacity=".42" class="c i"/><path d="M317.3 146.7l-33.8 19.7v50l34.3-20.5z" class="b"/><path d="M284.8 163.1l2.1 1.3v10.7l1.3-1.7.9 1v-11.2l-1.9-1.4z" class="j"/><path d="M278.1 213.8c-.1 0-1.2-.4-.3-1.1.6-.5 1.3-.9 1.9-1.3" class="Z"/><path d="M278.1 207.9s.9 3.4 0 5.3l12.6 7.4 12.5 7.2v-5.4" class="a"/><path d="M277.7 207.4c0 .2 0 .5.1.7l25.5 14.4v5.4L277.8 213v.6l26.5 15.4v-7.3l-26.6-14.3z" class="Z"/><path d="M277.9 207.5l26.3 15 36.9-21.6-25.7-14.8a2.44 2.44 0 0 0-2.6 0l-34.9 20.7c-.2.1-.2.3-.1.5-.1.1 0 .2.1.2z" class="d"/><path d="M304.3 229l36.8-21.8c-.1-.1 0-6.3 0-6.3l-36.9 21.6.1 6.5z" class="Z"/><path d="M277.9 206.8c-.2.2-.4.4-.4.7 0 .4.4.7.6.8" class="e"/><path d="M278.3 204c-.1 0-1.2-.4-.3-1.1.6-.5 1.3-.9 1.9-1.3" class="Z"/><path d="M278.3 198.1s.9 3.4 0 5.3l12.6 7.4 12.5 7.2v-5.4" class="a"/><path d="M277.8 197.6c0 .2 0 .5.1.7l25.5 14.4v5.4l-25.5-14.9v.6l26.5 15.3v-7.3l-26.6-14.2z" class="Z"/><path d="M278 197.7l26.3 15 36.9-21.6-25.7-14.8a2.44 2.44 0 0 0-2.6 0L278 197c-.2.1-.3.3-.2.5l.2.2z" class="d"/><path d="M304.4 219.2l36.8-21.8c-.1-.1 0-6.3 0-6.3l-36.9 21.6.1 6.5z" class="Z"/><path d="M278 197c-.2.2-.4.4-.4.7 0 .4.4.7.6.8" class="e"/><path d="M278.3 193.9c-.1 0-1.2-.4-.3-1.1.6-.5 1.3-.9 1.9-1.3" class="Z"/><path d="M278.3 188.1s.9 3.4 0 5.3l12.6 7.4 12.5 7.2v-5.4" class="a"/><path d="M277.8 187.5c0 .2 0 .5.1.7l25.5 14.4v5.3L277.9 193v.6l26.5 15.3v-7.3l-26.6-14.1z" class="Z"/><path d="M278 187.6l26.3 15 36.9-21.6-25.7-14.8a2.44 2.44 0 0 0-2.6 0L278 187c-.2.1-.2.3-.1.5 0 .1.1.1.1.1z" class="d"/><path d="M304.4 209.1l36.8-21.8c-.1-.1 0-6.3 0-6.3l-36.9 21.6.1 6.5z" class="Z"/><path d="M278 187c-.2.2-.4.4-.4.7 0 .4.4.7.6.8" class="e"/><path d="M115.5 231.1c-.3 0-2.5-.9-.6-2.4 1.3-1 2.6-1.9 3.9-2.7" fill="#9a433a"/><path d="M115.5 219.2s1.9 7 0 10.8l25.8 15.1 25.5 14.7v-10.9" class="a"/><path d="M114.7 218.1c.1.5.1 1 .2 1.5l51.9 29.4v10.9L115 229.7v1.3l53.8 31.1v-14.8l-54.1-29.2z" fill="#9b280b"/><path d="M114.9 218.3l53.5 30.6 75.1-44.1-52.4-30c-1.6-.9-3.6-.9-5.2 0l-71 42.2c-.4.2-.5.7-.2 1.1.1.1.2.1.2.2z" fill="#f37759"/><path d="M168.7 262l74.8-44.4c-.2-.2 0-12.8 0-12.8l-75.1 44.1.3 13.1z" fill="#9b280b"/><path d="M114.9 217c-.4.3-.7.8-.8 1.4-.1.9.9 1.4 1.2 1.6" fill="#f26250"/><ellipse cx="176.9" cy="211.4" rx="24.6" ry="7.9" fill="#9a433a"/><path d="M221.9 103.6s5.1-4.9 8.9-4.8 10.6 1 11.2-1.3-6.4-5.7-9.1-6.6-11 4.1-11.6 3.2 5.1-5 5.1-5-3.8-1.5-3.9-1.3-6.7 7.7-7.9 11.2 7.3 4.6 7.3 4.6zm-49 73.7s-.2 7.1-3 9.8-8.4 6.8-7.1 8.8 8.7-.4 11.2-1.7 5-10.7 6.1-10.4-.1 7.2-.1 7.2 3.8-1.6 3.7-1.8-.6-10.2-2.2-13.6-8.6 1.7-8.6 1.7z" class="f"/><g fill="#fec33e"><path d="M258 39l-28.4-20.4c-2.8 1.4-4.9 4-5.7 7.1l28.4 20.4L258 39z"/><ellipse transform="matrix(.585 -.8114 .8114 .585 76.2002 193.2457)" cx="226.8" cy="22.2" rx="4.6" ry="2.5"/><ellipse transform="matrix(.585 -.8114 .8114 .585 71.4747 224.7993)" cx="255.2" cy="42.6" rx="4.6" ry="2.5"/></g><path d="M240.2 31.6c.5-1.8-1.8-2.3-3-2.3-2-.2-4 1-4.6 2.9-1.3 3.4-.7 6.9-2.7 10.2-.4.6.5 1.3.9.7.3-.6.6-1.1.9-1.7l-.6 2.1c0 .2 0 .3.1.5l-.2.6c-.1.3.1.6.4.7h.3l-.4.6c-.2.3-.1.6.1.8.3.2.6.1.8-.1l.1-.1c.2.3.7.5.9.1 1-1.8 2.2-3.6 3.4-5.2.9-.9 1.6-2.1 2-3.3.4-1.9-.5-3.8-2.1-4.8 1.5 0 3.3-.3 3.7-1.7z" class="g"/><g class="f"><path d="M158.1 52.9c-6.6 1.2-21.9 1.5-32.1 1.5-1.5 7.3-2.2 14.7-2.1 22.2 10.3 1.4 26.8 2.3 39.5-2.8l17-22.1c-7.4-.5-14.9-.1-22.3 1.2z"/><path d="M178.9 51.5c.1.4-25.4 61.1-26.1 104.4 0 0 22.4-21.2 34.6-31.3"/></g><g class="b"><path d="M172 89.5c.1-.9-.8-35.8 7.6-37.4s19.1 6 19.2 10.2-7.4 29.5-13.3 29.6-13.5-2.4-13.5-2.4z"/><path d="M172 77.7c-2.3 2.6-16.5 42.4-16.6 52.1s16.5 47.6 18.6 48.4 6.3-1.3 7.1-3.2-9.4-40.7-9.4-40.7 13.4-31.5 11.5-39.1S172 77.7 172 77.7z"/><path d="M179.6 89.3c-.2.8.7 35.6 4.3 40s12.3 5.7 16.8 1.7 23.2-27.5 20.9-29c-2.1-1.5-4.6-2-7.1-1.6-2.7.3-19.3 18.9-19.3 18.9s.4-36.2-3.1-40"/></g><g class="f"><path d="M188.7 53.3s-6.6 43.3.3 55.8c4.7 8.2 10.3 15.7 16.8 22.5 0 0 19.1-7.3 20.6-9.7s-21.8-23.2-23-29.6.9-28.3-2.4-31.4-12.3-7.6-12.3-7.6z"/><path d="M188.7 53.3s15.2 6.6 20.1 5.7 21.1-17.3 22.2-18.6c0 0 12.9 11.8 13.8 16.3 0 0-18.9 19.6-26.7 22.1s-21.7-.3-21.7-.3m-32.5 28.8c5.1-19 10.7-37.9 20-55.2-8.7-1.7-12 .4-12 .4-12.7 8.9-37.4 85-37.4 85 .3 7 14.3 16 17.6 18.1 3-16.4 7.5-32.4 11.8-48.3z"/></g><path d="M181.9 38.5s-2.8 11.3.8 13.8 11.1-2.7 12.4-7.9-9.5-11.9-13.2-5.9z" class="g"/><path d="M189.1 41.6s-.5 3.8.7 5.2-3.4 6 3.6 8.4 4.6-12.5 3.1-13.6" class="h"/><g class="f"><ellipse transform="matrix(.194 -.9809 .9809 .194 112.9755 217.9319)" cx="189.2" cy="40.2" rx="2.4" ry="7.6"/><path d="M181.7 38.7l1.6-6.9 14.6 2.4-1.4 7.4"/><path d="M174.8 29l15.3 10.9 17-7.7-15.9-11.3z"/></g><path d="M191.7 31.1l6.7 6-1.4 6.2s-1.2.7-1.6 3.5c1.1.5 2.3.6 3.4.3.3-1.4-.2-2.9-1.4-3.8l1.4-6.3-6.9-6.3c0 0-.3 0-.2.4z" fill="#fedb26"/><g class="d"><path d="M53.5 117.9s3.4 30.1 20.7 32.6 24.2-25.3 23.6-32.6"/><path d="M97.8 175.6s-3.4-30.2-20.7-32.6-24.1 25.4-23.5 32.6"/></g><ellipse cx="75.7" cy="175.6" rx="22.1" ry="6.2" class="e"/><ellipse cx="75.7" cy="119.9" rx="22.1" ry="6.2" fill="#00765a"/><path d="M53.5 119.9v-2l1.3.5zm44.3-2v2l-1 .8v-1.8" fill="#486b11"/><ellipse cx="75.7" cy="117.9" rx="22.1" ry="6.2" fill="#00a57f"/><path d="M58.5 131.4s5.3 12.4 10.7 14.3 12 2.1 17.1-2.8c3.2-3.2 5.6-7.2 6.9-11.5-3.6-2.1-8.1-1.7-11.2 1-5.5 4.6-6.4 5.7-10.4 3s-9.8-6.2-13.1-4zm-.6 42.7s10.5-19 17.7-17.9 17.5 18.7 17.5 18.7-17.4 6.9-35.2-.8z" fill="#c58a01"/><g class="h"><path d="M306.4 83.4s9.4 27.1 8.9 27.5-5.2-3.5-5.6-3.3l-3.1 4.3-8.7-26.7"/><path d="M291.5 80.9l-5.1 25.3 6-4.5c-.1.5.8 6 .8 6l7.3-25.7"/></g><ellipse transform="matrix(.994 -.1105 .1105 .994 -6.4307 33.5639)" cx="299.6" cy="74.8" rx="12.4" ry="15.9" fill="#eab41b"/><ellipse transform="matrix(.994 -.1109 .1109 .994 -6.4792 33.5109)" cx="298" cy="75" rx="12.4" ry="15.9" class="d"/></svg>