<?xml version="1.0" encoding="utf-8"?>
<!-- Generator: Adobe Illustrator 22.0.1, SVG Export Plug-In . SVG Version: 6.00 Build 0)  -->
<svg version="1.1" id="Layer_1" xmlns="http://www.w3.org/2000/svg" xmlns:xlink="http://www.w3.org/1999/xlink" x="0px" y="0px"
	 viewBox="0 0 400 300" style="enable-background:new 0 0 400 300;" xml:space="preserve">
<style type="text/css">
	.st0{fill:#E0EBFE;}
	.st1{fill:url(#SVGID_1_);}
	.st2{fill:#175ABC;}
	.st3{fill:url(#SVGID_2_);}
	.st4{fill:url(#SVGID_3_);}
	.st5{fill:#093F68;}
	.st6{fill:#649BFA;}
	.st7{fill:#FFE0DE;}
	.st8{fill:#FBB5AD;}
	.st9{fill:#F69982;}
	.st10{fill:#F37759;}
	.st11{fill:#D86212;}
	.st12{fill:#56403D;}
	.st13{opacity:0.43;enable-background:new    ;}
	.st14{fill:#00A57F;}
	.st15{fill:#FAA590;}
	.st16{fill:#007058;}
	.st17{fill:#16242D;}
	.st18{fill:#FEB917;}
	.st19{fill:#5E331F;}
	.st20{fill:#EDBAB9;}
	.st21{fill:#008074;}
	.st22{fill:#E8601C;}
	.st23{opacity:0.57;fill:url(#SVGID_4_);enable-background:new    ;}
</style>
<title>#41-50</title>
<ellipse class="st0" cx="200" cy="189.3" rx="147.4" ry="80.2"/>
<linearGradient id="SVGID_1_" gradientUnits="userSpaceOnUse" x1="108.6437" y1="68.4355" x2="168.0237" y2="117.0555" gradientTransform="matrix(1 0 0 -1 0 301)">
	<stop  offset="3.954259e-07" style="stop-color:#E0EBFE;stop-opacity:0"/>
	<stop  offset="1" style="stop-color:#4587F9"/>
</linearGradient>
<polyline class="st1" points="134.7,195.6 78.7,228.3 108.3,247.5 164.8,215.4 "/>
<ellipse class="st2" cx="152.1" cy="207.8" rx="22.6" ry="9.3"/>
<rect x="151" y="165.3" class="st2" width="3.9" height="45.7"/>
<linearGradient id="SVGID_2_" gradientUnits="userSpaceOnUse" x1="183.8203" y1="49.5596" x2="224.9903" y2="83.2596" gradientTransform="matrix(1 0 0 -1 0 301)">
	<stop  offset="0" style="stop-color:#E0EBFE;stop-opacity:0"/>
	<stop  offset="1" style="stop-color:#4587F9"/>
</linearGradient>
<polyline class="st3" points="195.6,231.1 164.7,250.5 176.9,264 221.1,237.5 "/>
<linearGradient id="SVGID_3_" gradientUnits="userSpaceOnUse" x1="81.3724" y1="100.1071" x2="124.6224" y2="135.5171" gradientTransform="matrix(1 0 0 -1 0 301)">
	<stop  offset="3.954259e-07" style="stop-color:#E0EBFE;stop-opacity:0"/>
	<stop  offset="1" style="stop-color:#4587F9"/>
</linearGradient>
<polyline class="st4" points="96.2,181.3 63.5,195.6 70.3,210.9 121.8,187.7 "/>
<path class="st5" d="M134.7,196c0.5,0.7-0.7,7.1,1.6,9.1s7.6,4.8,6.5,6.8s-19.3-5-19.3-5l1.7-12.6"/>
<path class="st5" d="M148.6,190.3c0.5,0.7-0.7,7.1,1.6,9.1s7.6,4.8,6.5,6.8s-19.3-5-19.3-5l1.7-12.6"/>
<ellipse class="st2" cx="108.4" cy="184.9" rx="15.2" ry="5.9"/>
<rect x="105.8" y="155.4" class="st2" width="5.2" height="27.8"/>
<path class="st6" d="M92.1,156.3c-0.5-1.1-0.9-2.3-1.2-3.4c-2.3-9-3.8-42.6,11.3-41.3c16.6,1.5,11,43.1,27.8,41.8s23.7,3.1,16.8,9.6
	C133.2,176.1,100.5,176.4,92.1,156.3z"/>
<path class="st7" d="M105.2,153.4c0,0-0.7,8,3,11.2s17.2,7.1,17.2,7.1s-4.6,22-3.7,24s10.6,3.1,15.7,0c0,0,7.5,1.9,12.5-2.6
	c0,0,9.6-27.2,6.6-36.1s-19.9-11.4-19.9-11.4L105.2,153.4z"/>
<path class="st8" d="M108,102.5c-1.1-1.9-4.6-4.5-6.6-2.3c-0.8,1-0.6,2.5,0.3,3.3c1,1,2.7,1.3,4,1.7c0.6,0.2,1.2-0.1,1.3-0.7
	c0-0.1,0-0.2,0-0.3c0.6-0.1,1.1-0.6,1-1.2C108.1,102.8,108.1,102.7,108,102.5z"/>
<path class="st9" d="M132.7,139.3l-29.6-7.3c0,0,0.9,12.9,2.1,21.4c5.3,2.4,11.8,2.3,17.4,1.5c4-0.5,7.9-1.6,11.5-3.3
	c1.2-0.6,2.3-1.3,3.4-2.1C137,146.4,133.1,142.4,132.7,139.3z"/>
<path class="st9" d="M134.9,143.1l-3.1-9.3c-2.8-8.4-7.2-19.8-15-24.4c-6.7-0.3-10.1,2.2-16.3,5.2c-0.8,0.9-1.6,1.8-2.3,2.8
	c-0.8,2.4-1.1,4.9-0.9,7.5c1.8,18.6,28.8,27.6,41.3,31c0.1-2.3,0.8-8,0.8-10.4L134.9,143.1z"/>
<path class="st10" d="M129.1,153.2c-9.9-3-18.9-8.6-26-16.2c-0.5-0.5-1.2,0.3-0.7,0.7c7.2,7.7,16.4,13.4,26.5,16.4
	c0.3,0,0.6-0.1,0.6-0.4C129.5,153.6,129.4,153.3,129.1,153.2z"/>
<path class="st10" d="M140.1,144.9c-6.9-2.8-13.4-6.4-19.4-10.9c-0.5-0.4-1.1,0.5-0.5,0.9c6.1,4.5,12.7,8.2,19.7,11
	C140.4,146.1,140.7,145.1,140.1,144.9z"/>
<path class="st9" d="M116.4,109.3c0,0,9.1,1,13.8,9.3s16.5,17.4,17,17.5s5.7,2.9,5.7,2.9s0.8,8.3-2,9.8s-19.9-8.5-19.9-8.5"/>
<path class="st8" d="M118.8,96c0,0,3.3,15.2-1.7,17.1s-10.1-1.6-11-4.4s-0.3-7.3-0.3-7.3S109.4,96.1,118.8,96z"/>
<path class="st11" d="M119.3,93.3c0.2-3.7-5-6-7.4-2.9c-1.2-1-2.8-1.5-4.4-1.2c-2.2,0.4-2.9,1.9-2.8,4c-1.3,0-2.5,0.6-3.3,1.6
	c-0.9,1.2-0.9,2.9,0,4.1c-1.6,0.6-2.5,2.3-2.3,4c0.1,0.7,0.3,1.5,0.7,2.1c-0.1,0.2-0.2,0.5-0.2,0.7c-0.2,1.4,0.4,2.8,1.6,3.6
	c0.7,0.5,1.5,0.7,2.3,0.7c0.6,1.1,1.7,1.7,2.9,1.7c1.5-0.1,2.8-1.3,2.9-2.8c0-0.4,0-0.8-0.2-1.2c0.7-1.5,0.8-3.3,0.4-4.9
	c0.2-0.1,0.4-0.2,0.6-0.3c0.6-0.4,1-1,1.2-1.8c0.7,0.2,1.4,0.3,2.2,0.2c0.7-0.1,1.3-0.7,1.5-1.3c1.8,0.5,4.3-0.2,5.2-1.8
	C121.2,96.2,120.8,94.3,119.3,93.3z"/>
<path class="st8" d="M110.8,106.5c-0.2-1-0.7-1.9-1.6-2.4c-0.8-0.7-2-0.6-2.7,0.2c0,0,0,0,0,0c-0.5,0.8-0.5,1.8,0.1,2.5
	c0.7,0.9,1.8,0.9,2.7,1.3c0.6,0.2,0.9-0.3,0.8-0.8C110.5,107.3,110.8,106.9,110.8,106.5C110.8,106.5,110.8,106.5,110.8,106.5z"/>
<path class="st12" d="M119.1,102c-0.2,0-0.3,0.1-0.3,0.3c0,0.2,0.1,0.3,0.3,0.3c0.2,0,0.3-0.1,0.3-0.3
	C119.4,102.1,119.2,102,119.1,102z"/>
<path class="st12" d="M113.7,103.8c-0.2,0-0.3,0.1-0.3,0.3c0,0.2,0.1,0.3,0.3,0.3c0.2,0,0.3-0.1,0.3-0.3
	C113.9,104,113.8,103.8,113.7,103.8z"/>
<path class="st12" d="M116.5,108.9c-0.9,0.4-1.9,0-2.4-0.8c-0.1-0.1-0.3-0.1-0.4-0.1c-0.1,0.1-0.1,0.2-0.1,0.3c0.7,1.1,2,1.5,3.2,1
	C117.1,109.3,116.9,108.8,116.5,108.9z"/>
<path class="st2" d="M264.8,106.4l7,67.3c1.3,0.9,3,1,4.3,0.2l-7.4-67.8L264.8,106.4z"/>
<polygon class="st2" points="307.9,55.1 318.8,155.9 281.3,136.5 "/>
<path class="st6" d="M286,208.7l22-152.4l-3.4-1.3l-22.8,152.4C282.8,208.7,284.5,209.2,286,208.7z"/>
<path class="st6" d="M231.5,183.6l21.9-152.4l-3.4-1.3l-22.8,152.4C228.3,183.5,230,184,231.5,183.6z"/>
<path class="st2" d="M309.3,69.1h-3.7l13.4,128.5c1.3,0.9,3,1,4.3,0.2L309.3,69.1z"/>
<path class="st6" d="M307.9,55.1c-27.3-16.1-53.1-31.2-57.6-33.5L235.7,126l57.4,33.9L307.9,55.1z"/>
<path class="st6" d="M154.4,143.6c-18.5,0-34,5.8-37.8,13.6l-0.9-0.9v4.7c0,9.6,17.3,17.3,38.8,17.3s38.8-7.8,38.8-17.3
	S175.8,143.6,154.4,143.6z"/>
<path class="st13" d="M154.4,143.6c-18.5,0-34,5.8-37.8,13.6l-0.9-0.9v4.7c0,9.6,17.3,17.3,38.8,17.3s38.8-7.8,38.8-17.3
	S175.8,143.6,154.4,143.6z"/>
<ellipse class="st6" cx="154.4" cy="156.3" rx="38.8" ry="17.3"/>
<polygon class="st14" points="177.9,80.7 185,67.9 189,61.4 173.4,53.8 163.3,74.4 "/>
<path class="st15" d="M194.3,78.3l-4.5-4.9c-0.4-0.3-0.7-0.7-1-1.1c-0.3-0.7-0.4-1.4-0.3-2.1c-0.1-1-0.3-2-0.6-3
	c-0.2-0.6-0.9-1-1.5-0.8c-0.5,0.2-0.9,0.6-0.9,1.1c0,0.6,0,1.3,0.1,1.9c-0.4-0.3-0.7-0.7-1.1-1c-1.5,2.7-3,5.3-4.6,7.9
	c0.9,0.1,1.8,0.1,2.6,0c3.2,1.9,6.1,4.4,8.4,7.3c0.4,0.5,1.1,0.5,1.6,0.1c0.1-0.1,0.3-0.3,0.3-0.5c0.1,0,0.3-0.1,0.4-0.1h0.1
	c0.6-0.3,0.8-1.1,0.4-1.7v-0.1c-0.1-0.3-0.3-0.5-0.6-0.6c-0.3-0.3-0.5-0.6-0.7-0.9l0.1,0.2C193.6,81.2,195.3,79.5,194.3,78.3z"/>
<path class="st16" d="M185.2,74.5c-0.5-0.7-0.8-1.5-0.9-2.3c0-0.8,0.4-1.6,0.9-2.3c0.2-0.3-0.3-0.6-0.5-0.3c-0.6,0.7-1,1.6-1,2.5
	c0.1,0.9,0.5,1.8,1,2.6c0.1,0.1,0.3,0.2,0.4,0.1S185.3,74.6,185.2,74.5z"/>
<path class="st15" d="M264,71.6c-0.7,0.2-1.4,0.3-2.1,0.5c0.5-0.4,0.8-0.9,0.9-1.4c0.2-0.5-0.1-1.1-0.6-1.3
	c-0.3-0.1-0.7-0.1-0.9,0.1c-1.8,0.9-3.7,1.8-5.6,2.8c0-0.1,0.1-0.3,0.1-0.4c0.3-0.9,0.4-1.8,0.3-2.7c-0.4-1.6-1.8-0.7-2.4,0.5
	c-0.8,1.7-1,3.4-2.4,4.7c-0.9,0.6-1.8,1-2.9,1.2c-1,0.3-2.1,0.6-3.1,0.8c-0.6,0-1,0.4-1,1s0.4,1,1,1c-0.5,0.3-0.6,0.9-0.3,1.4
	c0.1,0.2,0.2,0.3,0.4,0.4c-0.5,0.8,0.1,2,1.1,1.6c2.4-1,5-1.7,7.6-2.2c2.5-0.1,5.1-0.4,7.6-0.6c1.3-0.2,1.3-2.2,0-2.1h-0.2l2.3-0.4
	c1.1-0.2,0.9-2.2-0.3-2h-0.3l0,0l-0.8,0.1l1.1-0.4c0.7-0.2,1.3-0.4,1.6-1.1c0.3-0.5,0.2-1.1-0.2-1.4C264.7,71.5,264.3,71.4,264,71.6
	z"/>
<path class="st16" d="M255.8,73.3c0-0.1-0.2-0.2-0.3-0.1c-0.1,0-0.2,0.1-0.1,0.2c0.4,1.3-0.1,2.8-1.1,3.7c-0.2,0.2,0.1,0.5,0.3,0.3
	C255.7,76.4,256.2,74.8,255.8,73.3z"/>
<path class="st16" d="M262.1,71.8c-1.7,0.4-3.3,0.9-5,1.5c-0.3,0.1-0.2,0.5,0.1,0.4c1.6-0.6,3.3-1.1,5-1.5c0.1,0,0.2-0.2,0.1-0.3
	C262.3,71.8,262.2,71.7,262.1,71.8z"/>
<path class="st16" d="M263.2,74.1l-5.3,0.8c-0.3,0-0.2,0.5,0.1,0.4l5.3-0.8C263.6,74.5,263.5,74.1,263.2,74.1z"/>
<path class="st16" d="M262.3,76.4c-1.4,0.1-2.8,0.2-4.3,0.2c-0.3,0-0.3,0.5,0,0.5c1.4,0,2.8-0.1,4.3-0.2
	C262.6,76.9,262.6,76.4,262.3,76.4z"/>
<path class="st16" d="M197.3,160c0,0-0.1,6.7-0.9,7.8s-7.9,4.8-8.3,6.5s0.9,4.2,4.2,3.3s11.5-6.2,11.5-6.2v-14.6"/>
<path class="st17" d="M224.3,167.6l0.9,7.3c0,0-3.1,11.3-1.9,12.6s5.7,2.9,7.4,0s-0.8-13.4-0.8-13.4l-0.1-7.9"/>
<path class="st2" d="M208.1,90.3c0,0-8.8,35.5-9.1,41s-3,32-3,32s8.3,3.7,13.9,1.8l4.4-33.4l4.9-35
	C219.2,96.7,210.2,87.8,208.1,90.3z"/>
<path class="st2" d="M224.9,98.7c6.2,26.2,6.9,46,10.1,69c0,0-13.4,4.9-16.4,0.1c-2-23.4-3.6-46.8-4.4-70.2L224.9,98.7z"/>
<path class="st18" d="M249.4,70.9c-5.6,2.1-12.3,4.1-16.9,3.5c-5.8-0.8-11.4-2.2-16.9-4.2c-0.7-0.3-8.8-3.3-11.7-0.7
	s-2.2,11.2-2.2,11.2L191,71.4c-4,1.4-5.6,5.6-6,9.7c0.2,0.2,0.3,0.3,0.4,0.4c0.8,0.9,1.6,1.8,2.4,2.7c3.6,4,7.6,8.6,12.8,10.3
	c2.1,0.6,4.3,0.5,6.2-0.4c1.6-0.6,3.8-2.5,5.5-1.8c0.4,0.2,0.9,0.5,1.3,0.4c1.2-0.2,2.9-2.1,4.1-2.8c3.2-1.7,7-1.9,10.6-2.1
	c3.9-0.1,7.8-0.6,11.6-1.3c1.1-0.2,13.1-3.3,13.4-2.8C251,79,250.4,76.2,249.4,70.9z"/>
<path class="st15" d="M207.3,62.9c-0.8,3.8-0.1,8.9,3.9,9.5c5.2,0.8,6.4-2.8,6.2-7.1c-0.2-3.4-2-8.8-6.6-7.3
	c-1.1,0.4-2.1,1.3-2.6,2.4C207.8,61.2,207.5,62,207.3,62.9z"/>
<path class="st19" d="M207,63.7c-2.1-1.1-3.3-3.3-3.2-5.7c0.2-2.3,2.4-5.2,5-4.1c1.8,0.8,1.3,0.8,1.3,0.8c0.8-1,2.1-1.5,3.4-1.2
	c2.4,0.2,2.9,1.7,2.9,1.7s2.8,0.9,3.5,2.7c0.8,2-1.1,8.1-2,9.8s-1.4-1.8-1.8-3.1c-0.2-1.1-1-2.1-2.1-2.5c-1.5-0.4-2.3,0.9-3.4,1.5
	C209.5,64.1,208.2,64.2,207,63.7z"/>
<path class="st18" d="M216.8,100.2c3.3-0.2,5.1-0.3,8.1-1.5l0.5-17.2l-20.7,9.7c0,0,0.8,4.2,1.7,8
	C209.8,100.1,213.3,100.5,216.8,100.2z"/>
<path class="st5" d="M182.5,215.7l1.6,7.4c0,0-4.8-0.9-6.5-0.7s-3.8,3.2-1.7,5.2s5.6,1.8,9.2,2.6s4.1,1,6.4,0.4s2.6-3.7,2.6-3.7
	l-1.8-13"/>
<path class="st20" d="M194.3,208.5l2,11.1c0,0-3.2,3.3-14,2.9s0-19.7,0-19.7"/>
<ellipse class="st2" cx="208.3" cy="234.4" rx="15.4" ry="5.7"/>
<polyline class="st2" points="210.9,208.9 210.3,231.9 205.7,231.9 205.7,208.9 "/>
<path class="st5" d="M170,221.8l1.6,7.4c0,0-4.8-0.9-6.5-0.7s-3.8,3.2-1.7,5.2s5.6,1.8,9.2,2.6s4.1,1,6.4,0.4s2.6-3.7,2.6-3.7
	l-1.8-13"/>
<path class="st21" d="M178.7,175.8c4.6,1,9.2,1.8,13.9,2.3c0.2,0,0.4,0.1,0.5,0.3c0.5-1.6,1-3.3,1.4-4.9c0.2-0.9,1.7-0.6,1.5,0.4
	c-0.9,3.8-2.1,7.5-3.8,11c-0.4,0.9-1.7,0.1-1.3-0.8c0.7-1.5,1.3-3,1.9-4.5h-0.1c-4.8-0.6-9.6-1.4-14.3-2.4
	C177.4,177,177.8,175.6,178.7,175.8z"/>
<path class="st21" d="M191.2,186.4c1.2,2,2.8,3.9,4.7,5.4c0.8,0.6-0.3,1.7-1.1,1.1c-1.9-1.6-3.6-3.5-4.9-5.6c-0.2-0.4,0-0.8,0.4-1
	C190.6,186,190.9,186.1,191.2,186.4z"/>
<path class="st20" d="M200.6,181.5c0,0-12-9.7-20-10.8s-12.2,7.5-11.6,13.3s19.7,9,19.7,9"/>
<path class="st7" d="M194.2,184.7c-1.6-1.4-22-11-29.2-6.6s-6.7,7.6-5.8,12.9s7.9,33.9,7.9,33.9c5.2,2,11,2.3,16.3,0.8l-2-21.2
	l27.2-14.9"/>
<path class="st14" d="M209.1,150.6c-1.1,0.8-10.4,1.9-12.4,6.2s-4.9,26.5-4.9,26.5s5.6,8.3,15.3,5.4c2.9-0.9,17.8-28.1,18.2-31
	C226.3,150.3,209.1,150.6,209.1,150.6z"/>
<path class="st6" d="M227.4,198.5c0.5-1.1,0.9-2.3,1.2-3.4c2.3-9,3.8-42.6-11.3-41.3c-16.6,1.5-11,43.1-27.8,41.8
	s-23.7,3.1-16.8,9.6C186.4,218.2,219,218.5,227.4,198.5z"/>
<path class="st15" d="M205.5,136.2c-0.1,0.8-1.6,12.1,1.8,14.7s10.9-3.5,11.1-6.5s2.7-9.2-0.5-10.8S206.4,130.6,205.5,136.2z"/>
<path class="st22" d="M205.5,136.2c0,0-2.8-2.2-3.3-4.1s1.9-3.4,4.3-3.4s4.4,0.6,6.4-0.6c2.2-1.3,5-1.3,7.2,0
	c1.9,1.3,2.3,4.5,3.5,6.1s3.8,1.8,3.7,4.8s-4.5,3.3-4.8,5.4s-1.4,5-4.1,5.5s-6.5,0.6-6.8,0.2s1.7-7.2-0.2-7.6S205.4,141,205.5,136.2
	z"/>
<path class="st15" d="M173.2,172.9l-7.5-3.1c0,0-2.3-1.1-2.7-0.6s-5.3-1.1-6.7,0s1.7,6.1,4.6,7s12.3,2.8,12.3,2.8"/>
<path class="st14" d="M196.7,156.8c0,0-5,16.2-8.6,17.5c-2.2,0.8-9-1.3-13.9-3c-3.2,2-5.4,5.4-6.1,9.1c7.5,4.2,20.4,8.8,25.4,9.1
	c7.1,0.6,10.3-20.2,10.3-20.2L196.7,156.8z"/>
<linearGradient id="SVGID_4_" gradientUnits="userSpaceOnUse" x1="253.921" y1="88.9188" x2="322.551" y2="145.1088" gradientTransform="matrix(1 0 0 -1 0 301)">
	<stop  offset="0" style="stop-color:#E0EBFE;stop-opacity:0"/>
	<stop  offset="1" style="stop-color:#4587F9"/>
</linearGradient>
<polyline class="st23" points="273.9,171 214.7,201.5 265.2,232 323.4,197.8 "/>
</svg>
