<svg xmlns="http://www.w3.org/2000/svg" viewBox="0 0 400 300" xmlns:v="https://vecta.io/nano"><path d="M196.2 288.6l-172.5-102c-5.5-3.1-10.2-8.1-4.9-11.5L192 75.4c2.6-1.6 6.5-2.7 9.2-1.1l181.1 105.1c5.5 3.2 6.5 12.1 1 15.3L219 288.4c-7 4.1-15.7 4.2-22.8.2z" fill="#e0ebfe"/><linearGradient id="A" gradientUnits="userSpaceOnUse" x1="247.65" y1="237.747" x2="203.01" y2="274.097"><stop offset="0" stop-color="#4587f9"/><stop offset="1" stop-color="#e0ebfe"/></linearGradient><path d="M224 248.9l-36.9 19.7s16.4 9.1 24.1 12.4l33.9-22.6" fill="url(#A)"/><path d="M307.8 92.7l-137.9-78v87.9c0 2.4 1.3 4.6 3.3 5.7L298 178.9c3.2 1.8 7.2.7 9-2.5.6-1 .9-2.1.9-3.2l-.1-80.5z" fill="#649bfa"/><path d="M300.2 178.9l-87.7-49.6c-12.6-7.1-26-13.5-38.1-21.5-4-2.7-3.4-6.2-3.4-10.4V14.6l-1.7 1L258 65.8l44.8 25.3c1.3.7 2.6 1.6 4 2.2.9.4.1.3-.1-.7.1.6.1 1.2 0 1.8-.7 7.8 0 16 0 23.8v52.1c0 3.7.6 11.6-6.5 8.6-1.3-.6-2.5 1.4-1.1 1.9 5.7 2.5 9.7-1.5 9.8-7.1s0-11.1 0-16.7V92.7a1.1 1.1 0 0 0-.6-1l-121-68.5-16.9-9.6c-.6-.3-1.2-.1-1.5.4-.1.2-.1.4-.1.6v78.8c0 4.7-1.4 11.8 2.8 15.1 2.6 2.1 6.1 3.6 9 5.2l22.2 12.5 58.7 33.2 37.6 21.3c.5.3 1.2.1 1.6-.4a1.08 1.08 0 0 0-.5-1.4h0z" fill="#4f3700"/><path d="M167.9 98.4c-1.6-.1-7.9 2.8-7.9 2.8v7.4l142.7 80.2s6.5-3.4 6.5-4.5-1-8.2-1-8.2L167.9 98.4z" fill="#eca601"/><linearGradient id="B" gradientUnits="userSpaceOnUse" x1="123.778" y1="139.618" x2="82.818" y2="172.958"><stop offset="0" stop-color="#4587f9"/><stop offset="1" stop-color="#e0ebfe"/></linearGradient><path d="M103.4,154.1l-33.3,16.2c4.9,3.3,10.1,6.2,15.5,8.6l33.9-22.6" fill="url(#B)"/><path d="M124.2 97.7c-.5-.1-1 0-1.5.1l-3.8 6.9-2.3 5.6-1.7 4.2c-.9 3.3-1.6 6.7-2.3 10 .4.5 1 .8 1.6 1 1.3-1.7 3.2-2.6 5-3.9 2.5-2 4.5-4.5 5.8-7.4.5-1.1 1-2.2 1.4-3.4.2-1.2.4-2.4.5-3.7-1.1-3.1-2-6.2-2.7-9.4zm-24 25.6c-.1-.1-.2-.2-.2-.3l-4.3-2-1.4-1c-.2.2-.4.3-.6.3-2.1-.1-4.3-.3-6.3-.7-.1.2-.2.4-.2.6 1.9 2.2 3.2 4.9 3.7 7.7.4.5.8 1 1.3 1.4 2.1.8 5 .6 7.4 1 .1-.2.2-.5.3-.8h.1c.8.3 1.6.6 2.3 1.1 1.6.2 3.1.8 4.3 1.8.4-.1.7-.3.9-.6-2.5-2.8-4.6-5.9-7.3-8.5z" fill="#008e6d"/><path d="M99.9 141.9l3 14.1c.2.9.8 1.8 1.7 2.2 1.8.9 5.4 1.8 12.3.5 1.3-.2 2.3-1.2 2.6-2.5l3.1-14.3" fill="#649bfa"/><ellipse cx="111.2" cy="141.9" rx="11.3" ry="4.6" fill="#5e331f"/><path d="M126.8 106.9c-.3-3.4-2.5-6.5-2.2-9.9.1-.6-.8-.7-1.1-.3-5.9 8.6-9.7 18.5-11.1 28.8-.1.1-.1.3-.1.4-.6 4.6-.8 9.3-.4 13.9.4 0 .8-.1 1.2-.2-.3-4.6-.2-9.1.4-13.7 2-2.4 4.9-3.5 7.3-5.4 2-1.6 3.7-3.7 4.7-6.1 1.1-2.2 1.5-4.8 1.3-7.5zm-2.4 7.2c-1.3 2.9-3.4 5.3-6.1 6.8L115 123c2.2-4.2 4-8.6 5.6-13.1.3-.7-.9-1-1.2-.3-1.5 4.2-3.2 8.3-5.2 12.3 1.6-8.2 4.8-16 9.3-23 .3 1.9 1.2 3.7 1.7 5.7.8 3.2.5 6.5-.8 9.5zM111.3 140l-3-7.3c0-.2-.1-.4-.3-.6h0c-1.4-2.9-3.3-5.5-5.6-7.8-4.5-4.4-10.4-5.4-16.4-6.1-.6-.1-.7.7-.4 1 0 .1.1.3.3.3 3.6 2.2 2.5 7.8 6.3 9.9 1.8 1 3.9.7 5.8.8 2.6 0 5.1.6 7.4 1.7 2 2.2 3.4 4.9 4.1 7.9.7.2 1.3.2 1.8.2zM95 123.7c-.7-.3-1 .9-.3 1.2 3.2 1.1 6.1 2.8 8.7 5-.6-.2-1.3-.3-1.9-.4-2.5-.4-6.3.4-8.6-.9-3.1-1.8-2.8-6.2-5-8.8 5.4.7 10.5 2 14.4 6.1 1.4 1.5 2.7 3.2 3.7 5-3-3.3-6.8-5.7-11-7.2z" fill="#00bf94"/><g fill="#16242d"><path d="M224.1 245.4a5.63 5.63 0 0 0-1.7 2.6c-.3 1.3-3.1 8.3-1.6 8.3s8.9-2.8 9.1-4 2.5-9.3 2.5-9.3 0 4.1.5 4 0-10.8 0-10.8m10.3 8.1c0 1.7.8 13.4 0 13.9s-1.9-5.7-1.9-5.7"/><path d="M238 246.6s-4.5 8.7-5.1 11.9c-.8 3.7-1.9 9.1 0 8s7.2-4.9 8.2-6.7c2.1-3.5 2.1-13.8 2.1-13.8"/></g><g fill="#f4b389"><path d="M232.9 200.4c.2.8 1.9 7.6 2.5 12.5s3.3 30.4 2.7 33.7-4.5 9.2-3.9 10.9a3.85 3.85 0 0 0 2.3 2.2s3.3.7 4.7-2 2.1-10.7 2.1-11.7 4.5-22.4 3.3-27.9-1.9-21.6-1.9-21.6l-11.8 3.9z"/><path d="M236.6 207.2c-1.2-5.5-1.9-21.6-1.9-21.6l-4.9 1.7v.1c1.4.5 2.1 2 1.6 3.4v.1c-1.3 3.6-3.7 6.3-5.5 9.6a3.04 3.04 0 0 1-.5.7c0 .3.1.6.1.8.6 4.9 3.3 30.4 2.7 33.7s-4.5 9.2-3.9 10.9a3.85 3.85 0 0 0 2.3 2.2s3.3.7 4.7-2 2.1-10.7 2.1-11.7 4.4-22.4 3.2-27.9z"/></g><path d="M224 147.7l1.2 54.3s2.7 9.6 20.5 5.6c.8-6.3 1.2-12.6 1.3-19 0-8.4 7.6-18.7-.7-32.9-8.9-15-22.3-8-22.3-8z" fill="#5e331f"/><path d="M194.4 109.8c-1.4.1-.9 1.5-.9 1.5s-2.8-2.1-4.9-1.4c-1.1 1.6-.9 5.7.4 8 3.7 2 7.9 3.2 12.1 3.3l.5-4c.1-.1-5.8-7.4-7.2-7.4z" fill="#f4b389"/><path d="M193.5 111.3s.9 6.6-.7 7.1l-1.1.7s1.6.7 2-.1 1.8-5-.2-7.7z" fill="#42210b"/><g fill="#f69982"><path d="M233.7 158.9c4.7 1.3 10 2.4 14.4-.4 7.3-33.8 1.9-44.3-10.6-48.3-5-1.6-10.1 1.3-12.6 5.8-1.4 13-.6 26.4-.7 39.5 0 .7 2.3 1 2.8 1.2 1.7.7 3.4 1.3 5.2 1.8l1.5.4z"/><path d="M226.2 114.4s-8 11.3-24.3.2c0 0-5.6 6.8-4.7 7.8s18.4 14.4 26.7 7.2"/></g><path d="M223.2 121.8c-.5-.2.8 25.9.8 25.9l14.7 5.9-.6-16.3-.9-9.7c-.1-.1-13.5-5.5-14-5.8z" fill="#649bfa"/><path d="M238.5 140.9c-.1-.1-.1-.7-.1-1.6-1.2-.6-2.4-1.1-3.7-1.4-2.2-.2-5.6-.4-6.6 0-1.4.6-.8 2.5-.8 2.5s-2.1.1-1.8 1.5a2.17 2.17 0 0 0 1.6 1.6s-1.6 1.2-.7 2.2l.9 1c.1.8.4 1.5.8 2.1.8.8 9.3-1 9.3-1l3.6 2.8.4-7.5c.2 0-2.5-1.9-2.9-2.2z" fill="#f4b389"/><path d="M234.5 140.3c-2.4.1-4.8.1-7.2-.1a.2.2 0 0 0 0 .4c2.4.2 4.8.3 7.2.1.2 0 .2-.4 0-.4zm.3 2.6c-2.6.6-5.3.9-7.9.8-.1 0-.2.1-.2.2s.1.2.2.2c2.7 0 5.4-.2 8-.8.2-.1.2-.5-.1-.4zm-.4 2.7c-2.3.6-4.6 1-7 1.1-.1 0-.2.1-.2.2s.1.2.2.2c2.4-.2 4.8-.6 7.1-1.2.3 0 .2-.4-.1-.3z" fill="#42210b"/><path d="M230.1 110.8s-3.4 4.2-1.1 6.9 5.1 0 5.1 0-.1 2.4 2.9 2.3 6.1-5.2 6.1-5.2" fill="#fff"/><path d="M231.9 110.8h0s-.7 6.6 4.3 4.6c2.1-.8 4.2-1.8 6.1-3v-4" fill="#f37759"/><path d="M248.6 115.7c.6.6 14.3 17 15.9 23.9s-10.4 12.8-23.3 11l.4-7.5 7.5-3.5-3.4-4" fill="#f69982"/><path d="M228.8 96.9s-2.4 13.1 3.1 15.2 10.6-7.8 10.6-10.8c-.1-6.4-6.4-5.8-13.7-4.4z" fill="#f4b389"/><path d="M260.2 130.3c-.1-.8-.4-1.6-1-2.3-1.1-1.3-2.9-1.9-3.9-3.3-1.6-2.4 1-4.5 1.2-6.8.4-4.3-5.2-4.8-7.6-7-1.2-1.2-1.9-2.7-2.2-4.3-1.4-5-1.7-11.1-6.6-14.2-1.5-.9-3.3-1.3-5-1.3-2.1-.2-4.2.2-6.1 1.3-1.6 1.1-2.6 2.8-2.7 4.8-.1 1.4.3 3.5 2 3.7 1.1.1 1.6-.7 2.3-1.4s1.2-1.7 2-2.4c.5-.5 1.1-.9 1.8-1 2.8-.4.3 4.5.2 5.6 0 .6.1 1.1.5 1.6s1 .8 1.7.9c1.3.4 3.6 1 2.8 2.9-.4 1-1.5 1.9-2.1 2.9a5.89 5.89 0 0 0 .2 6.6c.8.9 1.6 1.7 2.6 2.4 1.1.7 1.8 1.8 2 3.1v.2c-.3 2-1.1 4.6-1 6.8 0 .8.2 1.6.6 2.3.4.8 1 1.5 1.7 2.1 3 2.5 7 3.4 10.7 2.2 1.8-.5 3.9-1.2 5.2-2.8.6-.6.8-1.6.7-2.6zm-4.4-12.3v-.8c0-.2-.1-.4-.1-.6.1.4.2.9.1 1.4z" fill="#5e331f"/><path d="M253.6 138.8c-3.7 2-7.8 3.2-12 3.5a.65.65 0 0 0-.6.6l.1 7.2c0 .3.2.6.6.6l-.5-.1 6.9 3.2.7-2.9c-2.3 0-4.7 0-7-.3.3 0 .6-.2.6-.5v-.1l-.1-6.6c4.2-.4 8.3-1.6 12-3.6.7-.3 0-1.4-.7-1z" fill="#f37759"/><path d="M192.3 110.7l-7.2-42c-.1-.3-.4-.6-.7-.5s-.6.4-.5.7h0l7.1 41.2c.5.1.9.3 1.3.6zm8-51.7l3.8 14.3-1.6-.8-1.1-4.5-4.2-2.1-1.3 3.3-1.6-.8 4.3-10.4 1.7 1zm-2.9 5.9l3.6 1.8-1.1-4.1c-.3-.9-.4-1.8-.6-2.6h0l-.6 1.9-1.3 3m13.5 5.2c1.4 1 2.3 2.6 2.4 4.3.1.8-.3 1.6-1.1 2s-2.2.1-4.1-.9l-2.4-1.3.3-12.2c1 .3 1.9.7 2.8 1.1 1.3.6 2.4 1.4 3.2 2.5.6.8 1 1.7 1 2.7.1.9-.6 1.7-1.6 1.7-.1.1-.3 0-.5.1h0zm-2.3 4.3c1.6.8 3 .9 3.1-.9s-1.3-3.1-3-3.9l-1.3-.6-.1 4.7 1.3.7m-1.1-10.6l-.1 4 1.4.7c1.6.8 2.6.4 2.6-.8 0-1.4-1-2.5-2.6-3.3-.3-.2-.8-.4-1.3-.6m13.5 5.3c1 .5 2 1.1 2.8 1.9l-.4 1.1c-.7-.7-1.5-1.3-2.4-1.7-2.8-1.4-4.6-.4-4.7 2.8-.1 3.1 1.7 5.9 4.4 7.2.8.4 1.6.7 2.5.7l.3 1.4c-1.1-.1-2.2-.4-3.1-1a10.07 10.07 0 0 1-5.7-9.1c.1-3.8 2.6-5.2 6.3-3.3z" fill="#fff"/></svg>