<svg xmlns="http://www.w3.org/2000/svg" viewBox="0 0 64 64" fill="#fff" xmlns:v="https://vecta.io/nano"><path d="M34.83 32.41a1 1 0 0 0-1.42 0 2 2 0 0 1-2.82 0 1.004 1.004 0 0 0-1.42 1.42c2.69 2.69 7.15.08 5.66-1.42zM25 23v1a1 1 0 0 0 2 0v-1a1 1 0 0 0-2 0zm14 1v-1a1 1 0 0 0-2 0v1a1 1 0 0 0 2 0zm10 18.85V42a1 1 0 0 0-1-1H37v-2a13 13 0 0 0 7.83-10c5.3 0 5.55-7.42.6-8 .71-3.88.57-6.58.57-19h2v17a1 1 0 0 0 2 0V2h3a1 1 0 0 0 0-2H11a1 1 0 0 0 0 2h7c0 9.83-.16 9.36.41 9.79-.73 2.71-.33 6.58.16 9.25-5 .54-4.7 8 .6 8A12.94 12.94 0 0 0 27 39v2H16a1 1 0 0 0-1 1v.85c-6.49 5.59-6.63 11.68-8 20A1 1 0 0 0 7.84 64c3.06.53-.24-11 7.52-18.74a15.06 15.06 0 0 0 12.18 11.53 5 5 0 1 0 8.92 0 15 15 0 0 0 12.18-11.54c5 5 5.06 10.06 6.37 17.91a1.013 1.013 0 0 0 2-.32c-1.42-8.35-1.55-14.4-8.01-19.99zM31 54.11L24.71 43h2.91a6.64 6.64 0 0 0 8.76 0h2.91L33 54.11a5 5 0 0 0-2 0zM20.35 19.64c-.34-2.32-.61-5.39.09-7.64l23.56.1a52.23 52.23 0 0 1-.16 5.9 14.34 14.34 0 0 0-3.13-4.74 1 1 0 0 0-1.26-.12C35.86 15.55 33.39 15 23 15c-.94 0-.94.66-2.65 4.64zM47 25a2 2 0 0 1-2 2 30.9 30.9 0 0 1 0-4 2 2 0 0 1 2 2zM44 2v8H20V2zM17 25a2 2 0 0 1 2-2c0 .15 0-.28 0 4a2 2 0 0 1-2-2zm4 2v-3.8l2.66-6.2c9.74 0 12.32.49 16.17-1.72 2.42 2.75 2.75 5.28 3.17 7.8V27a11 11 0 0 1-22 0zm14 12.65v1.91a4.66 4.66 0 0 1-6 0c0-2.17-.05-1.93.13-1.89a13.07 13.07 0 0 0 5.87-.02zM17 43h5.37l6.67 12A13 13 0 0 1 17 43zm15 19c-3.93 0-4-6 0-6s3.93 6 0 6zm11.2-10.81a12.87 12.87 0 0 1-8.32 3.74L41.59 43H47a13.12 13.12 0 0 1-3.8 8.19z"/></svg>