<svg id="Layer_1" data-name="Layer 1" xmlns="http://www.w3.org/2000/svg" viewBox="0 0 406 306"><defs><style>.cls-1{fill:#fff;}.cls-2{fill:#093f68;}.cls-3{fill:#ffc9b0;}.cls-4{fill:#e28362;}.cls-5{fill:#649bfa;}</style></defs><title>Artboard 1@1x</title><g id="_11_handshake_outline" data-name=" 11 handshake outline"><path class="cls-1" d="M297.86,153a94.86,94.86,0,0,1-189.72,0v0a94.86,94.86,0,1,1,189.72,0Z"/><path class="cls-2" d="M203,248.88a95.78,95.78,0,0,1-95.88-95.68V153A95.88,95.88,0,0,1,298.88,153V153A95.88,95.88,0,0,1,203,248.88Zm0-189.73a93.87,93.87,0,1,0,93.85,93.91V153A93.81,93.81,0,0,0,203,59.15Z"/><path class="cls-3" d="M145.14,124.71l21.7,3s23.67-7.24,26.17-7.24,13.09,12.81,13.09,12.81,47.05,36.48,48.72,39.53,0,12.95-10.86,11c0,0,0,7.65-4.46,8.76a16.42,16.42,0,0,1-8.12,0s-.26,5.93-5.55,7.32-7.26-.35-7.26-.35-3.13,8.3-9,6.63-11.86-6.81-15.23-9.88-29.29-21.81-29.29-21.81l-31.65-2.2Z"/><path class="cls-2" d="M211.23,207.41a6.54,6.54,0,0,1-1.86-.27c-4.47-1.28-9.57-4.58-15.59-10.15-3-2.83-26.39-19.69-29-21.57l-31.47-2.21a1,1,0,0,1-.94-1.09.9.9,0,0,1,0-.16l11.69-47.49a1,1,0,0,1,1.13-.77l21.46,3c3.27-1,23.73-7.22,26.26-7.22s10.48,9.14,13.8,13.1c8.12,6.27,47.22,36.7,48.9,39.78,1.1,2,1,6.09-1.18,9-1.2,1.67-4,4.25-9.61,3.62-.2,2.37-1.12,7.57-5.17,8.59a17.82,17.82,0,0,1-7.45.25,8.75,8.75,0,0,1-6.17,7.11c-3.57.93-5.8.54-7,.07C218.11,203,215.49,207.41,211.23,207.41ZM134.7,171.32l30.54,2.14a1.15,1.15,0,0,1,.53.2c1,.76,26,18.82,29.43,21.89,5.78,5.3,10.62,8.45,14.78,9.64,4.89,1.4,7.73-5.94,7.76-6a1,1,0,0,1,.7-.63,1,1,0,0,1,.92.23h0s1.75,1.34,6.32.13,4.79-6.17,4.8-6.39a1,1,0,0,1,.43-.78,1,1,0,0,1,.89-.13,15.68,15.68,0,0,0,7.52,0c3-.75,3.68-5.88,3.69-7.78a1,1,0,0,1,.37-.79,1,1,0,0,1,.82-.21c4,.71,7-.2,8.75-2.65s1.73-5.6,1-6.87c-1.37-2.27-29.73-24.7-48.45-39.22a1.22,1.22,0,0,1-.17-.15c-4.82-5.84-10.9-12.25-12.32-12.45-1.69,0-16.77,4.42-25.86,7.2a1.09,1.09,0,0,1-.44,0l-20.78-2.86Z"/><path class="cls-4" d="M172.85,165.83h0a5.88,5.88,0,0,1-.36,8.32l-7.81,7.16a5.9,5.9,0,0,1-8.33-.35h0a5.9,5.9,0,0,1,.36-8.33l7.81-7.16A5.9,5.9,0,0,1,172.85,165.83Z"/><path class="cls-2" d="M160.7,183.88a7,7,0,0,1-5.07-2.24h0a6.9,6.9,0,0,1,.43-9.76l7.82-7.17a6.91,6.91,0,0,1,10,9.51,5.23,5.23,0,0,1-.69.64L165.39,182A6.9,6.9,0,0,1,160.7,183.88Zm-3.59-3.61a4.87,4.87,0,0,0,6.89.3l7.82-7.17a4.88,4.88,0,1,0-6.29-7.47l-.3.28-7.82,7.17a4.87,4.87,0,0,0-.3,6.89Z"/><rect class="cls-4" x="160.29" y="175.23" width="27.55" height="11.78" rx="5.89" ry="5.89" transform="translate(-76.64 165.22) rotate(-42.51)"/><path class="cls-2" d="M168.28,193.36H168a6.91,6.91,0,0,1-4.37-12l11.62-10.65a6.9,6.9,0,0,1,9.86,9.66,6,6,0,0,1-.53.49l-11.61,10.71A6.88,6.88,0,0,1,168.28,193.36Zm11.6-22.44a4.88,4.88,0,0,0-3.29,1.28L165,182.85a4.87,4.87,0,1,0,6.56,7.2l11.65-10.66a4.89,4.89,0,0,0-3.3-8.48Z"/><path class="cls-4" d="M204.5,186.87h0a5.89,5.89,0,0,1-.26,8.33L192.75,206a5.89,5.89,0,0,1-8.33-.26h0a5.89,5.89,0,0,1,.27-8.33l11.48-10.78A5.88,5.88,0,0,1,204.5,186.87Z"/><path class="cls-2" d="M188.73,208.59h-.22a6.87,6.87,0,0,1-4.83-2.17h0a6.92,6.92,0,0,1,.31-9.76l11.49-10.79a6.91,6.91,0,0,1,9.46,10.06l-11.49,10.79A6.86,6.86,0,0,1,188.73,208.59ZM200.21,186a4.87,4.87,0,0,0-3.34,1.32l-11.49,10.78a4.88,4.88,0,0,0-.21,6.9h0a4.88,4.88,0,0,0,6.89.21l11.49-10.78a4.88,4.88,0,0,0-3.34-8.43Z"/><rect class="cls-4" x="169.09" y="183.33" width="30.38" height="11.78" rx="5.89" ry="5.89" transform="translate(-79.79 183.6) rotate(-44.54)"/><path class="cls-2" d="M177.68,202.65h-.06a6.77,6.77,0,0,1-4.87-2,6.91,6.91,0,0,1,.08-9.76l13.25-13a6.91,6.91,0,0,1,10,9.51,3.51,3.51,0,0,1-.34.33l-13.19,13A6.86,6.86,0,0,1,177.68,202.65Zm13.25-24.82a4.86,4.86,0,0,0-3.43,1.4l-13.19,13a4.87,4.87,0,0,0,3.38,8.35,5,5,0,0,0,3.46-1.4l13.25-13a4.88,4.88,0,0,0,.06-6.89h0a4.79,4.79,0,0,0-3.44-1.46Z"/><path class="cls-4" d="M266.53,122.13s-23.35,3.62-26.74,3.05-25.63-10.84-30.62-12.52-14.48,2.57-18.94,6.3-17,17.09-15.32,25.17,12,2.78,20.06-7.8l11.17-3,45.9,37,12.26-1.38Z"/><path class="cls-2" d="M252,171.27a1,1,0,0,1-.63-.22l-45.54-36.71-10.31,2.84c-6.19,8-13.29,12.71-17.71,11.7-1.42-.33-3.26-1.38-3.93-4.59-1.89-9.13,12.1-23.17,15.66-26.16,4.68-3.91,14.52-8.27,19.91-6.47,2.19.73,7.52,3,13.19,5.48,6.91,3,15.51,6.71,17.26,7,2.32.39,17.06-1.62,26.39-3a1,1,0,0,1,1.17,1L265.27,169a1,1,0,0,1-.9,1l-12.21,1.31Zm-45.93-39.06a1,1,0,0,1,.64.23l45.6,36.8,11-1.24,2.13-44.66c-5.19.79-22.76,3.38-25.82,2.87-1.9-.31-8.27-3-17.78-7.1-5.6-2.43-10.9-4.72-13-5.42-4.66-1.55-13.76,2.58-18,6.09s-16.51,16.7-15,24.19c.37,1.74,1.15,2.73,2.38,3,3.61.82,10.28-3.9,15.87-11.22a1,1,0,0,1,.54-.37l11.16-3a.85.85,0,0,1,.25-.13Z"/><path class="cls-2" d="M244,184.82a1,1,0,0,1-.64-.22l-21.45-17.39a1,1,0,0,1,1.28-1.57L244.61,183a1,1,0,0,1,.15,1.43h0A1,1,0,0,1,244,184.82Z"/><path class="cls-2" d="M231.42,193.6a1.07,1.07,0,0,1-.6-.19l-22.55-16.58a1,1,0,1,1,1.2-1.63L232,191.76a1,1,0,0,1,.23,1.42A1,1,0,0,1,231.42,193.6Z"/><path class="cls-2" d="M218.63,200.55a1,1,0,0,1-.68-.26l-18-16.43a1,1,0,0,1,1.44-1.49l18,16.43a1,1,0,0,1,.07,1.43,1,1,0,0,1-.76.33Z"/><path class="cls-2" d="M227,143.25c-9.26,0-20.92-8.73-21.5-9.14a1,1,0,1,1,1.21-1.62c.17.12,16,12,24.28,7.92a1,1,0,0,1,.91,1.82A11,11,0,0,1,227,143.25Z"/><path class="cls-5" d="M150.89,120.62l-.68,4.78L143.47,173l-.58,4.06-32.33-2.61A95.91,95.91,0,0,1,108.14,153a94.42,94.42,0,0,1,8.3-38.85Z"/><path class="cls-2" d="M142.89,178.05h-.08l-32.33-2.61a1,1,0,0,1-.9-.78A96.83,96.83,0,0,1,107.12,153a95.25,95.25,0,0,1,8.4-39.27,1,1,0,0,1,1.11-.59l34.44,6.49a1,1,0,0,1,.82,1.13l-8,56.42A1,1,0,0,1,142.89,178.05Zm-31.46-4.58L142.06,176l7.71-54.51-32.69-6.15A93,93,0,0,0,109.15,153a93.92,93.92,0,0,0,2.25,20.47Z"/><circle class="cls-2" cx="128.64" cy="166.48" r="4.28"/><path class="cls-2" d="M128.64,171.77a5.3,5.3,0,1,1,5.3-5.3h0A5.3,5.3,0,0,1,128.64,171.77Zm0-8.56a3.27,3.27,0,1,0,3.27,3.27h0A3.28,3.28,0,0,0,128.64,163.21Z"/><path class="cls-5" d="M297.86,153a96,96,0,0,1-2.42,21.43L263.11,177,262,169.18l-6.44-45.47-.44-3,34.45-6.47A94.55,94.55,0,0,1,297.86,153Z"/><path class="cls-2" d="M263.11,178.05a1,1,0,0,1-1-.87l-8-56.42a1,1,0,0,1,.82-1.13l34.44-6.49a1,1,0,0,1,1.11.59A95.11,95.11,0,0,1,298.88,153a97.37,97.37,0,0,1-2.5,21.65,1,1,0,0,1-.9.78L263.15,178Zm-6.85-56.61L264,176l30.62-2.48A93.92,93.92,0,0,0,296.85,153a92.92,92.92,0,0,0-7.9-37.71Zm39.18,53Z"/><circle class="cls-2" cx="277.36" cy="166.48" r="4.28"/><path class="cls-2" d="M277.36,171.77a5.3,5.3,0,1,1,5.3-5.3,5.3,5.3,0,0,1-5.3,5.3Zm0-8.56a3.27,3.27,0,1,0,3.27,3.27h0A3.28,3.28,0,0,0,277.36,163.21Z"/></g></svg>