<svg xmlns="http://www.w3.org/2000/svg" viewBox="0 0 1061 507.4" xmlns:v="https://vecta.io/nano"><path d="M828.8 76.2H568.6v-5.4h-118v5.4H189.4c-9.7 0-17.6 7.9-17.6 17.6h0 0v356.3c0 9.7 7.9 17.6 17.6 17.6h639.4c9.7 0 17.6-7.9 17.6-17.6V93.8c0-9.7-7.9-17.6-17.6-17.6z" fill="#3f3d56"/><path d="M195.4 107.3h627.4v353.9H195.4z" fill="#e6e6e6"/><path d="M222 126h574.4v305.9H222z" fill="#fff"/><circle cx="508.6" cy="91.2" r="6.4" fill="#4587f9"/><path d="M864 454.8h-61.2v-4.4c0-.5-.4-.9-.9-.9h0-21c-.5 0-.9.4-.9.9h0 0v4.4h-13.1v-4.4c0-.5-.4-.9-.9-.9h0-21c-.5 0-.9.4-.9.9h0 0v4.4H731v-4.4c0-.5-.4-.9-.9-.9h0-21c-.5 0-.9.4-.9.9h0 0v4.4h-13.1v-4.4c0-.5-.4-.9-.9-.9h0-21c-.5 0-.9.4-.9.9h0 0v4.4h-13.1v-4.4c0-.5-.4-.9-.9-.9h0-21c-.5 0-.9.4-.9.9h0 0v4.4h-13.1v-4.4c0-.5-.4-.9-.9-.9h0-21c-.5 0-.9.4-.9.9h0 0v4.4h-13.1v-4.4c0-.5-.4-.9-.9-.9h0-164.2c-.5 0-.9.4-.9.9h0 0v4.4h-13.1v-4.4c0-.5-.4-.9-.9-.9h0-21c-.5 0-.9.4-.9.9h0 0v4.4h-13.1v-4.4c0-.5-.4-.9-.9-.9h0-21c-.5 0-.9.4-.9.9h0 0v4.4h-13.1v-4.4c0-.5-.4-.9-.9-.9h0-21c-.5 0-.9.4-.9.9h0 0v4.4h-13.1v-4.4c0-.5-.4-.9-.9-.9h0-21c-.5 0-.9.4-.9.9h0 0v4.4h-13.1v-4.4c0-.5-.4-.9-.9-.9h0-21c-.5 0-.9.4-.9.9h0 0v4.4H229v-4.4c0-.5-.4-.9-.9-.9h0-21c-.5 0-.9.4-.9.9h0 0v4.4H166c-11.6 0-21 9.4-21 21v9.5c0 11.6 9.4 21 21 21h698c11.6 0 21-9.4 21-21v-9.5c0-11.6-9.4-21-21-21h0z" fill="#3f3d56"/><path d="M382.2 147.5h254v267h-254z" fill="#e6e6e6"/><g fill="#649bfa"><path d="M958 435.5c14.4 15.4 15.1 38.1 15.1 38.1s-22.6-2.3-36.9-17.8-15.2-38-15.2-38 22.6 2.3 37 17.7z"/><path d="M1003.2 459.6c-15.4 14.4-38.1 15.1-38.1 15.1s2.3-22.6 17.8-36.9 38.1-15.1 38.1-15.1-2.4 22.5-17.8 36.9z"/></g><g fill="#e5e5e5"><path d="M999.4 505.4h-56.7c-2.2 0-4.2-1.3-5.2-3.3l-12.4-25.4c-1.4-2.9-.2-6.4 2.7-7.8.8-.4 1.7-.6 2.5-.6h81.4c3.2 0 5.8 2.6 5.8 5.8 0 .9-.2 1.8-.6 2.5l-12.4 25.4c-.9 2.1-2.9 3.4-5.1 3.4h0zM61 435.5c14.4 15.4 15.1 38.1 15.1 38.1s-22.6-2.3-36.9-17.8-15.2-38-15.2-38 22.6 2.3 37 17.7z"/><path d="M93.4 505.4H36.6c-2.2 0-4.2-1.3-5.2-3.3L19 476.7c-1.4-2.9-.2-6.4 2.7-7.8.8-.4 1.7-.6 2.5-.6h81.4c3.2 0 5.8 2.6 5.8 5.8 0 .9-.2 1.8-.6 2.5L98.4 502c-.8 2.1-2.8 3.4-5 3.4h0z"/></g><circle transform="matrix(.383 -.9239 .9239 .383 158.3972 615.6003)" cx="539.9" cy="189.3" r="33.8" fill="#ffc9b0"/><path d="M462.2 415.1L484 277.8c4.5-28.4 31.2-47.7 59.6-43.2 2.2.3 4.3.8 6.4 1.4h0c25.7 7.4 41.5 33.2 36.6 59.5l-22.8 122.6-101.6-3z" fill="#649bfa"/><path d="M549.2 439.6c6.4-4.2 8.1-12.8 3.9-19.1-.4-.7-1-1.3-1.5-1.9l22.5-43.6-25.4 2.7-17.5 41c-5.2 5.7-4.8 14.5.9 19.6 4.7 4.3 11.8 4.9 17.1 1.3h0z" fill="#ffc9b0"/><path d="M554 410.9c-1.2-.2-2.4-.7-3.3-1.6l-8.6-8c-1.9-1.8-2.5-4.5-1.5-6.9l17.2-40.8-2.4-80.7c1.5-10.9 11.5-18.5 22.4-17.1 10.9 1.5 18.5 11.5 17.1 22.4h0 0l4.2 50.7c1.3 15.4-3.1 30.7-12.3 43.2l-26.9 36.3c-1 1.4-2.6 2.3-4.4 2.5H554z" fill="#649bfa"/><path d="M345.5 170.9c1.4 7.5 8.6 12.5 16.1 11.1.8-.1 1.6-.4 2.3-.7l31.4 37.8 7.4-24.4-31-32.1c-3.2-7-11.4-10.1-18.4-6.9-5.8 2.7-9 9-7.8 15.2h0z" fill="#ffc9b0"/><path d="M370.1 186.6c.6-1.1 1.6-1.9 2.8-2.5l10.7-4.8c2.4-1.1 5.2-.5 7 1.3l30.9 31.8 75.3 29.2c9.5 5.6 12.6 17.8 7 27.3s-17.8 12.6-27.3 7h0 0L428 260a63.18 63.18 0 0 1-34.9-28.1l-23-38.9c-.9-1.5-1.1-3.3-.6-5 .1-.6.3-1 .6-1.4h0z" fill="#649bfa"/><path d="M567.2 306.4l-1.4 44-25.3 44 21.1-49 5.6-39z" opacity=".1" enable-background="new"/><path d="M517 172.4c3.5 4.1 9.4 5.3 14.8 5.8 11 1 27.1-.6 37.9-3.1.8 7.5-1.3 15.5 3.1 21.6 2.1-7.4 3.3-15.1 3.6-22.8.1-3.3.1-6.7-1.3-9.8s-4.3-5.6-7.6-5.6c2.5-1.9 5.4-3.2 8.5-3.7l-10.7-5.4 2.7-2.8-19.3-1.2 5.6-3.6c-8.4-1.2-17-1.4-25.4-.8-3.9.3-8.1.8-11.3 3.1s-5 6.8-3.1 10.2c-5 .8-9.3 4.2-11.3 8.9-1.4 3.6-1.3 7.6-.9 11.5.7 6.1 2.2 12.2 4.3 18" fill="#2f2e41"/><path d="M661.3 87.8l-307.6 71c-3.1.7-6.3-1.2-7-4.4l-17.6-76.3c-.7-3.1 1.2-6.3 4.4-7L641.1.1c3.1-.7 6.3 1.2 7 4.4l17.6 76.3c.7 3.2-1.3 6.3-4.4 7z" fill="#fff"/><path d="M661.3 87.8l-307.6 71c-3.1.7-6.3-1.2-7-4.4l-17.6-76.3c-.7-3.1 1.2-6.3 4.4-7L641.1.1c3.1-.7 6.3 1.2 7 4.4l17.6 76.3c.7 3.2-1.3 6.3-4.4 7zM334 73.4c-1.9.4-3.1 2.3-2.6 4.2L349 154c.4 1.9 2.3 3.1 4.2 2.6l307.6-71c1.9-.4 3.1-2.3 2.6-4.2L645.8 5.1c-.4-1.9-2.3-3.1-4.2-2.6L334 73.4zm106.7-.2c-2.1.5-3.5 2.6-3 4.8.5 2.1 2.6 3.5 4.8 3h0 0l182.3-42.1c2.1-.5 3.5-2.6 3-4.8-.5-2.1-2.6-3.5-4.8-3L440.7 73.2zm5.4 23.2c-2.1.5-3.5 2.6-3 4.8.5 2.1 2.6 3.5 4.8 3h0 0L526.3 86c2.1-.5 3.5-2.6 3-4.8-.5-2.1-2.6-3.5-4.8-3h0l-78.4 18.2z" fill="#e6e6e6"/><circle cx="390.9" cy="100.8" r="23.8" fill="#649bfa"/><path d="M390.2 114.6a3.6 3.6 0 0 1-2.3-.2h0l-9.6-4.4c-1.9-.8-2.7-3.1-1.8-4.9.8-1.9 3.1-2.7 4.9-1.8l6.2 2.8 8.7-19.1c.8-1.9 3.1-2.7 4.9-1.8h0l-.1.1.1-.1c1.9.9 2.7 3.1 1.8 4.9l-10.2 22.5c-.5.9-1.5 1.7-2.6 2h0z" fill="#fff"/></svg>