<svg xmlns="http://www.w3.org/2000/svg" xmlns:xlink="http://www.w3.org/1999/xlink" viewBox="0 0 692 499.9" xmlns:v="https://vecta.io/nano"><style><![CDATA[.K{fill:#ccc}.L{fill:#3f3d56}.M{fill:#ffc9b0}.N{fill:#649bfa}.O{fill:#2f2e41}.P{fill:#f2f2f2}.Q{fill:#e6e6e6}]]></style><path d="M622.7 321.6h-406a6.49 6.49 0 1 0 0 13h11.5v155.5a6.49 6.49 0 1 0 13 0l.1-155.5h355.9v155.5a6.49 6.49 0 1 0 13 0v-152l1.9-3.4h10.6a6.49 6.49 0 0 0 6.5-6.5c0-3.6-2.9-6.6-6.5-6.6z" class="K"/><path d="M441.8,325h-123c-5,0-9-4-9-9v-67.7c0-5,4-9,9-9h123c5,0,9,4,9,9V316C450.8,321,446.8,325,441.8,325z" class="L"/><path d="M441.8 246.3h-123c-1.1 0-2.1.9-2.1 2.1v67.7c0 1.1.9 2.1 2.1 2.1h123c1.1 0 2.1-.9 2.1-2.1v-67.7c0-1.2-1-2.1-2.1-2.1z" fill="#fff"/><path d="M390.8 294.2s-14.7-3.4-22.8 2.8 10.3 20.4 10.3 20.4l12.5-23.2z" class="O"/><circle cx="381" cy="273.9" r="13.9" class="M"/><path d="M370.3 254.4c1.9-3.2 5.4-5.1 9.1-4.9 1.9.2 3.8.8 5.5 1.5l9.1 3.5c2.3.9 4.9 2 5.9 4.3.9 2.1.2 4.6-.5 6.8l-3.4 10.6c-.4-2.4-1-4.7-1.9-7s-2.6-4.2-4.7-5.4c-2.4-1.2-5.1-1.2-7.8-1.1-3.7.2-7.8.7-10.5 3.3-1.4 1.5-2.4 3.4-2.8 5.4s-.6 4.1-.6 6.1c-1.5-2.6-2.8-5.4-3.9-8.3-.9-2.1-1.3-4.4-1.4-6.7s.7-4.6 2.2-6.4 3.9-2.5 6.2-2l-.5.3z" class="O"/><path d="M414.2 306.3c-.3-1-1.1-1.7-2.1-1.8 0 0-.1 0-.1-.1l-20.7-11.6c-1.2-.7-2.8-.3-3.5.9l-5.7 9.2-8.5-8.5-.1-.1c-.9-.9-2.3-1-3.4-.3l-17 11.9h-.1c-1.7.3-2.9 1.7-3 3.4l-.4 8.9h68l-3.4-11.9z" class="N"/><path d="M452.2 316.8H439c0-.8-.6-1.4-1.4-1.4h0-4.1c-.8 0-1.4.6-1.4 1.4H428c0-.8-.6-1.4-1.4-1.4h-4.1c-.8 0-1.4.6-1.4 1.4h0-4.1c0-.8-.6-1.4-1.4-1.4h0-4.1c-.8 0-1.4.6-1.4 1.4H406c0-.8-.6-1.4-1.4-1.4h-4.1c-.8 0-1.4.6-1.4 1.4h0-4.1c0-.8-.6-1.4-1.4-1.4h0-4.1c-.8 0-1.4.6-1.4 1.4h0-4.1c0-.8-.6-1.4-1.4-1.4h-4.1c-.8 0-1.4.6-1.4 1.4H373c0-.8-.6-1.4-1.4-1.4h0-4.1c-.8 0-1.4.6-1.4 1.4h0-4.1c0-.8-.6-1.4-1.4-1.4h0-4.1c-.8 0-1.4.6-1.4 1.4H351c0-.8-.6-1.4-1.4-1.4h-4.1c-.8 0-1.4.6-1.4 1.4h0-4.1c0-.8-.6-1.4-1.4-1.4h0-4.6c-.8 0-1.4.6-1.4 1.4h-4.1c0-.8-.6-1.4-1.4-1.4H323c-.8 0-1.4.6-1.4 1.4h0-13.1c-2.3 0-4.1 1.9-4.1 4.2s1.9 4.1 4.1 4.1h143.7c2.3 0 4.1-1.9 4.1-4.2s-1.9-4.1-4.1-4.1z" class="L"/><path d="M287.1 292.7v27.5h-69a13.69 13.69 0 0 1-14.2-13.3c-.2-7.6 5.7-14 13.3-14.2h1 68.9z" class="P"/><path d="M288.8 320a1.11 1.11 0 0 1-1.1 1.1h-70.8c-8 0-14.5-6.5-14.5-14.5s6.5-14.5 14.5-14.5h70.8a1.11 1.11 0 0 1 1.1 1.1 1.11 1.11 0 0 1-1.1 1.1h-70.8c-6.8 0-12.4 5.6-12.4 12.4s5.5 12.4 12.4 12.4h70.8c.6-.2 1.1.3 1.1.9z" class="N"/><g class="K"><use xlink:href="#B"/><use xlink:href="#B" y="5.1"/><use xlink:href="#B" y="10.2"/><use xlink:href="#B" y="15.3"/></g><path d="M274.1 263.7v27.5h-69a13.69 13.69 0 0 1-14.2-13.3c-.2-7.6 5.7-14 13.3-14.2h1 68.9z" class="P"/><path d="M275.8 291a1.11 1.11 0 0 1-1.1 1.1h-70.8c-8 0-14.5-6.5-14.5-14.5s6.5-14.5 14.5-14.5h70.8a1.11 1.11 0 0 1 1.1 1.1 1.11 1.11 0 0 1-1.1 1.1h-70.8c-6.8 0-12.4 5.5-12.4 12.4 0 6.8 5.5 12.4 12.4 12.4h70.8c.6-.2 1.1.3 1.1.9z" class="L"/><g class="K"><use xlink:href="#C"/><use xlink:href="#C" y="5.1"/><use xlink:href="#C" y="10.2"/><use xlink:href="#C" y="15.3"/><path d="M354.3 418v-24c0-2.2-1.8-4-4-4h-91c-2.2 0-4 1.8-4 4v24h99zm-99 9h99v31h-99zm0 40v24c0 2.2 1.8 4 4 4h91c2.2 0 4-1.8 4-4v-24h-99z"/></g><g fill="#fff"><circle cx="304.3" cy="405" r="3"/><circle cx="304.3" cy="445" r="3"/><circle cx="304.5" cy="484.2" r="3"/></g><path d="M343.1 362.7v27.5h-69a13.69 13.69 0 0 1-.9-27.5h1 68.9z" class="P"/><path d="M344.8 390a1.11 1.11 0 0 1-1.1 1.1h-70.8c-8 0-14.5-6.5-14.5-14.5s6.5-14.5 14.5-14.5h0 70.8a1.11 1.11 0 0 1 1.1 1.1 1.11 1.11 0 0 1-1.1 1.1h-70.8c-6.8 0-12.4 5.6-12.4 12.4s5.5 12.4 12.4 12.4h70.8c.6-.2 1.1.3 1.1.9z" class="L"/><g class="K"><use xlink:href="#D"/><use xlink:href="#D" y="5.1"/><use xlink:href="#D" y="10.2"/><use xlink:href="#D" y="15.3"/></g><path d="M250.1 183V7.5c0-4.2 3.4-7.5 7.5-7.5h138.7c4.2 0 7.5 3.4 7.5 7.5V183c0 4.2-3.4 7.5-7.5 7.5H257.6c-4.1 0-7.5-3.3-7.5-7.5zm7.5-181.3c-3.2 0-5.8 2.6-5.9 5.9V183c0 3.2 2.6 5.8 5.9 5.9h138.7c3.2 0 5.8-2.6 5.8-5.9V7.5c0-3.2-2.6-5.8-5.8-5.9H257.6v.1z" class="Q"/><use xlink:href="#E" class="N"/><use xlink:href="#E" x="-59.4" y="16.7" class="K"/><path d="M323.1 148.3v-36a3.8 3.8 0 0 1 3.8-3.8h30.5a3.8 3.8 0 0 1 3.8 3.8v36a3.8 3.8 0 0 1-3.8 3.8h-30.5c-2.1-.1-3.8-1.7-3.8-3.8z" fill="#e8601c"/><path d="M505.6 313h-31.4c-.3 0-.6.1-.9.2l-7.9 4c-.7.3-1.1 1.2-.8 1.9.1.3.4.6.8.8l7.9 4c.3.1.6.2.9.2h31.4c.9.1 1.7-.6 1.7-1.5v-7.9c-.1-1-.8-1.7-1.7-1.7z" class="L"/><path d="M507.3 314.6v7.9c-.1.9-.8 1.6-1.7 1.5h-6.3v-11h6.3c.9 0 1.6.7 1.7 1.6z" class="N"/><path d="M505.3 253.6c5.6-2.4 12.1.2 14.5 5.7.2.4.3.8.4 1.2l.3 1.4 43.9 21.8 10.2-6.7 12.7 14.6-15.5 12.6c-3.8 3.1-9.2 3.3-13.3.5l-44.6-30.8c-.3.1-.7.3-1 .4-5.8 1.8-12-1.5-13.7-7.3l-.3-1.2c-.1-.4-.1-.9-.2-1.3-.3-4.7 2.4-9 6.6-10.9z" class="M"/><g class="L"><path d="M596.8 387.8h-48c0 1.4-49.5 2.5-49.5 2.5-.8.6-1.5 1.3-2.1 2-1.9 2.2-2.9 5.1-2.9 8v2c0 6.9 5.6 12.5 12.5 12.5h90c6.9 0 12.5-5.6 12.5-12.5v-2c0-6.9-5.6-12.5-12.5-12.5z"/><path d="M544.6 414.3h13v84h-13z"/><path d="M507.6 497.8c0 1.4 19.7.5 44 .5s44 .9 44-.5-19.7-12.5-44-12.5-44 11.1-44 12.5z"/></g><path d="M519.4 488h-12.3l-5.8-31.8h18.1z" class="M"/><g class="O"><path d="M522.5 499.9H483v-.5a15.41 15.41 0 0 1 15.4-15.4h0 0 24.1v15.9z"/><use xlink:href="#F"/></g><path d="M525.4 488h-12.3l-5.8-31.8h18.1z" class="M"/><g class="O"><path d="M528.5 499.9H489v-.5a15.41 15.41 0 0 1 15.4-15.4h0 0 24.1v15.9z"/><use xlink:href="#F" x="7" y="3"/></g><path d="M495.8 303.8c-10.3-13.7-18.4-28.8-24.1-44.9-.7-2 .2-4.2 2-5.2l35.1-18.8c1.2-.6 2.5-.7 3.7-.2s2.1 1.6 2.5 2.9a103.31 103.31 0 0 0 22.4 41.9c.9 1 1.3 2.3 1 3.6-.2 1.3-1 2.4-2.2 3L501.3 305c-1.9 1-4.2.5-5.5-1.2z" class="K"/><path d="M498.2 302a1.25 1.25 0 0 0 1.6.3l35.1-18.8c.3-.2.6-.5.7-.9s0-.8-.3-1.1c-11-12.4-18.9-27.1-23.1-43.1-.1-.4-.4-.7-.8-.9s-.8-.1-1.1 0l-35.1 18.8c-.5.3-.8.9-.6 1.5 5.6 15.9 13.5 30.8 23.6 44.2z" fill="#fff"/><path d="M612.6 298.8l-27.5 10.5-6.7-18.7c-1.8-5.1.3-10.8 5-13.5h0c4.8-2.7 10.8-1.5 14.3 2.8l14.9 18.9z" fill="#4587f9"/><path d="M542.6 372.8c-1.2-.8-1.9-2.1-2.1-3.5-3.5-32.9-1.1-58.7 7.5-78.7 3.1-7 9.2-12.2 16.6-14.2l22.2-1.1.1.1c10.3 5 16.1 16.3 14.2 27.6-7.2 18.9-13.1 38.5-8.6 54.3.4 1.3.2 2.8-.5 4s-1.8 2-3.1 2.3l-42.4 10.1c-1.3.2-2.8-.1-3.9-.9h0z" class="N"/><circle cx="579.4" cy="242.3" r="24.6" class="M"/><g class="K"><use xlink:href="#G"/><use xlink:href="#G" x="7" y="13"/></g><path d="M533 325.6l-42.7-33.7-1 .3c-3 .7-6.3.1-8.8-1.7-2.6-1.8-4.3-4.6-4.6-7.7-.6-5.1 2.4-9.9 7.2-11.6 5.7-2.1 12 .9 14.1 6.6.1.4.3.8.4 1.2.1.5.2 1 .2 1.5l42.5 24.5 10.6-6.1 11.7 15.3-16.4 11.7c-4.1 2.8-9.4 2.6-13.2-.3z" class="M"/><path d="M567.7 318.9l-24.3-16.6 11.4-16.2c3.1-4.4 9-6 13.9-3.6h0c5 2.4 7.5 8 5.9 13.3l-6.9 23.1z" class="N"/><path d="M570.4 238.7c-6.3 4.3-14.6 8.8-21 4.2-4.2-3-5.6-8.6-3.9-13.5 3.1-8.8 11.6-12.7 19.7-15.7 10.5-3.9 22-7 32.9-4.2s20.5 13.3 18.5 24.4c-1.6 8.9-10 16.3-8.8 25.2 1.2 9 11.3 13.8 20.3 15.4s19 2.1 25.4 8.6c8.2 8.2 6.2 22.9-1.6 31.5s-19.4 12.6-30.7 15.2c-15 3.5-31.1 5.4-45.3-.5s-25.3-21.7-21.1-36.5c1.7-6.3 5.8-11.5 9.8-16.7s8-10.5 9.5-16.8c1.3-5.3.3-11.4-3.2-15.3-1.3-1.4-1.5-3.5-.6-5.2l.1-.1z" class="O"/><path d="M109.1 358c-12.9 4.5-27.2 2-37.7-6.6C58.1 340.3 54 322 50.6 305.1l-10-50 20.9 14.4c15 10.3 30.4 21 40.8 36s14.9 35.4 6.6 51.6" class="Q"/><path d="M107.3 418.6c2.1-15.4 4.3-31 2.8-46.5-1.3-13.8-5.5-27.3-14.1-38.4-4.6-5.9-10.1-10.9-16.4-14.8-1.6-1-3.1 1.6-1.5 2.6 10.9 6.9 19.3 17 24 29 5.2 13.3 6.1 27.8 5.2 41.9-.5 8.5-1.7 17-2.9 25.5-.2.8.3 1.6 1 1.8.8.1 1.7-.3 1.9-1.1h0z" class="P"/><path d="M86.9 391.3c-5.5 8.4-15 13.3-25.1 12.9-12.7-.6-23.3-9.5-32.8-17.9L1 361.6l18.6-.9c13.4-.6 27.1-1.2 39.9 2.9s24.5 14.1 26.9 27.3" class="Q"/><g class="P"><path d="M113.3 427.4c-10.2-18-22-38-43-44.4-5.9-1.8-12-2.4-18.1-1.9-1.9.2-1.4 3.1.5 3 10.2-.8 20.4 1.9 28.9 7.6 8.1 5.5 14.5 13.3 19.9 21.4 3.3 5 6.2 10.2 9.2 15.4.8 1.8 3.5.6 2.6-1.1h0z"/><path d="M129.5 446.4c-.7-8.1-5.8-15.1-13.3-18.2v-10.4H98.8v10.7c-7.1 3.3-11.9 10.1-12.6 17.9L82 494h51.6l-4.1-47.6z"/></g><defs ><path id="B" d="M287.1 299H213c-.1 0-.2-.1-.2-.2s.1-.2.2-.2h0 74.1c.1 0 .2.1.2.2s-.1.2-.2.2z"/><path id="C" d="M274.1 270H200c-.1 0-.2-.1-.2-.2s.1-.2.2-.2h0 74.1c.1 0 .2.1.2.2s-.1.2-.2.2z"/><path id="D" d="M343.1 369H269c-.1 0-.2-.1-.2-.2s.1-.2.2-.2h0 74.1c.1 0 .2.1.2.2s-.1.2-.2.2h0z"/><path id="E" d="M334.8 80.6v-36a3.8 3.8 0 0 1 3.8-3.8h30.5a3.8 3.8 0 0 1 3.8 3.8v36a3.8 3.8 0 0 1-3.8 3.8h-30.5a3.8 3.8 0 0 1-3.8-3.8z"/><path id="F" d="M501 468.3l-24.4-54.8c-4.2-9.6-.4-20.8 8.8-25.8l53-28.4 24.2-2.1 22.3-2 .2.3c.2.3 5 8.6 1.8 17.7-2.5 6.9-8.9 12.3-19 16-23.7 8.7-51.1 16.1-61.8 18.9-1 .2-1.8.9-2.2 1.8-.5.9-.5 1.9-.2 2.8l22.7 51c.9 2.3-.3 4.9-2.7 5.8-.4.1-.7.2-1.1.3l-17 1.2h-.4c-1.9-.1-3.5-1.1-4.2-2.7z"/><path id="G" d="M511.2 261.8l-19.1 8.4c-1.5.7-3.3 0-4-1.5l-.5-1.1c-.7-1.5 0-3.3 1.5-4l19.1-8.4c1.5-.7 3.3 0 4 1.5l.5 1.1c.7 1.5.1 3.3-1.5 4z"/></defs></svg>