<svg xmlns="http://www.w3.org/2000/svg" viewBox="0 0 64 64" fill="#fff" xmlns:v="https://vecta.io/nano"><path d="M28.83 29.41a1 1 0 0 0-1.42 0 2 2 0 0 1-2.82 0 1.004 1.004 0 0 0-1.42 1.42c2.69 2.69 7.15.08 5.66-1.42zM63 35c0-3.95-4.27-5.72-8-4.7V1a1 1 0 0 0-2 0v29c-2.28 0-5 1-5 6 0 3.79-.5 5.57 2 8.39V47a1 1 0 0 0-1 1l-.06 2.53A15 15 0 0 0 34 38h-3v-2a13 13 0 0 0 7.83-10c5.23 0 5.6-7.3.69-7.95 1.23-4.93 1.48-5.57 1.48-7.26A10.8 10.8 0 0 0 30.21 0c-4.72 0-7.74-.39-11.51 2-7.24.25-11.23 8-6.91 16.21A4 4 0 0 0 13.17 26 12.94 12.94 0 0 0 21 36v2h-3A15 15 0 0 0 3.06 50.53L1 62.84a1.013 1.013 0 0 0 2 .32l2-12.3A12.94 12.94 0 0 1 17.16 40c1.53 9.23.81 8.71 4.92 6.36a4.88 4.88 0 0 0 1.49 2.71c-.94 1-.68.69-2.31 13.78a1.007 1.007 0 0 0 2 .24l1.5-12a1.27 1.27 0 0 1 2.52 0l1.5 12a1.007 1.007 0 0 0 2-.24c-1.63-13.07-1.38-12.75-2.31-13.78a4.93 4.93 0 0 0 1.49-2.71c2.33 1.34 2.42 1.44 2.78 1.44a1 1 0 0 0 .84-.46c.17-.27 0 .32 1.3-7.34A12.94 12.94 0 0 1 47 50.86C49 63 48.83 64 50 64a1 1 0 0 0 .75-.36c.36-.43.25.4.25-14.64h8v14a1 1 0 0 0 2 0V48a1 1 0 0 0-1-1v-2.5c3.52-2.84 3-5.35 3-9.5zM32 45.25l-4.32-2.47L30.41 40h2.41zm-4.35-27a4.52 4.52 0 0 0-3.2 0 4.48 4.48 0 0 0-7.69-.25h-1.44a16.17 16.17 0 0 1 3.62-7.47A7.69 7.69 0 0 0 24.61 13h9.7l1.87 5h-.94a4.48 4.48 0 0 0-7.64.29zM31.5 18a2.5 2.5 0 1 1-2.5 2.5 2.5 2.5 0 0 1 2.5-2.5zm-11 0a2.5 2.5 0 1 1-2.5 2.5 2.5 2.5 0 0 1 2.5-2.5zM41 22a2 2 0 0 1-2 2v-4a2 2 0 0 1 2 2zM19 4c.63 0 2.64-2 6.61-2h4.6A8.81 8.81 0 0 1 39 10.79c0 1.52-.33 2.4-1.19 5.85C35.83 11.37 35.92 11 35 11H24.61a5.75 5.75 0 0 1-4.78-2.55 1 1 0 0 0-1.54-.16 18.14 18.14 0 0 0-4.83 8.8A13.4 13.4 0 0 1 12 11a7 7 0 0 1 7-7zm-6.16 16c.22.36.16-.3.16 4a2.002 2.002 0 0 1-.16-4zM15 24v-4c1.35 0 1-.15 1 .5a4.5 4.5 0 0 0 9 0c0-.21-.05-.18 0-.28a2.5 2.5 0 0 1 2 0v.28a4.5 4.5 0 0 0 9 0c0-.65-.36-.5.93-.5.1.26.07-.36.07 4a11 11 0 0 1-22 0zm14 12.65v1.94l-3 3-3-3v-1.94a13.34 13.34 0 0 0 6 0zM21.59 40l2.78 2.78-4.32 2.47-.87-5.25zm6.09 6.79a1.77 1.77 0 0 1-3.36 0l-.47-1.41L26 44.15l2.15 1.23zm30.77-3.62c-.59.39-.45.7-.45 3.83h-6c0-3.26.09-3.32-.29-3.71A5.79 5.79 0 0 1 50 40c0-4.24-.58-7.81 2.66-8-.86 1.65-.66 3.43-.66 6 0 3.12 4 3.86 4 2a1 1 0 0 0-1-1 .91.91 0 0 1-1-1c0-2.47-.15-4 .49-5.14a1.07 1.07 0 0 0 .39-.4C57.07 31.41 61 32.14 61 35v4c0 2.42-2.53 4.15-2.55 4.17z"/></svg>