<svg xmlns="http://www.w3.org/2000/svg" xmlns:xlink="http://www.w3.org/1999/xlink" viewBox="0 0 64 64" xmlns:v="https://vecta.io/nano"><path d="M63 0H13a1 1 0 0 0-1 1v11.18a6.51 6.51 0 0 0-5 6.32c0 2.29-.23 4.37 1.82 6.5H8a7 7 0 0 0-7 7v12a5 5 0 0 0 4.08 4.91 6 6 0 0 0 2.17 3.76A11 11 0 0 0 0 63a1 1 0 0 0 2 0 9 9 0 0 1 18 0 1 1 0 0 0 2 0 9 9 0 0 1 18 0 1 1 0 0 0 2 0 9 9 0 0 1 18 0 1 1 0 0 0 2 0 11 11 0 0 0-7.25-10.33c2.52-2 2.25-4.5 2.25-6.67a6 6 0 0 0-12 0c0 2.24-.27 4.65 2.25 6.67A11.08 11.08 0 0 0 41 58.44a11.08 11.08 0 0 0-6.25-5.77c2.52-2 2.25-4.5 2.25-6.67a6 6 0 0 0-12 0c0 2.24-.27 4.65 2.25 6.67a11.06 11.06 0 0 0-5.25 4V36h41a1 1 0 0 0 1-1V1a1 1 0 0 0-1-1zM47 48v-2a4 4 0 0 1 8 0v2a4 4 0 0 1-8 0zm-20 0v-2a4 4 0 0 1 8 0v2a4 4 0 0 1-8 0zM9 18.5a4.5 4.5 0 0 1 9 0v2a4.5 4.5 0 0 1-9 0zM7 48v-2a4 4 0 0 1 8 0v2a4 4 0 0 1-8 0zm7.75 4.67c2.52-2 2.25-4.5 2.25-6.67a6 6 0 0 0-10-4.46V32a1 1 0 0 0-2 0v14.82A3 3 0 0 1 3 44V32a5 5 0 0 1 5-5c23.11 0 21.52.15 22-.36 4.88-5.87 5.1-6.64 6.83-6.64a1.22 1.22 0 0 1 .95 2l-6.39 8H21a1 1 0 0 0-1 1v25.7a11.06 11.06 0 0 0-5.25-4.03zM62 34H22v-2c10.51 0 10.18.15 10.6-.38 7.29-9.13 7.4-8.9 7.4-10.4a3.24 3.24 0 0 0-2-3V5a1 1 0 0 0-2 0v13.07c-2.34.38-2.88 1.62-7.29 6.93H18.18c2.07-2.16 1.82-4.36 1.82-6.5a6.49 6.49 0 0 0-6-6.5V2h48z"/><use xlink:href="#B"/><use xlink:href="#B" x="10"/><use xlink:href="#B" x="20"/><use xlink:href="#B" x="30"/><use xlink:href="#B" x="40"/><use xlink:href="#B" x="50"/><defs ><path id="B" d="M5 61v2a1 1 0 0 0 2 0v-2a1 1 0 0 0-2 0z"/></defs></svg>