<svg xmlns="http://www.w3.org/2000/svg" xmlns:xlink="http://www.w3.org/1999/xlink" viewBox="0 0 128 128" xmlns:v="https://vecta.io/nano"><g fill="#47566a"><path d="M117 0H31a11 11 0 0 0-11 11v97H1a1 1 0 0 0-1 1v8a11 11 0 0 0 11 11h86a11 11 0 0 0 11-11V20h19a1 1 0 0 0 1-1v-8a11 11 0 0 0-11-11zM90.62 126H11a9 9 0 0 1-9-9v-7h84c0 6.29-1 12 4.62 16zm15.38-9a9 9 0 0 1-18 0v-8a1 1 0 0 0-1-1H22V11a9 9 0 0 1 9-9h79.62a11.1 11.1 0 0 0-4.62 9zm20-99h-18v-7a9 9 0 0 1 18 0z"/><use xlink:href="#B"/><path d="M97 62H44a1 1 0 0 0 0 2h53a1 1 0 0 0 0-2zm-53 8h36a1 1 0 0 0 0-2H44a1 1 0 0 0 0 2z"/><use xlink:href="#B" y="16"/><path d="M97 78H44a1 1 0 0 0 0 2h53a1 1 0 0 0 0-2zm-53 8h36a1 1 0 0 0 0-2H44a1 1 0 0 0 0 2z"/><use xlink:href="#B" y="32"/><path d="M97 94H44a1 1 0 0 0 0 2h53a1 1 0 0 0 0-2zm-17 6H44a1 1 0 0 0 0 2h36a1 1 0 0 0 0-2zM64 56a24 24 0 1 0-24-24 24 24 0 0 0 24 24zm0-46a22 22 0 1 1-22 22 22 22 0 0 1 22-22zm-4.72 30.72a1 1 0 0 0 1.44 0l16-16a1.018 1.018 0 0 0-1.44-1.44L60 38.56l-7.28-7.28a1.018 1.018 0 0 0-1.44 1.44z"/></g><defs ><path id="B" d="M37 62h-6a1 1 0 0 0-1 1v6a1 1 0 0 0 1 1h6a1 1 0 0 0 1-1v-6a1 1 0 0 0-1-1zm-1 6h-4v-4h4z"/></defs></svg>