<svg width="113" height="95" viewBox="0 0 113 95" fill="none" xmlns="http://www.w3.org/2000/svg">
<path d="M107.885 64.6287L71.786 72.6923C72.3145 75.7597 70.6275 78.0967 67.9431 78.6963L58.8907 80.7183C56.108 81.3399 53.4113 79.1331 52.9801 76.893L17.3619 84.8491C16.0517 85.1417 15.2118 86.4871 15.4955 87.8388L16.0113 90.2964C17.146 95.7031 22.3624 92.9239 27.6032 91.7533L103.833 74.7256C109.074 73.555 112.434 74.4186 111.299 69.0118L110.783 66.5542C110.499 65.2026 109.195 64.3361 107.885 64.6287ZM88.8755 9.70012C88.0245 5.64506 84.1122 3.04565 80.1816 3.92364L18.2447 17.7586C14.3141 18.6366 11.7944 22.6727 12.6455 26.7278L23.4769 78.3375L99.707 61.3099L88.8755 9.70012ZM93 56.6716L29 71.6307L19 25.206L83 11.2786L93 56.6716Z" fill="#0a61f7" fill-opacity="0.8"/>
</svg>
