<svg xmlns="http://www.w3.org/2000/svg" xmlns:xlink="http://www.w3.org/1999/xlink" viewBox="0 0 400 300" xmlns:v="https://vecta.io/nano"><g fill="#649bfa"><use xlink:href="#D"/><use xlink:href="#E"/><use xlink:href="#F"/></g><ellipse cx="195.1" cy="218.6" rx="137" ry="67.4" fill="#e0ebfe"/><linearGradient id="A" gradientUnits="userSpaceOnUse" x1="270.68" y1="249.06" x2="203.42" y2="283.82"><stop offset="0" stop-color="#9bc4f6"/><stop offset=".99" stop-color="#e0ebfe"/></linearGradient><path d="M190.3 276.3l58-21.7 24-2.3 2.6 1.3.8 4-42.7 25.2s-28.2 4.4-42.7-6.5z" fill="url(#A)"/><linearGradient id="B" gradientUnits="userSpaceOnUse" x1="158.404" y1="226.891" x2="92.068" y2="261.173"><stop offset="0" stop-color="#9bc4f6"/><stop offset=".987" stop-color="#e0ebfe"/></linearGradient><path d="M77.9 251.6l63.1-31.9 17.6 7.9 2.5 1.3 2.2 6.1-55.6 35c-10.4-5.3-20.4-11.5-29.8-18.4z" fill="url(#B)"/><path d="M279.7 226.4c-.3-.3-11.2-15.5-11.5-15.4s-3.4 18.4-3.4 18.4l10 7.3" fill="#ffddb0"/><path d="M276.7 224.9c.1 1.7.2 5-.9 5.7s-2.2-4.3-3.9-5.1-5.4 3.3-6 5.1 4.9 4.4 5 4.9l.5 1.6c-.8 3.8-1.9 7.6-3.1 11.3a11.6 11.6 0 0 0 0 6.4c.4 1.1 1.1 2 2 2.8 1.6 1.3 3.8 1.3 5.3 0 1.6-1.3 2.9-3 3.7-4.9 3.6-8.4 5.8-20.4 5.8-20.4l-7.3-9.3s-1.3.2-1.1 1.9z" fill="#603813"/><path d="M268.9 255.9s3.3 2.4 6.3-1.8 8.3-24 8.3-24l1.8 2.2s-3.3 13.6-4.3 16.3-6.1 15.9-12.1 7.3z" fill="#996236"/><path d="M254.9 232.1c-.2 1.1 11.6 6.2 11.6 6.2s8.1-17.5 6.5-29.8l-16.4-13.6" fill="#649bfa"/><path d="M254.9 232.1c-.2 1.1 11.6 6.2 11.6 6.2s8.1-17.5 6.5-29.8l-16.4-13.6" opacity=".1" enable-background="new"/><path d="M254.7 251.8l2.7-17.6-10.5 3.4-3.6 17 1.6 4.8" fill="#ffddb0"/><path d="M253.1 251.4c-1.2 1.3-3.6 3.5-4.8 3.2s1.8-4.5 1.2-6.3-6-1.8-7.9-1 0 6.6-.3 7.1l-.9 1.5c-3.4 1.9-6.9 3.7-10.4 5.2-1.9 1-3.5 2.5-4.7 4.3a7.64 7.64 0 0 0-.8 3.3c.1 2 1.6 3.7 3.6 4a13.84 13.84 0 0 0 6.1-.5c8.6-3 19.1-9.4 19.1-9.4l2-11.6c-.7-.7-1.7-.5-2.2.2z" fill="#603813"/><path d="M224.9 266.5s.5 4.1 5.5 3.4 23.4-10 23.4-10l-.5 2.8s-12.3 6.7-14.9 7.8-15.8 6.2-13.5-4z" fill="#996236"/><g fill="#649bfa"><path d="M237.9 189.8s.9 42.3 3.4 53.7c0 0 4.1 4.3 17.7.7 0 0 20.2-55.4 4.5-116.9s-25.6 62.5-25.6 62.5z"/><path d="M234.2 118.8s-21.9 39.8-21.5 59.9 29.6 41.6 29.6 41.6l9.2-100.7"/></g><path d="M234.8 121.2c-1.4-.5-2.7-1.2-3.9-2-1-1-1.7-2.2-2.2-3.6-.2-.4-.6-.7-1.1-.7h0l-1.6-2.1c-.2-.2-.4-.4-.7-.4-.2-.3-.4-.6-.6-.8-.8-1.2-2.6-.1-1.9 1.1l.3.4c-.3.2-.5.5-.6.8-.2.1-.4.2-.6.4-.5.1-.9.6-.8 1.1v.1l.2.7c-.3.2-.5.5-.5.9-.4.2-.6.5-.5.9.5 4.1 1.5 8 3.1 11.8.5 1.1 2.3.8 2.1-.3.5.8 1 1.5 1.5 2.3.2.3.5.5.9.5.6.2 1.2-.1 1.3-.7.1-.3.1-.6-.1-.8l-.1-.8h0c.5.8 1.1 1.6 1.7 2.4.3.5 1 .6 1.5.3.4-.3.6-.9.4-1.3l-.9-1.8c.3.2 1.2 1.2 1.6 1 2.1-1.4-.6-5-1.5-6.5l-.8-1.4a9.6 9.6 0 0 0 3.3.6c.6 0 1.1-.4 1.1-1 0-.5-.2-.9-.6-1.1z" fill="#ffddb0"/><path d="M226.2 129.8l-1.7-5.2c0-.2-.2-.3-.4-.2-.2 0-.3.2-.2.4h0l1.7 5.2c.1.3.7.2.6-.2zm3.3.6l-3.1-6.4c-.2-.4-.7 0-.6.3l3.1 6.5c.2.3.8 0 .6-.4zm3.1-.7l-3.9-7c-.2-.4-.7 0-.6.3l3.9 7c.3.4.8.1.6-.3z" fill="#603813"/><g opacity=".1"><use xlink:href="#E"/><use xlink:href="#F"/></g><use xlink:href="#D" opacity=".1" enable-background="new"/><path d="M125.8 107.3L118 127l8.7.9s4.5-15.8 31-16.1-8 49.1-12.9 56.9-7.7 21.5-6.7 31.4l16.7 6.1s-2.9-22 3.8-30.4 25.1-41.6 21.7-55.3-10.4-7-10.4-7" fill="#c58a01"/><g fill="#fec33e"><path d="M154.5 207l15.6-6.5s.1-6.4-.5-16.8 20-40.3 23.3-55-18.5-41.2-43.9-35.6c-29 6.4-31.4 34.6-31.4 34.6l13.6 6.8s12.2-26.1 29.6-22.2 15.8 25.1 15.8 25.1l-18.4 39.2c.1 0-7.5 10.3-3.7 30.4z"/><circle cx="154.3" cy="223.7" r="14.6"/></g><path d="M149.4 222.1c.4-5.3 3.9-9.9 8.5-12.6-8-1.8-16 3.1-17.8 11s3.2 15.7 11.2 17.5c3.1.7 6.3.4 9.3-.9-6.3-2.2-11.7-8.2-11.2-15z" fill="#c58a01"/><g fill="#649bfa"><ellipse transform="matrix(.343 -.9394 .9394 .343 -43.9309 150.0502)" cx="85.3" cy="106.4" rx="36.5" ry="25"/><path d="M85.2 135.9s-5.5 7.5 3 12.6c0 0-12.7 3.6-12.9-12.6m282.8-29.8c-1.4-7.4-7.8-12.9-15.4-13.1a16.19 16.19 0 0 0-9.3 2.6l-.5.1v-.5c-.7-7.7-7.1-14.2-15-14a15.51 15.51 0 0 0-10.1 4.1c-3 2.7-4.5 6.7-5.1 10.6 0 .2-.1.4-.1.6-3-.3-6 .3-8.7 1.5-5.8 2.8-9.1 9-8.1 15.4.8 6.1 4.6 11.5 10.1 14.2 2.2 1.1 4.6 1.7 7.1 1.8 1.9 8 10.3 14.3 18.2 16.4 10 2.6 24.5.3 28.4-10.8.6-1.8.9-3.7 1-5.6.1-1.7 0-3.4-.5-5-.2-.7-.5-1.4-.9-2a15.12 15.12 0 0 0 8.9-16.3zm-64.3 25.2c-.5-.3-1.1-.5-1.7-.6-1-.2-2.1-.2-3.1 0-.6.1-1.2.4-1.7.7-.6.3-1.1.7-1.5 1.1-1 1-1.5 2.3-1.5 3.6 0 1 .3 2 .8 2.8.1.4.3.8.6 1.2.8 1.4 2.2 2.3 3.7 2.8.5.1 1 .2 1.5.2.3 0 .6-.1.9-.1.8-.1 1.6-.3 2.3-.8 1.4-.8 2.3-2.2 2.7-3.7.7-2.8-.5-5.7-3-7.2z"/></g><path d="M196.6 21.5s-4.6-5.4-5.9-5.5-48.7 14-51.3 16.3-2.6 9.9-1.6 14.8 6.7 30.7 7.9 31.7 4.7 1.9 8 1.3" fill="#c2320d"/><g fill="#f15831"><path d="M197.3 72.3l-43.7 7.8c-3.9.7-7.6-1.8-8.3-5.7l-5.8-33.2c-.6-3.6 1.7-7.1 5.2-8l45.8-11.9c3.8-1 7.7 1.2 8.7 5 .1.4.2.7.2 1.1l3.7 37.3c.3 3.8-2.2 7-5.8 7.6z"/><path d="M203.1 64.8s1.2 17.2 0 17.8-11.3-10.1-11.3-10.1"/></g><path d="M244 75.2s-11.8-.6-21.2 2.4-20.4 10.9-19.2 19 13.1 25.3 13.1 25.3l14.4-7.9s-7-11.1-5.5-13 4.7-2 4.7-2l2.7 26.6s16.4 3.8 29.2 0l-1.7-9.6c4.9.2 9.2-3.4 10-8.3 1.7-8.7-4.2-31.4-26.5-32.5z" fill="#ff408c"/><path d="M236.5 58.6c-.4.4-.1 1.9-.1 2.4 0 1.7.2 3.4.3 5 .4 3.9 1.2 8.2 5.1 10.3 4.9 2.6 9.6-.8 11.6-5 .8-1.7 1.1-10.6-.8-12.2s-9.2-8.3-16.1-.5z" fill="#ffddb0"/><path d="M236.2 60.8c-.2.3-3.6-.2-5.2-3.1s1.8-9.2 6-9.1c2.6.1 5.2 1.2 7 3.1 0 0 3.7-1.8 6.4-.4 1.6.9 2.8 2.2 3.6 3.8 0 0 3.3.3 4.2 3.2s-2.8 12.7-3.3 13.1-1.5.1-1.9-1.2-.1-5.5-1.2-5.6-.7 1.5-3.1 1.2-2.7-3.6-4.5-4.6-5.5-3.8-8-.4z" fill="#fec33e"/><g fill="#42210b"><path d="M239.7 64.9c-.1.1-.1.2-.1.3-.2.3-.2.8.2 1 .3.2.8.2 1-.2.5-.7-.4-1.8-1.1-1.1zm1.5-3.8c-.9-.6-2-.5-2.7.3-.4.5.3 1.2.7.7.3-.5.9-.6 1.4-.3l.1.1c.5.5 1-.4.5-.8zm1.8 7.4c-.4-.2-.3-.3-.3-.7s.1-.6.2-.9l.4-1.8c.1-.6-.8-.9-1-.3-.3 1.1-.6 2.2-.7 3.3-.1.8.4 1.1 1.1 1.4s.9-.8.3-1zm3.7-3.5c-.6 0-.8.5-.8.9-.1.3.1.7.5.8.5.1.9-.2 1-.7s-.2-.9-.7-1z"/><path d="M248.6 61.3c-.9-.5-2.1-.5-3 .1-.5.3 0 1.2.5.9.6-.4 1.4-.4 2-.1.3.1.5 0 .7-.2.1-.3 0-.5-.2-.7zm-3.3 8c-.7.3-1.3.6-2 .8-.6.2-.3 1.2.3 1l2.3-.9c.5-.3-.1-1.2-.6-.9z"/></g><path d="M250.2 76.3c-.6-1.3-2.2-.8-3.2-.3-1.2.7-2.5 1.5-3.6 2.4l-4.9-3.1-2.9-1.5c-.8-.4-1.7-.9-2.5-.1-1.3 1.4.9 2.7 2.3 3.5-.5.2-1 .5-1.3 1-.3.6-.3 1.3.1 1.9l.1.1c-.6.2-1.2.7-1.4 1.3-.3.7-.2 1.5.3 2l.3.3c-.1.1-.2.1-.3.2-.5.5-.7 1.1-.6 1.8a2.34 2.34 0 0 0 2.1 1.9c0 .5 1 1.2 1.6 1.4.3.1.6.1.9.2l.3 1.7 3.6-1.3h.3l1.1-.5c.2-.1.4-.1.6 0l2.4-1.8c-.1-.5-.1-1-.2-1.6 0-.1 0-.2-.1-.3v-4.1l.2-.1c1.2-.5 2.3-1.1 3.3-2 .9-.7 2.1-1.9 1.5-3z" fill="#ffddb0"/><path d="M238.9 79.1l-3.4-2c-.2-.1-.4 0-.4.1-.1.2 0 .4.1.4l3.4 2c.2.1.4 0 .4-.1.1-.1 0-.3-.1-.4h0zm-2.9 1.7c-.5-.2-.9-.4-1.3-.7-.3-.3-.8.2-.5.5.5.4 1 .7 1.5.9.5.1.7-.6.3-.7zm-.6 3.5c-.6-.2-1.2-.5-1.8-.8a.34.34 0 0 0-.3.6c.6.3 1.3.6 2 .8.3.1.5-.5.1-.6z" fill="#603813"/><path d="M264.5 101.9c-7.5-2.6-13.8-7.6-17.9-14.3-.2-.3-.6-.5-1-.3-.1-.3-.4-.5-.8-.4h-.1c-4.5 1.8-8.8 3.9-13 6.3-.3.2-.5.6-.3 1 0 0 0 .1.1.1 2.1 12.9 13.2 22.4 26.3 22.2.4 0 .8-.3.8-.8s-.3-.8-.8-.8c-12.3.1-22.8-8.7-24.8-20.8 3.9-2.2 8-4.2 12.1-5.8l.1-.1c4.3 7 11 12.3 18.8 15 1.1.5 1.5-1 .5-1.3z" fill="#bf004c"/><path d="M240 166.4l.2-17.3c-.1-.6-.6-1-1.2-1-.5 0-.9.5-1 1-.4 20.5-.3 41 .2 61.4l.5 17.3c.1 1.4 2.2 1.4 2.1 0-.6-20.4-.9-40.9-.8-61.4z" fill="#603813"/><g fill="#42210b"><path d="M250.5 76c-1.5-2.4-6 1.2-7.4 2.2-.4.3.2.9.6.6l2.2-1.5c.9-.6 2-1.8 3.3-1.5 2 .5.5 2.6-.4 3.3-.4.3-.8.5-1.2.7-.7.5-1.5.9-2.3 1.2-.5.2-.3 1 .2.8 1.7-.6 6.6-3.3 5-5.8z"/><path d="M243.6 78.3c-2.2-1.6-6.1-4-8.5-5.4-.4-.2-.9.2-.5.4 2.3 1.4 6.5 4 8.7 5.5.3.3.7-.3.3-.5z"/></g><defs ><path id="D" d="M92 70.4c-13-4.7-29.1 6.8-36 25.7s-2 38.1 11 42.8c1 .4 2.1.6 3.2.8 2.7 9.6 12.2 7 12.2 7-3.7-2.3-4.8-5-4.7-7.3 10.2-2.3 20.3-12.2 25.4-26.2 6.8-18.9 1.9-38.1-11.1-42.8z"/><path id="E" d="M364.4 106.1C363 98.6 356.6 93.2 349 93a16.19 16.19 0 0 0-9.3 2.6l-.5.1v-.5c-.7-7.7-7.1-14.2-15-14a15.51 15.51 0 0 0-10.1 4.1c-3 2.7-4.5 6.7-5.1 10.6 0 .2-.1.4-.1.6-3-.3-6 .3-8.7 1.5-5.8 2.8-9.1 9-8.1 15.4.8 6.1 4.6 11.5 10.1 14.2 2.2 1.1 4.6 1.7 7.1 1.8 1.9 8 10.3 14.3 18.2 16.4 10 2.6 24.5.3 28.4-10.8.6-1.8.9-3.7 1-5.6.1-1.7 0-3.4-.5-5-.2-.7-.5-1.4-.9-2a15.12 15.12 0 0 0 8.9-16.3z"/><path id="F" d="M296 131.9c-.5-.3-1.1-.5-1.7-.6-1-.2-2.1-.2-3.1 0-.6.1-1.2.4-1.7.7s-1.1.7-1.5 1.1c-1 1-1.5 2.3-1.5 3.6 0 1 .3 2 .8 2.8.1.4.3.8.6 1.2.8 1.4 2.2 2.3 3.7 2.8.5.1 1 .2 1.5.2.3 0 .6-.1.9-.1.8-.1 1.6-.3 2.3-.8 1.4-.8 2.3-2.2 2.7-3.7.8-2.9-.5-5.8-3-7.2z"/></defs></svg>