<?xml version="1.0" standalone="no"?>
<!DOCTYPE svg PUBLIC "-//W3C//DTD SVG 20010904//EN"
 "http://www.w3.org/TR/2001/REC-SVG-20010904/DTD/svg10.dtd">
<svg version="1.0" xmlns="http://www.w3.org/2000/svg"
 width="1560.000000pt" height="1560.000000pt" viewBox="0 0 1560.000000 1560.000000"
 preserveAspectRatio="xMidYMid meet">
<metadata>
Created by potrace 1.14, written by Peter Selinger 2001-2017
</metadata>
<g transform="translate(0.000000,1560.000000) scale(0.100000,-0.100000)"
fill="#000000" stroke="none">
<path d="M7600 11508 c-25 -11 -70 -32 -100 -46 -30 -13 -61 -25 -67 -25 -7 0
-13 -4 -13 -9 0 -4 -9 -8 -20 -8 -11 0 -20 -4 -20 -10 0 -5 -3 -9 -7 -8 -5 1
-19 -4 -33 -9 -27 -12 -264 -116 -320 -141 -19 -9 -37 -16 -40 -17 -9 -3 -54
-23 -110 -48 -128 -59 -169 -75 -174 -69 -3 3 -6 1 -6 -5 0 -6 -10 -14 -22
-18 -13 -4 -25 -8 -28 -9 -3 -1 -31 -14 -64 -29 -32 -15 -60 -27 -63 -27 -2 0
-39 -16 -81 -36 -42 -20 -81 -37 -87 -38 -5 -1 -41 -17 -79 -34 -38 -18 -70
-32 -72 -32 -2 0 -27 -11 -56 -24 -29 -13 -96 -43 -148 -66 -52 -23 -113 -50
-135 -60 -22 -10 -74 -32 -115 -50 -41 -18 -93 -40 -115 -50 -22 -10 -114 -50
-205 -90 -91 -40 -198 -88 -238 -106 -41 -19 -76 -34 -79 -34 -3 0 -40 -16
-82 -36 -42 -20 -80 -37 -86 -38 -5 -1 -41 -17 -79 -34 -38 -18 -70 -32 -72
-32 -2 0 -39 -16 -81 -36 -43 -20 -82 -37 -88 -39 -43 -12 -55 -19 -55 -28 0
-6 -3 -8 -6 -5 -5 5 -76 -24 -179 -72 -11 -5 -119 -53 -240 -106 -121 -52
-240 -105 -265 -116 -25 -12 -49 -22 -55 -23 -5 -2 -45 -19 -88 -39 -43 -20
-80 -36 -82 -36 -3 0 -61 -26 -185 -82 -25 -11 -65 -29 -90 -40 -52 -23 -91
-40 -140 -61 -19 -9 -91 -40 -160 -70 -108 -47 -288 -126 -425 -187 -22 -10
-74 -32 -115 -50 -121 -52 -145 -63 -152 -73 -7 -11 -8 -427 -1 -427 5 0 160
63 208 84 17 8 125 53 240 101 257 107 272 113 310 130 60 27 300 127 310 129
6 1 15 4 20 8 6 3 87 37 180 76 94 39 258 108 365 153 107 45 218 90 245 101
28 11 73 31 102 44 28 13 55 24 58 24 3 0 31 11 60 25 30 13 66 27 80 31 14 3
28 10 31 15 3 5 10 7 15 4 5 -4 9 -2 9 3 0 5 20 15 45 22 25 7 45 17 45 23 0
6 3 8 6 4 3 -3 34 7 69 23 35 16 66 26 69 23 3 -4 6 -1 6 5 0 7 4 12 9 12 5 0
22 5 38 12 15 6 30 12 33 13 3 1 16 6 30 12 14 6 81 34 150 63 69 28 139 58
155 65 26 11 58 24 75 30 3 1 22 9 42 18 21 10 40 17 43 17 4 0 32 12 63 26
31 15 66 30 77 35 11 4 52 22 92 38 39 17 74 31 77 31 3 0 29 11 58 24 52 24
421 178 648 271 63 26 133 56 155 66 22 10 69 30 105 44 36 14 79 32 95 40 17
7 55 23 85 35 30 12 69 28 85 35 17 8 68 30 115 49 47 19 103 43 125 52 22 10
45 19 50 20 15 4 347 143 367 154 11 6 31 4 60 -6 24 -9 48 -17 53 -18 6 -1
33 -10 60 -20 75 -27 79 -29 90 -32 16 -5 359 -123 375 -130 8 -3 16 -5 17 -5
2 0 22 -7 45 -15 24 -9 113 -40 198 -69 85 -30 172 -61 193 -70 21 -8 42 -13
47 -10 6 4 10 2 10 -3 0 -5 6 -9 13 -9 6 -1 39 -11 72 -23 123 -46 371 -132
400 -139 17 -4 42 -14 55 -21 14 -7 25 -12 25 -11 0 1 7 0 15 -3 8 -3 83 -28
165 -57 83 -28 182 -62 220 -75 39 -14 77 -26 85 -28 8 -2 29 -10 45 -17 17
-6 37 -13 46 -15 9 -2 29 -9 45 -15 16 -7 31 -13 34 -14 19 -4 147 -49 155
-54 6 -3 15 -6 20 -6 6 -1 19 -5 30 -9 11 -4 34 -12 50 -18 17 -5 39 -14 50
-18 17 -7 149 -51 165 -55 3 -1 13 -5 22 -9 9 -4 22 -9 30 -10 14 -3 40 -12
73 -26 11 -5 103 -37 205 -71 102 -34 196 -67 210 -72 14 -6 30 -11 35 -12 6
0 24 -7 40 -14 17 -7 37 -14 45 -16 8 -2 107 -36 220 -75 113 -39 246 -85 295
-101 50 -17 99 -34 110 -39 20 -9 278 -98 415 -144 41 -14 113 -39 160 -56 47
-17 90 -32 95 -34 32 -8 78 -23 180 -62 11 -4 26 -9 33 -11 6 -1 18 -5 25 -6
6 -2 20 -7 29 -11 9 -4 22 -9 30 -10 7 -2 20 -6 28 -9 20 -8 143 -51 270 -93
58 -20 114 -39 125 -44 11 -5 63 -23 115 -41 52 -18 104 -36 115 -42 14 -6 17
-6 10 1 -5 6 -73 38 -150 72 -77 34 -164 72 -193 86 -29 13 -54 24 -57 24 -2
0 -36 15 -77 34 -85 39 -151 69 -158 71 -3 0 -27 11 -54 23 -27 12 -50 22 -52
22 -2 0 -32 13 -66 29 -35 15 -85 38 -113 50 -27 13 -63 28 -80 36 -69 30
-133 59 -183 81 -29 13 -54 24 -56 24 -3 0 -39 17 -83 37 -43 20 -82 38 -88
39 -5 1 -40 16 -77 33 -152 70 -199 91 -202 91 -2 0 -30 12 -62 27 -33 15 -61
27 -64 28 -3 1 -21 8 -40 17 -19 9 -71 31 -115 51 -44 19 -105 46 -135 60 -30
13 -109 48 -175 77 -66 29 -133 58 -150 65 -16 8 -70 32 -118 54 -49 23 -90
41 -92 41 -3 0 -28 11 -57 24 -29 13 -127 56 -218 96 -91 40 -190 84 -220 97
-30 14 -73 33 -95 43 -57 24 -171 75 -235 103 -30 14 -109 48 -175 77 -66 29
-153 68 -193 86 -40 19 -74 34 -77 34 -2 0 -28 11 -57 24 -29 13 -74 33 -100
45 -27 11 -69 31 -95 42 -27 12 -72 32 -101 45 -29 13 -54 24 -56 24 -3 0 -37
15 -78 34 -40 19 -127 57 -193 86 -66 29 -148 65 -183 81 -35 16 -65 29 -67
29 -3 0 -34 14 -71 30 -36 17 -159 72 -273 122 -113 49 -210 94 -215 99 -6 5
-16 9 -23 9 -7 0 -41 13 -76 29 -34 16 -78 36 -97 44 -78 34 -132 57 -133 57
-1 -1 -22 -10 -47 -22z"/>
<path d="M7615 10704 c-14 -7 -63 -30 -108 -50 -45 -21 -119 -54 -165 -76 -46
-21 -87 -38 -93 -38 -5 0 -9 -5 -9 -12 0 -6 -3 -9 -6 -6 -3 3 -67 -23 -142
-58 -75 -35 -143 -64 -149 -64 -7 0 -13 -4 -13 -10 0 -5 -4 -10 -10 -10 -5 0
-45 -16 -87 -36 -43 -19 -91 -42 -108 -49 -16 -7 -74 -34 -128 -59 -54 -25
-100 -46 -102 -46 -2 0 -45 -20 -97 -44 -51 -24 -115 -54 -143 -66 -88 -40
-168 -77 -227 -104 -31 -14 -62 -26 -67 -26 -6 0 -11 -4 -11 -10 0 -5 -4 -10
-9 -10 -5 0 -26 -8 -47 -17 -22 -9 -41 -17 -44 -18 -3 -1 -36 -16 -75 -34
-105 -50 -179 -84 -185 -86 -3 0 -25 -11 -50 -22 -132 -62 -226 -105 -230
-105 -3 -1 -30 -14 -61 -29 -31 -16 -59 -29 -61 -29 -3 0 -50 -21 -104 -47
-54 -26 -101 -47 -104 -48 -3 -1 -25 -11 -50 -22 -25 -12 -74 -34 -110 -51
-36 -16 -96 -44 -135 -62 -253 -117 -417 -190 -425 -190 -6 0 -10 -4 -10 -10
0 -5 -5 -10 -11 -10 -16 0 -133 -52 -140 -63 -3 -5 -9 -8 -13 -6 -4 1 -42 -14
-84 -34 -160 -73 -218 -100 -257 -117 -22 -10 -74 -33 -115 -53 -41 -19 -100
-46 -130 -60 -90 -41 -179 -82 -283 -131 -55 -25 -100 -46 -102 -46 -2 0 -45
-20 -97 -44 -51 -24 -115 -53 -143 -66 -27 -12 -72 -32 -100 -45 -27 -13 -77
-35 -110 -50 -33 -15 -91 -42 -130 -60 -38 -18 -88 -40 -110 -50 -48 -21 -54
-30 -49 -64 2 -14 6 -57 9 -96 3 -38 8 -88 10 -110 3 -22 7 -65 10 -95 2 -30
7 -73 9 -95 3 -22 8 -71 11 -110 3 -38 7 -81 10 -95 2 -14 7 -61 11 -105 4
-44 8 -93 10 -110 2 -16 6 -52 9 -80 4 -50 14 -144 20 -200 2 -16 6 -64 10
-105 3 -41 8 -84 9 -95 2 -11 4 -32 5 -48 1 -23 10 -31 64 -56 34 -16 114 -53
177 -84 63 -30 156 -74 205 -97 50 -23 144 -68 210 -100 296 -142 422 -200
432 -201 5 0 15 -6 23 -12 29 -23 57 -35 67 -29 8 6 22 48 36 107 2 6 6 16 10
23 5 6 6 12 3 12 -3 0 4 26 15 58 11 31 19 57 19 57 -3 0 12 60 17 75 3 8 7
20 8 25 2 6 13 46 25 90 12 44 23 87 25 95 2 8 4 17 5 20 1 3 2 8 1 13 0 4 4
7 10 7 5 0 8 4 5 9 -4 5 -1 22 5 38 6 15 12 35 14 44 2 10 18 68 35 130 18 63
33 121 35 129 2 8 4 15 5 15 1 0 3 7 5 15 2 8 22 80 45 160 23 80 44 152 46
160 1 8 17 64 34 124 17 60 32 114 33 120 4 19 28 39 83 67 30 16 75 40 99 54
25 13 45 21 45 17 0 -4 4 -2 8 4 6 11 173 94 312 157 212 95 238 106 244 99 3
-3 6 0 6 6 0 7 7 12 16 12 8 0 40 11 71 26 31 14 69 28 84 31 16 3 29 10 29
16 0 6 3 8 6 4 3 -3 36 6 72 20 202 76 737 229 897 256 17 3 37 8 45 11 8 3
31 7 50 10 19 3 60 10 90 16 30 6 71 13 90 16 19 2 42 6 50 9 8 2 38 7 65 11
28 3 54 8 58 11 5 3 32 6 60 8 47 3 106 10 177 20 45 7 209 22 341 32 132 10
750 10 889 0 155 -11 205 -15 270 -23 30 -4 73 -8 95 -10 75 -6 139 -15 215
-28 14 -3 47 -7 73 -11 26 -3 71 -10 100 -16 29 -5 70 -12 91 -15 22 -3 43 -7
47 -9 4 -3 24 -7 44 -11 21 -3 47 -8 59 -10 11 -3 32 -7 46 -10 14 -3 33 -7
42 -10 10 -3 30 -8 45 -10 77 -14 309 -76 458 -122 28 -8 50 -14 50 -13 0 3
326 -109 430 -149 133 -51 354 -144 435 -183 36 -17 68 -31 73 -29 4 1 7 -3 7
-8 0 -6 5 -10 12 -10 15 0 122 -52 126 -62 2 -4 10 -8 18 -8 8 0 32 -11 54
-25 22 -14 40 -22 40 -19 0 4 8 1 18 -7 14 -13 92 -56 169 -93 19 -10 29 -28
38 -71 2 -6 22 -80 45 -165 23 -85 44 -162 46 -170 11 -49 83 -309 90 -327 l9
-22 60 29 c119 57 210 98 217 99 4 1 28 12 52 26 24 13 46 21 50 18 3 -4 6 -1
6 5 0 7 4 12 10 12 5 0 49 19 97 41 49 23 139 66 202 95 62 30 114 54 116 54
2 0 54 24 117 54 62 29 136 64 163 76 49 22 159 74 323 152 46 21 114 53 150
69 37 17 103 48 147 69 44 21 102 47 128 59 27 12 95 44 152 71 57 27 125 59
152 71 26 12 93 43 148 68 55 26 124 58 153 71 53 24 67 40 34 40 -10 0 -22 4
-27 8 -6 5 -59 28 -120 51 -128 50 -138 54 -187 75 -20 9 -39 16 -43 16 -4 0
-21 6 -38 14 -28 12 -62 26 -77 31 -3 1 -18 7 -35 14 -16 7 -145 58 -285 113
-140 55 -298 118 -350 140 -52 22 -102 41 -110 43 -14 3 -100 38 -177 71 -17
8 -34 14 -38 14 -4 0 -23 7 -43 16 -21 9 -48 21 -62 26 -14 6 -33 14 -42 19
-10 5 -22 9 -28 9 -6 0 -29 9 -53 19 -23 10 -136 56 -252 101 -115 45 -223 88
-240 95 -70 30 -111 47 -125 50 -16 4 -181 69 -215 85 -11 5 -108 43 -215 85
-107 42 -208 82 -225 90 -37 16 -98 40 -105 40 -3 1 -21 8 -41 17 -20 9 -76
31 -125 49 -49 18 -91 36 -94 39 -3 3 -11 6 -19 8 -7 1 -45 16 -85 32 -39 16
-147 59 -241 96 -93 36 -184 73 -202 81 -17 8 -37 16 -45 17 -7 1 -31 10 -53
20 -22 10 -74 30 -115 46 -41 16 -93 36 -115 46 -22 10 -42 18 -45 18 -6 1
-216 84 -245 97 -25 11 -78 30 -85 31 -3 0 -23 9 -45 21 -22 11 -40 19 -40 18
0 -2 -11 2 -25 7 -14 6 -50 20 -80 32 -30 11 -66 26 -80 32 -30 13 12 -4 -422
167 -196 78 -362 141 -368 141 -5 0 -10 5 -10 12 0 6 -3 9 -6 6 -3 -3 -33 5
-67 19 -34 14 -68 25 -74 26 -7 0 -13 4 -13 9 0 4 -6 8 -14 8 -7 0 -35 9 -62
21 -171 72 -172 72 -209 53z"/>
<path d="M1815 8971 c-16 -9 -46 -26 -65 -37 -19 -12 -75 -43 -125 -69 -49
-27 -93 -53 -97 -59 -4 -6 -8 -8 -8 -3 0 4 -17 -3 -37 -16 -34 -21 -126 -73
-318 -177 -33 -18 -73 -41 -90 -50 -16 -10 -57 -32 -90 -50 -33 -18 -76 -42
-95 -53 -38 -21 -120 -67 -185 -102 -154 -84 -250 -140 -253 -147 -2 -4 -11
-8 -21 -8 -9 0 -21 -4 -26 -9 -10 -10 -114 -68 -175 -99 -19 -9 -37 -20 -40
-23 -3 -3 -42 -25 -87 -50 -46 -24 -83 -46 -83 -49 0 -3 35 -19 78 -37 147
-61 587 -244 607 -253 11 -5 47 -20 80 -34 33 -14 109 -46 168 -71 59 -25 110
-45 112 -45 3 0 35 -14 72 -31 38 -17 73 -32 78 -33 6 -1 33 -12 60 -25 28
-12 58 -24 69 -26 10 -3 23 -8 30 -13 6 -4 43 -21 81 -37 39 -15 88 -36 110
-46 138 -60 165 -68 166 -51 2 64 8 269 14 516 6 279 6 289 -12 276 -10 -8
-22 -19 -28 -25 -5 -5 -40 -31 -77 -56 l-68 -46 -85 82 c-47 46 -111 106 -141
135 -36 34 -52 56 -46 62 11 11 305 147 337 155 11 3 27 11 35 18 8 7 26 16
40 20 14 4 53 21 87 37 58 26 63 32 64 61 2 102 0 479 -3 482 -1 1 -16 -5 -33
-14z"/>
<path d="M2110 8920 c0 -5 5 -10 11 -10 5 0 7 5 4 10 -3 6 -8 10 -11 10 -2 0
-4 -4 -4 -10z"/>
<path d="M2109 8829 c-1 -90 -7 -294 -9 -294 -2 0 -12 -286 -14 -372 0 -46 -3
-83 -6 -83 -3 0 -6 -42 -6 -93 -1 -50 -5 -166 -8 -257 -10 -223 -14 -330 -21
-490 -3 -74 -7 -184 -10 -245 -2 -60 -7 -171 -10 -245 -3 -74 -7 -187 -10
-250 -3 -63 -8 -171 -10 -240 -3 -69 -7 -174 -9 -235 -3 -60 -8 -180 -11 -265
-3 -85 -8 -198 -10 -250 -6 -149 -17 -408 -20 -485 -6 -184 144 -307 288 -234
66 34 109 86 122 149 2 8 4 17 5 20 7 18 -6 236 -15 250 -3 5 -1 10 5 10 6 0
9 4 5 9 -7 12 -13 72 -20 206 -8 138 -12 203 -31 500 -4 61 -8 136 -8 167 -1
32 -3 58 -6 58 -3 0 -5 21 -6 48 0 26 -4 99 -9 162 -4 63 -9 142 -10 175 -2
33 -6 97 -9 141 -17 255 -23 339 -30 469 -5 84 -14 220 -21 320 -3 33 -7 103
-10 155 -10 163 -13 222 -20 320 -4 52 -8 122 -10 155 -2 33 -6 96 -9 140 -9
133 -16 246 -21 315 -7 124 -18 285 -19 307 -1 12 -5 25 -9 29 -4 4 -7 -26 -8
-67z"/>
<path d="M14756 8383 c-4 -5 -11 -8 -14 -9 -10 -1 -47 -17 -127 -55 -38 -18
-72 -34 -75 -34 -3 0 -36 -16 -75 -35 -38 -18 -73 -34 -77 -34 -3 -1 -10 -4
-14 -8 -4 -5 -16 -8 -26 -8 -10 0 -18 -4 -18 -10 0 -5 -4 -10 -9 -10 -9 0 -53
-19 -219 -96 -41 -19 -75 -34 -77 -34 -2 0 -55 -25 -120 -55 -64 -30 -118 -55
-121 -55 -2 0 -37 -15 -76 -34 -223 -105 -289 -136 -293 -136 -2 0 -39 -16
-82 -36 -43 -20 -103 -48 -133 -62 -30 -14 -57 -26 -60 -27 -13 -5 -92 -41
-178 -81 -51 -24 -95 -44 -97 -44 -2 0 -46 -20 -97 -44 -51 -24 -115 -54 -143
-66 -27 -12 -78 -36 -112 -51 -153 -70 -200 -92 -233 -106 -19 -8 -42 -19 -50
-24 -8 -5 -22 -12 -30 -15 -18 -7 -285 -128 -360 -163 -30 -14 -57 -26 -60
-27 -3 0 -23 -9 -45 -19 -22 -10 -43 -18 -47 -17 -5 1 -8 -2 -8 -8 0 -5 -4
-10 -9 -10 -5 0 -35 -12 -67 -27 -33 -15 -61 -28 -64 -28 -3 -1 -27 -12 -55
-24 -27 -13 -79 -37 -114 -53 -51 -23 -62 -31 -56 -46 4 -9 16 -51 27 -92 10
-41 22 -78 24 -82 3 -5 7 -18 10 -31 7 -39 13 -60 40 -147 14 -47 26 -91 27
-97 0 -7 2 -13 3 -13 3 0 139 59 219 95 28 12 111 48 185 80 74 31 155 66 180
78 67 30 181 79 190 82 3 1 31 13 64 28 32 15 60 27 62 27 2 0 27 11 56 24
107 48 183 81 188 82 3 0 26 10 53 22 26 12 51 22 55 23 4 0 18 7 32 15 20 11
65 31 90 39 3 1 28 12 55 24 51 23 96 43 105 46 12 4 60 25 122 54 36 17 70
31 74 31 4 0 37 14 73 31 36 17 71 32 76 34 6 1 45 18 88 38 42 21 84 37 92
37 8 0 15 5 15 10 0 6 7 10 16 10 9 0 50 16 91 35 41 19 77 35 79 35 2 0 23 9
47 19 23 11 73 33 110 50 38 17 70 31 72 31 4 0 36 14 140 60 23 10 37 16 300
130 105 45 208 90 230 100 87 40 156 70 159 70 2 0 25 10 52 22 27 12 51 23
54 23 9 3 60 25 113 49 29 13 112 49 186 81 74 31 142 61 150 65 29 14 226 98
241 103 9 2 0 10 -24 21 -21 9 -42 13 -47 10 -5 -3 -9 -1 -9 4 0 5 -6 9 -12 9
-7 1 -94 29 -193 63 -99 34 -187 64 -195 66 -8 2 -80 26 -160 53 -160 56 -154
54 -164 44z"/>
<path d="M7287 8344 c-3 -3 -64 -8 -267 -19 -36 -2 -65 -5 -65 -5 0 -1 -11 -3
-25 -4 -132 -14 -235 -26 -270 -32 -14 -3 -43 -7 -65 -9 -22 -2 -51 -6 -65 -9
-14 -2 -71 -12 -127 -21 -116 -19 -138 -23 -138 -25 0 -1 -13 -3 -30 -5 -16
-2 -41 -7 -55 -11 -14 -3 -36 -8 -50 -10 -14 -3 -83 -19 -155 -35 -71 -17
-137 -32 -145 -34 -8 -2 -15 -4 -15 -5 0 -1 -11 -3 -24 -6 -13 -2 -72 -18
-130 -35 -58 -17 -113 -32 -121 -34 -51 -10 -528 -176 -615 -214 -29 -12 -69
-28 -77 -30 -15 -4 -208 -90 -267 -119 -24 -12 -35 -25 -37 -43 -1 -14 -8 -45
-15 -70 -6 -24 -13 -55 -14 -69 -2 -14 -4 -25 -5 -25 -1 0 -3 -9 -5 -20 -5
-22 -22 -107 -31 -145 -3 -14 -18 -88 -35 -165 -16 -77 -37 -169 -45 -205 -8
-36 -17 -76 -20 -90 -4 -25 -27 -130 -29 -140 -4 -16 -26 -120 -30 -141 -3
-13 -7 -35 -11 -49 -3 -14 -14 -65 -25 -115 -10 -49 -21 -101 -25 -115 -10
-49 -35 -165 -40 -190 -3 -14 -11 -53 -19 -88 -22 -95 -28 -125 -29 -149 -1
-13 -4 -23 -7 -23 -3 0 -6 -6 -6 -12 -1 -16 -5 -35 -33 -163 -12 -55 -24 -109
-26 -120 -2 -11 -6 -31 -9 -45 -4 -14 -8 -36 -11 -49 -3 -12 -11 -51 -19 -85
-8 -33 -16 -74 -19 -91 -3 -16 -8 -43 -11 -60 -3 -16 -8 -38 -11 -47 -7 -24
-19 -80 -28 -130 -2 -13 -9 -42 -15 -66 -7 -23 -9 -47 -6 -52 3 -6 2 -10 -3
-10 -5 0 -9 -6 -9 -12 0 -7 -7 -47 -16 -88 -10 -41 -20 -86 -22 -100 -3 -14
-10 -45 -16 -70 -5 -25 -11 -56 -14 -70 -2 -14 -8 -40 -14 -58 -5 -18 -10 -36
-10 -40 -1 -7 -11 -63 -17 -92 -1 -8 -10 -49 -20 -90 -9 -41 -18 -86 -20 -100
-2 -14 -12 -62 -23 -107 -10 -46 -17 -83 -14 -83 3 0 0 -7 -7 -15 -19 -22 12
-30 42 -11 14 9 28 13 31 9 4 -3 7 -1 7 5 0 7 5 12 11 12 5 0 36 12 67 26 98
45 284 124 367 156 44 17 86 35 93 41 6 5 12 6 12 3 0 -4 9 -2 20 4 30 16 408
150 435 154 6 1 15 4 20 7 6 3 35 13 65 22 30 9 85 26 121 37 36 11 74 22 85
25 10 2 53 14 94 25 92 27 296 80 330 86 14 3 41 9 60 14 19 5 51 12 70 15 19
3 43 8 52 11 9 3 26 7 37 9 12 3 31 7 44 10 12 3 47 9 77 15 30 6 66 12 80 15
14 3 41 8 60 11 19 3 42 7 50 9 8 3 33 7 55 10 22 3 56 8 75 11 100 17 141 23
195 29 28 3 66 8 85 11 37 7 59 9 155 18 33 3 78 8 100 11 22 3 69 8 105 11
36 3 83 7 105 9 253 21 936 28 1195 11 74 -4 158 -10 185 -11 28 -2 75 -6 105
-9 30 -3 80 -8 110 -11 61 -5 115 -11 175 -19 22 -3 60 -8 85 -11 68 -8 192
-26 220 -31 51 -9 96 -16 115 -19 33 -4 143 -24 250 -45 28 -6 61 -12 75 -15
53 -10 89 -18 205 -45 66 -16 131 -31 145 -34 14 -3 59 -15 100 -26 41 -11 86
-23 100 -26 14 -3 57 -14 95 -26 39 -11 75 -21 80 -23 6 -1 17 -4 25 -7 8 -3
49 -16 90 -28 93 -28 309 -100 415 -138 104 -38 282 -106 320 -123 17 -7 32
-13 35 -14 13 -4 50 -20 98 -41 29 -13 55 -24 57 -24 3 0 35 -14 72 -31 98
-44 122 -55 182 -84 l54 -27 -8 39 c-5 21 -8 46 -9 56 0 9 -4 17 -8 17 -4 0
-5 9 -3 20 2 11 -1 20 -6 20 -6 0 -8 4 -5 8 3 5 -2 35 -11 68 -8 32 -17 68
-18 79 -5 31 -15 77 -25 115 -5 19 -11 46 -14 60 -3 14 -10 45 -16 70 -6 25
-13 59 -16 75 -3 17 -7 36 -10 44 -3 8 -14 55 -25 105 -11 50 -23 100 -25 111
-3 11 -7 31 -10 45 -3 14 -11 52 -19 85 -15 62 -43 185 -50 220 -2 11 -11 52
-20 90 -9 39 -17 78 -18 88 -1 9 -4 17 -8 17 -3 0 -6 8 -6 18 1 9 -7 51 -17
92 -10 41 -20 86 -22 100 -3 14 -9 41 -14 60 -5 19 -12 50 -15 69 -3 19 -8 38
-11 42 -3 5 -7 24 -9 42 -3 19 -12 61 -20 93 -9 32 -18 70 -20 84 -3 14 -9 42
-14 63 -5 20 -7 37 -5 37 3 0 0 9 -7 21 -10 19 -20 70 -22 112 -1 9 -4 17 -7
17 -3 0 -6 10 -7 21 -1 12 -9 51 -18 87 -9 36 -18 74 -20 84 -2 10 -23 100
-46 200 -23 101 -45 201 -50 223 -5 22 -11 51 -14 65 -3 14 -8 36 -11 50 -3
14 -7 33 -10 42 -3 10 -7 30 -10 45 -3 16 -12 54 -20 86 -8 32 -19 77 -23 100
-11 53 -41 185 -48 212 -3 11 -7 31 -9 45 -7 51 -41 171 -51 181 -6 6 -58 31
-115 55 -56 24 -112 48 -123 53 -74 33 -94 41 -98 41 -2 0 -22 7 -43 16 -22 9
-39 16 -39 15 0 -1 -18 6 -40 15 -44 18 -178 68 -240 89 -128 42 -384 122
-420 131 -5 1 -102 25 -215 52 -113 28 -223 54 -245 58 -48 10 -43 9 -80 17
-35 7 -101 19 -130 22 -11 1 -31 5 -45 8 -14 4 -43 9 -65 12 -46 6 -143 21
-200 30 -22 4 -53 8 -70 10 -16 1 -57 6 -90 9 -33 4 -80 9 -105 11 -25 3 -74
8 -110 10 -36 3 -92 8 -125 11 -68 6 -812 13 -818 8z"/>
</g>
</svg>
